G04 Layer_Color=15132400*
%FSLAX25Y25*%
%MOIN*%
G70*
G01*
G75*
%ADD22C,0.00787*%
%ADD23C,0.01000*%
%ADD43C,0.00984*%
%ADD44C,0.00394*%
D22*
X249781Y346198D02*
X252008Y343971D01*
X249781Y346198D02*
X252008Y348425D01*
X258133Y354550D02*
X260360Y352323D01*
X255906Y352323D02*
X258133Y354550D01*
X241339Y306299D02*
X244488D01*
X241339D02*
Y309449D01*
Y318110D02*
X244488D01*
X241339Y314961D02*
Y318110D01*
X265613Y267497D02*
X267840Y269725D01*
X263386D02*
X265613Y267497D01*
X257261Y275849D02*
X259488Y278076D01*
X257261Y275849D02*
X259488Y273622D01*
X300905Y261811D02*
Y264961D01*
X297756Y261811D02*
X300905D01*
X289094D02*
Y264961D01*
Y261811D02*
X292244D01*
X331850Y282801D02*
X334077Y280574D01*
X331850Y278346D02*
X334077Y280574D01*
X323499Y274449D02*
X325726Y272222D01*
X327953Y274449D01*
X346457Y325590D02*
X349606D01*
Y322441D02*
Y325590D01*
X346457Y313779D02*
X349606D01*
Y316929D01*
X329010Y357835D02*
X331238Y360062D01*
X333465Y357835D01*
X337362Y349483D02*
X339589Y351710D01*
X337362Y353937D02*
X339589Y351710D01*
X288189Y364961D02*
Y368110D01*
X291339D01*
X300000Y364961D02*
Y368110D01*
X296850D02*
X300000D01*
X305118Y306968D02*
X336614D01*
X305118Y296969D02*
Y306968D01*
Y296969D02*
X336614D01*
Y306968D01*
D23*
X358268Y314961D02*
G03*
X358268Y314961I-62992J0D01*
G01*
X299213D02*
G03*
X299213Y314961I-3937J0D01*
G01*
X257417Y362157D02*
X257770Y361803D01*
X257417Y361450D02*
X257770Y361803D01*
X249992Y369581D02*
X257417Y362157D01*
X234789Y354379D02*
X249992Y369581D01*
X234789Y354379D02*
X242568Y346601D01*
X257417Y361450D01*
X235709Y322705D02*
X236209D01*
Y322205D02*
Y322705D01*
X225209D02*
X235709D01*
X225209Y301205D02*
Y322705D01*
Y301205D02*
X236209D01*
Y322205D01*
X250442Y275133D02*
X250795Y275487D01*
X251149Y275133D01*
X243017Y267709D02*
X250442Y275133D01*
X243017Y267709D02*
X258220Y252506D01*
X265998Y260284D01*
X251149Y275133D02*
X265998Y260284D01*
X284500Y255787D02*
Y256287D01*
X285000D01*
X284500Y245287D02*
Y255787D01*
Y245287D02*
X306000D01*
Y256287D01*
X285000D02*
X306000D01*
X326875Y264575D02*
X327229Y264221D01*
X326875Y264575D02*
X327229Y264928D01*
X327229Y264221D02*
X334653Y256797D01*
X349856Y271999D01*
X342078Y279778D02*
X349856Y271999D01*
X327229Y264928D02*
X342078Y279778D01*
X354343Y309185D02*
X354842D01*
X354343D02*
Y309685D01*
X354842Y309185D02*
X365342D01*
Y330685D01*
X354343D02*
X365342D01*
X354343Y309685D02*
Y330685D01*
X343693Y349710D02*
X344047Y350063D01*
X343339Y350063D02*
X343693Y349710D01*
X344047Y350063D02*
X351471Y357488D01*
X336268Y372691D02*
X351471Y357488D01*
X328490Y364913D02*
X336268Y372691D01*
X328490Y364913D02*
X343339Y350063D01*
X304201Y373240D02*
Y373740D01*
X303701Y373240D02*
X304201D01*
Y373740D02*
Y384240D01*
X282701D02*
X304201D01*
X282701Y373240D02*
Y384240D01*
Y373240D02*
X303701D01*
X262480Y336090D02*
X262980D01*
Y335591D02*
Y336090D01*
X251980D02*
X262480D01*
X251980Y314591D02*
Y336090D01*
Y314591D02*
X262980D01*
Y335591D01*
X232037Y362275D02*
X230624Y362289D01*
X229195Y360891D01*
X229180Y359477D01*
X229880Y358763D01*
X231293Y358748D01*
X232722Y360146D01*
X234136Y360132D01*
X234835Y359417D01*
X234820Y358004D01*
X233391Y356605D01*
X231978Y356620D01*
X236963Y360102D02*
X232766Y364388D01*
X235594Y364358D01*
X235624Y367185D01*
X239820Y362899D01*
X241248Y364298D02*
X238451Y367155D01*
X238481Y369983D01*
X241308Y369953D01*
X244106Y367096D01*
X242007Y369239D01*
X239150Y366441D01*
X241338Y372780D02*
X244195Y375578D01*
X244894Y374864D01*
X244835Y369209D01*
X245534Y368495D01*
X217896Y305647D02*
X216882Y304662D01*
X216852Y302663D01*
X217837Y301649D01*
X218836Y301634D01*
X219851Y302619D01*
X219880Y304618D01*
X220895Y305603D01*
X221894Y305588D01*
X222879Y304573D01*
X222849Y302574D01*
X221835Y301590D01*
X222923Y307572D02*
X216926Y307661D01*
X218955Y309631D01*
X216985Y311659D01*
X222983Y311571D01*
X223012Y313570D02*
X219014Y313629D01*
X217045Y315658D01*
X219074Y317627D01*
X223072Y317568D01*
X220073Y317612D01*
X220014Y313614D01*
X217163Y323654D02*
X218133Y321640D01*
X220103Y319612D01*
X222102Y319582D01*
X223116Y320567D01*
X223146Y322566D01*
X222161Y323580D01*
X221162Y323595D01*
X220147Y322610D01*
X220103Y319612D01*
X250333Y250457D02*
X250337Y249043D01*
X251755Y247633D01*
X253168Y247637D01*
X253873Y248346D01*
X253869Y249760D01*
X252452Y251169D01*
X252448Y252583D01*
X253153Y253292D01*
X254566Y253296D01*
X255984Y251886D01*
X255988Y250472D01*
X252440Y255411D02*
X248210Y251158D01*
X248203Y253985D01*
X245375Y253977D01*
X249605Y258230D01*
X248187Y259640D02*
X245367Y256805D01*
X242540Y256797D01*
X242532Y259625D01*
X245352Y262460D01*
X243237Y260333D01*
X246072Y257514D01*
X236869Y262436D02*
X239704Y259617D01*
X241819Y261743D01*
X239697Y262444D01*
X238988Y263149D01*
X238984Y264563D01*
X240394Y265981D01*
X241808Y265985D01*
X243225Y264575D01*
X243229Y263161D01*
X301631Y238702D02*
X302631Y237703D01*
X304630D01*
X305630Y238702D01*
Y239702D01*
X304630Y240702D01*
X302631D01*
X301631Y241701D01*
Y242701D01*
X302631Y243701D01*
X304630D01*
X305630Y242701D01*
X299632Y243701D02*
Y237703D01*
X297633Y239702D01*
X295633Y237703D01*
Y243701D01*
X293634D02*
Y239702D01*
X291634Y237703D01*
X289635Y239702D01*
Y243701D01*
Y240702D01*
X293634D01*
X284637Y243701D02*
Y237703D01*
X287636Y240702D01*
X283637D01*
X352060Y264132D02*
X353473Y264170D01*
X354848Y265622D01*
X354810Y267035D01*
X354084Y267722D01*
X352671Y267684D01*
X351296Y266233D01*
X349882Y266195D01*
X349157Y266882D01*
X349118Y268295D01*
X350494Y269747D01*
X351907Y269785D01*
X347056Y266118D02*
X351410Y261993D01*
X348584Y261917D01*
X348660Y259090D01*
X344306Y263215D01*
X342931Y261764D02*
X345834Y259014D01*
X345910Y256187D01*
X343084Y256111D01*
X340181Y258861D01*
X342358Y256798D01*
X345108Y259701D01*
X342434Y253972D02*
X342473Y252559D01*
X341097Y251107D01*
X339684Y251069D01*
X338959Y251757D01*
X338920Y253170D01*
X339608Y253895D01*
X338920Y253170D01*
X337507Y253132D01*
X336781Y253819D01*
X336743Y255232D01*
X338118Y256684D01*
X339531Y256722D01*
X371927Y327497D02*
X372927Y328497D01*
Y330496D01*
X371927Y331496D01*
X370928D01*
X369928Y330496D01*
Y328497D01*
X368929Y327497D01*
X367929D01*
X366929Y328497D01*
Y330496D01*
X367929Y331496D01*
X366929Y325498D02*
X372927D01*
X370928Y323499D01*
X372927Y321499D01*
X366929D01*
Y319500D02*
X370928D01*
X372927Y317501D01*
X370928Y315501D01*
X366929D01*
X369928D01*
Y319500D01*
X366929Y309503D02*
Y313502D01*
X370928Y309503D01*
X371927D01*
X372927Y310503D01*
Y312502D01*
X371927Y313502D01*
X345326Y374039D02*
X345303Y375453D01*
X343866Y376843D01*
X342452Y376820D01*
X341757Y376102D01*
X341780Y374688D01*
X343217Y373298D01*
X343240Y371884D01*
X342545Y371166D01*
X341131Y371143D01*
X339695Y372533D01*
X339672Y373947D01*
X343287Y369057D02*
X347458Y373367D01*
X347504Y370540D01*
X350331Y370587D01*
X346160Y366276D01*
X347597Y364886D02*
X350378Y367759D01*
X353205Y367806D01*
X353251Y364979D01*
X350470Y362105D01*
X352556Y364260D01*
X349682Y367041D01*
X351907Y360715D02*
X353344Y359324D01*
X352625Y360020D01*
X356797Y364330D01*
X355383Y364307D01*
X269685Y343701D02*
X265557Y348052D01*
X267733Y350116D01*
X269146Y350079D01*
X270522Y348629D01*
X270485Y347215D01*
X268309Y345151D01*
X269759Y346527D02*
X272586Y346453D01*
X276937Y350581D02*
X274036Y347829D01*
X274185Y353482D01*
X273497Y354207D01*
X272084Y354244D01*
X270633Y352868D01*
X270596Y351455D01*
X277161Y359061D02*
X274260Y356309D01*
X276324Y354133D01*
X277086Y356234D01*
X277811Y356922D01*
X279225Y356885D01*
X280601Y355435D01*
X280563Y354021D01*
X279113Y352645D01*
X277700Y352682D01*
X275590Y337402D02*
X271462Y341753D01*
X273638Y343817D01*
X275051Y343780D01*
X276427Y342329D01*
X276390Y340916D01*
X274215Y338852D01*
X275665Y340228D02*
X278491Y340154D01*
X282843Y344282D02*
X279942Y341530D01*
X280091Y347183D01*
X279403Y347908D01*
X277989Y347945D01*
X276539Y346569D01*
X276502Y345156D01*
X286469Y347722D02*
X282341Y352074D01*
X282229Y347834D01*
X285130Y350586D01*
X258268Y318504D02*
X252270D01*
Y321503D01*
X253269Y322503D01*
X255269D01*
X256268Y321503D01*
Y318504D01*
Y320503D02*
X258268Y322503D01*
Y328501D02*
Y324502D01*
X254269Y328501D01*
X253269D01*
X252270Y327501D01*
Y325502D01*
X253269Y324502D01*
Y330500D02*
X252270Y331500D01*
Y333499D01*
X253269Y334499D01*
X254269D01*
X255269Y333499D01*
Y332499D01*
Y333499D01*
X256268Y334499D01*
X257268D01*
X258268Y333499D01*
Y331500D01*
X257268Y330500D01*
X266929Y318504D02*
X260931D01*
Y321503D01*
X261931Y322503D01*
X263930D01*
X264930Y321503D01*
Y318504D01*
Y320503D02*
X266929Y322503D01*
Y328501D02*
Y324502D01*
X262930Y328501D01*
X261931D01*
X260931Y327501D01*
Y325502D01*
X261931Y324502D01*
X266929Y334499D02*
Y330500D01*
X262930Y334499D01*
X261931D01*
X260931Y333499D01*
Y331500D01*
X261931Y330500D01*
X267717Y287795D02*
X263398Y283632D01*
X261317Y285791D01*
X261343Y287205D01*
X262782Y288593D01*
X264196Y288567D01*
X266277Y286408D01*
X264890Y287847D02*
X264941Y290674D01*
X260778Y294992D02*
X263554Y292113D01*
X257899Y292217D01*
X257180Y291523D01*
X257154Y290109D01*
X258542Y288670D01*
X259955Y288644D01*
X259390Y296431D02*
X258003Y297871D01*
X258697Y297151D01*
X254379Y292988D01*
X255792Y292962D01*
X274409Y293701D02*
X270166Y289462D01*
X268046Y291583D01*
X268047Y292997D01*
X269462Y294410D01*
X270875Y294409D01*
X272995Y292288D01*
X271582Y293702D02*
X271583Y296530D01*
X267344Y300773D02*
X270170Y297944D01*
X264515Y297947D01*
X263808Y297241D01*
X263807Y295827D01*
X265220Y294412D01*
X266634Y294412D01*
X262395Y298655D02*
X260981Y298656D01*
X259568Y300070D01*
X259569Y301484D01*
X262398Y304310D01*
X263812Y304309D01*
X265225Y302895D01*
X265224Y301481D01*
X262395Y298655D01*
X288701Y278346D02*
Y272348D01*
X285702D01*
X284702Y273348D01*
Y275347D01*
X285702Y276347D01*
X288701D01*
X286701D02*
X284702Y278346D01*
X282703D02*
X280703D01*
X281703D01*
Y272348D01*
X282703Y273348D01*
X277704Y277347D02*
X276705Y278346D01*
X274705D01*
X273706Y277347D01*
Y273348D01*
X274705Y272348D01*
X276705D01*
X277704Y273348D01*
Y274348D01*
X276705Y275347D01*
X273706D01*
X288701Y287795D02*
Y281797D01*
X285702D01*
X284702Y282797D01*
Y284796D01*
X285702Y285796D01*
X288701D01*
X286701D02*
X284702Y287795D01*
X282703D02*
X280703D01*
X281703D01*
Y281797D01*
X282703Y282797D01*
X277704D02*
X276705Y281797D01*
X274705D01*
X273706Y282797D01*
Y283797D01*
X274705Y284796D01*
X273706Y285796D01*
Y286796D01*
X274705Y287795D01*
X276705D01*
X277704Y286796D01*
Y285796D01*
X276705Y284796D01*
X277704Y283797D01*
Y282797D01*
X276705Y284796D02*
X274705D01*
X314173Y284646D02*
X318343Y280334D01*
X316187Y278249D01*
X314774Y278273D01*
X313384Y279710D01*
X313407Y281124D01*
X315563Y283208D01*
X314126Y281819D02*
X311299Y281866D01*
X309862Y280476D02*
X308424Y279086D01*
X309143Y279781D01*
X313313Y275469D01*
X313337Y276883D01*
X310439Y272689D02*
X307564Y269910D01*
X306869Y270628D01*
X306964Y276282D01*
X306269Y277001D01*
X308268Y290945D02*
X312393Y286591D01*
X310216Y284528D01*
X308802Y284566D01*
X307427Y286018D01*
X307466Y287431D01*
X309643Y289493D01*
X308191Y288118D02*
X305365Y288195D01*
X303913Y286820D02*
X302462Y285445D01*
X303188Y286132D01*
X307313Y281778D01*
X307351Y283191D01*
X301507Y276278D02*
X302271Y278379D01*
X302347Y281205D01*
X300972Y282656D01*
X299559Y282695D01*
X298108Y281320D01*
X298070Y279906D01*
X298757Y279181D01*
X300170Y279142D01*
X302347Y281205D01*
X333465Y313779D02*
X339462Y313824D01*
X339485Y310825D01*
X338493Y309818D01*
X336493Y309803D01*
X335486Y310795D01*
X335464Y313794D01*
X335479Y311795D02*
X333494Y309781D01*
X333509Y307782D02*
X333524Y305782D01*
X333517Y306782D01*
X339515Y306827D01*
X338508Y307819D01*
X339575Y298830D02*
X339545Y302828D01*
X336546Y302806D01*
X337560Y300814D01*
X337568Y299814D01*
X336576Y298807D01*
X334576Y298792D01*
X333569Y299784D01*
X333554Y301784D01*
X334546Y302791D01*
X324803Y314173D02*
X330801D01*
Y311174D01*
X329802Y310174D01*
X327802D01*
X326802Y311174D01*
Y314173D01*
Y312174D02*
X324803Y310174D01*
Y308175D02*
Y306176D01*
Y307175D01*
X330801D01*
X329802Y308175D01*
X324803Y300178D02*
X330801D01*
X327802Y303177D01*
Y299178D01*
X331496Y341732D02*
X335737Y345973D01*
X337858Y343853D01*
Y342439D01*
X336444Y341025D01*
X335031D01*
X332910Y343146D01*
X334324Y341732D02*
Y338905D01*
X335737Y337491D02*
X337151Y336077D01*
X336444Y336784D01*
X340686Y341025D01*
X339272D01*
X342806Y337491D02*
X344220D01*
X345634Y336077D01*
Y334664D01*
X344927Y333957D01*
X343513D01*
X342806Y334664D01*
X343513Y333957D01*
Y332543D01*
X342806Y331836D01*
X341392D01*
X339979Y333250D01*
Y334664D01*
X326378Y337008D02*
X330619Y341249D01*
X332740Y339128D01*
Y337715D01*
X331326Y336301D01*
X329912D01*
X327792Y338422D01*
X329205Y337008D02*
Y334180D01*
X330619Y332767D02*
X332033Y331353D01*
X331326Y332060D01*
X335567Y336301D01*
X334154Y336301D01*
X336981Y326405D02*
X334154Y329232D01*
X339809D01*
X340515Y329939D01*
Y331353D01*
X339102Y332767D01*
X337688Y332767D01*
X349597Y344336D02*
X352425Y347164D01*
Y348577D01*
X351011Y349991D01*
X349597D01*
X346770Y347164D01*
Y345750D01*
X348184Y344336D01*
X348890Y346457D02*
Y343629D01*
X348184Y344336D02*
X349597D01*
X350304Y342215D02*
X351718Y340802D01*
X351011Y341509D01*
X355252Y345750D01*
X353839D01*
X351000Y303088D02*
X354998D01*
X355998Y304088D01*
Y306087D01*
X354998Y307087D01*
X351000D01*
X350000Y306087D01*
Y304088D01*
X351999Y305087D02*
X350000Y303088D01*
Y304088D02*
X351000Y303088D01*
X350000Y297090D02*
Y301089D01*
X353999Y297090D01*
X354998D01*
X355998Y298090D01*
Y300089D01*
X354998Y301089D01*
X319889Y266842D02*
X322334Y263679D01*
X323737Y263499D01*
X325318Y264722D01*
X325498Y266124D01*
X323052Y269288D01*
X321650Y269467D01*
X320068Y268245D01*
X322082Y267274D02*
X319277Y267633D01*
X320068Y268245D02*
X319889Y266842D01*
X320752Y262456D02*
X320573Y261053D01*
X318991Y259831D01*
X317589Y260010D01*
X316977Y260801D01*
X317157Y262203D01*
X317948Y262815D01*
X317157Y262203D01*
X315755Y262383D01*
X315143Y263174D01*
X315323Y264576D01*
X316904Y265799D01*
X318307Y265619D01*
X277976Y259776D02*
X277830Y255780D01*
X278793Y254745D01*
X280791Y254672D01*
X281826Y255635D01*
X281972Y259631D01*
X281009Y260666D01*
X279011Y260739D01*
X279937Y258705D02*
X278012Y260775D01*
X279011Y260739D02*
X277976Y259776D01*
X273017Y260957D02*
X272799Y254963D01*
X275905Y257851D01*
X271909Y257996D01*
X250876Y281776D02*
X247947Y279053D01*
X247896Y277641D01*
X249257Y276176D01*
X250670Y276125D01*
X253598Y278847D01*
X253650Y280260D01*
X252289Y281724D01*
X251505Y279631D02*
X251608Y282456D01*
X252289Y281724D02*
X250876Y281776D01*
X243131Y282766D02*
X245854Y279837D01*
X248050Y281879D01*
X245957Y282663D01*
X245276Y283395D01*
X245328Y284808D01*
X246793Y286169D01*
X248205Y286118D01*
X249567Y284653D01*
X249515Y283240D01*
X241209Y328428D02*
X237211Y328511D01*
X236191Y327532D01*
X236150Y325533D01*
X237129Y324513D01*
X241126Y324430D01*
X242147Y325409D01*
X242188Y327408D01*
X240168Y326450D02*
X242209Y328407D01*
X242188Y327408D02*
X241209Y328428D01*
X236336Y334528D02*
X237294Y332509D01*
X239252Y330468D01*
X241251Y330427D01*
X242271Y331406D01*
X242312Y333405D01*
X241334Y334425D01*
X240334Y334446D01*
X239314Y333467D01*
X239252Y330468D01*
X264770Y361100D02*
X262337Y364274D01*
X260935Y364459D01*
X259349Y363242D01*
X259163Y361841D01*
X261596Y358667D01*
X262998Y358482D01*
X264585Y359699D01*
X262575Y360677D02*
X265378Y360307D01*
X264585Y359699D02*
X264770Y361100D01*
X263315Y366283D02*
X266489Y368717D01*
X267097Y367923D01*
X266357Y362317D01*
X266965Y361523D01*
X287070Y390825D02*
X286070Y391825D01*
X284070D01*
X283071Y390825D01*
Y389826D01*
X284070Y388826D01*
X286070D01*
X287070Y387826D01*
Y386826D01*
X286070Y385827D01*
X284070D01*
X283071Y386826D01*
X289069Y385827D02*
Y391825D01*
X291068Y389826D01*
X293068Y391825D01*
Y385827D01*
X295067D02*
Y389826D01*
X297066Y391825D01*
X299066Y389826D01*
Y385827D01*
Y388826D01*
X295067D01*
X301065Y390825D02*
X302065Y391825D01*
X304064D01*
X305064Y390825D01*
Y386826D01*
X304064Y385827D01*
X302065D01*
X301065Y386826D01*
Y390825D01*
X299311Y351575D02*
Y357573D01*
X302310D01*
X303310Y356573D01*
Y354574D01*
X302310Y353574D01*
X299311D01*
X301310D02*
X303310Y351575D01*
X305309D02*
X307308D01*
X306309D01*
Y357573D01*
X305309Y356573D01*
X310308Y351575D02*
X312307D01*
X311307D01*
Y357573D01*
X310308Y356573D01*
X298917Y343701D02*
Y349699D01*
X301916D01*
X302916Y348699D01*
Y346700D01*
X301916Y345700D01*
X298917D01*
X300917D02*
X302916Y343701D01*
X304915D02*
X306915D01*
X305915D01*
Y349699D01*
X304915Y348699D01*
X309914D02*
X310913Y349699D01*
X312913D01*
X313913Y348699D01*
Y344701D01*
X312913Y343701D01*
X310913D01*
X309914Y344701D01*
Y348699D01*
X276694Y348024D02*
X280692Y344026D01*
X276694D02*
X280692Y348024D01*
X276694Y346025D02*
X280692D01*
X278693Y344026D02*
Y348024D01*
X305967Y365173D02*
Y369172D01*
X304967Y370171D01*
X302968D01*
X301969Y369172D01*
Y365173D01*
X302968Y364173D01*
X304967D01*
X303968Y366173D02*
X305967Y364173D01*
X304967D02*
X305967Y365173D01*
X307967Y369172D02*
X308966Y370171D01*
X310966D01*
X311965Y369172D01*
Y365173D01*
X310966Y364173D01*
X308966D01*
X307967Y365173D01*
Y369172D01*
X256453Y345611D02*
X254454D01*
X255453D01*
Y340612D01*
X254454Y339613D01*
X253454D01*
X252454Y340612D01*
X262451Y339613D02*
X258452D01*
X262451Y343611D01*
Y344611D01*
X261451Y345611D01*
X259452D01*
X258452Y344611D01*
X309094Y316911D02*
X307095D01*
X308094D01*
Y311913D01*
X307095Y310913D01*
X306095D01*
X305095Y311913D01*
X311093Y310913D02*
X313093D01*
X312093D01*
Y316911D01*
X311093Y315912D01*
D43*
X254170Y340630D02*
G03*
X254170Y340630I-492J0D01*
G01*
X248524Y305118D02*
G03*
X248524Y305118I-492J0D01*
G01*
X271673Y271395D02*
G03*
X271673Y271395I-492J0D01*
G01*
X302579Y268504D02*
G03*
X302579Y268504I-492J0D01*
G01*
X330672Y286141D02*
G03*
X330672Y286141I-492J0D01*
G01*
X343406Y326772D02*
G03*
X343406Y326772I-492J0D01*
G01*
X326162Y356164D02*
G03*
X326162Y356164I-492J0D01*
G01*
X287500Y361417D02*
G03*
X287500Y361417I-492J0D01*
G01*
D44*
X276445Y340189D02*
X317445D01*
X276445Y311189D02*
Y340189D01*
Y311189D02*
X317445D01*
Y340189D01*
M02*
