G04 Layer_Color=16770453*
%FSLAX25Y25*%
%MOIN*%
G70*
G01*
G75*
%ADD21R,0.02677X0.02520*%
%ADD35R,0.11811X0.08268*%
%ADD36R,0.07087X0.02362*%
%ADD37R,0.08268X0.11811*%
%ADD38R,0.02362X0.07087*%
%ADD39R,0.01181X0.02067*%
%ADD40R,0.01673X0.01181*%
%ADD41R,0.02362X0.02559*%
%ADD42R,0.02520X0.02677*%
D21*
X296890Y341831D02*
D03*
X300354D02*
D03*
X303701Y317323D02*
D03*
X300236D02*
D03*
D35*
X332283Y335236D02*
D03*
Y310236D02*
D03*
D36*
X320472Y320276D02*
D03*
Y325197D02*
D03*
D37*
X307677Y277953D02*
D03*
X282677D02*
D03*
D38*
X292717Y289764D02*
D03*
X297638D02*
D03*
D39*
X303740Y336073D02*
D03*
X301772D02*
D03*
X299803D02*
D03*
X297835D02*
D03*
X295866D02*
D03*
X293898D02*
D03*
X291929D02*
D03*
X289961D02*
D03*
X287992D02*
D03*
X286024D02*
D03*
Y323770D02*
D03*
X287992D02*
D03*
X289961D02*
D03*
X291929D02*
D03*
X293898D02*
D03*
X295866D02*
D03*
X297835D02*
D03*
X299803D02*
D03*
X301772D02*
D03*
X303740D02*
D03*
D40*
X303986Y326969D02*
D03*
Y328937D02*
D03*
Y330906D02*
D03*
Y332874D02*
D03*
X285778Y326969D02*
D03*
Y328937D02*
D03*
Y330906D02*
D03*
Y332874D02*
D03*
D41*
X273031Y322539D02*
D03*
Y325886D02*
D03*
X277067Y322539D02*
D03*
Y325886D02*
D03*
X292520Y314075D02*
D03*
Y317421D02*
D03*
X311024Y328051D02*
D03*
Y324705D02*
D03*
D42*
X308661Y334803D02*
D03*
Y331339D02*
D03*
M02*
