G04 Layer_Color=7318015*
%FSLAX25Y25*%
%MOIN*%
G70*
G01*
G75*
G04:AMPARAMS|DCode=10|XSize=27.56mil|YSize=29.53mil|CornerRadius=0mil|HoleSize=0mil|Usage=FLASHONLY|Rotation=315.000|XOffset=0mil|YOffset=0mil|HoleType=Round|Shape=Rectangle|*
%AMROTATEDRECTD10*
4,1,4,-0.02018,-0.00070,0.00070,0.02018,0.02018,0.00070,-0.00070,-0.02018,-0.02018,-0.00070,0.0*
%
%ADD10ROTATEDRECTD10*%

G04:AMPARAMS|DCode=11|XSize=23.62mil|YSize=39.37mil|CornerRadius=0mil|HoleSize=0mil|Usage=FLASHONLY|Rotation=225.000|XOffset=0mil|YOffset=0mil|HoleType=Round|Shape=Rectangle|*
%AMROTATEDRECTD11*
4,1,4,-0.00557,0.02227,0.02227,-0.00557,0.00557,-0.02227,-0.02227,0.00557,-0.00557,0.02227,0.0*
%
%ADD11ROTATEDRECTD11*%

%ADD12R,0.02756X0.02953*%
%ADD13R,0.03937X0.02362*%
G04:AMPARAMS|DCode=14|XSize=27.56mil|YSize=29.53mil|CornerRadius=0mil|HoleSize=0mil|Usage=FLASHONLY|Rotation=45.000|XOffset=0mil|YOffset=0mil|HoleType=Round|Shape=Rectangle|*
%AMROTATEDRECTD14*
4,1,4,0.00070,-0.02018,-0.02018,0.00070,-0.00070,0.02018,0.02018,-0.00070,0.00070,-0.02018,0.0*
%
%ADD14ROTATEDRECTD14*%

G04:AMPARAMS|DCode=15|XSize=23.62mil|YSize=39.37mil|CornerRadius=0mil|HoleSize=0mil|Usage=FLASHONLY|Rotation=315.000|XOffset=0mil|YOffset=0mil|HoleType=Round|Shape=Rectangle|*
%AMROTATEDRECTD15*
4,1,4,-0.02227,-0.00557,0.00557,0.02227,0.02227,0.00557,-0.00557,-0.02227,-0.02227,-0.00557,0.0*
%
%ADD15ROTATEDRECTD15*%

%ADD16R,0.02953X0.02756*%
%ADD17R,0.02362X0.03937*%
%ADD18R,0.03937X0.00984*%
%ADD19R,0.00984X0.03937*%
%ADD20R,0.05906X0.05906*%
%ADD21R,0.02677X0.02520*%
D10*
X265102Y341480D02*
D03*
X262457Y338835D02*
D03*
X269433Y337149D02*
D03*
X266788Y334504D02*
D03*
X318756Y286079D02*
D03*
X321401Y288724D02*
D03*
X314032Y290804D02*
D03*
X316677Y293448D02*
D03*
D11*
X256045Y342997D02*
D03*
X261334Y348286D02*
D03*
X253122Y351209D02*
D03*
X327814Y283775D02*
D03*
X322524Y278486D02*
D03*
X330737Y275563D02*
D03*
D12*
X256693Y314075D02*
D03*
Y310335D02*
D03*
X262598Y314075D02*
D03*
Y310335D02*
D03*
X335039Y317815D02*
D03*
Y321555D02*
D03*
X329134Y317815D02*
D03*
Y321555D02*
D03*
D13*
X248031Y308465D02*
D03*
Y315945D02*
D03*
X240158Y312205D02*
D03*
X342913Y323425D02*
D03*
Y315945D02*
D03*
X350787Y319685D02*
D03*
D14*
X275056Y287543D02*
D03*
X277700Y284898D02*
D03*
X270725Y283212D02*
D03*
X273370Y280567D02*
D03*
X326913Y343953D02*
D03*
X324268Y346598D02*
D03*
X329275Y346709D02*
D03*
X326630Y349354D02*
D03*
D15*
X268814Y273761D02*
D03*
X263525Y279051D02*
D03*
X260602Y270838D02*
D03*
X328036Y353798D02*
D03*
X333325Y348508D02*
D03*
X336248Y356721D02*
D03*
D16*
X293130Y283465D02*
D03*
X296870D02*
D03*
X293130Y276772D02*
D03*
X296870D02*
D03*
X294390Y353150D02*
D03*
X290650D02*
D03*
X293602Y347835D02*
D03*
X289862D02*
D03*
D17*
X298740Y268504D02*
D03*
X291260D02*
D03*
X295000Y260630D02*
D03*
X290354Y361417D02*
D03*
X297835D02*
D03*
X294094Y369291D02*
D03*
D18*
X278031Y324705D02*
D03*
Y322736D02*
D03*
Y320768D02*
D03*
Y318799D02*
D03*
Y316831D02*
D03*
Y326673D02*
D03*
Y328642D02*
D03*
Y330610D02*
D03*
Y332579D02*
D03*
Y334567D02*
D03*
D19*
X279134Y312642D02*
D03*
X281102Y312697D02*
D03*
X283071D02*
D03*
X285039D02*
D03*
X287008D02*
D03*
X288976D02*
D03*
X290945D02*
D03*
X292913D02*
D03*
X294882D02*
D03*
X300787D02*
D03*
X298819D02*
D03*
X296850D02*
D03*
X296890Y338681D02*
D03*
X298858D02*
D03*
X300827D02*
D03*
X302795D02*
D03*
X304764D02*
D03*
X306732D02*
D03*
X308701D02*
D03*
X310669D02*
D03*
X312638D02*
D03*
X314606D02*
D03*
X294921D02*
D03*
X292953D02*
D03*
X290984D02*
D03*
X289016D02*
D03*
X287047D02*
D03*
X285079D02*
D03*
X283110D02*
D03*
X281142D02*
D03*
X279173D02*
D03*
D20*
X294724Y321752D02*
D03*
X286850D02*
D03*
Y329626D02*
D03*
X294724D02*
D03*
D21*
X303031Y346732D02*
D03*
X306496D02*
D03*
M02*
