G04 Layer_Color=8150272*
%FSLAX25Y25*%
%MOIN*%
G70*
G01*
G75*
%ADD57R,0.03477X0.03320*%
%ADD58C,0.06800*%
%ADD59C,0.07300*%
%ADD60P,0.10324X4X270.0*%
%ADD61R,0.07300X0.07300*%
%ADD62P,0.10324X4X360.0*%
%ADD63R,0.07300X0.07300*%
%ADD64R,0.06902X0.06902*%
%ADD65C,0.06902*%
%ADD66C,0.02800*%
%ADD67C,0.05800*%
%ADD68R,0.01600X0.04867*%
%ADD69R,0.03473X0.01600*%
G04:AMPARAMS|DCode=70|XSize=90.68mil|YSize=126.11mil|CornerRadius=0mil|HoleSize=0mil|Usage=FLASHONLY|Rotation=292.500|XOffset=0mil|YOffset=0mil|HoleType=Round|Shape=Rectangle|*
%AMROTATEDRECTD70*
4,1,4,-0.07561,0.01776,0.04091,0.06602,0.07561,-0.01776,-0.04091,-0.06602,-0.07561,0.01776,0.0*
%
%ADD70ROTATEDRECTD70*%

G04:AMPARAMS|DCode=71|XSize=31.62mil|YSize=78.87mil|CornerRadius=0mil|HoleSize=0mil|Usage=FLASHONLY|Rotation=292.500|XOffset=0mil|YOffset=0mil|HoleType=Round|Shape=Rectangle|*
%AMROTATEDRECTD71*
4,1,4,-0.04248,-0.00048,0.03038,0.02970,0.04248,0.00048,-0.03038,-0.02970,-0.04248,-0.00048,0.0*
%
%ADD71ROTATEDRECTD71*%

G04:AMPARAMS|DCode=72|XSize=90.68mil|YSize=126.11mil|CornerRadius=0mil|HoleSize=0mil|Usage=FLASHONLY|Rotation=202.500|XOffset=0mil|YOffset=0mil|HoleType=Round|Shape=Rectangle|*
%AMROTATEDRECTD72*
4,1,4,0.01776,0.07561,0.06602,-0.04091,-0.01776,-0.07561,-0.06602,0.04091,0.01776,0.07561,0.0*
%
%ADD72ROTATEDRECTD72*%

G04:AMPARAMS|DCode=73|XSize=31.62mil|YSize=78.87mil|CornerRadius=0mil|HoleSize=0mil|Usage=FLASHONLY|Rotation=202.500|XOffset=0mil|YOffset=0mil|HoleType=Round|Shape=Rectangle|*
%AMROTATEDRECTD73*
4,1,4,-0.00048,0.04248,0.02970,-0.03038,0.00048,-0.04248,-0.02970,0.03038,-0.00048,0.04248,0.0*
%
%ADD73ROTATEDRECTD73*%

%ADD74R,0.03162X0.03359*%
%ADD75R,0.03320X0.03477*%
%ADD76R,0.04343X0.03359*%
D57*
X296890Y341831D02*
D03*
X300354D02*
D03*
X303701Y317323D02*
D03*
X300236D02*
D03*
X293543Y362992D02*
D03*
X297008D02*
D03*
D58*
X238976Y299606D02*
D03*
X248425Y296457D02*
D03*
D59*
X242921Y354732D02*
D03*
X230709Y307205D02*
D03*
X257866Y260638D02*
D03*
X300000Y250787D02*
D03*
X341724Y271646D02*
D03*
X359842Y324685D02*
D03*
X336622Y364559D02*
D03*
X288701Y378740D02*
D03*
X257480Y320590D02*
D03*
D60*
X249992Y361803D02*
D03*
X334653Y264575D02*
D03*
D61*
X230709Y317205D02*
D03*
X359842Y314685D02*
D03*
X257480Y330591D02*
D03*
D62*
X250795Y267709D02*
D03*
X343693Y357488D02*
D03*
D63*
X290000Y250787D02*
D03*
X298701Y378740D02*
D03*
D64*
X310866Y301969D02*
D03*
D65*
X320866D02*
D03*
X330866D02*
D03*
D66*
X275197Y307480D02*
D03*
X274213Y343898D02*
D03*
X274803Y301969D02*
D03*
X278346D02*
D03*
X292913D02*
D03*
X282283D02*
D03*
X285827D02*
D03*
X289370D02*
D03*
X309449Y354331D02*
D03*
X309055Y351417D02*
D03*
D67*
X338189Y343307D02*
D03*
X264173Y364961D02*
D03*
X266929Y357874D02*
D03*
X238189Y328346D02*
D03*
X245669Y326772D02*
D03*
X247638Y280709D02*
D03*
X255512Y283465D02*
D03*
X280433Y265748D02*
D03*
X314567Y268110D02*
D03*
X320866Y262598D02*
D03*
X352362Y300787D02*
D03*
X278071Y259055D02*
D03*
X345276Y306693D02*
D03*
X343693Y347646D02*
D03*
X330315Y327165D02*
D03*
X309842Y372441D02*
D03*
X308268Y364173D02*
D03*
D68*
X303807Y337073D02*
D03*
X301839D02*
D03*
X299870D02*
D03*
X297902D02*
D03*
X295933D02*
D03*
X293965D02*
D03*
X291996D02*
D03*
X290028D02*
D03*
X288059D02*
D03*
X286090D02*
D03*
Y322770D02*
D03*
X288059D02*
D03*
X290028D02*
D03*
X291996D02*
D03*
X293965D02*
D03*
X295933D02*
D03*
X297902D02*
D03*
X299870D02*
D03*
X301839D02*
D03*
X303807D02*
D03*
D69*
X304553Y326969D02*
D03*
Y328937D02*
D03*
Y330906D02*
D03*
Y332874D02*
D03*
X285345Y326969D02*
D03*
Y328937D02*
D03*
Y330906D02*
D03*
Y332874D02*
D03*
D70*
X327149Y341748D02*
D03*
X336716Y318651D02*
D03*
D71*
X321962Y323406D02*
D03*
X320079Y327953D02*
D03*
D72*
X320094Y281906D02*
D03*
X296997Y272339D02*
D03*
D73*
X301753Y287093D02*
D03*
X306299Y288976D02*
D03*
D74*
X273031Y322539D02*
D03*
Y325886D02*
D03*
X277067Y322539D02*
D03*
Y325886D02*
D03*
X292520Y314075D02*
D03*
Y317421D02*
D03*
X311024Y328051D02*
D03*
Y324705D02*
D03*
D75*
X308661Y334803D02*
D03*
Y331339D02*
D03*
D76*
X300000Y350197D02*
D03*
Y357677D02*
D03*
X290551D02*
D03*
Y353937D02*
D03*
Y350197D02*
D03*
M02*
