G04 Layer_Color=20142*
%FSLAX25Y25*%
%MOIN*%
G70*
G01*
G75*
G04:AMPARAMS|DCode=46|XSize=35.56mil|YSize=37.53mil|CornerRadius=0mil|HoleSize=0mil|Usage=FLASHONLY|Rotation=315.000|XOffset=0mil|YOffset=0mil|HoleType=Round|Shape=Rectangle|*
%AMROTATEDRECTD46*
4,1,4,-0.02584,-0.00070,0.00070,0.02584,0.02584,0.00070,-0.00070,-0.02584,-0.02584,-0.00070,0.0*
%
%ADD46ROTATEDRECTD46*%

G04:AMPARAMS|DCode=47|XSize=31.62mil|YSize=47.37mil|CornerRadius=0mil|HoleSize=0mil|Usage=FLASHONLY|Rotation=225.000|XOffset=0mil|YOffset=0mil|HoleType=Round|Shape=Rectangle|*
%AMROTATEDRECTD47*
4,1,4,-0.00557,0.02793,0.02793,-0.00557,0.00557,-0.02793,-0.02793,0.00557,-0.00557,0.02793,0.0*
%
%ADD47ROTATEDRECTD47*%

%ADD48R,0.03556X0.03753*%
%ADD49R,0.04737X0.03162*%
G04:AMPARAMS|DCode=50|XSize=35.56mil|YSize=37.53mil|CornerRadius=0mil|HoleSize=0mil|Usage=FLASHONLY|Rotation=45.000|XOffset=0mil|YOffset=0mil|HoleType=Round|Shape=Rectangle|*
%AMROTATEDRECTD50*
4,1,4,0.00070,-0.02584,-0.02584,0.00070,-0.00070,0.02584,0.02584,-0.00070,0.00070,-0.02584,0.0*
%
%ADD50ROTATEDRECTD50*%

G04:AMPARAMS|DCode=51|XSize=31.62mil|YSize=47.37mil|CornerRadius=0mil|HoleSize=0mil|Usage=FLASHONLY|Rotation=315.000|XOffset=0mil|YOffset=0mil|HoleType=Round|Shape=Rectangle|*
%AMROTATEDRECTD51*
4,1,4,-0.02793,-0.00557,0.00557,0.02793,0.02793,0.00557,-0.00557,-0.02793,-0.02793,-0.00557,0.0*
%
%ADD51ROTATEDRECTD51*%

%ADD52R,0.03753X0.03556*%
%ADD53R,0.03162X0.04737*%
%ADD54R,0.04737X0.01784*%
%ADD55R,0.01784X0.04737*%
%ADD56R,0.06706X0.06706*%
%ADD57R,0.03477X0.03320*%
%ADD58C,0.06800*%
%ADD59C,0.07300*%
%ADD60P,0.10324X4X270.0*%
%ADD61R,0.07300X0.07300*%
%ADD62P,0.10324X4X360.0*%
%ADD63R,0.07300X0.07300*%
%ADD64R,0.06902X0.06902*%
%ADD65C,0.06902*%
%ADD66C,0.02800*%
%ADD67C,0.05800*%
D46*
X265102Y341480D02*
D03*
X262457Y338835D02*
D03*
X269433Y337149D02*
D03*
X266788Y334504D02*
D03*
X318756Y286079D02*
D03*
X321401Y288724D02*
D03*
X314032Y290804D02*
D03*
X316677Y293448D02*
D03*
D47*
X256045Y342997D02*
D03*
X261334Y348286D02*
D03*
X253122Y351209D02*
D03*
X327814Y283775D02*
D03*
X322524Y278486D02*
D03*
X330737Y275563D02*
D03*
D48*
X256693Y314075D02*
D03*
Y310335D02*
D03*
X262598Y314075D02*
D03*
Y310335D02*
D03*
X335039Y317815D02*
D03*
Y321555D02*
D03*
X329134Y317815D02*
D03*
Y321555D02*
D03*
D49*
X248031Y308465D02*
D03*
Y315945D02*
D03*
X240158Y312205D02*
D03*
X342913Y323425D02*
D03*
Y315945D02*
D03*
X350787Y319685D02*
D03*
D50*
X275056Y287543D02*
D03*
X277700Y284898D02*
D03*
X270725Y283212D02*
D03*
X273370Y280567D02*
D03*
X326913Y343953D02*
D03*
X324268Y346598D02*
D03*
X329275Y346709D02*
D03*
X326630Y349354D02*
D03*
D51*
X268814Y273761D02*
D03*
X263525Y279051D02*
D03*
X260602Y270838D02*
D03*
X328036Y353798D02*
D03*
X333325Y348508D02*
D03*
X336248Y356721D02*
D03*
D52*
X293130Y283465D02*
D03*
X296870D02*
D03*
X293130Y276772D02*
D03*
X296870D02*
D03*
X294390Y353150D02*
D03*
X290650D02*
D03*
X293602Y347835D02*
D03*
X289862D02*
D03*
D53*
X298740Y268504D02*
D03*
X291260D02*
D03*
X295000Y260630D02*
D03*
X290354Y361417D02*
D03*
X297835D02*
D03*
X294094Y369291D02*
D03*
D54*
X278031Y324705D02*
D03*
Y322736D02*
D03*
Y320768D02*
D03*
Y318799D02*
D03*
Y316831D02*
D03*
Y326673D02*
D03*
Y328642D02*
D03*
Y330610D02*
D03*
Y332579D02*
D03*
Y334567D02*
D03*
D55*
X279134Y312642D02*
D03*
X281102Y312697D02*
D03*
X283071D02*
D03*
X285039D02*
D03*
X287008D02*
D03*
X288976D02*
D03*
X290945D02*
D03*
X292913D02*
D03*
X294882D02*
D03*
X300787D02*
D03*
X298819D02*
D03*
X296850D02*
D03*
X296890Y338681D02*
D03*
X298858D02*
D03*
X300827D02*
D03*
X302795D02*
D03*
X304764D02*
D03*
X306732D02*
D03*
X308701D02*
D03*
X310669D02*
D03*
X312638D02*
D03*
X314606D02*
D03*
X294921D02*
D03*
X292953D02*
D03*
X290984D02*
D03*
X289016D02*
D03*
X287047D02*
D03*
X285079D02*
D03*
X283110D02*
D03*
X281142D02*
D03*
X279173D02*
D03*
D56*
X294724Y321752D02*
D03*
X286850D02*
D03*
Y329626D02*
D03*
X294724D02*
D03*
D57*
X303031Y346732D02*
D03*
X306496D02*
D03*
D58*
X238976Y299606D02*
D03*
X248425Y296457D02*
D03*
D59*
X242921Y354732D02*
D03*
X230709Y307205D02*
D03*
X257866Y260638D02*
D03*
X300000Y250787D02*
D03*
X341724Y271646D02*
D03*
X359842Y324685D02*
D03*
X336622Y364559D02*
D03*
X288701Y378740D02*
D03*
X257480Y320590D02*
D03*
D60*
X249992Y361803D02*
D03*
X334653Y264575D02*
D03*
D61*
X230709Y317205D02*
D03*
X359842Y314685D02*
D03*
X257480Y330591D02*
D03*
D62*
X250795Y267709D02*
D03*
X343693Y357488D02*
D03*
D63*
X290000Y250787D02*
D03*
X298701Y378740D02*
D03*
D64*
X310866Y301969D02*
D03*
D65*
X320866D02*
D03*
X330866D02*
D03*
D66*
X275197Y307480D02*
D03*
X274213Y343898D02*
D03*
X274803Y301969D02*
D03*
X278346D02*
D03*
X292913D02*
D03*
X282283D02*
D03*
X285827D02*
D03*
X289370D02*
D03*
X309449Y354331D02*
D03*
X309055Y351417D02*
D03*
D67*
X338189Y343307D02*
D03*
X264173Y364961D02*
D03*
X266929Y357874D02*
D03*
X238189Y328346D02*
D03*
X245669Y326772D02*
D03*
X247638Y280709D02*
D03*
X255512Y283465D02*
D03*
X280433Y265748D02*
D03*
X314567Y268110D02*
D03*
X320866Y262598D02*
D03*
X352362Y300787D02*
D03*
X278071Y259055D02*
D03*
X345276Y306693D02*
D03*
X343693Y347646D02*
D03*
X330315Y327165D02*
D03*
X309842Y372441D02*
D03*
X308268Y364173D02*
D03*
M02*
