G04 EAGLE Gerber RS-274X export*
G75*
%MOMM*%
%FSLAX34Y34*%
%LPD*%
%INTop Copper*%
%IPPOS*%
%AMOC8*
5,1,8,0,0,1.08239X$1,22.5*%
G01*
%ADD10R,1.100000X1.000000*%
%ADD11R,1.200000X0.500000*%
%ADD12R,0.500000X1.200000*%
%ADD13P,1.632244X8X292.500000*%
%ADD14C,0.254000*%

G36*
X108146Y-115555D02*
X108146Y-115555D01*
X108261Y-115548D01*
X108304Y-115535D01*
X108348Y-115529D01*
X108455Y-115487D01*
X108564Y-115452D01*
X108602Y-115429D01*
X108643Y-115412D01*
X108736Y-115345D01*
X108834Y-115284D01*
X108865Y-115252D01*
X108901Y-115226D01*
X108974Y-115137D01*
X109053Y-115054D01*
X109075Y-115015D01*
X109104Y-114981D01*
X109153Y-114877D01*
X109209Y-114776D01*
X109220Y-114733D01*
X109239Y-114693D01*
X109261Y-114580D01*
X109290Y-114469D01*
X109295Y-114401D01*
X109299Y-114381D01*
X109298Y-114361D01*
X109301Y-114308D01*
X109597Y-68855D01*
X109580Y-68714D01*
X109566Y-68571D01*
X109561Y-68556D01*
X109559Y-68540D01*
X109507Y-68406D01*
X109459Y-68271D01*
X109450Y-68258D01*
X109444Y-68243D01*
X109361Y-68127D01*
X109280Y-68008D01*
X109268Y-67998D01*
X109259Y-67985D01*
X109149Y-67893D01*
X109042Y-67798D01*
X109027Y-67791D01*
X109015Y-67780D01*
X108886Y-67718D01*
X108758Y-67653D01*
X108743Y-67650D01*
X108728Y-67643D01*
X108587Y-67615D01*
X108448Y-67584D01*
X108432Y-67584D01*
X108416Y-67581D01*
X108273Y-67589D01*
X108130Y-67593D01*
X108115Y-67598D01*
X108099Y-67599D01*
X107962Y-67642D01*
X107825Y-67682D01*
X107811Y-67690D01*
X107795Y-67695D01*
X107674Y-67770D01*
X107551Y-67843D01*
X107534Y-67858D01*
X107526Y-67863D01*
X107513Y-67877D01*
X107430Y-67950D01*
X106625Y-68755D01*
X99115Y-68755D01*
X93805Y-63445D01*
X93805Y-55935D01*
X96447Y-53294D01*
X96520Y-53200D01*
X96598Y-53111D01*
X96617Y-53075D01*
X96642Y-53043D01*
X96689Y-52933D01*
X96743Y-52827D01*
X96752Y-52788D01*
X96768Y-52751D01*
X96787Y-52633D01*
X96813Y-52517D01*
X96811Y-52477D01*
X96818Y-52437D01*
X96807Y-52318D01*
X96803Y-52199D01*
X96792Y-52160D01*
X96788Y-52120D01*
X96748Y-52008D01*
X96715Y-51894D01*
X96694Y-51859D01*
X96680Y-51821D01*
X96613Y-51722D01*
X96553Y-51620D01*
X96513Y-51574D01*
X96502Y-51558D01*
X96486Y-51544D01*
X96447Y-51499D01*
X67614Y-22666D01*
X67536Y-22606D01*
X67464Y-22538D01*
X67411Y-22509D01*
X67363Y-22472D01*
X67272Y-22432D01*
X67185Y-22384D01*
X67127Y-22369D01*
X67071Y-22345D01*
X66973Y-22330D01*
X66877Y-22305D01*
X66777Y-22299D01*
X66757Y-22295D01*
X66745Y-22297D01*
X66717Y-22295D01*
X57794Y-22295D01*
X57676Y-22310D01*
X57557Y-22317D01*
X57519Y-22330D01*
X57478Y-22335D01*
X57368Y-22378D01*
X57255Y-22415D01*
X57220Y-22437D01*
X57183Y-22452D01*
X57087Y-22521D01*
X56986Y-22585D01*
X56958Y-22615D01*
X56925Y-22638D01*
X56849Y-22730D01*
X56768Y-22817D01*
X56748Y-22852D01*
X56723Y-22883D01*
X56672Y-22991D01*
X56614Y-23095D01*
X56604Y-23135D01*
X56587Y-23171D01*
X56565Y-23288D01*
X56535Y-23403D01*
X56531Y-23463D01*
X56527Y-23483D01*
X56529Y-23504D01*
X56525Y-23564D01*
X56525Y-30285D01*
X56507Y-30319D01*
X56499Y-30359D01*
X56483Y-30396D01*
X56464Y-30513D01*
X56438Y-30630D01*
X56439Y-30670D01*
X56433Y-30710D01*
X56444Y-30828D01*
X56447Y-30947D01*
X56459Y-30986D01*
X56462Y-31026D01*
X56503Y-31138D01*
X56525Y-31214D01*
X56525Y-37785D01*
X56507Y-37819D01*
X56499Y-37859D01*
X56483Y-37896D01*
X56464Y-38013D01*
X56438Y-38130D01*
X56439Y-38170D01*
X56433Y-38210D01*
X56444Y-38328D01*
X56447Y-38447D01*
X56459Y-38486D01*
X56462Y-38526D01*
X56503Y-38638D01*
X56525Y-38714D01*
X56525Y-45285D01*
X56507Y-45319D01*
X56499Y-45358D01*
X56483Y-45395D01*
X56464Y-45513D01*
X56438Y-45629D01*
X56439Y-45670D01*
X56433Y-45709D01*
X56444Y-45828D01*
X56447Y-45947D01*
X56459Y-45986D01*
X56462Y-46026D01*
X56503Y-46138D01*
X56525Y-46214D01*
X56525Y-52785D01*
X56507Y-52819D01*
X56499Y-52859D01*
X56483Y-52896D01*
X56464Y-53013D01*
X56438Y-53130D01*
X56439Y-53170D01*
X56433Y-53210D01*
X56444Y-53328D01*
X56447Y-53447D01*
X56459Y-53486D01*
X56462Y-53526D01*
X56503Y-53638D01*
X56525Y-53714D01*
X56525Y-60285D01*
X56507Y-60319D01*
X56499Y-60359D01*
X56483Y-60396D01*
X56464Y-60513D01*
X56438Y-60630D01*
X56439Y-60670D01*
X56433Y-60710D01*
X56444Y-60828D01*
X56447Y-60947D01*
X56459Y-60986D01*
X56462Y-61026D01*
X56503Y-61138D01*
X56525Y-61214D01*
X56525Y-67632D01*
X55632Y-68525D01*
X42794Y-68525D01*
X42676Y-68540D01*
X42557Y-68547D01*
X42519Y-68560D01*
X42478Y-68565D01*
X42368Y-68608D01*
X42255Y-68645D01*
X42220Y-68667D01*
X42183Y-68682D01*
X42087Y-68751D01*
X41986Y-68815D01*
X41958Y-68845D01*
X41925Y-68868D01*
X41849Y-68960D01*
X41768Y-69047D01*
X41748Y-69082D01*
X41723Y-69113D01*
X41672Y-69221D01*
X41614Y-69325D01*
X41604Y-69365D01*
X41587Y-69401D01*
X41565Y-69518D01*
X41535Y-69633D01*
X41531Y-69693D01*
X41527Y-69713D01*
X41529Y-69734D01*
X41525Y-69794D01*
X41525Y-75632D01*
X40632Y-76525D01*
X34215Y-76525D01*
X34181Y-76507D01*
X34142Y-76499D01*
X34105Y-76483D01*
X33987Y-76464D01*
X33871Y-76438D01*
X33830Y-76439D01*
X33791Y-76433D01*
X33672Y-76444D01*
X33553Y-76447D01*
X33514Y-76459D01*
X33474Y-76462D01*
X33362Y-76503D01*
X33286Y-76525D01*
X26715Y-76525D01*
X26681Y-76507D01*
X26642Y-76499D01*
X26605Y-76483D01*
X26487Y-76464D01*
X26371Y-76438D01*
X26330Y-76439D01*
X26291Y-76433D01*
X26172Y-76444D01*
X26053Y-76447D01*
X26014Y-76459D01*
X25974Y-76462D01*
X25862Y-76503D01*
X25786Y-76525D01*
X19215Y-76525D01*
X19181Y-76507D01*
X19141Y-76499D01*
X19104Y-76483D01*
X18987Y-76464D01*
X18870Y-76438D01*
X18830Y-76439D01*
X18790Y-76433D01*
X18672Y-76444D01*
X18553Y-76447D01*
X18514Y-76459D01*
X18474Y-76462D01*
X18362Y-76503D01*
X18286Y-76525D01*
X11715Y-76525D01*
X11681Y-76507D01*
X11642Y-76499D01*
X11605Y-76483D01*
X11487Y-76464D01*
X11371Y-76438D01*
X11330Y-76439D01*
X11291Y-76433D01*
X11172Y-76444D01*
X11053Y-76447D01*
X11014Y-76459D01*
X10974Y-76462D01*
X10862Y-76503D01*
X10786Y-76525D01*
X4215Y-76525D01*
X4181Y-76507D01*
X4142Y-76499D01*
X4105Y-76483D01*
X3987Y-76464D01*
X3871Y-76438D01*
X3830Y-76439D01*
X3791Y-76433D01*
X3672Y-76444D01*
X3553Y-76447D01*
X3514Y-76459D01*
X3474Y-76462D01*
X3362Y-76503D01*
X3286Y-76525D01*
X-3285Y-76525D01*
X-3319Y-76507D01*
X-3359Y-76499D01*
X-3396Y-76483D01*
X-3513Y-76464D01*
X-3630Y-76438D01*
X-3670Y-76439D01*
X-3710Y-76433D01*
X-3828Y-76444D01*
X-3947Y-76447D01*
X-3986Y-76459D01*
X-4026Y-76462D01*
X-4138Y-76503D01*
X-4214Y-76525D01*
X-10785Y-76525D01*
X-10819Y-76507D01*
X-10859Y-76499D01*
X-10896Y-76483D01*
X-11013Y-76464D01*
X-11130Y-76438D01*
X-11170Y-76439D01*
X-11210Y-76433D01*
X-11328Y-76444D01*
X-11447Y-76447D01*
X-11486Y-76459D01*
X-11526Y-76462D01*
X-11638Y-76503D01*
X-11714Y-76525D01*
X-18285Y-76525D01*
X-18319Y-76507D01*
X-18358Y-76499D01*
X-18395Y-76483D01*
X-18513Y-76464D01*
X-18629Y-76438D01*
X-18670Y-76439D01*
X-18709Y-76433D01*
X-18828Y-76444D01*
X-18947Y-76447D01*
X-18986Y-76459D01*
X-19026Y-76462D01*
X-19138Y-76503D01*
X-19214Y-76525D01*
X-25936Y-76525D01*
X-26054Y-76540D01*
X-26173Y-76547D01*
X-26211Y-76560D01*
X-26252Y-76565D01*
X-26362Y-76608D01*
X-26475Y-76645D01*
X-26510Y-76667D01*
X-26547Y-76682D01*
X-26643Y-76751D01*
X-26744Y-76815D01*
X-26772Y-76845D01*
X-26805Y-76868D01*
X-26881Y-76960D01*
X-26962Y-77047D01*
X-26982Y-77082D01*
X-27007Y-77113D01*
X-27058Y-77221D01*
X-27116Y-77325D01*
X-27126Y-77365D01*
X-27143Y-77401D01*
X-27165Y-77518D01*
X-27195Y-77633D01*
X-27199Y-77693D01*
X-27203Y-77713D01*
X-27201Y-77734D01*
X-27205Y-77794D01*
X-27205Y-93806D01*
X-27190Y-93924D01*
X-27183Y-94043D01*
X-27170Y-94081D01*
X-27165Y-94122D01*
X-27122Y-94232D01*
X-27085Y-94345D01*
X-27063Y-94380D01*
X-27048Y-94417D01*
X-26979Y-94513D01*
X-26915Y-94614D01*
X-26885Y-94642D01*
X-26862Y-94675D01*
X-26770Y-94751D01*
X-26683Y-94832D01*
X-26648Y-94852D01*
X-26617Y-94877D01*
X-26509Y-94928D01*
X-26405Y-94986D01*
X-26365Y-94996D01*
X-26329Y-95013D01*
X-26212Y-95035D01*
X-26097Y-95065D01*
X-26037Y-95069D01*
X-26017Y-95073D01*
X-25996Y-95071D01*
X-25936Y-95075D01*
X-23468Y-95075D01*
X-22575Y-95968D01*
X-22575Y-107232D01*
X-23468Y-108125D01*
X-34195Y-108125D01*
X-34294Y-108137D01*
X-34393Y-108140D01*
X-34451Y-108157D01*
X-34511Y-108165D01*
X-34603Y-108201D01*
X-34698Y-108229D01*
X-34750Y-108259D01*
X-34807Y-108282D01*
X-34887Y-108340D01*
X-34972Y-108390D01*
X-35047Y-108456D01*
X-35064Y-108468D01*
X-35072Y-108478D01*
X-35093Y-108496D01*
X-38785Y-112189D01*
X-54415Y-112189D01*
X-95045Y-71559D01*
X-95139Y-71486D01*
X-95228Y-71407D01*
X-95264Y-71389D01*
X-95296Y-71364D01*
X-95405Y-71317D01*
X-95511Y-71263D01*
X-95551Y-71254D01*
X-95588Y-71238D01*
X-95705Y-71219D01*
X-95822Y-71193D01*
X-95862Y-71194D01*
X-95902Y-71188D01*
X-96020Y-71199D01*
X-96140Y-71203D01*
X-96178Y-71214D01*
X-96218Y-71218D01*
X-96331Y-71258D01*
X-96445Y-71291D01*
X-96451Y-71295D01*
X-104085Y-71295D01*
X-109203Y-66176D01*
X-109310Y-66093D01*
X-109413Y-66007D01*
X-109435Y-65996D01*
X-109454Y-65981D01*
X-109578Y-65928D01*
X-109700Y-65869D01*
X-109724Y-65865D01*
X-109746Y-65855D01*
X-109880Y-65834D01*
X-110012Y-65808D01*
X-110036Y-65809D01*
X-110060Y-65805D01*
X-110195Y-65818D01*
X-110329Y-65825D01*
X-110353Y-65833D01*
X-110377Y-65835D01*
X-110504Y-65881D01*
X-110633Y-65921D01*
X-110653Y-65934D01*
X-110676Y-65943D01*
X-110788Y-66019D01*
X-110902Y-66090D01*
X-110919Y-66108D01*
X-110939Y-66121D01*
X-111029Y-66222D01*
X-111122Y-66320D01*
X-111134Y-66341D01*
X-111150Y-66360D01*
X-111211Y-66480D01*
X-111277Y-66598D01*
X-111283Y-66621D01*
X-111294Y-66643D01*
X-111324Y-66775D01*
X-111359Y-66905D01*
X-111361Y-66939D01*
X-111364Y-66953D01*
X-111363Y-66975D01*
X-111370Y-67066D01*
X-111677Y-114292D01*
X-111662Y-114414D01*
X-111654Y-114537D01*
X-111643Y-114571D01*
X-111639Y-114608D01*
X-111594Y-114722D01*
X-111556Y-114839D01*
X-111537Y-114870D01*
X-111524Y-114904D01*
X-111452Y-115004D01*
X-111386Y-115108D01*
X-111360Y-115133D01*
X-111338Y-115163D01*
X-111244Y-115242D01*
X-111154Y-115326D01*
X-111123Y-115344D01*
X-111095Y-115367D01*
X-110984Y-115420D01*
X-110876Y-115480D01*
X-110841Y-115489D01*
X-110808Y-115504D01*
X-110687Y-115528D01*
X-110568Y-115559D01*
X-110515Y-115562D01*
X-110496Y-115566D01*
X-110475Y-115565D01*
X-110407Y-115569D01*
X108032Y-115569D01*
X108146Y-115555D01*
G37*
G36*
X33828Y-61556D02*
X33828Y-61556D01*
X33947Y-61553D01*
X33986Y-61541D01*
X34026Y-61538D01*
X34138Y-61497D01*
X34214Y-61475D01*
X40206Y-61475D01*
X40324Y-61460D01*
X40443Y-61453D01*
X40481Y-61440D01*
X40522Y-61435D01*
X40632Y-61392D01*
X40745Y-61355D01*
X40780Y-61333D01*
X40817Y-61318D01*
X40913Y-61249D01*
X41014Y-61185D01*
X41042Y-61155D01*
X41075Y-61132D01*
X41151Y-61040D01*
X41232Y-60953D01*
X41252Y-60918D01*
X41277Y-60887D01*
X41328Y-60779D01*
X41386Y-60675D01*
X41396Y-60635D01*
X41413Y-60599D01*
X41435Y-60482D01*
X41465Y-60367D01*
X41469Y-60307D01*
X41473Y-60287D01*
X41471Y-60266D01*
X41475Y-60206D01*
X41475Y-53715D01*
X41493Y-53681D01*
X41501Y-53642D01*
X41517Y-53605D01*
X41536Y-53487D01*
X41562Y-53371D01*
X41561Y-53330D01*
X41567Y-53291D01*
X41556Y-53172D01*
X41553Y-53053D01*
X41541Y-53014D01*
X41538Y-52974D01*
X41497Y-52862D01*
X41475Y-52786D01*
X41475Y-46215D01*
X41493Y-46181D01*
X41501Y-46141D01*
X41517Y-46104D01*
X41536Y-45987D01*
X41562Y-45870D01*
X41561Y-45830D01*
X41567Y-45790D01*
X41556Y-45672D01*
X41553Y-45553D01*
X41541Y-45514D01*
X41538Y-45474D01*
X41497Y-45362D01*
X41475Y-45286D01*
X41475Y-38715D01*
X41493Y-38681D01*
X41501Y-38642D01*
X41517Y-38605D01*
X41536Y-38487D01*
X41562Y-38371D01*
X41561Y-38330D01*
X41567Y-38291D01*
X41556Y-38172D01*
X41553Y-38053D01*
X41541Y-38014D01*
X41538Y-37974D01*
X41497Y-37862D01*
X41475Y-37786D01*
X41475Y-31215D01*
X41493Y-31181D01*
X41501Y-31142D01*
X41517Y-31105D01*
X41536Y-30987D01*
X41562Y-30871D01*
X41561Y-30830D01*
X41567Y-30791D01*
X41556Y-30672D01*
X41553Y-30553D01*
X41541Y-30514D01*
X41538Y-30474D01*
X41497Y-30362D01*
X41475Y-30286D01*
X41475Y-23715D01*
X41493Y-23681D01*
X41501Y-23641D01*
X41517Y-23604D01*
X41536Y-23487D01*
X41562Y-23370D01*
X41561Y-23330D01*
X41567Y-23290D01*
X41556Y-23172D01*
X41553Y-23053D01*
X41541Y-23014D01*
X41538Y-22974D01*
X41497Y-22862D01*
X41475Y-22786D01*
X41475Y-16215D01*
X41493Y-16181D01*
X41501Y-16141D01*
X41517Y-16104D01*
X41536Y-15987D01*
X41562Y-15870D01*
X41561Y-15830D01*
X41567Y-15790D01*
X41556Y-15672D01*
X41553Y-15553D01*
X41541Y-15514D01*
X41538Y-15474D01*
X41497Y-15362D01*
X41475Y-15286D01*
X41475Y-8715D01*
X41493Y-8681D01*
X41501Y-8641D01*
X41517Y-8604D01*
X41536Y-8487D01*
X41562Y-8370D01*
X41561Y-8330D01*
X41567Y-8290D01*
X41556Y-8172D01*
X41553Y-8053D01*
X41541Y-8014D01*
X41538Y-7974D01*
X41497Y-7862D01*
X41475Y-7786D01*
X41475Y-1215D01*
X41493Y-1181D01*
X41501Y-1142D01*
X41517Y-1105D01*
X41536Y-987D01*
X41562Y-871D01*
X41561Y-830D01*
X41567Y-791D01*
X41556Y-672D01*
X41553Y-553D01*
X41541Y-514D01*
X41538Y-474D01*
X41497Y-362D01*
X41475Y-286D01*
X41475Y6285D01*
X41493Y6319D01*
X41501Y6358D01*
X41517Y6395D01*
X41536Y6513D01*
X41562Y6629D01*
X41561Y6670D01*
X41567Y6709D01*
X41556Y6828D01*
X41553Y6947D01*
X41541Y6986D01*
X41538Y7026D01*
X41497Y7138D01*
X41475Y7214D01*
X41475Y13785D01*
X41493Y13819D01*
X41501Y13859D01*
X41517Y13896D01*
X41536Y14013D01*
X41562Y14130D01*
X41561Y14170D01*
X41567Y14210D01*
X41556Y14328D01*
X41553Y14447D01*
X41541Y14486D01*
X41538Y14526D01*
X41497Y14638D01*
X41475Y14714D01*
X41475Y16510D01*
X41460Y16628D01*
X41453Y16747D01*
X41441Y16785D01*
X41435Y16826D01*
X41392Y16936D01*
X41355Y17049D01*
X41333Y17084D01*
X41318Y17121D01*
X41249Y17217D01*
X41185Y17318D01*
X41155Y17346D01*
X41132Y17379D01*
X41040Y17455D01*
X40953Y17536D01*
X40918Y17556D01*
X40887Y17581D01*
X40779Y17632D01*
X40675Y17690D01*
X40635Y17700D01*
X40599Y17717D01*
X40482Y17739D01*
X40367Y17769D01*
X40307Y17773D01*
X40287Y17777D01*
X40266Y17775D01*
X40206Y17779D01*
X-40206Y17779D01*
X-40324Y17764D01*
X-40443Y17757D01*
X-40481Y17744D01*
X-40522Y17739D01*
X-40632Y17696D01*
X-40745Y17659D01*
X-40780Y17637D01*
X-40817Y17622D01*
X-40913Y17553D01*
X-41014Y17489D01*
X-41042Y17459D01*
X-41075Y17436D01*
X-41151Y17344D01*
X-41232Y17257D01*
X-41252Y17222D01*
X-41277Y17191D01*
X-41328Y17083D01*
X-41386Y16979D01*
X-41396Y16939D01*
X-41413Y16903D01*
X-41435Y16786D01*
X-41465Y16671D01*
X-41469Y16611D01*
X-41473Y16591D01*
X-41471Y16570D01*
X-41475Y16510D01*
X-41475Y14715D01*
X-41493Y14681D01*
X-41501Y14641D01*
X-41517Y14604D01*
X-41536Y14487D01*
X-41562Y14370D01*
X-41561Y14330D01*
X-41567Y14290D01*
X-41556Y14172D01*
X-41553Y14053D01*
X-41541Y14014D01*
X-41538Y13974D01*
X-41497Y13862D01*
X-41475Y13786D01*
X-41475Y7215D01*
X-41493Y7181D01*
X-41501Y7141D01*
X-41517Y7104D01*
X-41536Y6987D01*
X-41562Y6870D01*
X-41561Y6830D01*
X-41567Y6790D01*
X-41556Y6672D01*
X-41553Y6553D01*
X-41541Y6514D01*
X-41538Y6474D01*
X-41497Y6362D01*
X-41475Y6286D01*
X-41475Y-285D01*
X-41493Y-319D01*
X-41501Y-359D01*
X-41517Y-396D01*
X-41536Y-513D01*
X-41562Y-630D01*
X-41561Y-670D01*
X-41567Y-710D01*
X-41556Y-828D01*
X-41553Y-947D01*
X-41541Y-986D01*
X-41538Y-1026D01*
X-41497Y-1138D01*
X-41475Y-1214D01*
X-41475Y-7785D01*
X-41493Y-7819D01*
X-41501Y-7858D01*
X-41517Y-7895D01*
X-41536Y-8013D01*
X-41562Y-8129D01*
X-41561Y-8170D01*
X-41567Y-8209D01*
X-41556Y-8328D01*
X-41553Y-8447D01*
X-41541Y-8486D01*
X-41538Y-8526D01*
X-41497Y-8638D01*
X-41475Y-8714D01*
X-41475Y-15285D01*
X-41493Y-15319D01*
X-41501Y-15358D01*
X-41517Y-15395D01*
X-41536Y-15513D01*
X-41562Y-15629D01*
X-41561Y-15670D01*
X-41567Y-15709D01*
X-41556Y-15828D01*
X-41553Y-15947D01*
X-41541Y-15986D01*
X-41538Y-16026D01*
X-41497Y-16138D01*
X-41475Y-16214D01*
X-41475Y-22785D01*
X-41493Y-22819D01*
X-41501Y-22858D01*
X-41517Y-22895D01*
X-41536Y-23013D01*
X-41562Y-23129D01*
X-41561Y-23170D01*
X-41567Y-23209D01*
X-41556Y-23328D01*
X-41553Y-23447D01*
X-41541Y-23486D01*
X-41538Y-23526D01*
X-41497Y-23638D01*
X-41475Y-23714D01*
X-41475Y-30285D01*
X-41493Y-30319D01*
X-41501Y-30359D01*
X-41517Y-30396D01*
X-41536Y-30513D01*
X-41562Y-30630D01*
X-41561Y-30670D01*
X-41567Y-30710D01*
X-41556Y-30828D01*
X-41553Y-30947D01*
X-41541Y-30986D01*
X-41538Y-31026D01*
X-41497Y-31138D01*
X-41475Y-31214D01*
X-41475Y-37785D01*
X-41493Y-37819D01*
X-41501Y-37859D01*
X-41517Y-37896D01*
X-41536Y-38013D01*
X-41562Y-38130D01*
X-41561Y-38170D01*
X-41567Y-38210D01*
X-41556Y-38328D01*
X-41553Y-38447D01*
X-41541Y-38486D01*
X-41538Y-38526D01*
X-41497Y-38638D01*
X-41475Y-38714D01*
X-41475Y-45285D01*
X-41493Y-45319D01*
X-41501Y-45358D01*
X-41517Y-45395D01*
X-41536Y-45513D01*
X-41562Y-45629D01*
X-41561Y-45670D01*
X-41567Y-45709D01*
X-41556Y-45828D01*
X-41553Y-45947D01*
X-41541Y-45986D01*
X-41538Y-46026D01*
X-41497Y-46138D01*
X-41475Y-46214D01*
X-41475Y-52785D01*
X-41493Y-52819D01*
X-41501Y-52859D01*
X-41517Y-52896D01*
X-41536Y-53013D01*
X-41562Y-53130D01*
X-41561Y-53170D01*
X-41567Y-53210D01*
X-41556Y-53328D01*
X-41553Y-53447D01*
X-41541Y-53486D01*
X-41538Y-53526D01*
X-41497Y-53638D01*
X-41475Y-53714D01*
X-41475Y-60206D01*
X-41460Y-60324D01*
X-41453Y-60443D01*
X-41440Y-60481D01*
X-41435Y-60522D01*
X-41392Y-60632D01*
X-41355Y-60745D01*
X-41333Y-60780D01*
X-41318Y-60817D01*
X-41249Y-60913D01*
X-41185Y-61014D01*
X-41155Y-61042D01*
X-41132Y-61075D01*
X-41040Y-61151D01*
X-40953Y-61232D01*
X-40918Y-61252D01*
X-40887Y-61277D01*
X-40779Y-61328D01*
X-40675Y-61386D01*
X-40635Y-61396D01*
X-40599Y-61413D01*
X-40482Y-61435D01*
X-40367Y-61465D01*
X-40307Y-61469D01*
X-40287Y-61473D01*
X-40266Y-61471D01*
X-40206Y-61475D01*
X-34215Y-61475D01*
X-34181Y-61493D01*
X-34142Y-61501D01*
X-34105Y-61517D01*
X-33987Y-61536D01*
X-33871Y-61562D01*
X-33830Y-61561D01*
X-33791Y-61567D01*
X-33672Y-61556D01*
X-33553Y-61553D01*
X-33514Y-61541D01*
X-33474Y-61538D01*
X-33362Y-61497D01*
X-33286Y-61475D01*
X-26715Y-61475D01*
X-26681Y-61493D01*
X-26641Y-61501D01*
X-26604Y-61517D01*
X-26487Y-61536D01*
X-26370Y-61562D01*
X-26330Y-61561D01*
X-26290Y-61567D01*
X-26172Y-61556D01*
X-26053Y-61553D01*
X-26014Y-61541D01*
X-25974Y-61538D01*
X-25862Y-61497D01*
X-25786Y-61475D01*
X-19215Y-61475D01*
X-19181Y-61493D01*
X-19141Y-61501D01*
X-19104Y-61517D01*
X-18987Y-61536D01*
X-18870Y-61562D01*
X-18830Y-61561D01*
X-18790Y-61567D01*
X-18672Y-61556D01*
X-18553Y-61553D01*
X-18514Y-61541D01*
X-18474Y-61538D01*
X-18362Y-61497D01*
X-18286Y-61475D01*
X-11715Y-61475D01*
X-11681Y-61493D01*
X-11642Y-61501D01*
X-11605Y-61517D01*
X-11487Y-61536D01*
X-11371Y-61562D01*
X-11330Y-61561D01*
X-11291Y-61567D01*
X-11172Y-61556D01*
X-11053Y-61553D01*
X-11014Y-61541D01*
X-10974Y-61538D01*
X-10862Y-61497D01*
X-10786Y-61475D01*
X-4215Y-61475D01*
X-4181Y-61493D01*
X-4142Y-61501D01*
X-4105Y-61517D01*
X-3987Y-61536D01*
X-3871Y-61562D01*
X-3830Y-61561D01*
X-3791Y-61567D01*
X-3672Y-61556D01*
X-3553Y-61553D01*
X-3514Y-61541D01*
X-3474Y-61538D01*
X-3362Y-61497D01*
X-3286Y-61475D01*
X3285Y-61475D01*
X3319Y-61493D01*
X3359Y-61501D01*
X3396Y-61517D01*
X3513Y-61536D01*
X3630Y-61562D01*
X3670Y-61561D01*
X3710Y-61567D01*
X3828Y-61556D01*
X3947Y-61553D01*
X3986Y-61541D01*
X4026Y-61538D01*
X4138Y-61497D01*
X4214Y-61475D01*
X10785Y-61475D01*
X10819Y-61493D01*
X10859Y-61501D01*
X10896Y-61517D01*
X11013Y-61536D01*
X11130Y-61562D01*
X11170Y-61561D01*
X11210Y-61567D01*
X11328Y-61556D01*
X11447Y-61553D01*
X11486Y-61541D01*
X11526Y-61538D01*
X11638Y-61497D01*
X11714Y-61475D01*
X18285Y-61475D01*
X18319Y-61493D01*
X18358Y-61501D01*
X18395Y-61517D01*
X18513Y-61536D01*
X18629Y-61562D01*
X18670Y-61561D01*
X18709Y-61567D01*
X18828Y-61556D01*
X18947Y-61553D01*
X18986Y-61541D01*
X19026Y-61538D01*
X19138Y-61497D01*
X19214Y-61475D01*
X25785Y-61475D01*
X25819Y-61493D01*
X25859Y-61501D01*
X25896Y-61517D01*
X26013Y-61536D01*
X26130Y-61562D01*
X26170Y-61561D01*
X26210Y-61567D01*
X26328Y-61556D01*
X26447Y-61553D01*
X26486Y-61541D01*
X26526Y-61538D01*
X26638Y-61497D01*
X26714Y-61475D01*
X33285Y-61475D01*
X33319Y-61493D01*
X33359Y-61501D01*
X33396Y-61517D01*
X33513Y-61536D01*
X33630Y-61562D01*
X33670Y-61561D01*
X33710Y-61567D01*
X33828Y-61556D01*
G37*
G36*
X-57695Y-16107D02*
X-57695Y-16107D01*
X-57557Y-16098D01*
X-57538Y-16092D01*
X-57518Y-16090D01*
X-57386Y-16043D01*
X-57255Y-16000D01*
X-57237Y-15989D01*
X-57218Y-15983D01*
X-57103Y-15904D01*
X-56986Y-15830D01*
X-56972Y-15815D01*
X-56955Y-15804D01*
X-56863Y-15700D01*
X-56768Y-15598D01*
X-56758Y-15581D01*
X-56745Y-15566D01*
X-56681Y-15442D01*
X-56614Y-15320D01*
X-56609Y-15300D01*
X-56600Y-15282D01*
X-56570Y-15146D01*
X-56535Y-15012D01*
X-56533Y-14984D01*
X-56530Y-14972D01*
X-56531Y-14952D01*
X-56525Y-14851D01*
X-56525Y-8715D01*
X-56507Y-8681D01*
X-56499Y-8641D01*
X-56483Y-8604D01*
X-56464Y-8487D01*
X-56438Y-8370D01*
X-56439Y-8330D01*
X-56433Y-8290D01*
X-56444Y-8172D01*
X-56447Y-8053D01*
X-56459Y-8014D01*
X-56462Y-7974D01*
X-56503Y-7862D01*
X-56525Y-7786D01*
X-56525Y-1215D01*
X-56507Y-1181D01*
X-56499Y-1142D01*
X-56483Y-1105D01*
X-56464Y-987D01*
X-56438Y-871D01*
X-56439Y-830D01*
X-56433Y-791D01*
X-56444Y-672D01*
X-56447Y-553D01*
X-56459Y-514D01*
X-56462Y-474D01*
X-56503Y-362D01*
X-56525Y-286D01*
X-56525Y6285D01*
X-56507Y6319D01*
X-56499Y6358D01*
X-56483Y6395D01*
X-56464Y6513D01*
X-56438Y6629D01*
X-56439Y6670D01*
X-56433Y6709D01*
X-56444Y6828D01*
X-56447Y6947D01*
X-56459Y6986D01*
X-56462Y7026D01*
X-56503Y7138D01*
X-56525Y7214D01*
X-56525Y13785D01*
X-56507Y13819D01*
X-56499Y13858D01*
X-56483Y13895D01*
X-56464Y14013D01*
X-56438Y14129D01*
X-56439Y14170D01*
X-56433Y14209D01*
X-56444Y14328D01*
X-56447Y14447D01*
X-56459Y14486D01*
X-56462Y14526D01*
X-56503Y14638D01*
X-56525Y14714D01*
X-56525Y21132D01*
X-55632Y22025D01*
X-54610Y22025D01*
X-54492Y22040D01*
X-54373Y22047D01*
X-54335Y22060D01*
X-54294Y22065D01*
X-54184Y22108D01*
X-54071Y22145D01*
X-54036Y22167D01*
X-53999Y22182D01*
X-53903Y22251D01*
X-53802Y22315D01*
X-53774Y22345D01*
X-53741Y22368D01*
X-53666Y22460D01*
X-53584Y22547D01*
X-53564Y22582D01*
X-53539Y22613D01*
X-53488Y22721D01*
X-53430Y22825D01*
X-53420Y22865D01*
X-53403Y22901D01*
X-53381Y23018D01*
X-53351Y23133D01*
X-53347Y23193D01*
X-53343Y23213D01*
X-53345Y23234D01*
X-53341Y23294D01*
X-53341Y55880D01*
X-53356Y55998D01*
X-53363Y56117D01*
X-53376Y56155D01*
X-53381Y56196D01*
X-53424Y56306D01*
X-53461Y56419D01*
X-53483Y56454D01*
X-53498Y56491D01*
X-53567Y56587D01*
X-53631Y56688D01*
X-53661Y56716D01*
X-53684Y56749D01*
X-53776Y56825D01*
X-53863Y56906D01*
X-53898Y56926D01*
X-53929Y56951D01*
X-54037Y57002D01*
X-54141Y57060D01*
X-54181Y57070D01*
X-54217Y57087D01*
X-54334Y57109D01*
X-54449Y57139D01*
X-54509Y57143D01*
X-54529Y57147D01*
X-54550Y57145D01*
X-54610Y57149D01*
X-109302Y57149D01*
X-109416Y57135D01*
X-109531Y57128D01*
X-109574Y57115D01*
X-109618Y57109D01*
X-109725Y57067D01*
X-109834Y57032D01*
X-109872Y57009D01*
X-109913Y56992D01*
X-110006Y56925D01*
X-110104Y56864D01*
X-110135Y56832D01*
X-110171Y56806D01*
X-110244Y56717D01*
X-110323Y56634D01*
X-110345Y56595D01*
X-110374Y56561D01*
X-110423Y56457D01*
X-110479Y56356D01*
X-110490Y56313D01*
X-110509Y56273D01*
X-110531Y56160D01*
X-110560Y56049D01*
X-110565Y55981D01*
X-110569Y55961D01*
X-110568Y55941D01*
X-110571Y55888D01*
X-110642Y44949D01*
X-110626Y44808D01*
X-110612Y44665D01*
X-110607Y44650D01*
X-110605Y44634D01*
X-110553Y44500D01*
X-110504Y44366D01*
X-110495Y44352D01*
X-110490Y44337D01*
X-110406Y44221D01*
X-110326Y44102D01*
X-110314Y44092D01*
X-110304Y44079D01*
X-110195Y43987D01*
X-110087Y43892D01*
X-110073Y43885D01*
X-110061Y43874D01*
X-109931Y43812D01*
X-109804Y43747D01*
X-109789Y43744D01*
X-109774Y43737D01*
X-109633Y43709D01*
X-109494Y43678D01*
X-109478Y43678D01*
X-109462Y43675D01*
X-109319Y43683D01*
X-109176Y43687D01*
X-109161Y43692D01*
X-109144Y43693D01*
X-109008Y43736D01*
X-108871Y43776D01*
X-108857Y43784D01*
X-108841Y43789D01*
X-108720Y43865D01*
X-108597Y43937D01*
X-108580Y43952D01*
X-108572Y43957D01*
X-108559Y43971D01*
X-108476Y44044D01*
X-104085Y48435D01*
X-96575Y48435D01*
X-91265Y43125D01*
X-91265Y35615D01*
X-96439Y30441D01*
X-96512Y30347D01*
X-96591Y30258D01*
X-96609Y30222D01*
X-96634Y30190D01*
X-96682Y30081D01*
X-96736Y29975D01*
X-96745Y29935D01*
X-96761Y29898D01*
X-96779Y29780D01*
X-96805Y29664D01*
X-96804Y29624D01*
X-96810Y29584D01*
X-96799Y29465D01*
X-96796Y29346D01*
X-96784Y29308D01*
X-96781Y29267D01*
X-96740Y29155D01*
X-96707Y29041D01*
X-96687Y29006D01*
X-96673Y28968D01*
X-96606Y28870D01*
X-96546Y28767D01*
X-96506Y28722D01*
X-96494Y28705D01*
X-96479Y28691D01*
X-96439Y28646D01*
X-87201Y19408D01*
X-87201Y13287D01*
X-87189Y13189D01*
X-87186Y13090D01*
X-87169Y13031D01*
X-87161Y12971D01*
X-87125Y12879D01*
X-87097Y12784D01*
X-87067Y12732D01*
X-87044Y12676D01*
X-86986Y12595D01*
X-86936Y12510D01*
X-86870Y12435D01*
X-86858Y12418D01*
X-86848Y12410D01*
X-86830Y12389D01*
X-58691Y-15749D01*
X-58582Y-15834D01*
X-58475Y-15923D01*
X-58456Y-15931D01*
X-58440Y-15944D01*
X-58312Y-15999D01*
X-58187Y-16058D01*
X-58167Y-16062D01*
X-58148Y-16070D01*
X-58010Y-16092D01*
X-57874Y-16118D01*
X-57854Y-16117D01*
X-57834Y-16120D01*
X-57695Y-16107D01*
G37*
G36*
X-43347Y-93935D02*
X-43347Y-93935D01*
X-43228Y-93932D01*
X-43189Y-93920D01*
X-43149Y-93916D01*
X-43037Y-93876D01*
X-42922Y-93843D01*
X-42887Y-93823D01*
X-42849Y-93809D01*
X-42751Y-93742D01*
X-42648Y-93682D01*
X-42603Y-93642D01*
X-42586Y-93630D01*
X-42573Y-93615D01*
X-42527Y-93575D01*
X-40666Y-91714D01*
X-40606Y-91636D01*
X-40538Y-91564D01*
X-40509Y-91511D01*
X-40472Y-91463D01*
X-40432Y-91372D01*
X-40384Y-91285D01*
X-40369Y-91227D01*
X-40345Y-91171D01*
X-40330Y-91073D01*
X-40305Y-90977D01*
X-40299Y-90877D01*
X-40295Y-90857D01*
X-40297Y-90845D01*
X-40295Y-90817D01*
X-40295Y-77387D01*
X-40307Y-77289D01*
X-40310Y-77190D01*
X-40327Y-77132D01*
X-40335Y-77072D01*
X-40371Y-76980D01*
X-40399Y-76885D01*
X-40429Y-76832D01*
X-40452Y-76776D01*
X-40510Y-76696D01*
X-40560Y-76611D01*
X-40626Y-76535D01*
X-40638Y-76519D01*
X-40648Y-76511D01*
X-40667Y-76490D01*
X-41525Y-75632D01*
X-41525Y-69794D01*
X-41540Y-69676D01*
X-41547Y-69557D01*
X-41560Y-69519D01*
X-41565Y-69478D01*
X-41608Y-69368D01*
X-41645Y-69255D01*
X-41667Y-69220D01*
X-41682Y-69183D01*
X-41751Y-69087D01*
X-41815Y-68986D01*
X-41845Y-68958D01*
X-41868Y-68925D01*
X-41960Y-68849D01*
X-42047Y-68768D01*
X-42082Y-68748D01*
X-42113Y-68723D01*
X-42221Y-68672D01*
X-42325Y-68614D01*
X-42365Y-68604D01*
X-42401Y-68587D01*
X-42518Y-68565D01*
X-42633Y-68535D01*
X-42693Y-68531D01*
X-42713Y-68527D01*
X-42734Y-68529D01*
X-42794Y-68525D01*
X-55632Y-68525D01*
X-56525Y-67632D01*
X-56525Y-61215D01*
X-56507Y-61181D01*
X-56499Y-61142D01*
X-56483Y-61105D01*
X-56464Y-60987D01*
X-56438Y-60871D01*
X-56439Y-60830D01*
X-56433Y-60791D01*
X-56444Y-60672D01*
X-56447Y-60553D01*
X-56459Y-60514D01*
X-56462Y-60474D01*
X-56503Y-60362D01*
X-56525Y-60286D01*
X-56525Y-53715D01*
X-56507Y-53681D01*
X-56499Y-53642D01*
X-56483Y-53605D01*
X-56464Y-53487D01*
X-56438Y-53371D01*
X-56439Y-53330D01*
X-56433Y-53291D01*
X-56444Y-53172D01*
X-56447Y-53053D01*
X-56459Y-53014D01*
X-56462Y-52974D01*
X-56503Y-52862D01*
X-56525Y-52786D01*
X-56525Y-46215D01*
X-56507Y-46181D01*
X-56499Y-46141D01*
X-56483Y-46104D01*
X-56464Y-45987D01*
X-56438Y-45870D01*
X-56439Y-45830D01*
X-56433Y-45790D01*
X-56444Y-45672D01*
X-56447Y-45553D01*
X-56459Y-45514D01*
X-56462Y-45474D01*
X-56503Y-45362D01*
X-56525Y-45286D01*
X-56525Y-38564D01*
X-56540Y-38446D01*
X-56547Y-38327D01*
X-56560Y-38289D01*
X-56565Y-38248D01*
X-56608Y-38138D01*
X-56645Y-38025D01*
X-56667Y-37990D01*
X-56682Y-37953D01*
X-56751Y-37857D01*
X-56815Y-37756D01*
X-56845Y-37728D01*
X-56868Y-37695D01*
X-56960Y-37619D01*
X-57047Y-37538D01*
X-57082Y-37518D01*
X-57113Y-37493D01*
X-57221Y-37442D01*
X-57325Y-37384D01*
X-57365Y-37374D01*
X-57401Y-37357D01*
X-57518Y-37335D01*
X-57633Y-37305D01*
X-57693Y-37301D01*
X-57713Y-37297D01*
X-57734Y-37299D01*
X-57794Y-37295D01*
X-80958Y-37295D01*
X-97386Y-20866D01*
X-97464Y-20806D01*
X-97536Y-20738D01*
X-97589Y-20709D01*
X-97637Y-20672D01*
X-97728Y-20632D01*
X-97815Y-20584D01*
X-97873Y-20569D01*
X-97929Y-20545D01*
X-98027Y-20530D01*
X-98123Y-20505D01*
X-98223Y-20499D01*
X-98243Y-20495D01*
X-98255Y-20497D01*
X-98283Y-20495D01*
X-104085Y-20495D01*
X-108875Y-15704D01*
X-108982Y-15621D01*
X-109085Y-15535D01*
X-109107Y-15524D01*
X-109127Y-15509D01*
X-109251Y-15455D01*
X-109372Y-15397D01*
X-109396Y-15392D01*
X-109419Y-15383D01*
X-109552Y-15362D01*
X-109684Y-15335D01*
X-109709Y-15337D01*
X-109733Y-15333D01*
X-109867Y-15346D01*
X-110002Y-15353D01*
X-110025Y-15360D01*
X-110049Y-15363D01*
X-110176Y-15408D01*
X-110305Y-15449D01*
X-110325Y-15462D01*
X-110349Y-15470D01*
X-110460Y-15546D01*
X-110575Y-15618D01*
X-110591Y-15635D01*
X-110612Y-15649D01*
X-110701Y-15750D01*
X-110794Y-15848D01*
X-110806Y-15869D01*
X-110822Y-15887D01*
X-110884Y-16008D01*
X-110949Y-16125D01*
X-110956Y-16149D01*
X-110967Y-16171D01*
X-110996Y-16302D01*
X-111031Y-16433D01*
X-111033Y-16467D01*
X-111036Y-16481D01*
X-111036Y-16502D01*
X-111042Y-16593D01*
X-111141Y-31749D01*
X-111124Y-31890D01*
X-111110Y-32033D01*
X-111105Y-32048D01*
X-111103Y-32064D01*
X-111051Y-32198D01*
X-111003Y-32332D01*
X-110993Y-32346D01*
X-110988Y-32361D01*
X-110904Y-32477D01*
X-110824Y-32596D01*
X-110812Y-32606D01*
X-110802Y-32619D01*
X-110693Y-32711D01*
X-110585Y-32806D01*
X-110571Y-32813D01*
X-110559Y-32824D01*
X-110429Y-32886D01*
X-110302Y-32951D01*
X-110287Y-32954D01*
X-110272Y-32961D01*
X-110131Y-32989D01*
X-109992Y-33020D01*
X-109976Y-33020D01*
X-109960Y-33023D01*
X-109817Y-33015D01*
X-109674Y-33011D01*
X-109659Y-33006D01*
X-109642Y-33005D01*
X-109506Y-32962D01*
X-109369Y-32922D01*
X-109355Y-32914D01*
X-109339Y-32909D01*
X-109218Y-32833D01*
X-109095Y-32761D01*
X-109078Y-32746D01*
X-109070Y-32741D01*
X-109057Y-32727D01*
X-108974Y-32654D01*
X-104085Y-27765D01*
X-96575Y-27765D01*
X-91265Y-33075D01*
X-91265Y-40585D01*
X-93392Y-42711D01*
X-93465Y-42805D01*
X-93543Y-42894D01*
X-93562Y-42930D01*
X-93587Y-42962D01*
X-93634Y-43072D01*
X-93688Y-43178D01*
X-93697Y-43217D01*
X-93713Y-43254D01*
X-93732Y-43372D01*
X-93758Y-43488D01*
X-93756Y-43528D01*
X-93763Y-43568D01*
X-93752Y-43687D01*
X-93748Y-43806D01*
X-93737Y-43845D01*
X-93733Y-43885D01*
X-93693Y-43997D01*
X-93660Y-44111D01*
X-93639Y-44146D01*
X-93625Y-44184D01*
X-93558Y-44283D01*
X-93498Y-44385D01*
X-93458Y-44430D01*
X-93447Y-44447D01*
X-93431Y-44461D01*
X-93392Y-44506D01*
X-44322Y-93575D01*
X-44228Y-93648D01*
X-44139Y-93727D01*
X-44103Y-93745D01*
X-44071Y-93770D01*
X-43962Y-93817D01*
X-43856Y-93872D01*
X-43817Y-93880D01*
X-43779Y-93896D01*
X-43662Y-93915D01*
X-43546Y-93941D01*
X-43505Y-93940D01*
X-43465Y-93946D01*
X-43347Y-93935D01*
G37*
G36*
X77375Y20807D02*
X77375Y20807D01*
X77474Y20810D01*
X77532Y20827D01*
X77592Y20835D01*
X77684Y20871D01*
X77779Y20899D01*
X77832Y20929D01*
X77888Y20952D01*
X77968Y21010D01*
X78053Y21060D01*
X78129Y21126D01*
X78145Y21138D01*
X78153Y21148D01*
X78174Y21166D01*
X93587Y36579D01*
X93660Y36673D01*
X93738Y36762D01*
X93757Y36798D01*
X93782Y36830D01*
X93829Y36940D01*
X93883Y37045D01*
X93892Y37085D01*
X93908Y37122D01*
X93927Y37240D01*
X93953Y37356D01*
X93951Y37396D01*
X93958Y37436D01*
X93947Y37555D01*
X93943Y37674D01*
X93932Y37712D01*
X93928Y37753D01*
X93888Y37865D01*
X93855Y37979D01*
X93834Y38014D01*
X93820Y38052D01*
X93805Y38074D01*
X93805Y45665D01*
X99115Y50975D01*
X106625Y50975D01*
X108204Y49396D01*
X108310Y49313D01*
X108414Y49226D01*
X108436Y49216D01*
X108455Y49201D01*
X108579Y49147D01*
X108700Y49089D01*
X108724Y49084D01*
X108747Y49075D01*
X108880Y49053D01*
X109012Y49027D01*
X109037Y49029D01*
X109061Y49025D01*
X109195Y49037D01*
X109330Y49045D01*
X109353Y49052D01*
X109377Y49055D01*
X109505Y49100D01*
X109633Y49141D01*
X109654Y49154D01*
X109677Y49162D01*
X109788Y49238D01*
X109903Y49309D01*
X109920Y49327D01*
X109940Y49341D01*
X110029Y49442D01*
X110122Y49540D01*
X110134Y49561D01*
X110150Y49579D01*
X110212Y49700D01*
X110278Y49817D01*
X110284Y49841D01*
X110295Y49862D01*
X110324Y49994D01*
X110359Y50125D01*
X110361Y50159D01*
X110365Y50173D01*
X110364Y50194D01*
X110370Y50285D01*
X110407Y55872D01*
X110392Y55994D01*
X110384Y56117D01*
X110373Y56151D01*
X110369Y56188D01*
X110324Y56302D01*
X110286Y56419D01*
X110267Y56450D01*
X110254Y56484D01*
X110182Y56584D01*
X110116Y56688D01*
X110090Y56713D01*
X110068Y56743D01*
X109974Y56822D01*
X109884Y56906D01*
X109853Y56924D01*
X109825Y56947D01*
X109714Y57000D01*
X109606Y57060D01*
X109571Y57069D01*
X109538Y57084D01*
X109417Y57108D01*
X109298Y57139D01*
X109245Y57142D01*
X109226Y57146D01*
X109205Y57145D01*
X109137Y57149D01*
X45720Y57149D01*
X45602Y57134D01*
X45483Y57127D01*
X45445Y57114D01*
X45404Y57109D01*
X45294Y57066D01*
X45181Y57029D01*
X45146Y57007D01*
X45109Y56992D01*
X45013Y56923D01*
X44912Y56859D01*
X44884Y56829D01*
X44851Y56806D01*
X44776Y56714D01*
X44694Y56627D01*
X44674Y56592D01*
X44649Y56561D01*
X44598Y56453D01*
X44540Y56349D01*
X44530Y56309D01*
X44513Y56273D01*
X44491Y56156D01*
X44461Y56041D01*
X44457Y55981D01*
X44453Y55961D01*
X44455Y55940D01*
X44451Y55880D01*
X44451Y53294D01*
X44466Y53176D01*
X44473Y53057D01*
X44486Y53019D01*
X44491Y52978D01*
X44534Y52868D01*
X44571Y52755D01*
X44593Y52720D01*
X44608Y52683D01*
X44678Y52587D01*
X44741Y52486D01*
X44771Y52458D01*
X44794Y52425D01*
X44886Y52349D01*
X44973Y52268D01*
X45008Y52248D01*
X45039Y52223D01*
X45147Y52172D01*
X45251Y52114D01*
X45291Y52104D01*
X45327Y52087D01*
X45444Y52065D01*
X45559Y52035D01*
X45620Y52031D01*
X45640Y52027D01*
X45660Y52029D01*
X45720Y52025D01*
X55632Y52025D01*
X56525Y51132D01*
X56525Y44715D01*
X56507Y44681D01*
X56499Y44642D01*
X56483Y44605D01*
X56464Y44487D01*
X56438Y44371D01*
X56439Y44330D01*
X56433Y44291D01*
X56444Y44172D01*
X56447Y44053D01*
X56459Y44014D01*
X56462Y43974D01*
X56503Y43862D01*
X56525Y43786D01*
X56525Y37215D01*
X56507Y37181D01*
X56499Y37142D01*
X56483Y37105D01*
X56464Y36987D01*
X56438Y36871D01*
X56439Y36830D01*
X56433Y36791D01*
X56444Y36672D01*
X56447Y36553D01*
X56459Y36514D01*
X56462Y36474D01*
X56503Y36362D01*
X56525Y36286D01*
X56525Y29715D01*
X56507Y29681D01*
X56499Y29641D01*
X56483Y29604D01*
X56464Y29487D01*
X56438Y29370D01*
X56439Y29330D01*
X56433Y29290D01*
X56444Y29172D01*
X56447Y29053D01*
X56459Y29014D01*
X56462Y28974D01*
X56503Y28862D01*
X56525Y28786D01*
X56525Y22064D01*
X56540Y21946D01*
X56547Y21827D01*
X56560Y21789D01*
X56565Y21748D01*
X56608Y21638D01*
X56645Y21525D01*
X56667Y21490D01*
X56682Y21453D01*
X56751Y21357D01*
X56815Y21256D01*
X56845Y21228D01*
X56868Y21195D01*
X56960Y21119D01*
X57047Y21038D01*
X57082Y21018D01*
X57113Y20993D01*
X57221Y20942D01*
X57325Y20884D01*
X57365Y20874D01*
X57401Y20857D01*
X57518Y20835D01*
X57633Y20805D01*
X57693Y20801D01*
X57713Y20797D01*
X57734Y20799D01*
X57794Y20795D01*
X77277Y20795D01*
X77375Y20807D01*
G37*
G36*
X-54795Y-103266D02*
X-54795Y-103266D01*
X-54657Y-103257D01*
X-54638Y-103251D01*
X-54618Y-103249D01*
X-54486Y-103202D01*
X-54355Y-103159D01*
X-54337Y-103148D01*
X-54318Y-103141D01*
X-54203Y-103063D01*
X-54086Y-102989D01*
X-54072Y-102974D01*
X-54055Y-102963D01*
X-53963Y-102859D01*
X-53868Y-102757D01*
X-53858Y-102739D01*
X-53845Y-102724D01*
X-53781Y-102600D01*
X-53714Y-102479D01*
X-53709Y-102459D01*
X-53700Y-102441D01*
X-53670Y-102305D01*
X-53635Y-102171D01*
X-53633Y-102143D01*
X-53630Y-102131D01*
X-53631Y-102110D01*
X-53625Y-102010D01*
X-53625Y-95968D01*
X-52627Y-94971D01*
X-52554Y-94877D01*
X-52475Y-94787D01*
X-52457Y-94751D01*
X-52432Y-94719D01*
X-52385Y-94610D01*
X-52330Y-94504D01*
X-52322Y-94465D01*
X-52306Y-94427D01*
X-52287Y-94310D01*
X-52261Y-94194D01*
X-52262Y-94153D01*
X-52256Y-94113D01*
X-52267Y-93995D01*
X-52270Y-93876D01*
X-52282Y-93837D01*
X-52285Y-93797D01*
X-52326Y-93684D01*
X-52359Y-93570D01*
X-52379Y-93536D01*
X-52393Y-93497D01*
X-52460Y-93399D01*
X-52520Y-93296D01*
X-52560Y-93251D01*
X-52572Y-93234D01*
X-52587Y-93221D01*
X-52627Y-93176D01*
X-99536Y-46266D01*
X-99614Y-46206D01*
X-99686Y-46138D01*
X-99739Y-46109D01*
X-99787Y-46072D01*
X-99878Y-46032D01*
X-99965Y-45984D01*
X-100023Y-45969D01*
X-100079Y-45945D01*
X-100177Y-45930D01*
X-100273Y-45905D01*
X-100373Y-45899D01*
X-100393Y-45895D01*
X-100405Y-45897D01*
X-100433Y-45895D01*
X-104085Y-45895D01*
X-109039Y-40940D01*
X-109146Y-40857D01*
X-109249Y-40771D01*
X-109271Y-40760D01*
X-109291Y-40745D01*
X-109415Y-40692D01*
X-109536Y-40633D01*
X-109560Y-40629D01*
X-109582Y-40619D01*
X-109716Y-40598D01*
X-109848Y-40572D01*
X-109872Y-40573D01*
X-109896Y-40569D01*
X-110031Y-40582D01*
X-110166Y-40589D01*
X-110189Y-40597D01*
X-110213Y-40599D01*
X-110340Y-40645D01*
X-110469Y-40685D01*
X-110489Y-40698D01*
X-110512Y-40706D01*
X-110624Y-40782D01*
X-110739Y-40854D01*
X-110755Y-40871D01*
X-110776Y-40885D01*
X-110865Y-40986D01*
X-110958Y-41084D01*
X-110970Y-41105D01*
X-110986Y-41123D01*
X-111048Y-41244D01*
X-111113Y-41361D01*
X-111119Y-41385D01*
X-111131Y-41407D01*
X-111160Y-41538D01*
X-111195Y-41669D01*
X-111197Y-41703D01*
X-111200Y-41717D01*
X-111200Y-41738D01*
X-111206Y-41829D01*
X-111307Y-57315D01*
X-111290Y-57456D01*
X-111276Y-57599D01*
X-111271Y-57614D01*
X-111269Y-57630D01*
X-111217Y-57764D01*
X-111169Y-57898D01*
X-111159Y-57912D01*
X-111154Y-57927D01*
X-111070Y-58043D01*
X-110990Y-58162D01*
X-110978Y-58172D01*
X-110968Y-58185D01*
X-110859Y-58277D01*
X-110751Y-58372D01*
X-110737Y-58379D01*
X-110725Y-58390D01*
X-110595Y-58452D01*
X-110468Y-58517D01*
X-110453Y-58520D01*
X-110438Y-58527D01*
X-110297Y-58555D01*
X-110158Y-58586D01*
X-110142Y-58586D01*
X-110126Y-58589D01*
X-109983Y-58581D01*
X-109840Y-58577D01*
X-109825Y-58572D01*
X-109808Y-58571D01*
X-109672Y-58528D01*
X-109535Y-58488D01*
X-109521Y-58480D01*
X-109505Y-58475D01*
X-109384Y-58399D01*
X-109261Y-58327D01*
X-109244Y-58312D01*
X-109236Y-58307D01*
X-109223Y-58293D01*
X-109140Y-58220D01*
X-104085Y-53165D01*
X-96575Y-53165D01*
X-91265Y-58475D01*
X-91265Y-66035D01*
X-91287Y-66063D01*
X-91334Y-66172D01*
X-91389Y-66278D01*
X-91397Y-66318D01*
X-91414Y-66355D01*
X-91432Y-66472D01*
X-91458Y-66589D01*
X-91457Y-66629D01*
X-91463Y-66669D01*
X-91452Y-66787D01*
X-91449Y-66906D01*
X-91437Y-66945D01*
X-91434Y-66985D01*
X-91393Y-67097D01*
X-91360Y-67212D01*
X-91340Y-67247D01*
X-91326Y-67285D01*
X-91259Y-67383D01*
X-91199Y-67486D01*
X-91159Y-67531D01*
X-91147Y-67548D01*
X-91132Y-67561D01*
X-91092Y-67607D01*
X-55791Y-102908D01*
X-55682Y-102993D01*
X-55575Y-103081D01*
X-55556Y-103090D01*
X-55540Y-103102D01*
X-55412Y-103158D01*
X-55287Y-103217D01*
X-55267Y-103221D01*
X-55248Y-103229D01*
X-55110Y-103251D01*
X-54974Y-103277D01*
X-54954Y-103275D01*
X-54934Y-103279D01*
X-54795Y-103266D01*
G37*
G36*
X108703Y-26671D02*
X108703Y-26671D01*
X108838Y-26663D01*
X108861Y-26656D01*
X108886Y-26654D01*
X109013Y-26608D01*
X109141Y-26567D01*
X109162Y-26554D01*
X109185Y-26546D01*
X109297Y-26470D01*
X109411Y-26399D01*
X109428Y-26381D01*
X109448Y-26368D01*
X109537Y-26266D01*
X109631Y-26169D01*
X109642Y-26147D01*
X109659Y-26129D01*
X109720Y-26009D01*
X109786Y-25891D01*
X109792Y-25868D01*
X109803Y-25846D01*
X109833Y-25714D01*
X109867Y-25584D01*
X109870Y-25550D01*
X109873Y-25536D01*
X109872Y-25514D01*
X109879Y-25423D01*
X109929Y-17723D01*
X109912Y-17581D01*
X109898Y-17439D01*
X109893Y-17424D01*
X109891Y-17408D01*
X109839Y-17274D01*
X109791Y-17139D01*
X109781Y-17126D01*
X109776Y-17111D01*
X109693Y-16995D01*
X109612Y-16876D01*
X109600Y-16866D01*
X109591Y-16853D01*
X109481Y-16761D01*
X109374Y-16666D01*
X109359Y-16658D01*
X109347Y-16648D01*
X109217Y-16586D01*
X109090Y-16521D01*
X109075Y-16518D01*
X109060Y-16511D01*
X108919Y-16483D01*
X108780Y-16452D01*
X108764Y-16452D01*
X108748Y-16449D01*
X108605Y-16457D01*
X108462Y-16461D01*
X108447Y-16466D01*
X108431Y-16467D01*
X108294Y-16510D01*
X108157Y-16550D01*
X108143Y-16558D01*
X108127Y-16563D01*
X108006Y-16638D01*
X107883Y-16711D01*
X107866Y-16726D01*
X107858Y-16731D01*
X107845Y-16745D01*
X107762Y-16818D01*
X106625Y-17955D01*
X99115Y-17955D01*
X93805Y-12645D01*
X93805Y-5048D01*
X93829Y-4993D01*
X93883Y-4887D01*
X93892Y-4848D01*
X93908Y-4811D01*
X93927Y-4693D01*
X93953Y-4577D01*
X93951Y-4537D01*
X93958Y-4497D01*
X93947Y-4379D01*
X93943Y-4259D01*
X93932Y-4220D01*
X93928Y-4180D01*
X93888Y-4068D01*
X93855Y-3954D01*
X93834Y-3919D01*
X93820Y-3881D01*
X93754Y-3783D01*
X93693Y-3680D01*
X93653Y-3635D01*
X93642Y-3618D01*
X93627Y-3604D01*
X93587Y-3559D01*
X90194Y-166D01*
X90116Y-106D01*
X90044Y-38D01*
X89991Y-9D01*
X89943Y28D01*
X89852Y68D01*
X89765Y116D01*
X89707Y131D01*
X89651Y155D01*
X89553Y170D01*
X89457Y195D01*
X89357Y201D01*
X89337Y205D01*
X89325Y204D01*
X89297Y205D01*
X57794Y205D01*
X57676Y190D01*
X57557Y183D01*
X57519Y171D01*
X57478Y165D01*
X57368Y122D01*
X57255Y85D01*
X57220Y63D01*
X57183Y48D01*
X57087Y-21D01*
X56986Y-85D01*
X56958Y-115D01*
X56925Y-138D01*
X56849Y-230D01*
X56768Y-317D01*
X56748Y-352D01*
X56723Y-383D01*
X56672Y-491D01*
X56614Y-595D01*
X56604Y-635D01*
X56587Y-671D01*
X56565Y-788D01*
X56535Y-903D01*
X56531Y-963D01*
X56527Y-983D01*
X56529Y-1004D01*
X56525Y-1064D01*
X56525Y-7936D01*
X56540Y-8054D01*
X56547Y-8173D01*
X56560Y-8211D01*
X56565Y-8252D01*
X56608Y-8362D01*
X56645Y-8475D01*
X56667Y-8510D01*
X56682Y-8547D01*
X56751Y-8643D01*
X56815Y-8744D01*
X56845Y-8772D01*
X56868Y-8805D01*
X56960Y-8881D01*
X57047Y-8962D01*
X57082Y-8982D01*
X57113Y-9007D01*
X57221Y-9058D01*
X57325Y-9116D01*
X57365Y-9126D01*
X57401Y-9143D01*
X57518Y-9165D01*
X57633Y-9195D01*
X57693Y-9199D01*
X57713Y-9203D01*
X57734Y-9201D01*
X57794Y-9205D01*
X82058Y-9205D01*
X97706Y-24854D01*
X97784Y-24914D01*
X97856Y-24982D01*
X97909Y-25011D01*
X97957Y-25048D01*
X98048Y-25088D01*
X98135Y-25136D01*
X98193Y-25151D01*
X98249Y-25175D01*
X98347Y-25190D01*
X98443Y-25215D01*
X98543Y-25221D01*
X98563Y-25225D01*
X98575Y-25223D01*
X98603Y-25225D01*
X106625Y-25225D01*
X107712Y-26312D01*
X107819Y-26395D01*
X107922Y-26482D01*
X107944Y-26492D01*
X107963Y-26507D01*
X108087Y-26561D01*
X108209Y-26619D01*
X108233Y-26624D01*
X108255Y-26634D01*
X108388Y-26655D01*
X108521Y-26681D01*
X108545Y-26680D01*
X108569Y-26684D01*
X108703Y-26671D01*
G37*
G36*
X92654Y13310D02*
X92654Y13310D01*
X92773Y13317D01*
X92811Y13330D01*
X92852Y13335D01*
X92962Y13378D01*
X93075Y13415D01*
X93110Y13437D01*
X93147Y13452D01*
X93243Y13521D01*
X93344Y13585D01*
X93372Y13615D01*
X93405Y13638D01*
X93481Y13730D01*
X93562Y13817D01*
X93582Y13852D01*
X93607Y13883D01*
X93658Y13991D01*
X93716Y14095D01*
X93726Y14135D01*
X93743Y14171D01*
X93765Y14288D01*
X93795Y14403D01*
X93799Y14463D01*
X93803Y14483D01*
X93801Y14504D01*
X93805Y14564D01*
X93805Y20265D01*
X99115Y25575D01*
X106625Y25575D01*
X108040Y24160D01*
X108146Y24077D01*
X108250Y23990D01*
X108272Y23980D01*
X108291Y23965D01*
X108415Y23911D01*
X108536Y23853D01*
X108560Y23848D01*
X108583Y23839D01*
X108716Y23817D01*
X108848Y23791D01*
X108873Y23792D01*
X108897Y23789D01*
X109031Y23801D01*
X109166Y23809D01*
X109189Y23816D01*
X109213Y23818D01*
X109341Y23864D01*
X109469Y23905D01*
X109490Y23918D01*
X109513Y23926D01*
X109625Y24002D01*
X109739Y24073D01*
X109756Y24091D01*
X109776Y24105D01*
X109865Y24206D01*
X109958Y24304D01*
X109970Y24325D01*
X109986Y24343D01*
X110048Y24464D01*
X110114Y24581D01*
X110120Y24605D01*
X110131Y24626D01*
X110161Y24758D01*
X110195Y24888D01*
X110198Y24923D01*
X110201Y24937D01*
X110200Y24958D01*
X110206Y25049D01*
X110261Y33409D01*
X110244Y33550D01*
X110230Y33693D01*
X110225Y33709D01*
X110223Y33725D01*
X110171Y33858D01*
X110123Y33993D01*
X110114Y34006D01*
X110108Y34021D01*
X110025Y34137D01*
X109944Y34256D01*
X109932Y34266D01*
X109923Y34280D01*
X109813Y34371D01*
X109706Y34466D01*
X109691Y34474D01*
X109679Y34484D01*
X109549Y34546D01*
X109422Y34611D01*
X109407Y34614D01*
X109392Y34621D01*
X109251Y34649D01*
X109112Y34680D01*
X109096Y34680D01*
X109080Y34683D01*
X108937Y34675D01*
X108794Y34671D01*
X108779Y34666D01*
X108763Y34665D01*
X108626Y34622D01*
X108489Y34582D01*
X108475Y34574D01*
X108459Y34569D01*
X108338Y34493D01*
X108215Y34421D01*
X108198Y34406D01*
X108190Y34401D01*
X108177Y34387D01*
X108094Y34314D01*
X106625Y32845D01*
X99028Y32845D01*
X98973Y32869D01*
X98867Y32923D01*
X98828Y32932D01*
X98791Y32948D01*
X98673Y32967D01*
X98557Y32993D01*
X98517Y32991D01*
X98477Y32998D01*
X98358Y32987D01*
X98239Y32983D01*
X98200Y32972D01*
X98160Y32968D01*
X98048Y32928D01*
X97934Y32895D01*
X97899Y32874D01*
X97861Y32860D01*
X97762Y32793D01*
X97660Y32733D01*
X97614Y32693D01*
X97598Y32682D01*
X97584Y32666D01*
X97539Y32627D01*
X82126Y17214D01*
X80374Y15461D01*
X80289Y15352D01*
X80200Y15245D01*
X80191Y15226D01*
X80179Y15210D01*
X80123Y15082D01*
X80064Y14957D01*
X80061Y14937D01*
X80053Y14918D01*
X80031Y14780D01*
X80005Y14644D01*
X80006Y14624D01*
X80003Y14604D01*
X80016Y14465D01*
X80024Y14327D01*
X80031Y14308D01*
X80032Y14288D01*
X80080Y14156D01*
X80122Y14025D01*
X80133Y14007D01*
X80140Y13988D01*
X80218Y13873D01*
X80293Y13756D01*
X80307Y13742D01*
X80319Y13725D01*
X80423Y13633D01*
X80524Y13538D01*
X80542Y13528D01*
X80557Y13515D01*
X80681Y13451D01*
X80803Y13384D01*
X80822Y13379D01*
X80840Y13370D01*
X80976Y13340D01*
X81111Y13305D01*
X81139Y13303D01*
X81151Y13300D01*
X81171Y13301D01*
X81271Y13295D01*
X92536Y13295D01*
X92654Y13310D01*
G37*
G36*
X-61066Y-24188D02*
X-61066Y-24188D01*
X-60928Y-24175D01*
X-60908Y-24168D01*
X-60888Y-24165D01*
X-60759Y-24114D01*
X-60628Y-24067D01*
X-60611Y-24056D01*
X-60593Y-24048D01*
X-60481Y-23967D01*
X-60365Y-23889D01*
X-60352Y-23873D01*
X-60335Y-23862D01*
X-60247Y-23754D01*
X-60155Y-23650D01*
X-60145Y-23632D01*
X-60133Y-23617D01*
X-60073Y-23491D01*
X-60010Y-23367D01*
X-60006Y-23347D01*
X-59997Y-23329D01*
X-59971Y-23193D01*
X-59940Y-23057D01*
X-59941Y-23036D01*
X-59937Y-23017D01*
X-59946Y-22878D01*
X-59950Y-22739D01*
X-59956Y-22719D01*
X-59957Y-22699D01*
X-60000Y-22567D01*
X-60038Y-22433D01*
X-60049Y-22416D01*
X-60055Y-22397D01*
X-60130Y-22279D01*
X-60200Y-22159D01*
X-60219Y-22138D01*
X-60225Y-22128D01*
X-60240Y-22114D01*
X-60306Y-22039D01*
X-90782Y8437D01*
X-91015Y8670D01*
X-91109Y8743D01*
X-91199Y8822D01*
X-91235Y8840D01*
X-91267Y8865D01*
X-91376Y8913D01*
X-91482Y8967D01*
X-91521Y8975D01*
X-91558Y8992D01*
X-91676Y9010D01*
X-91792Y9036D01*
X-91832Y9035D01*
X-91872Y9041D01*
X-91991Y9030D01*
X-92110Y9027D01*
X-92149Y9015D01*
X-92189Y9012D01*
X-92301Y8971D01*
X-92415Y8938D01*
X-92450Y8918D01*
X-92488Y8904D01*
X-92587Y8837D01*
X-92689Y8777D01*
X-92735Y8737D01*
X-92752Y8725D01*
X-92765Y8710D01*
X-92810Y8670D01*
X-95017Y6464D01*
X-95090Y6370D01*
X-95168Y6281D01*
X-95187Y6245D01*
X-95212Y6213D01*
X-95259Y6103D01*
X-95313Y5997D01*
X-95322Y5958D01*
X-95338Y5921D01*
X-95357Y5803D01*
X-95383Y5687D01*
X-95381Y5647D01*
X-95388Y5607D01*
X-95377Y5488D01*
X-95373Y5369D01*
X-95362Y5330D01*
X-95358Y5290D01*
X-95318Y5178D01*
X-95285Y5064D01*
X-95264Y5029D01*
X-95250Y4991D01*
X-95183Y4892D01*
X-95123Y4790D01*
X-95083Y4745D01*
X-95072Y4728D01*
X-95056Y4714D01*
X-95017Y4669D01*
X-66514Y-23834D01*
X-66436Y-23894D01*
X-66364Y-23962D01*
X-66311Y-23991D01*
X-66263Y-24028D01*
X-66172Y-24068D01*
X-66085Y-24116D01*
X-66027Y-24131D01*
X-65971Y-24155D01*
X-65873Y-24170D01*
X-65777Y-24195D01*
X-65677Y-24201D01*
X-65657Y-24205D01*
X-65645Y-24203D01*
X-65617Y-24205D01*
X-61204Y-24205D01*
X-61066Y-24188D01*
G37*
G36*
X92635Y-39144D02*
X92635Y-39144D01*
X92773Y-39136D01*
X92792Y-39129D01*
X92812Y-39128D01*
X92944Y-39080D01*
X93075Y-39038D01*
X93093Y-39027D01*
X93112Y-39020D01*
X93227Y-38942D01*
X93344Y-38867D01*
X93358Y-38853D01*
X93375Y-38841D01*
X93467Y-38737D01*
X93562Y-38636D01*
X93572Y-38618D01*
X93585Y-38603D01*
X93649Y-38479D01*
X93716Y-38357D01*
X93721Y-38338D01*
X93730Y-38320D01*
X93760Y-38184D01*
X93795Y-38049D01*
X93797Y-38021D01*
X93800Y-38009D01*
X93799Y-37989D01*
X93805Y-37889D01*
X93805Y-30518D01*
X93820Y-30500D01*
X93898Y-30411D01*
X93917Y-30375D01*
X93942Y-30343D01*
X93989Y-30233D01*
X94043Y-30127D01*
X94052Y-30088D01*
X94068Y-30051D01*
X94087Y-29933D01*
X94113Y-29817D01*
X94111Y-29777D01*
X94118Y-29737D01*
X94107Y-29618D01*
X94103Y-29499D01*
X94092Y-29460D01*
X94088Y-29420D01*
X94048Y-29308D01*
X94015Y-29194D01*
X93994Y-29159D01*
X93980Y-29121D01*
X93913Y-29022D01*
X93853Y-28920D01*
X93813Y-28875D01*
X93802Y-28858D01*
X93786Y-28844D01*
X93747Y-28799D01*
X80114Y-15166D01*
X80036Y-15106D01*
X79964Y-15038D01*
X79911Y-15009D01*
X79863Y-14972D01*
X79772Y-14932D01*
X79685Y-14884D01*
X79627Y-14869D01*
X79571Y-14845D01*
X79473Y-14830D01*
X79377Y-14805D01*
X79277Y-14799D01*
X79257Y-14795D01*
X79245Y-14797D01*
X79217Y-14795D01*
X70711Y-14795D01*
X70574Y-14812D01*
X70435Y-14825D01*
X70416Y-14832D01*
X70396Y-14835D01*
X70267Y-14886D01*
X70136Y-14933D01*
X70119Y-14944D01*
X70100Y-14952D01*
X69988Y-15033D01*
X69873Y-15111D01*
X69859Y-15127D01*
X69843Y-15138D01*
X69754Y-15246D01*
X69662Y-15350D01*
X69653Y-15368D01*
X69640Y-15383D01*
X69581Y-15509D01*
X69517Y-15633D01*
X69513Y-15653D01*
X69504Y-15671D01*
X69478Y-15807D01*
X69448Y-15943D01*
X69448Y-15964D01*
X69445Y-15983D01*
X69453Y-16122D01*
X69457Y-16261D01*
X69463Y-16281D01*
X69464Y-16301D01*
X69507Y-16433D01*
X69546Y-16567D01*
X69556Y-16584D01*
X69562Y-16603D01*
X69637Y-16721D01*
X69707Y-16841D01*
X69726Y-16862D01*
X69733Y-16872D01*
X69747Y-16886D01*
X69814Y-16961D01*
X91639Y-38786D01*
X91748Y-38871D01*
X91855Y-38960D01*
X91874Y-38969D01*
X91890Y-38981D01*
X92018Y-39037D01*
X92143Y-39096D01*
X92163Y-39099D01*
X92182Y-39107D01*
X92320Y-39129D01*
X92456Y-39155D01*
X92476Y-39154D01*
X92496Y-39157D01*
X92635Y-39144D01*
G37*
G36*
X-69474Y-31688D02*
X-69474Y-31688D01*
X-69335Y-31675D01*
X-69316Y-31668D01*
X-69296Y-31665D01*
X-69167Y-31614D01*
X-69036Y-31567D01*
X-69019Y-31556D01*
X-69000Y-31548D01*
X-68888Y-31467D01*
X-68773Y-31389D01*
X-68759Y-31373D01*
X-68743Y-31362D01*
X-68654Y-31254D01*
X-68562Y-31150D01*
X-68553Y-31132D01*
X-68540Y-31117D01*
X-68481Y-30991D01*
X-68417Y-30867D01*
X-68413Y-30847D01*
X-68404Y-30829D01*
X-68378Y-30693D01*
X-68348Y-30557D01*
X-68348Y-30536D01*
X-68345Y-30517D01*
X-68353Y-30378D01*
X-68357Y-30239D01*
X-68363Y-30219D01*
X-68364Y-30199D01*
X-68407Y-30067D01*
X-68446Y-29933D01*
X-68456Y-29916D01*
X-68462Y-29897D01*
X-68537Y-29779D01*
X-68607Y-29659D01*
X-68626Y-29638D01*
X-68633Y-29628D01*
X-68647Y-29614D01*
X-68714Y-29539D01*
X-89099Y-9154D01*
X-89208Y-9069D01*
X-89315Y-8980D01*
X-89334Y-8971D01*
X-89350Y-8959D01*
X-89478Y-8903D01*
X-89603Y-8844D01*
X-89623Y-8841D01*
X-89642Y-8833D01*
X-89780Y-8811D01*
X-89916Y-8785D01*
X-89936Y-8786D01*
X-89956Y-8783D01*
X-90095Y-8796D01*
X-90233Y-8804D01*
X-90252Y-8811D01*
X-90272Y-8812D01*
X-90404Y-8860D01*
X-90535Y-8902D01*
X-90553Y-8913D01*
X-90572Y-8920D01*
X-90687Y-8998D01*
X-90804Y-9073D01*
X-90818Y-9087D01*
X-90835Y-9099D01*
X-90927Y-9203D01*
X-91022Y-9304D01*
X-91032Y-9322D01*
X-91045Y-9337D01*
X-91109Y-9461D01*
X-91176Y-9583D01*
X-91181Y-9602D01*
X-91190Y-9620D01*
X-91220Y-9756D01*
X-91255Y-9891D01*
X-91257Y-9919D01*
X-91260Y-9931D01*
X-91259Y-9951D01*
X-91265Y-10051D01*
X-91265Y-15185D01*
X-92317Y-16236D01*
X-92390Y-16330D01*
X-92468Y-16419D01*
X-92487Y-16455D01*
X-92512Y-16487D01*
X-92559Y-16597D01*
X-92613Y-16703D01*
X-92622Y-16742D01*
X-92638Y-16779D01*
X-92657Y-16897D01*
X-92683Y-17013D01*
X-92681Y-17053D01*
X-92688Y-17093D01*
X-92677Y-17212D01*
X-92673Y-17331D01*
X-92662Y-17370D01*
X-92658Y-17410D01*
X-92618Y-17522D01*
X-92585Y-17636D01*
X-92564Y-17671D01*
X-92550Y-17709D01*
X-92483Y-17808D01*
X-92423Y-17910D01*
X-92383Y-17955D01*
X-92372Y-17972D01*
X-92356Y-17986D01*
X-92317Y-18031D01*
X-79014Y-31334D01*
X-78936Y-31394D01*
X-78864Y-31462D01*
X-78811Y-31491D01*
X-78763Y-31528D01*
X-78672Y-31568D01*
X-78585Y-31616D01*
X-78527Y-31631D01*
X-78471Y-31655D01*
X-78373Y-31670D01*
X-78277Y-31695D01*
X-78177Y-31701D01*
X-78157Y-31705D01*
X-78145Y-31703D01*
X-78117Y-31705D01*
X-69611Y-31705D01*
X-69474Y-31688D01*
G37*
G36*
X108867Y-1435D02*
X108867Y-1435D01*
X109002Y-1427D01*
X109025Y-1420D01*
X109050Y-1418D01*
X109177Y-1372D01*
X109305Y-1331D01*
X109326Y-1318D01*
X109349Y-1310D01*
X109461Y-1234D01*
X109575Y-1163D01*
X109592Y-1145D01*
X109612Y-1131D01*
X109701Y-1030D01*
X109794Y-933D01*
X109806Y-911D01*
X109823Y-893D01*
X109884Y-773D01*
X109950Y-655D01*
X109956Y-632D01*
X109967Y-610D01*
X109997Y-478D01*
X110031Y-348D01*
X110034Y-313D01*
X110037Y-299D01*
X110036Y-278D01*
X110042Y-187D01*
X110095Y7843D01*
X110078Y7984D01*
X110064Y8127D01*
X110059Y8142D01*
X110057Y8158D01*
X110005Y8292D01*
X109957Y8427D01*
X109948Y8440D01*
X109942Y8455D01*
X109858Y8572D01*
X109778Y8690D01*
X109766Y8700D01*
X109757Y8713D01*
X109647Y8806D01*
X109540Y8900D01*
X109525Y8908D01*
X109513Y8918D01*
X109384Y8980D01*
X109256Y9045D01*
X109241Y9048D01*
X109226Y9055D01*
X109086Y9083D01*
X108946Y9114D01*
X108930Y9114D01*
X108914Y9117D01*
X108771Y9109D01*
X108628Y9105D01*
X108613Y9100D01*
X108597Y9099D01*
X108460Y9056D01*
X108323Y9016D01*
X108309Y9008D01*
X108293Y9003D01*
X108172Y8928D01*
X108049Y8855D01*
X108032Y8840D01*
X108024Y8835D01*
X108011Y8821D01*
X107928Y8748D01*
X106625Y7445D01*
X99095Y7445D01*
X99077Y7462D01*
X99024Y7491D01*
X98976Y7528D01*
X98885Y7568D01*
X98798Y7616D01*
X98740Y7631D01*
X98684Y7655D01*
X98586Y7670D01*
X98490Y7695D01*
X98390Y7701D01*
X98370Y7705D01*
X98358Y7703D01*
X98330Y7705D01*
X93291Y7705D01*
X93154Y7688D01*
X93015Y7675D01*
X92996Y7668D01*
X92976Y7665D01*
X92847Y7614D01*
X92716Y7567D01*
X92699Y7556D01*
X92680Y7548D01*
X92568Y7467D01*
X92453Y7389D01*
X92439Y7373D01*
X92423Y7362D01*
X92334Y7254D01*
X92242Y7150D01*
X92233Y7132D01*
X92220Y7117D01*
X92161Y6991D01*
X92097Y6867D01*
X92093Y6847D01*
X92084Y6829D01*
X92058Y6692D01*
X92028Y6557D01*
X92028Y6536D01*
X92025Y6517D01*
X92033Y6378D01*
X92037Y6239D01*
X92043Y6219D01*
X92044Y6199D01*
X92087Y6067D01*
X92126Y5933D01*
X92136Y5916D01*
X92142Y5897D01*
X92217Y5779D01*
X92287Y5659D01*
X92306Y5638D01*
X92313Y5628D01*
X92328Y5614D01*
X92394Y5539D01*
X94146Y3786D01*
X97539Y393D01*
X97633Y320D01*
X97722Y242D01*
X97758Y223D01*
X97790Y198D01*
X97900Y151D01*
X98006Y97D01*
X98045Y88D01*
X98082Y72D01*
X98200Y53D01*
X98316Y27D01*
X98356Y29D01*
X98396Y22D01*
X98515Y33D01*
X98634Y37D01*
X98673Y48D01*
X98713Y52D01*
X98825Y92D01*
X98939Y125D01*
X98974Y146D01*
X99012Y160D01*
X99034Y175D01*
X106625Y175D01*
X107876Y-1076D01*
X107982Y-1159D01*
X108086Y-1246D01*
X108108Y-1256D01*
X108127Y-1271D01*
X108251Y-1325D01*
X108373Y-1383D01*
X108396Y-1388D01*
X108419Y-1398D01*
X108552Y-1419D01*
X108685Y-1445D01*
X108709Y-1444D01*
X108733Y-1447D01*
X108867Y-1435D01*
G37*
G36*
X-109651Y-7449D02*
X-109651Y-7449D01*
X-109508Y-7445D01*
X-109493Y-7440D01*
X-109476Y-7439D01*
X-109340Y-7396D01*
X-109203Y-7356D01*
X-109189Y-7348D01*
X-109173Y-7343D01*
X-109052Y-7267D01*
X-108929Y-7195D01*
X-108912Y-7180D01*
X-108904Y-7175D01*
X-108891Y-7161D01*
X-108808Y-7088D01*
X-104085Y-2365D01*
X-98951Y-2365D01*
X-98813Y-2348D01*
X-98675Y-2335D01*
X-98656Y-2328D01*
X-98636Y-2325D01*
X-98506Y-2274D01*
X-98376Y-2227D01*
X-98359Y-2216D01*
X-98340Y-2208D01*
X-98228Y-2127D01*
X-98113Y-2049D01*
X-98099Y-2033D01*
X-98083Y-2022D01*
X-97994Y-1914D01*
X-97902Y-1810D01*
X-97893Y-1792D01*
X-97880Y-1777D01*
X-97821Y-1651D01*
X-97757Y-1527D01*
X-97753Y-1507D01*
X-97744Y-1489D01*
X-97718Y-1352D01*
X-97688Y-1217D01*
X-97688Y-1196D01*
X-97685Y-1177D01*
X-97693Y-1038D01*
X-97697Y-899D01*
X-97703Y-879D01*
X-97704Y-859D01*
X-97747Y-727D01*
X-97786Y-593D01*
X-97796Y-576D01*
X-97802Y-557D01*
X-97877Y-439D01*
X-97947Y-319D01*
X-97966Y-298D01*
X-97973Y-288D01*
X-97988Y-274D01*
X-98054Y-199D01*
X-101116Y2864D01*
X-102786Y4534D01*
X-102864Y4594D01*
X-102936Y4662D01*
X-102989Y4691D01*
X-103037Y4728D01*
X-103128Y4768D01*
X-103215Y4816D01*
X-103273Y4831D01*
X-103329Y4855D01*
X-103427Y4870D01*
X-103523Y4895D01*
X-103623Y4901D01*
X-103643Y4905D01*
X-103655Y4903D01*
X-103683Y4905D01*
X-104085Y4905D01*
X-108712Y9532D01*
X-108818Y9615D01*
X-108922Y9702D01*
X-108944Y9712D01*
X-108963Y9727D01*
X-109087Y9781D01*
X-109208Y9839D01*
X-109232Y9844D01*
X-109255Y9853D01*
X-109388Y9875D01*
X-109520Y9901D01*
X-109545Y9899D01*
X-109569Y9903D01*
X-109703Y9891D01*
X-109838Y9883D01*
X-109861Y9876D01*
X-109885Y9873D01*
X-110013Y9828D01*
X-110141Y9787D01*
X-110162Y9774D01*
X-110185Y9766D01*
X-110296Y9690D01*
X-110411Y9619D01*
X-110428Y9601D01*
X-110448Y9587D01*
X-110537Y9486D01*
X-110630Y9388D01*
X-110642Y9367D01*
X-110658Y9349D01*
X-110720Y9228D01*
X-110786Y9111D01*
X-110792Y9087D01*
X-110803Y9066D01*
X-110832Y8934D01*
X-110867Y8803D01*
X-110869Y8769D01*
X-110873Y8755D01*
X-110872Y8734D01*
X-110878Y8643D01*
X-110975Y-6183D01*
X-110958Y-6324D01*
X-110944Y-6467D01*
X-110939Y-6482D01*
X-110937Y-6498D01*
X-110885Y-6632D01*
X-110837Y-6766D01*
X-110827Y-6780D01*
X-110822Y-6795D01*
X-110738Y-6911D01*
X-110658Y-7030D01*
X-110646Y-7040D01*
X-110636Y-7053D01*
X-110527Y-7145D01*
X-110419Y-7240D01*
X-110405Y-7247D01*
X-110393Y-7258D01*
X-110263Y-7320D01*
X-110136Y-7385D01*
X-110121Y-7388D01*
X-110106Y-7395D01*
X-109965Y-7423D01*
X-109826Y-7454D01*
X-109810Y-7454D01*
X-109794Y-7457D01*
X-109651Y-7449D01*
G37*
G36*
X-109485Y18117D02*
X-109485Y18117D01*
X-109342Y18121D01*
X-109327Y18126D01*
X-109310Y18127D01*
X-109174Y18170D01*
X-109037Y18210D01*
X-109023Y18218D01*
X-109007Y18223D01*
X-108886Y18299D01*
X-108763Y18371D01*
X-108746Y18386D01*
X-108738Y18391D01*
X-108725Y18405D01*
X-108642Y18478D01*
X-104085Y23035D01*
X-101797Y23035D01*
X-101659Y23052D01*
X-101520Y23065D01*
X-101501Y23072D01*
X-101481Y23075D01*
X-101352Y23126D01*
X-101221Y23173D01*
X-101204Y23184D01*
X-101186Y23192D01*
X-101073Y23273D01*
X-100958Y23351D01*
X-100945Y23367D01*
X-100928Y23378D01*
X-100839Y23486D01*
X-100748Y23590D01*
X-100738Y23608D01*
X-100725Y23623D01*
X-100666Y23749D01*
X-100603Y23873D01*
X-100599Y23893D01*
X-100590Y23911D01*
X-100564Y24047D01*
X-100533Y24183D01*
X-100534Y24204D01*
X-100530Y24223D01*
X-100539Y24362D01*
X-100543Y24501D01*
X-100549Y24521D01*
X-100550Y24541D01*
X-100593Y24673D01*
X-100631Y24807D01*
X-100642Y24824D01*
X-100648Y24843D01*
X-100722Y24961D01*
X-100793Y25081D01*
X-100811Y25102D01*
X-100818Y25112D01*
X-100833Y25126D01*
X-100899Y25201D01*
X-103125Y27427D01*
X-103125Y29036D01*
X-103140Y29154D01*
X-103147Y29273D01*
X-103160Y29311D01*
X-103165Y29352D01*
X-103208Y29462D01*
X-103245Y29575D01*
X-103267Y29610D01*
X-103282Y29647D01*
X-103351Y29743D01*
X-103415Y29844D01*
X-103445Y29872D01*
X-103468Y29905D01*
X-103560Y29981D01*
X-103647Y30062D01*
X-103682Y30082D01*
X-103713Y30107D01*
X-103821Y30158D01*
X-103925Y30216D01*
X-103965Y30226D01*
X-104001Y30243D01*
X-104027Y30248D01*
X-108548Y34768D01*
X-108654Y34851D01*
X-108758Y34938D01*
X-108780Y34948D01*
X-108799Y34963D01*
X-108923Y35017D01*
X-109044Y35075D01*
X-109068Y35080D01*
X-109091Y35089D01*
X-109224Y35111D01*
X-109356Y35137D01*
X-109381Y35136D01*
X-109405Y35139D01*
X-109539Y35127D01*
X-109674Y35119D01*
X-109697Y35112D01*
X-109721Y35110D01*
X-109849Y35064D01*
X-109977Y35023D01*
X-109998Y35010D01*
X-110021Y35002D01*
X-110133Y34926D01*
X-110247Y34855D01*
X-110264Y34837D01*
X-110284Y34823D01*
X-110373Y34722D01*
X-110466Y34624D01*
X-110478Y34603D01*
X-110494Y34585D01*
X-110556Y34464D01*
X-110622Y34347D01*
X-110628Y34323D01*
X-110639Y34302D01*
X-110669Y34170D01*
X-110703Y34040D01*
X-110706Y34005D01*
X-110709Y33991D01*
X-110708Y33970D01*
X-110714Y33879D01*
X-110808Y19383D01*
X-110792Y19242D01*
X-110778Y19099D01*
X-110773Y19084D01*
X-110771Y19068D01*
X-110719Y18934D01*
X-110670Y18800D01*
X-110661Y18786D01*
X-110656Y18771D01*
X-110572Y18655D01*
X-110492Y18536D01*
X-110480Y18526D01*
X-110470Y18513D01*
X-110361Y18421D01*
X-110253Y18326D01*
X-110239Y18319D01*
X-110227Y18308D01*
X-110097Y18246D01*
X-109970Y18181D01*
X-109955Y18178D01*
X-109940Y18171D01*
X-109799Y18143D01*
X-109660Y18112D01*
X-109644Y18112D01*
X-109628Y18109D01*
X-109485Y18117D01*
G37*
G36*
X108540Y-51907D02*
X108540Y-51907D01*
X108674Y-51900D01*
X108698Y-51892D01*
X108722Y-51890D01*
X108849Y-51844D01*
X108978Y-51803D01*
X108998Y-51791D01*
X109021Y-51782D01*
X109133Y-51706D01*
X109247Y-51635D01*
X109264Y-51617D01*
X109284Y-51604D01*
X109373Y-51503D01*
X109467Y-51405D01*
X109479Y-51384D01*
X109495Y-51365D01*
X109556Y-51245D01*
X109622Y-51127D01*
X109628Y-51104D01*
X109639Y-51082D01*
X109669Y-50950D01*
X109704Y-50820D01*
X109706Y-50786D01*
X109709Y-50772D01*
X109708Y-50750D01*
X109715Y-50659D01*
X109763Y-43289D01*
X109746Y-43147D01*
X109732Y-43005D01*
X109727Y-42990D01*
X109725Y-42974D01*
X109673Y-42840D01*
X109625Y-42705D01*
X109615Y-42692D01*
X109610Y-42677D01*
X109527Y-42561D01*
X109446Y-42442D01*
X109434Y-42432D01*
X109425Y-42419D01*
X109315Y-42327D01*
X109208Y-42232D01*
X109193Y-42224D01*
X109181Y-42214D01*
X109051Y-42152D01*
X108924Y-42087D01*
X108909Y-42084D01*
X108894Y-42077D01*
X108753Y-42049D01*
X108614Y-42018D01*
X108598Y-42018D01*
X108582Y-42015D01*
X108439Y-42023D01*
X108296Y-42027D01*
X108281Y-42032D01*
X108265Y-42033D01*
X108128Y-42076D01*
X107991Y-42116D01*
X107977Y-42124D01*
X107961Y-42129D01*
X107840Y-42204D01*
X107717Y-42277D01*
X107700Y-42292D01*
X107692Y-42297D01*
X107679Y-42311D01*
X107596Y-42384D01*
X106625Y-43355D01*
X99271Y-43355D01*
X99134Y-43372D01*
X98995Y-43385D01*
X98976Y-43392D01*
X98956Y-43395D01*
X98827Y-43446D01*
X98696Y-43493D01*
X98679Y-43504D01*
X98660Y-43512D01*
X98548Y-43593D01*
X98433Y-43671D01*
X98419Y-43687D01*
X98403Y-43698D01*
X98314Y-43806D01*
X98222Y-43910D01*
X98213Y-43928D01*
X98200Y-43943D01*
X98141Y-44069D01*
X98077Y-44193D01*
X98073Y-44213D01*
X98064Y-44231D01*
X98038Y-44367D01*
X98008Y-44503D01*
X98008Y-44524D01*
X98005Y-44543D01*
X98013Y-44682D01*
X98017Y-44821D01*
X98023Y-44841D01*
X98024Y-44861D01*
X98067Y-44993D01*
X98106Y-45127D01*
X98116Y-45144D01*
X98122Y-45163D01*
X98197Y-45281D01*
X98267Y-45401D01*
X98286Y-45422D01*
X98293Y-45432D01*
X98307Y-45446D01*
X98374Y-45521D01*
X103106Y-50254D01*
X103184Y-50314D01*
X103256Y-50382D01*
X103309Y-50411D01*
X103357Y-50448D01*
X103448Y-50488D01*
X103535Y-50536D01*
X103593Y-50551D01*
X103649Y-50575D01*
X103747Y-50590D01*
X103843Y-50615D01*
X103943Y-50621D01*
X103963Y-50625D01*
X103975Y-50623D01*
X104003Y-50625D01*
X106625Y-50625D01*
X107548Y-51549D01*
X107655Y-51631D01*
X107758Y-51718D01*
X107780Y-51729D01*
X107799Y-51744D01*
X107923Y-51797D01*
X108045Y-51855D01*
X108069Y-51860D01*
X108091Y-51870D01*
X108225Y-51891D01*
X108357Y-51917D01*
X108381Y-51916D01*
X108405Y-51920D01*
X108540Y-51907D01*
G37*
G36*
X-38248Y-103268D02*
X-38248Y-103268D01*
X-38109Y-103264D01*
X-38089Y-103258D01*
X-38069Y-103257D01*
X-37937Y-103214D01*
X-37803Y-103175D01*
X-37786Y-103165D01*
X-37767Y-103159D01*
X-37649Y-103085D01*
X-37529Y-103014D01*
X-37508Y-102995D01*
X-37498Y-102989D01*
X-37484Y-102974D01*
X-37408Y-102907D01*
X-36996Y-102495D01*
X-36936Y-102417D01*
X-36868Y-102345D01*
X-36845Y-102304D01*
X-36832Y-102288D01*
X-36827Y-102277D01*
X-36802Y-102244D01*
X-36762Y-102153D01*
X-36714Y-102067D01*
X-36699Y-102008D01*
X-36675Y-101952D01*
X-36660Y-101854D01*
X-36635Y-101759D01*
X-36629Y-101658D01*
X-36625Y-101638D01*
X-36627Y-101626D01*
X-36625Y-101598D01*
X-36625Y-98641D01*
X-36642Y-98503D01*
X-36655Y-98365D01*
X-36662Y-98346D01*
X-36665Y-98326D01*
X-36716Y-98196D01*
X-36763Y-98066D01*
X-36774Y-98049D01*
X-36782Y-98030D01*
X-36863Y-97918D01*
X-36941Y-97802D01*
X-36957Y-97789D01*
X-36968Y-97773D01*
X-37075Y-97684D01*
X-37180Y-97592D01*
X-37198Y-97583D01*
X-37213Y-97570D01*
X-37339Y-97511D01*
X-37463Y-97447D01*
X-37483Y-97443D01*
X-37501Y-97434D01*
X-37637Y-97408D01*
X-37773Y-97378D01*
X-37794Y-97378D01*
X-37813Y-97375D01*
X-37952Y-97383D01*
X-38091Y-97387D01*
X-38111Y-97393D01*
X-38131Y-97394D01*
X-38263Y-97437D01*
X-38397Y-97476D01*
X-38414Y-97486D01*
X-38433Y-97492D01*
X-38551Y-97567D01*
X-38671Y-97637D01*
X-38692Y-97656D01*
X-38702Y-97663D01*
X-38716Y-97677D01*
X-38792Y-97744D01*
X-39204Y-98156D01*
X-39264Y-98234D01*
X-39332Y-98306D01*
X-39361Y-98359D01*
X-39398Y-98407D01*
X-39438Y-98498D01*
X-39486Y-98585D01*
X-39501Y-98643D01*
X-39525Y-98699D01*
X-39540Y-98797D01*
X-39565Y-98893D01*
X-39570Y-98976D01*
X-39573Y-98989D01*
X-39572Y-98997D01*
X-39575Y-99013D01*
X-39573Y-99025D01*
X-39575Y-99053D01*
X-39575Y-102010D01*
X-39558Y-102148D01*
X-39545Y-102286D01*
X-39538Y-102305D01*
X-39535Y-102326D01*
X-39484Y-102455D01*
X-39437Y-102586D01*
X-39426Y-102602D01*
X-39418Y-102621D01*
X-39337Y-102733D01*
X-39259Y-102849D01*
X-39243Y-102862D01*
X-39232Y-102879D01*
X-39125Y-102967D01*
X-39020Y-103059D01*
X-39002Y-103068D01*
X-38987Y-103081D01*
X-38861Y-103140D01*
X-38737Y-103204D01*
X-38717Y-103208D01*
X-38699Y-103217D01*
X-38563Y-103243D01*
X-38427Y-103274D01*
X-38406Y-103273D01*
X-38387Y-103277D01*
X-38248Y-103268D01*
G37*
D10*
X-29600Y-101600D03*
X-46600Y-101600D03*
D11*
X49000Y48000D03*
X49000Y40500D03*
X49000Y25500D03*
X49000Y33000D03*
X49000Y-4500D03*
X49000Y3000D03*
X49000Y18000D03*
X49000Y10500D03*
X49000Y-64500D03*
X49000Y-57000D03*
X49000Y-42000D03*
X49000Y-49500D03*
X49000Y-12000D03*
X49000Y-19500D03*
X49000Y-34500D03*
X49000Y-27000D03*
X-49000Y-4500D03*
X-49000Y3000D03*
X-49000Y-64500D03*
X-49000Y-57000D03*
X-49000Y-42000D03*
X-49000Y-49500D03*
X-49000Y-12000D03*
X-49000Y-19500D03*
X-49000Y-34500D03*
X-49000Y-27000D03*
X-49000Y10500D03*
X-49000Y18000D03*
D12*
X-22500Y-69000D03*
X-30000Y-69000D03*
X37500Y-69000D03*
X30000Y-69000D03*
X15000Y-69000D03*
X22500Y-69000D03*
X-15000Y-69000D03*
X-7500Y-69000D03*
X7500Y-69000D03*
X0Y-69000D03*
X-37500Y-69000D03*
D13*
X-100330Y39370D03*
X-100330Y13970D03*
X-100330Y-11430D03*
X-100330Y-36830D03*
X-100330Y-62230D03*
X102870Y41910D03*
X102870Y16510D03*
X102870Y-8890D03*
X102870Y-34290D03*
X102870Y-59690D03*
D14*
X-37500Y-69000D02*
X-37500Y-92500D01*
X-46600Y-101600D01*
X-44051Y-101600D01*
X-46600Y-101600D02*
X-46600Y-95250D01*
X-100330Y-41520D02*
X-100330Y-36830D01*
X-100330Y-41520D02*
X-46600Y-95250D01*
X-30000Y-101200D02*
X-30000Y-69000D01*
X-39943Y-109394D02*
X-53257Y-109394D01*
X-32149Y-101600D02*
X-29600Y-101600D01*
X-32149Y-101600D02*
X-39943Y-109394D01*
X-53257Y-109394D02*
X-100330Y-62321D01*
X-100330Y-62230D01*
X90980Y3000D02*
X102870Y-8890D01*
X90980Y3000D02*
X49000Y3000D01*
X49000Y10500D02*
X96860Y10500D01*
X102870Y16510D01*
X78960Y18000D02*
X49000Y18000D01*
X78960Y18000D02*
X102870Y41910D01*
X68400Y-19500D02*
X49000Y-19500D01*
X68400Y-19500D02*
X102870Y-53970D01*
X102870Y-59690D01*
X80900Y-12000D02*
X49000Y-12000D01*
X80900Y-12000D02*
X102870Y-33970D01*
X102870Y-34290D01*
X-49000Y-34500D02*
X-79800Y-34500D01*
X-100330Y-13970D01*
X-100330Y-11430D01*
X-67300Y-27000D02*
X-49000Y-27000D01*
X-67300Y-27000D02*
X-100330Y6030D01*
X-100330Y13970D01*
X-58893Y-19500D02*
X-49000Y-19500D01*
X-58893Y-19500D02*
X-89996Y11603D01*
X-89996Y18251D01*
X-100330Y28585D02*
X-100330Y39370D01*
X-100330Y28585D02*
X-89996Y18251D01*
M02*
