  0
SECTION
  2
HEADER
  9
$ANGBASE
  50
0.0
  9
$ANGDIR
  70
1
  9
$MEASUREMENT
  70
0
  0
ENDSEC
  0
SECTION
  2
TABLES
  0
TABLE
  2
LTYPE
  70
4
  0
LTYPE
  5
40F
  2
CONTINUOUS
  70
0
  3
Solid line
  72
65
  73
0
  40
0.0
  0
LTYPE
  5
410
  2
DASHDOT
 70
0
  3
Dash Dot ____ _ ____ _
 72
65
 73
4
 40
2.0
 49
1.25
 49
-0.25
 49
0.25
 49
-0.25
  0
LTYPE
  5
411
  2
DASHED
 70
0
  3
Dashed __ __ __ __ __
 72
65
 73
2
 40
0.75
 49
0.5
 49
-0.25
  0
LTYPE
  5
43B
  2
DOTTED
 70
0
  3
Dotted .  .  .  .
 72
65
 73
2
 40
0.2
 49
0.0
 49
-0.2
  0
ENDTAB
  0
TABLE
  2
STYLE
  70
4
  0
STYLE
  2
KICAD
  70
0
  40
0
  41
1
  42
1
  50
0
  71
0
  3
isocp.shx
  0
STYLE
  2
KICADB
  70
0
  40
0
  41
1
  42
1
  50
0
  71
0
  3
isocp.shx
  0
STYLE
  2
KICADI
  70
0
  40
0
  41
1
  42
1
  50
15
  71
0
  3
isocp.shx
  0
STYLE
  2
KICADBI
  70
0
  40
0
  41
1
  42
1
  50
15
  71
0
  3
isocp.shx
  0
ENDTAB
  0
TABLE
  2
LAYER
  70
1
  0
LAYER
  2
BLACK
  70
0
  62
7
  6
CONTINUOUS
  0
ENDTAB
  0
ENDSEC
  0
SECTION
  2
ENTITIES
0
LINE
8
BLACK
6
CONTINUOUS
10
6.63636
20
-2.30832
11
6.64245
21
-2.31084
0
LINE
8
BLACK
6
CONTINUOUS
10
6.64245
20
-2.31084
11
6.64793
21
-2.31451
0
LINE
8
BLACK
6
CONTINUOUS
10
6.64793
20
-2.31451
11
6.65259
21
-2.31917
0
LINE
8
BLACK
6
CONTINUOUS
10
6.65259
20
-2.31917
11
6.65626
21
-2.32465
0
LINE
8
BLACK
6
CONTINUOUS
10
6.65626
20
-2.32465
11
6.65878
21
-2.33074
0
LINE
8
BLACK
6
CONTINUOUS
10
6.65878
20
-2.33074
11
6.66006
21
-2.3372
0
LINE
8
BLACK
6
CONTINUOUS
10
6.66006
20
-2.3372
11
6.66006
21
-2.3438
0
LINE
8
BLACK
6
CONTINUOUS
10
6.66006
20
-2.3438
11
6.65878
21
-2.35026
0
LINE
8
BLACK
6
CONTINUOUS
10
6.65878
20
-2.35026
11
6.65626
21
-2.35635
0
LINE
8
BLACK
6
CONTINUOUS
10
6.65626
20
-2.35635
11
6.65259
21
-2.36183
0
LINE
8
BLACK
6
CONTINUOUS
10
6.65259
20
-2.36183
11
6.64793
21
-2.36649
0
LINE
8
BLACK
6
CONTINUOUS
10
6.64793
20
-2.36649
11
6.64245
21
-2.37016
0
LINE
8
BLACK
6
CONTINUOUS
10
6.64245
20
-2.37016
11
6.63636
21
-2.37268
0
LINE
8
BLACK
6
CONTINUOUS
10
6.63636
20
-2.37268
11
6.6299
21
-2.37396
0
LINE
8
BLACK
6
CONTINUOUS
10
6.6299
20
-2.37396
11
6.6233
21
-2.37396
0
LINE
8
BLACK
6
CONTINUOUS
10
6.6233
20
-2.37396
11
6.61684
21
-2.37268
0
LINE
8
BLACK
6
CONTINUOUS
10
6.61684
20
-2.37268
11
6.61075
21
-2.37016
0
LINE
8
BLACK
6
CONTINUOUS
10
6.61075
20
-2.37016
11
6.60527
21
-2.36649
0
LINE
8
BLACK
6
CONTINUOUS
10
6.60527
20
-2.36649
11
6.60061
21
-2.36183
0
LINE
8
BLACK
6
CONTINUOUS
10
6.60061
20
-2.36183
11
6.59694
21
-2.35635
0
LINE
8
BLACK
6
CONTINUOUS
10
6.59694
20
-2.35635
11
6.59442
21
-2.35026
0
LINE
8
BLACK
6
CONTINUOUS
10
6.59442
20
-2.35026
11
6.59314
21
-2.3438
0
LINE
8
BLACK
6
CONTINUOUS
10
6.59314
20
-2.3438
11
6.59314
21
-2.3372
0
LINE
8
BLACK
6
CONTINUOUS
10
6.59314
20
-2.3372
11
6.59442
21
-2.33074
0
LINE
8
BLACK
6
CONTINUOUS
10
6.59442
20
-2.33074
11
6.59694
21
-2.32465
0
LINE
8
BLACK
6
CONTINUOUS
10
6.59694
20
-2.32465
11
6.60061
21
-2.31917
0
LINE
8
BLACK
6
CONTINUOUS
10
6.60061
20
-2.31917
11
6.60527
21
-2.31451
0
LINE
8
BLACK
6
CONTINUOUS
10
6.60527
20
-2.31451
11
6.61075
21
-2.31084
0
LINE
8
BLACK
6
CONTINUOUS
10
6.61075
20
-2.31084
11
6.61684
21
-2.30832
0
LINE
8
BLACK
6
CONTINUOUS
10
6.61684
20
-2.30832
11
6.6233
21
-2.30704
0
LINE
8
BLACK
6
CONTINUOUS
10
6.6233
20
-2.30704
11
6.6299
21
-2.30704
0
LINE
8
BLACK
6
CONTINUOUS
10
6.6299
20
-2.30704
11
6.63636
21
-2.30832
0
LINE
8
BLACK
6
CONTINUOUS
10
6.73636
20
-2.30832
11
6.74245
21
-2.31084
0
LINE
8
BLACK
6
CONTINUOUS
10
6.74245
20
-2.31084
11
6.74793
21
-2.31451
0
LINE
8
BLACK
6
CONTINUOUS
10
6.74793
20
-2.31451
11
6.75259
21
-2.31917
0
LINE
8
BLACK
6
CONTINUOUS
10
6.75259
20
-2.31917
11
6.75626
21
-2.32465
0
LINE
8
BLACK
6
CONTINUOUS
10
6.75626
20
-2.32465
11
6.75878
21
-2.33074
0
LINE
8
BLACK
6
CONTINUOUS
10
6.75878
20
-2.33074
11
6.76006
21
-2.3372
0
LINE
8
BLACK
6
CONTINUOUS
10
6.76006
20
-2.3372
11
6.76006
21
-2.3438
0
LINE
8
BLACK
6
CONTINUOUS
10
6.76006
20
-2.3438
11
6.75878
21
-2.35026
0
LINE
8
BLACK
6
CONTINUOUS
10
6.75878
20
-2.35026
11
6.75626
21
-2.35635
0
LINE
8
BLACK
6
CONTINUOUS
10
6.75626
20
-2.35635
11
6.75259
21
-2.36183
0
LINE
8
BLACK
6
CONTINUOUS
10
6.75259
20
-2.36183
11
6.74793
21
-2.36649
0
LINE
8
BLACK
6
CONTINUOUS
10
6.74793
20
-2.36649
11
6.74245
21
-2.37016
0
LINE
8
BLACK
6
CONTINUOUS
10
6.74245
20
-2.37016
11
6.73636
21
-2.37268
0
LINE
8
BLACK
6
CONTINUOUS
10
6.73636
20
-2.37268
11
6.7299
21
-2.37396
0
LINE
8
BLACK
6
CONTINUOUS
10
6.7299
20
-2.37396
11
6.7233
21
-2.37396
0
LINE
8
BLACK
6
CONTINUOUS
10
6.7233
20
-2.37396
11
6.71684
21
-2.37268
0
LINE
8
BLACK
6
CONTINUOUS
10
6.71684
20
-2.37268
11
6.71075
21
-2.37016
0
LINE
8
BLACK
6
CONTINUOUS
10
6.71075
20
-2.37016
11
6.70527
21
-2.36649
0
LINE
8
BLACK
6
CONTINUOUS
10
6.70527
20
-2.36649
11
6.70061
21
-2.36183
0
LINE
8
BLACK
6
CONTINUOUS
10
6.70061
20
-2.36183
11
6.69694
21
-2.35635
0
LINE
8
BLACK
6
CONTINUOUS
10
6.69694
20
-2.35635
11
6.69442
21
-2.35026
0
LINE
8
BLACK
6
CONTINUOUS
10
6.69442
20
-2.35026
11
6.69314
21
-2.3438
0
LINE
8
BLACK
6
CONTINUOUS
10
6.69314
20
-2.3438
11
6.69314
21
-2.3372
0
LINE
8
BLACK
6
CONTINUOUS
10
6.69314
20
-2.3372
11
6.69442
21
-2.33074
0
LINE
8
BLACK
6
CONTINUOUS
10
6.69442
20
-2.33074
11
6.69694
21
-2.32465
0
LINE
8
BLACK
6
CONTINUOUS
10
6.69694
20
-2.32465
11
6.70061
21
-2.31917
0
LINE
8
BLACK
6
CONTINUOUS
10
6.70061
20
-2.31917
11
6.70527
21
-2.31451
0
LINE
8
BLACK
6
CONTINUOUS
10
6.70527
20
-2.31451
11
6.71075
21
-2.31084
0
LINE
8
BLACK
6
CONTINUOUS
10
6.71075
20
-2.31084
11
6.71684
21
-2.30832
0
LINE
8
BLACK
6
CONTINUOUS
10
6.71684
20
-2.30832
11
6.7233
21
-2.30704
0
LINE
8
BLACK
6
CONTINUOUS
10
6.7233
20
-2.30704
11
6.7299
21
-2.30704
0
LINE
8
BLACK
6
CONTINUOUS
10
6.7299
20
-2.30704
11
6.73636
21
-2.30832
0
LINE
8
BLACK
6
CONTINUOUS
10
5.56006
20
-2.37396
11
5.49314
21
-2.37396
0
LINE
8
BLACK
6
CONTINUOUS
10
5.49314
20
-2.37396
11
5.49314
21
-2.30704
0
LINE
8
BLACK
6
CONTINUOUS
10
5.49314
20
-2.30704
11
5.56006
21
-2.30704
0
LINE
8
BLACK
6
CONTINUOUS
10
5.56006
20
-2.30704
11
5.56006
21
-2.37396
0
LINE
8
BLACK
6
CONTINUOUS
10
5.63636
20
-2.30832
11
5.64245
21
-2.31084
0
LINE
8
BLACK
6
CONTINUOUS
10
5.64245
20
-2.31084
11
5.64793
21
-2.31451
0
LINE
8
BLACK
6
CONTINUOUS
10
5.64793
20
-2.31451
11
5.65259
21
-2.31917
0
LINE
8
BLACK
6
CONTINUOUS
10
5.65259
20
-2.31917
11
5.65626
21
-2.32465
0
LINE
8
BLACK
6
CONTINUOUS
10
5.65626
20
-2.32465
11
5.65878
21
-2.33074
0
LINE
8
BLACK
6
CONTINUOUS
10
5.65878
20
-2.33074
11
5.66006
21
-2.3372
0
LINE
8
BLACK
6
CONTINUOUS
10
5.66006
20
-2.3372
11
5.66006
21
-2.3438
0
LINE
8
BLACK
6
CONTINUOUS
10
5.66006
20
-2.3438
11
5.65878
21
-2.35026
0
LINE
8
BLACK
6
CONTINUOUS
10
5.65878
20
-2.35026
11
5.65626
21
-2.35635
0
LINE
8
BLACK
6
CONTINUOUS
10
5.65626
20
-2.35635
11
5.65259
21
-2.36183
0
LINE
8
BLACK
6
CONTINUOUS
10
5.65259
20
-2.36183
11
5.64793
21
-2.36649
0
LINE
8
BLACK
6
CONTINUOUS
10
5.64793
20
-2.36649
11
5.64245
21
-2.37016
0
LINE
8
BLACK
6
CONTINUOUS
10
5.64245
20
-2.37016
11
5.63636
21
-2.37268
0
LINE
8
BLACK
6
CONTINUOUS
10
5.63636
20
-2.37268
11
5.6299
21
-2.37396
0
LINE
8
BLACK
6
CONTINUOUS
10
5.6299
20
-2.37396
11
5.6233
21
-2.37396
0
LINE
8
BLACK
6
CONTINUOUS
10
5.6233
20
-2.37396
11
5.61684
21
-2.37268
0
LINE
8
BLACK
6
CONTINUOUS
10
5.61684
20
-2.37268
11
5.61075
21
-2.37016
0
LINE
8
BLACK
6
CONTINUOUS
10
5.61075
20
-2.37016
11
5.60527
21
-2.36649
0
LINE
8
BLACK
6
CONTINUOUS
10
5.60527
20
-2.36649
11
5.60061
21
-2.36183
0
LINE
8
BLACK
6
CONTINUOUS
10
5.60061
20
-2.36183
11
5.59694
21
-2.35635
0
LINE
8
BLACK
6
CONTINUOUS
10
5.59694
20
-2.35635
11
5.59442
21
-2.35026
0
LINE
8
BLACK
6
CONTINUOUS
10
5.59442
20
-2.35026
11
5.59314
21
-2.3438
0
LINE
8
BLACK
6
CONTINUOUS
10
5.59314
20
-2.3438
11
5.59314
21
-2.3372
0
LINE
8
BLACK
6
CONTINUOUS
10
5.59314
20
-2.3372
11
5.59442
21
-2.33074
0
LINE
8
BLACK
6
CONTINUOUS
10
5.59442
20
-2.33074
11
5.59694
21
-2.32465
0
LINE
8
BLACK
6
CONTINUOUS
10
5.59694
20
-2.32465
11
5.60061
21
-2.31917
0
LINE
8
BLACK
6
CONTINUOUS
10
5.60061
20
-2.31917
11
5.60527
21
-2.31451
0
LINE
8
BLACK
6
CONTINUOUS
10
5.60527
20
-2.31451
11
5.61075
21
-2.31084
0
LINE
8
BLACK
6
CONTINUOUS
10
5.61075
20
-2.31084
11
5.61684
21
-2.30832
0
LINE
8
BLACK
6
CONTINUOUS
10
5.61684
20
-2.30832
11
5.6233
21
-2.30704
0
LINE
8
BLACK
6
CONTINUOUS
10
5.6233
20
-2.30704
11
5.6299
21
-2.30704
0
LINE
8
BLACK
6
CONTINUOUS
10
5.6299
20
-2.30704
11
5.63636
21
-2.30832
0
LINE
8
BLACK
6
CONTINUOUS
10
5.73636
20
-2.30832
11
5.74245
21
-2.31084
0
LINE
8
BLACK
6
CONTINUOUS
10
5.74245
20
-2.31084
11
5.74793
21
-2.31451
0
LINE
8
BLACK
6
CONTINUOUS
10
5.74793
20
-2.31451
11
5.75259
21
-2.31917
0
LINE
8
BLACK
6
CONTINUOUS
10
5.75259
20
-2.31917
11
5.75626
21
-2.32465
0
LINE
8
BLACK
6
CONTINUOUS
10
5.75626
20
-2.32465
11
5.75878
21
-2.33074
0
LINE
8
BLACK
6
CONTINUOUS
10
5.75878
20
-2.33074
11
5.76006
21
-2.3372
0
LINE
8
BLACK
6
CONTINUOUS
10
5.76006
20
-2.3372
11
5.76006
21
-2.3438
0
LINE
8
BLACK
6
CONTINUOUS
10
5.76006
20
-2.3438
11
5.75878
21
-2.35026
0
LINE
8
BLACK
6
CONTINUOUS
10
5.75878
20
-2.35026
11
5.75626
21
-2.35635
0
LINE
8
BLACK
6
CONTINUOUS
10
5.75626
20
-2.35635
11
5.75259
21
-2.36183
0
LINE
8
BLACK
6
CONTINUOUS
10
5.75259
20
-2.36183
11
5.74793
21
-2.36649
0
LINE
8
BLACK
6
CONTINUOUS
10
5.74793
20
-2.36649
11
5.74245
21
-2.37016
0
LINE
8
BLACK
6
CONTINUOUS
10
5.74245
20
-2.37016
11
5.73636
21
-2.37268
0
LINE
8
BLACK
6
CONTINUOUS
10
5.73636
20
-2.37268
11
5.7299
21
-2.37396
0
LINE
8
BLACK
6
CONTINUOUS
10
5.7299
20
-2.37396
11
5.7233
21
-2.37396
0
LINE
8
BLACK
6
CONTINUOUS
10
5.7233
20
-2.37396
11
5.71684
21
-2.37268
0
LINE
8
BLACK
6
CONTINUOUS
10
5.71684
20
-2.37268
11
5.71075
21
-2.37016
0
LINE
8
BLACK
6
CONTINUOUS
10
5.71075
20
-2.37016
11
5.70527
21
-2.36649
0
LINE
8
BLACK
6
CONTINUOUS
10
5.70527
20
-2.36649
11
5.70061
21
-2.36183
0
LINE
8
BLACK
6
CONTINUOUS
10
5.70061
20
-2.36183
11
5.69694
21
-2.35635
0
LINE
8
BLACK
6
CONTINUOUS
10
5.69694
20
-2.35635
11
5.69442
21
-2.35026
0
LINE
8
BLACK
6
CONTINUOUS
10
5.69442
20
-2.35026
11
5.69314
21
-2.3438
0
LINE
8
BLACK
6
CONTINUOUS
10
5.69314
20
-2.3438
11
5.69314
21
-2.3372
0
LINE
8
BLACK
6
CONTINUOUS
10
5.69314
20
-2.3372
11
5.69442
21
-2.33074
0
LINE
8
BLACK
6
CONTINUOUS
10
5.69442
20
-2.33074
11
5.69694
21
-2.32465
0
LINE
8
BLACK
6
CONTINUOUS
10
5.69694
20
-2.32465
11
5.70061
21
-2.31917
0
LINE
8
BLACK
6
CONTINUOUS
10
5.70061
20
-2.31917
11
5.70527
21
-2.31451
0
LINE
8
BLACK
6
CONTINUOUS
10
5.70527
20
-2.31451
11
5.71075
21
-2.31084
0
LINE
8
BLACK
6
CONTINUOUS
10
5.71075
20
-2.31084
11
5.71684
21
-2.30832
0
LINE
8
BLACK
6
CONTINUOUS
10
5.71684
20
-2.30832
11
5.7233
21
-2.30704
0
LINE
8
BLACK
6
CONTINUOUS
10
5.7233
20
-2.30704
11
5.7299
21
-2.30704
0
LINE
8
BLACK
6
CONTINUOUS
10
5.7299
20
-2.30704
11
5.73636
21
-2.30832
0
LINE
8
BLACK
6
CONTINUOUS
10
5.83636
20
-2.30832
11
5.84245
21
-2.31084
0
LINE
8
BLACK
6
CONTINUOUS
10
5.84245
20
-2.31084
11
5.84793
21
-2.31451
0
LINE
8
BLACK
6
CONTINUOUS
10
5.84793
20
-2.31451
11
5.85259
21
-2.31917
0
LINE
8
BLACK
6
CONTINUOUS
10
5.85259
20
-2.31917
11
5.85626
21
-2.32465
0
LINE
8
BLACK
6
CONTINUOUS
10
5.85626
20
-2.32465
11
5.85878
21
-2.33074
0
LINE
8
BLACK
6
CONTINUOUS
10
5.85878
20
-2.33074
11
5.86006
21
-2.3372
0
LINE
8
BLACK
6
CONTINUOUS
10
5.86006
20
-2.3372
11
5.86006
21
-2.3438
0
LINE
8
BLACK
6
CONTINUOUS
10
5.86006
20
-2.3438
11
5.85878
21
-2.35026
0
LINE
8
BLACK
6
CONTINUOUS
10
5.85878
20
-2.35026
11
5.85626
21
-2.35635
0
LINE
8
BLACK
6
CONTINUOUS
10
5.85626
20
-2.35635
11
5.85259
21
-2.36183
0
LINE
8
BLACK
6
CONTINUOUS
10
5.85259
20
-2.36183
11
5.84793
21
-2.36649
0
LINE
8
BLACK
6
CONTINUOUS
10
5.84793
20
-2.36649
11
5.84245
21
-2.37016
0
LINE
8
BLACK
6
CONTINUOUS
10
5.84245
20
-2.37016
11
5.83636
21
-2.37268
0
LINE
8
BLACK
6
CONTINUOUS
10
5.83636
20
-2.37268
11
5.8299
21
-2.37396
0
LINE
8
BLACK
6
CONTINUOUS
10
5.8299
20
-2.37396
11
5.8233
21
-2.37396
0
LINE
8
BLACK
6
CONTINUOUS
10
5.8233
20
-2.37396
11
5.81684
21
-2.37268
0
LINE
8
BLACK
6
CONTINUOUS
10
5.81684
20
-2.37268
11
5.81075
21
-2.37016
0
LINE
8
BLACK
6
CONTINUOUS
10
5.81075
20
-2.37016
11
5.80527
21
-2.36649
0
LINE
8
BLACK
6
CONTINUOUS
10
5.80527
20
-2.36649
11
5.80061
21
-2.36183
0
LINE
8
BLACK
6
CONTINUOUS
10
5.80061
20
-2.36183
11
5.79694
21
-2.35635
0
LINE
8
BLACK
6
CONTINUOUS
10
5.79694
20
-2.35635
11
5.79442
21
-2.35026
0
LINE
8
BLACK
6
CONTINUOUS
10
5.79442
20
-2.35026
11
5.79314
21
-2.3438
0
LINE
8
BLACK
6
CONTINUOUS
10
5.79314
20
-2.3438
11
5.79314
21
-2.3372
0
LINE
8
BLACK
6
CONTINUOUS
10
5.79314
20
-2.3372
11
5.79442
21
-2.33074
0
LINE
8
BLACK
6
CONTINUOUS
10
5.79442
20
-2.33074
11
5.79694
21
-2.32465
0
LINE
8
BLACK
6
CONTINUOUS
10
5.79694
20
-2.32465
11
5.80061
21
-2.31917
0
LINE
8
BLACK
6
CONTINUOUS
10
5.80061
20
-2.31917
11
5.80527
21
-2.31451
0
LINE
8
BLACK
6
CONTINUOUS
10
5.80527
20
-2.31451
11
5.81075
21
-2.31084
0
LINE
8
BLACK
6
CONTINUOUS
10
5.81075
20
-2.31084
11
5.81684
21
-2.30832
0
LINE
8
BLACK
6
CONTINUOUS
10
5.81684
20
-2.30832
11
5.8233
21
-2.30704
0
LINE
8
BLACK
6
CONTINUOUS
10
5.8233
20
-2.30704
11
5.8299
21
-2.30704
0
LINE
8
BLACK
6
CONTINUOUS
10
5.8299
20
-2.30704
11
5.83636
21
-2.30832
0
LINE
8
BLACK
6
CONTINUOUS
10
5.93636
20
-2.30832
11
5.94245
21
-2.31084
0
LINE
8
BLACK
6
CONTINUOUS
10
5.94245
20
-2.31084
11
5.94793
21
-2.31451
0
LINE
8
BLACK
6
CONTINUOUS
10
5.94793
20
-2.31451
11
5.95259
21
-2.31917
0
LINE
8
BLACK
6
CONTINUOUS
10
5.95259
20
-2.31917
11
5.95626
21
-2.32465
0
LINE
8
BLACK
6
CONTINUOUS
10
5.95626
20
-2.32465
11
5.95878
21
-2.33074
0
LINE
8
BLACK
6
CONTINUOUS
10
5.95878
20
-2.33074
11
5.96006
21
-2.3372
0
LINE
8
BLACK
6
CONTINUOUS
10
5.96006
20
-2.3372
11
5.96006
21
-2.3438
0
LINE
8
BLACK
6
CONTINUOUS
10
5.96006
20
-2.3438
11
5.95878
21
-2.35026
0
LINE
8
BLACK
6
CONTINUOUS
10
5.95878
20
-2.35026
11
5.95626
21
-2.35635
0
LINE
8
BLACK
6
CONTINUOUS
10
5.95626
20
-2.35635
11
5.95259
21
-2.36183
0
LINE
8
BLACK
6
CONTINUOUS
10
5.95259
20
-2.36183
11
5.94793
21
-2.36649
0
LINE
8
BLACK
6
CONTINUOUS
10
5.94793
20
-2.36649
11
5.94245
21
-2.37016
0
LINE
8
BLACK
6
CONTINUOUS
10
5.94245
20
-2.37016
11
5.93636
21
-2.37268
0
LINE
8
BLACK
6
CONTINUOUS
10
5.93636
20
-2.37268
11
5.9299
21
-2.37396
0
LINE
8
BLACK
6
CONTINUOUS
10
5.9299
20
-2.37396
11
5.9233
21
-2.37396
0
LINE
8
BLACK
6
CONTINUOUS
10
5.9233
20
-2.37396
11
5.91684
21
-2.37268
0
LINE
8
BLACK
6
CONTINUOUS
10
5.91684
20
-2.37268
11
5.91075
21
-2.37016
0
LINE
8
BLACK
6
CONTINUOUS
10
5.91075
20
-2.37016
11
5.90527
21
-2.36649
0
LINE
8
BLACK
6
CONTINUOUS
10
5.90527
20
-2.36649
11
5.90061
21
-2.36183
0
LINE
8
BLACK
6
CONTINUOUS
10
5.90061
20
-2.36183
11
5.89694
21
-2.35635
0
LINE
8
BLACK
6
CONTINUOUS
10
5.89694
20
-2.35635
11
5.89442
21
-2.35026
0
LINE
8
BLACK
6
CONTINUOUS
10
5.89442
20
-2.35026
11
5.89314
21
-2.3438
0
LINE
8
BLACK
6
CONTINUOUS
10
5.89314
20
-2.3438
11
5.89314
21
-2.3372
0
LINE
8
BLACK
6
CONTINUOUS
10
5.89314
20
-2.3372
11
5.89442
21
-2.33074
0
LINE
8
BLACK
6
CONTINUOUS
10
5.89442
20
-2.33074
11
5.89694
21
-2.32465
0
LINE
8
BLACK
6
CONTINUOUS
10
5.89694
20
-2.32465
11
5.90061
21
-2.31917
0
LINE
8
BLACK
6
CONTINUOUS
10
5.90061
20
-2.31917
11
5.90527
21
-2.31451
0
LINE
8
BLACK
6
CONTINUOUS
10
5.90527
20
-2.31451
11
5.91075
21
-2.31084
0
LINE
8
BLACK
6
CONTINUOUS
10
5.91075
20
-2.31084
11
5.91684
21
-2.30832
0
LINE
8
BLACK
6
CONTINUOUS
10
5.91684
20
-2.30832
11
5.9233
21
-2.30704
0
LINE
8
BLACK
6
CONTINUOUS
10
5.9233
20
-2.30704
11
5.9299
21
-2.30704
0
LINE
8
BLACK
6
CONTINUOUS
10
5.9299
20
-2.30704
11
5.93636
21
-2.30832
0
LINE
8
BLACK
6
CONTINUOUS
10
6.13636
20
-2.30832
11
6.14245
21
-2.31084
0
LINE
8
BLACK
6
CONTINUOUS
10
6.14245
20
-2.31084
11
6.14793
21
-2.31451
0
LINE
8
BLACK
6
CONTINUOUS
10
6.14793
20
-2.31451
11
6.15259
21
-2.31917
0
LINE
8
BLACK
6
CONTINUOUS
10
6.15259
20
-2.31917
11
6.15626
21
-2.32465
0
LINE
8
BLACK
6
CONTINUOUS
10
6.15626
20
-2.32465
11
6.15878
21
-2.33074
0
LINE
8
BLACK
6
CONTINUOUS
10
6.15878
20
-2.33074
11
6.16006
21
-2.3372
0
LINE
8
BLACK
6
CONTINUOUS
10
6.16006
20
-2.3372
11
6.16006
21
-2.3438
0
LINE
8
BLACK
6
CONTINUOUS
10
6.16006
20
-2.3438
11
6.15878
21
-2.35026
0
LINE
8
BLACK
6
CONTINUOUS
10
6.15878
20
-2.35026
11
6.15626
21
-2.35635
0
LINE
8
BLACK
6
CONTINUOUS
10
6.15626
20
-2.35635
11
6.15259
21
-2.36183
0
LINE
8
BLACK
6
CONTINUOUS
10
6.15259
20
-2.36183
11
6.14793
21
-2.36649
0
LINE
8
BLACK
6
CONTINUOUS
10
6.14793
20
-2.36649
11
6.14245
21
-2.37016
0
LINE
8
BLACK
6
CONTINUOUS
10
6.14245
20
-2.37016
11
6.13636
21
-2.37268
0
LINE
8
BLACK
6
CONTINUOUS
10
6.13636
20
-2.37268
11
6.1299
21
-2.37396
0
LINE
8
BLACK
6
CONTINUOUS
10
6.1299
20
-2.37396
11
6.1233
21
-2.37396
0
LINE
8
BLACK
6
CONTINUOUS
10
6.1233
20
-2.37396
11
6.11684
21
-2.37268
0
LINE
8
BLACK
6
CONTINUOUS
10
6.11684
20
-2.37268
11
6.11075
21
-2.37016
0
LINE
8
BLACK
6
CONTINUOUS
10
6.11075
20
-2.37016
11
6.10527
21
-2.36649
0
LINE
8
BLACK
6
CONTINUOUS
10
6.10527
20
-2.36649
11
6.10061
21
-2.36183
0
LINE
8
BLACK
6
CONTINUOUS
10
6.10061
20
-2.36183
11
6.09694
21
-2.35635
0
LINE
8
BLACK
6
CONTINUOUS
10
6.09694
20
-2.35635
11
6.09442
21
-2.35026
0
LINE
8
BLACK
6
CONTINUOUS
10
6.09442
20
-2.35026
11
6.09314
21
-2.3438
0
LINE
8
BLACK
6
CONTINUOUS
10
6.09314
20
-2.3438
11
6.09314
21
-2.3372
0
LINE
8
BLACK
6
CONTINUOUS
10
6.09314
20
-2.3372
11
6.09442
21
-2.33074
0
LINE
8
BLACK
6
CONTINUOUS
10
6.09442
20
-2.33074
11
6.09694
21
-2.32465
0
LINE
8
BLACK
6
CONTINUOUS
10
6.09694
20
-2.32465
11
6.10061
21
-2.31917
0
LINE
8
BLACK
6
CONTINUOUS
10
6.10061
20
-2.31917
11
6.10527
21
-2.31451
0
LINE
8
BLACK
6
CONTINUOUS
10
6.10527
20
-2.31451
11
6.11075
21
-2.31084
0
LINE
8
BLACK
6
CONTINUOUS
10
6.11075
20
-2.31084
11
6.11684
21
-2.30832
0
LINE
8
BLACK
6
CONTINUOUS
10
6.11684
20
-2.30832
11
6.1233
21
-2.30704
0
LINE
8
BLACK
6
CONTINUOUS
10
6.1233
20
-2.30704
11
6.1299
21
-2.30704
0
LINE
8
BLACK
6
CONTINUOUS
10
6.1299
20
-2.30704
11
6.13636
21
-2.30832
0
LINE
8
BLACK
6
CONTINUOUS
10
6.23636
20
-2.30832
11
6.24245
21
-2.31084
0
LINE
8
BLACK
6
CONTINUOUS
10
6.24245
20
-2.31084
11
6.24793
21
-2.31451
0
LINE
8
BLACK
6
CONTINUOUS
10
6.24793
20
-2.31451
11
6.25259
21
-2.31917
0
LINE
8
BLACK
6
CONTINUOUS
10
6.25259
20
-2.31917
11
6.25626
21
-2.32465
0
LINE
8
BLACK
6
CONTINUOUS
10
6.25626
20
-2.32465
11
6.25878
21
-2.33074
0
LINE
8
BLACK
6
CONTINUOUS
10
6.25878
20
-2.33074
11
6.26006
21
-2.3372
0
LINE
8
BLACK
6
CONTINUOUS
10
6.26006
20
-2.3372
11
6.26006
21
-2.3438
0
LINE
8
BLACK
6
CONTINUOUS
10
6.26006
20
-2.3438
11
6.25878
21
-2.35026
0
LINE
8
BLACK
6
CONTINUOUS
10
6.25878
20
-2.35026
11
6.25626
21
-2.35635
0
LINE
8
BLACK
6
CONTINUOUS
10
6.25626
20
-2.35635
11
6.25259
21
-2.36183
0
LINE
8
BLACK
6
CONTINUOUS
10
6.25259
20
-2.36183
11
6.24793
21
-2.36649
0
LINE
8
BLACK
6
CONTINUOUS
10
6.24793
20
-2.36649
11
6.24245
21
-2.37016
0
LINE
8
BLACK
6
CONTINUOUS
10
6.24245
20
-2.37016
11
6.23636
21
-2.37268
0
LINE
8
BLACK
6
CONTINUOUS
10
6.23636
20
-2.37268
11
6.2299
21
-2.37396
0
LINE
8
BLACK
6
CONTINUOUS
10
6.2299
20
-2.37396
11
6.2233
21
-2.37396
0
LINE
8
BLACK
6
CONTINUOUS
10
6.2233
20
-2.37396
11
6.21684
21
-2.37268
0
LINE
8
BLACK
6
CONTINUOUS
10
6.21684
20
-2.37268
11
6.21075
21
-2.37016
0
LINE
8
BLACK
6
CONTINUOUS
10
6.21075
20
-2.37016
11
6.20527
21
-2.36649
0
LINE
8
BLACK
6
CONTINUOUS
10
6.20527
20
-2.36649
11
6.20061
21
-2.36183
0
LINE
8
BLACK
6
CONTINUOUS
10
6.20061
20
-2.36183
11
6.19694
21
-2.35635
0
LINE
8
BLACK
6
CONTINUOUS
10
6.19694
20
-2.35635
11
6.19442
21
-2.35026
0
LINE
8
BLACK
6
CONTINUOUS
10
6.19442
20
-2.35026
11
6.19314
21
-2.3438
0
LINE
8
BLACK
6
CONTINUOUS
10
6.19314
20
-2.3438
11
6.19314
21
-2.3372
0
LINE
8
BLACK
6
CONTINUOUS
10
6.19314
20
-2.3372
11
6.19442
21
-2.33074
0
LINE
8
BLACK
6
CONTINUOUS
10
6.19442
20
-2.33074
11
6.19694
21
-2.32465
0
LINE
8
BLACK
6
CONTINUOUS
10
6.19694
20
-2.32465
11
6.20061
21
-2.31917
0
LINE
8
BLACK
6
CONTINUOUS
10
6.20061
20
-2.31917
11
6.20527
21
-2.31451
0
LINE
8
BLACK
6
CONTINUOUS
10
6.20527
20
-2.31451
11
6.21075
21
-2.31084
0
LINE
8
BLACK
6
CONTINUOUS
10
6.21075
20
-2.31084
11
6.21684
21
-2.30832
0
LINE
8
BLACK
6
CONTINUOUS
10
6.21684
20
-2.30832
11
6.2233
21
-2.30704
0
LINE
8
BLACK
6
CONTINUOUS
10
6.2233
20
-2.30704
11
6.2299
21
-2.30704
0
LINE
8
BLACK
6
CONTINUOUS
10
6.2299
20
-2.30704
11
6.23636
21
-2.30832
0
LINE
8
BLACK
6
CONTINUOUS
10
6.33636
20
-2.30832
11
6.34245
21
-2.31084
0
LINE
8
BLACK
6
CONTINUOUS
10
6.34245
20
-2.31084
11
6.34793
21
-2.31451
0
LINE
8
BLACK
6
CONTINUOUS
10
6.34793
20
-2.31451
11
6.35259
21
-2.31917
0
LINE
8
BLACK
6
CONTINUOUS
10
6.35259
20
-2.31917
11
6.35626
21
-2.32465
0
LINE
8
BLACK
6
CONTINUOUS
10
6.35626
20
-2.32465
11
6.35878
21
-2.33074
0
LINE
8
BLACK
6
CONTINUOUS
10
6.35878
20
-2.33074
11
6.36006
21
-2.3372
0
LINE
8
BLACK
6
CONTINUOUS
10
6.36006
20
-2.3372
11
6.36006
21
-2.3438
0
LINE
8
BLACK
6
CONTINUOUS
10
6.36006
20
-2.3438
11
6.35878
21
-2.35026
0
LINE
8
BLACK
6
CONTINUOUS
10
6.35878
20
-2.35026
11
6.35626
21
-2.35635
0
LINE
8
BLACK
6
CONTINUOUS
10
6.35626
20
-2.35635
11
6.35259
21
-2.36183
0
LINE
8
BLACK
6
CONTINUOUS
10
6.35259
20
-2.36183
11
6.34793
21
-2.36649
0
LINE
8
BLACK
6
CONTINUOUS
10
6.34793
20
-2.36649
11
6.34245
21
-2.37016
0
LINE
8
BLACK
6
CONTINUOUS
10
6.34245
20
-2.37016
11
6.33636
21
-2.37268
0
LINE
8
BLACK
6
CONTINUOUS
10
6.33636
20
-2.37268
11
6.3299
21
-2.37396
0
LINE
8
BLACK
6
CONTINUOUS
10
6.3299
20
-2.37396
11
6.3233
21
-2.37396
0
LINE
8
BLACK
6
CONTINUOUS
10
6.3233
20
-2.37396
11
6.31684
21
-2.37268
0
LINE
8
BLACK
6
CONTINUOUS
10
6.31684
20
-2.37268
11
6.31075
21
-2.37016
0
LINE
8
BLACK
6
CONTINUOUS
10
6.31075
20
-2.37016
11
6.30527
21
-2.36649
0
LINE
8
BLACK
6
CONTINUOUS
10
6.30527
20
-2.36649
11
6.30061
21
-2.36183
0
LINE
8
BLACK
6
CONTINUOUS
10
6.30061
20
-2.36183
11
6.29694
21
-2.35635
0
LINE
8
BLACK
6
CONTINUOUS
10
6.29694
20
-2.35635
11
6.29442
21
-2.35026
0
LINE
8
BLACK
6
CONTINUOUS
10
6.29442
20
-2.35026
11
6.29314
21
-2.3438
0
LINE
8
BLACK
6
CONTINUOUS
10
6.29314
20
-2.3438
11
6.29314
21
-2.3372
0
LINE
8
BLACK
6
CONTINUOUS
10
6.29314
20
-2.3372
11
6.29442
21
-2.33074
0
LINE
8
BLACK
6
CONTINUOUS
10
6.29442
20
-2.33074
11
6.29694
21
-2.32465
0
LINE
8
BLACK
6
CONTINUOUS
10
6.29694
20
-2.32465
11
6.30061
21
-2.31917
0
LINE
8
BLACK
6
CONTINUOUS
10
6.30061
20
-2.31917
11
6.30527
21
-2.31451
0
LINE
8
BLACK
6
CONTINUOUS
10
6.30527
20
-2.31451
11
6.31075
21
-2.31084
0
LINE
8
BLACK
6
CONTINUOUS
10
6.31075
20
-2.31084
11
6.31684
21
-2.30832
0
LINE
8
BLACK
6
CONTINUOUS
10
6.31684
20
-2.30832
11
6.3233
21
-2.30704
0
LINE
8
BLACK
6
CONTINUOUS
10
6.3233
20
-2.30704
11
6.3299
21
-2.30704
0
LINE
8
BLACK
6
CONTINUOUS
10
6.3299
20
-2.30704
11
6.33636
21
-2.30832
0
LINE
8
BLACK
6
CONTINUOUS
10
6.43636
20
-2.30832
11
6.44245
21
-2.31084
0
LINE
8
BLACK
6
CONTINUOUS
10
6.44245
20
-2.31084
11
6.44793
21
-2.31451
0
LINE
8
BLACK
6
CONTINUOUS
10
6.44793
20
-2.31451
11
6.45259
21
-2.31917
0
LINE
8
BLACK
6
CONTINUOUS
10
6.45259
20
-2.31917
11
6.45626
21
-2.32465
0
LINE
8
BLACK
6
CONTINUOUS
10
6.45626
20
-2.32465
11
6.45878
21
-2.33074
0
LINE
8
BLACK
6
CONTINUOUS
10
6.45878
20
-2.33074
11
6.46006
21
-2.3372
0
LINE
8
BLACK
6
CONTINUOUS
10
6.46006
20
-2.3372
11
6.46006
21
-2.3438
0
LINE
8
BLACK
6
CONTINUOUS
10
6.46006
20
-2.3438
11
6.45878
21
-2.35026
0
LINE
8
BLACK
6
CONTINUOUS
10
6.45878
20
-2.35026
11
6.45626
21
-2.35635
0
LINE
8
BLACK
6
CONTINUOUS
10
6.45626
20
-2.35635
11
6.45259
21
-2.36183
0
LINE
8
BLACK
6
CONTINUOUS
10
6.45259
20
-2.36183
11
6.44793
21
-2.36649
0
LINE
8
BLACK
6
CONTINUOUS
10
6.44793
20
-2.36649
11
6.44245
21
-2.37016
0
LINE
8
BLACK
6
CONTINUOUS
10
6.44245
20
-2.37016
11
6.43636
21
-2.37268
0
LINE
8
BLACK
6
CONTINUOUS
10
6.43636
20
-2.37268
11
6.4299
21
-2.37396
0
LINE
8
BLACK
6
CONTINUOUS
10
6.4299
20
-2.37396
11
6.4233
21
-2.37396
0
LINE
8
BLACK
6
CONTINUOUS
10
6.4233
20
-2.37396
11
6.41684
21
-2.37268
0
LINE
8
BLACK
6
CONTINUOUS
10
6.41684
20
-2.37268
11
6.41075
21
-2.37016
0
LINE
8
BLACK
6
CONTINUOUS
10
6.41075
20
-2.37016
11
6.40527
21
-2.36649
0
LINE
8
BLACK
6
CONTINUOUS
10
6.40527
20
-2.36649
11
6.40061
21
-2.36183
0
LINE
8
BLACK
6
CONTINUOUS
10
6.40061
20
-2.36183
11
6.39694
21
-2.35635
0
LINE
8
BLACK
6
CONTINUOUS
10
6.39694
20
-2.35635
11
6.39442
21
-2.35026
0
LINE
8
BLACK
6
CONTINUOUS
10
6.39442
20
-2.35026
11
6.39314
21
-2.3438
0
LINE
8
BLACK
6
CONTINUOUS
10
6.39314
20
-2.3438
11
6.39314
21
-2.3372
0
LINE
8
BLACK
6
CONTINUOUS
10
6.39314
20
-2.3372
11
6.39442
21
-2.33074
0
LINE
8
BLACK
6
CONTINUOUS
10
6.39442
20
-2.33074
11
6.39694
21
-2.32465
0
LINE
8
BLACK
6
CONTINUOUS
10
6.39694
20
-2.32465
11
6.40061
21
-2.31917
0
LINE
8
BLACK
6
CONTINUOUS
10
6.40061
20
-2.31917
11
6.40527
21
-2.31451
0
LINE
8
BLACK
6
CONTINUOUS
10
6.40527
20
-2.31451
11
6.41075
21
-2.31084
0
LINE
8
BLACK
6
CONTINUOUS
10
6.41075
20
-2.31084
11
6.41684
21
-2.30832
0
LINE
8
BLACK
6
CONTINUOUS
10
6.41684
20
-2.30832
11
6.4233
21
-2.30704
0
LINE
8
BLACK
6
CONTINUOUS
10
6.4233
20
-2.30704
11
6.4299
21
-2.30704
0
LINE
8
BLACK
6
CONTINUOUS
10
6.4299
20
-2.30704
11
6.43636
21
-2.30832
0
LINE
8
BLACK
6
CONTINUOUS
10
6.53636
20
-2.30832
11
6.54245
21
-2.31084
0
LINE
8
BLACK
6
CONTINUOUS
10
6.54245
20
-2.31084
11
6.54793
21
-2.31451
0
LINE
8
BLACK
6
CONTINUOUS
10
6.54793
20
-2.31451
11
6.55259
21
-2.31917
0
LINE
8
BLACK
6
CONTINUOUS
10
6.55259
20
-2.31917
11
6.55626
21
-2.32465
0
LINE
8
BLACK
6
CONTINUOUS
10
6.55626
20
-2.32465
11
6.55878
21
-2.33074
0
LINE
8
BLACK
6
CONTINUOUS
10
6.55878
20
-2.33074
11
6.56006
21
-2.3372
0
LINE
8
BLACK
6
CONTINUOUS
10
6.56006
20
-2.3372
11
6.56006
21
-2.3438
0
LINE
8
BLACK
6
CONTINUOUS
10
6.56006
20
-2.3438
11
6.55878
21
-2.35026
0
LINE
8
BLACK
6
CONTINUOUS
10
6.55878
20
-2.35026
11
6.55626
21
-2.35635
0
LINE
8
BLACK
6
CONTINUOUS
10
6.55626
20
-2.35635
11
6.55259
21
-2.36183
0
LINE
8
BLACK
6
CONTINUOUS
10
6.55259
20
-2.36183
11
6.54793
21
-2.36649
0
LINE
8
BLACK
6
CONTINUOUS
10
6.54793
20
-2.36649
11
6.54245
21
-2.37016
0
LINE
8
BLACK
6
CONTINUOUS
10
6.54245
20
-2.37016
11
6.53636
21
-2.37268
0
LINE
8
BLACK
6
CONTINUOUS
10
6.53636
20
-2.37268
11
6.5299
21
-2.37396
0
LINE
8
BLACK
6
CONTINUOUS
10
6.5299
20
-2.37396
11
6.5233
21
-2.37396
0
LINE
8
BLACK
6
CONTINUOUS
10
6.5233
20
-2.37396
11
6.51684
21
-2.37268
0
LINE
8
BLACK
6
CONTINUOUS
10
6.51684
20
-2.37268
11
6.51075
21
-2.37016
0
LINE
8
BLACK
6
CONTINUOUS
10
6.51075
20
-2.37016
11
6.50527
21
-2.36649
0
LINE
8
BLACK
6
CONTINUOUS
10
6.50527
20
-2.36649
11
6.50061
21
-2.36183
0
LINE
8
BLACK
6
CONTINUOUS
10
6.50061
20
-2.36183
11
6.49694
21
-2.35635
0
LINE
8
BLACK
6
CONTINUOUS
10
6.49694
20
-2.35635
11
6.49442
21
-2.35026
0
LINE
8
BLACK
6
CONTINUOUS
10
6.49442
20
-2.35026
11
6.49314
21
-2.3438
0
LINE
8
BLACK
6
CONTINUOUS
10
6.49314
20
-2.3438
11
6.49314
21
-2.3372
0
LINE
8
BLACK
6
CONTINUOUS
10
6.49314
20
-2.3372
11
6.49442
21
-2.33074
0
LINE
8
BLACK
6
CONTINUOUS
10
6.49442
20
-2.33074
11
6.49694
21
-2.32465
0
LINE
8
BLACK
6
CONTINUOUS
10
6.49694
20
-2.32465
11
6.50061
21
-2.31917
0
LINE
8
BLACK
6
CONTINUOUS
10
6.50061
20
-2.31917
11
6.50527
21
-2.31451
0
LINE
8
BLACK
6
CONTINUOUS
10
6.50527
20
-2.31451
11
6.51075
21
-2.31084
0
LINE
8
BLACK
6
CONTINUOUS
10
6.51075
20
-2.31084
11
6.51684
21
-2.30832
0
LINE
8
BLACK
6
CONTINUOUS
10
6.51684
20
-2.30832
11
6.5233
21
-2.30704
0
LINE
8
BLACK
6
CONTINUOUS
10
6.5233
20
-2.30704
11
6.5299
21
-2.30704
0
LINE
8
BLACK
6
CONTINUOUS
10
6.5299
20
-2.30704
11
6.53636
21
-2.30832
0
LINE
8
BLACK
6
CONTINUOUS
10
6.03636
20
-2.30832
11
6.04245
21
-2.31084
0
LINE
8
BLACK
6
CONTINUOUS
10
6.04245
20
-2.31084
11
6.04793
21
-2.31451
0
LINE
8
BLACK
6
CONTINUOUS
10
6.04793
20
-2.31451
11
6.05259
21
-2.31917
0
LINE
8
BLACK
6
CONTINUOUS
10
6.05259
20
-2.31917
11
6.05626
21
-2.32465
0
LINE
8
BLACK
6
CONTINUOUS
10
6.05626
20
-2.32465
11
6.05878
21
-2.33074
0
LINE
8
BLACK
6
CONTINUOUS
10
6.05878
20
-2.33074
11
6.06006
21
-2.3372
0
LINE
8
BLACK
6
CONTINUOUS
10
6.06006
20
-2.3372
11
6.06006
21
-2.3438
0
LINE
8
BLACK
6
CONTINUOUS
10
6.06006
20
-2.3438
11
6.05878
21
-2.35026
0
LINE
8
BLACK
6
CONTINUOUS
10
6.05878
20
-2.35026
11
6.05626
21
-2.35635
0
LINE
8
BLACK
6
CONTINUOUS
10
6.05626
20
-2.35635
11
6.05259
21
-2.36183
0
LINE
8
BLACK
6
CONTINUOUS
10
6.05259
20
-2.36183
11
6.04793
21
-2.36649
0
LINE
8
BLACK
6
CONTINUOUS
10
6.04793
20
-2.36649
11
6.04245
21
-2.37016
0
LINE
8
BLACK
6
CONTINUOUS
10
6.04245
20
-2.37016
11
6.03636
21
-2.37268
0
LINE
8
BLACK
6
CONTINUOUS
10
6.03636
20
-2.37268
11
6.0299
21
-2.37396
0
LINE
8
BLACK
6
CONTINUOUS
10
6.0299
20
-2.37396
11
6.0233
21
-2.37396
0
LINE
8
BLACK
6
CONTINUOUS
10
6.0233
20
-2.37396
11
6.01684
21
-2.37268
0
LINE
8
BLACK
6
CONTINUOUS
10
6.01684
20
-2.37268
11
6.01075
21
-2.37016
0
LINE
8
BLACK
6
CONTINUOUS
10
6.01075
20
-2.37016
11
6.00527
21
-2.36649
0
LINE
8
BLACK
6
CONTINUOUS
10
6.00527
20
-2.36649
11
6.00061
21
-2.36183
0
LINE
8
BLACK
6
CONTINUOUS
10
6.00061
20
-2.36183
11
5.99694
21
-2.35635
0
LINE
8
BLACK
6
CONTINUOUS
10
5.99694
20
-2.35635
11
5.99442
21
-2.35026
0
LINE
8
BLACK
6
CONTINUOUS
10
5.99442
20
-2.35026
11
5.99314
21
-2.3438
0
LINE
8
BLACK
6
CONTINUOUS
10
5.99314
20
-2.3438
11
5.99314
21
-2.3372
0
LINE
8
BLACK
6
CONTINUOUS
10
5.99314
20
-2.3372
11
5.99442
21
-2.33074
0
LINE
8
BLACK
6
CONTINUOUS
10
5.99442
20
-2.33074
11
5.99694
21
-2.32465
0
LINE
8
BLACK
6
CONTINUOUS
10
5.99694
20
-2.32465
11
6.00061
21
-2.31917
0
LINE
8
BLACK
6
CONTINUOUS
10
6.00061
20
-2.31917
11
6.00527
21
-2.31451
0
LINE
8
BLACK
6
CONTINUOUS
10
6.00527
20
-2.31451
11
6.01075
21
-2.31084
0
LINE
8
BLACK
6
CONTINUOUS
10
6.01075
20
-2.31084
11
6.01684
21
-2.30832
0
LINE
8
BLACK
6
CONTINUOUS
10
6.01684
20
-2.30832
11
6.0233
21
-2.30704
0
LINE
8
BLACK
6
CONTINUOUS
10
6.0233
20
-2.30704
11
6.0299
21
-2.30704
0
LINE
8
BLACK
6
CONTINUOUS
10
6.0299
20
-2.30704
11
6.03636
21
-2.30832
0
LINE
8
BLACK
6
CONTINUOUS
10
6.03604
20
-2.20569
11
6.02423
21
-2.20569
0
LINE
8
BLACK
6
CONTINUOUS
10
6.02423
20
-2.20569
11
6.02423
21
-2.14761
0
LINE
8
BLACK
6
CONTINUOUS
10
6.02423
20
-2.14761
11
6.03604
21
-2.14761
0
LINE
8
BLACK
6
CONTINUOUS
10
6.03604
20
-2.14761
11
6.03604
21
-2.20569
0
LINE
8
BLACK
6
CONTINUOUS
10
6.05572
20
-2.20569
11
6.04391
21
-2.20569
0
LINE
8
BLACK
6
CONTINUOUS
10
6.04391
20
-2.20569
11
6.04391
21
-2.14761
0
LINE
8
BLACK
6
CONTINUOUS
10
6.04391
20
-2.14761
11
6.05572
21
-2.14761
0
LINE
8
BLACK
6
CONTINUOUS
10
6.05572
20
-2.14761
11
6.05572
21
-2.20569
0
LINE
8
BLACK
6
CONTINUOUS
10
6.09509
20
-2.20569
11
6.08328
21
-2.20569
0
LINE
8
BLACK
6
CONTINUOUS
10
6.08328
20
-2.20569
11
6.08328
21
-2.14761
0
LINE
8
BLACK
6
CONTINUOUS
10
6.08328
20
-2.14761
11
6.09509
21
-2.14761
0
LINE
8
BLACK
6
CONTINUOUS
10
6.09509
20
-2.14761
11
6.09509
21
-2.20569
0
LINE
8
BLACK
6
CONTINUOUS
10
6.11478
20
-2.20569
11
6.10297
21
-2.20569
0
LINE
8
BLACK
6
CONTINUOUS
10
6.10297
20
-2.20569
11
6.10297
21
-2.14761
0
LINE
8
BLACK
6
CONTINUOUS
10
6.10297
20
-2.14761
11
6.11478
21
-2.14761
0
LINE
8
BLACK
6
CONTINUOUS
10
6.11478
20
-2.14761
11
6.11478
21
-2.20569
0
LINE
8
BLACK
6
CONTINUOUS
10
6.13446
20
-2.20569
11
6.12265
21
-2.20569
0
LINE
8
BLACK
6
CONTINUOUS
10
6.12265
20
-2.20569
11
6.12265
21
-2.14761
0
LINE
8
BLACK
6
CONTINUOUS
10
6.12265
20
-2.14761
11
6.13446
21
-2.14761
0
LINE
8
BLACK
6
CONTINUOUS
10
6.13446
20
-2.14761
11
6.13446
21
-2.20569
0
LINE
8
BLACK
6
CONTINUOUS
10
6.15415
20
-2.20569
11
6.14234
21
-2.20569
0
LINE
8
BLACK
6
CONTINUOUS
10
6.14234
20
-2.20569
11
6.14234
21
-2.14761
0
LINE
8
BLACK
6
CONTINUOUS
10
6.14234
20
-2.14761
11
6.15415
21
-2.14761
0
LINE
8
BLACK
6
CONTINUOUS
10
6.15415
20
-2.14761
11
6.15415
21
-2.20569
0
LINE
8
BLACK
6
CONTINUOUS
10
6.17383
20
-2.20569
11
6.16202
21
-2.20569
0
LINE
8
BLACK
6
CONTINUOUS
10
6.16202
20
-2.20569
11
6.16202
21
-2.14761
0
LINE
8
BLACK
6
CONTINUOUS
10
6.16202
20
-2.14761
11
6.17383
21
-2.14761
0
LINE
8
BLACK
6
CONTINUOUS
10
6.17383
20
-2.14761
11
6.17383
21
-2.20569
0
LINE
8
BLACK
6
CONTINUOUS
10
6.19352
20
-2.20569
11
6.18171
21
-2.20569
0
LINE
8
BLACK
6
CONTINUOUS
10
6.18171
20
-2.20569
11
6.18171
21
-2.14761
0
LINE
8
BLACK
6
CONTINUOUS
10
6.18171
20
-2.14761
11
6.19352
21
-2.14761
0
LINE
8
BLACK
6
CONTINUOUS
10
6.19352
20
-2.14761
11
6.19352
21
-2.20569
0
LINE
8
BLACK
6
CONTINUOUS
10
6.2132
20
-2.20569
11
6.20139
21
-2.20569
0
LINE
8
BLACK
6
CONTINUOUS
10
6.20139
20
-2.20569
11
6.20139
21
-2.14761
0
LINE
8
BLACK
6
CONTINUOUS
10
6.20139
20
-2.14761
11
6.2132
21
-2.14761
0
LINE
8
BLACK
6
CONTINUOUS
10
6.2132
20
-2.14761
11
6.2132
21
-2.20569
0
LINE
8
BLACK
6
CONTINUOUS
10
6.23289
20
-2.20569
11
6.22108
21
-2.20569
0
LINE
8
BLACK
6
CONTINUOUS
10
6.22108
20
-2.20569
11
6.22108
21
-2.14761
0
LINE
8
BLACK
6
CONTINUOUS
10
6.22108
20
-2.14761
11
6.23289
21
-2.14761
0
LINE
8
BLACK
6
CONTINUOUS
10
6.23289
20
-2.14761
11
6.23289
21
-2.20569
0
LINE
8
BLACK
6
CONTINUOUS
10
6.25257
20
-2.20569
11
6.24076
21
-2.20569
0
LINE
8
BLACK
6
CONTINUOUS
10
6.24076
20
-2.20569
11
6.24076
21
-2.14761
0
LINE
8
BLACK
6
CONTINUOUS
10
6.24076
20
-2.14761
11
6.25257
21
-2.14761
0
LINE
8
BLACK
6
CONTINUOUS
10
6.25257
20
-2.14761
11
6.25257
21
-2.20569
0
LINE
8
BLACK
6
CONTINUOUS
10
6.07541
20
-2.20569
11
6.0636
21
-2.20569
0
LINE
8
BLACK
6
CONTINUOUS
10
6.0636
20
-2.20569
11
6.0636
21
-2.14761
0
LINE
8
BLACK
6
CONTINUOUS
10
6.0636
20
-2.14761
11
6.07541
21
-2.14761
0
LINE
8
BLACK
6
CONTINUOUS
10
6.07541
20
-2.14761
11
6.07541
21
-2.20569
0
LINE
8
BLACK
6
CONTINUOUS
10
6.00059
20
-2.12397
11
5.94251
21
-2.12397
0
LINE
8
BLACK
6
CONTINUOUS
10
5.94251
20
-2.12397
11
5.94251
21
-2.11216
0
LINE
8
BLACK
6
CONTINUOUS
10
5.94251
20
-2.11216
11
6.00059
21
-2.11216
0
LINE
8
BLACK
6
CONTINUOUS
10
6.00059
20
-2.11216
11
6.00059
21
-2.12397
0
LINE
8
BLACK
6
CONTINUOUS
10
6.33429
20
-2.12397
11
6.27621
21
-2.12397
0
LINE
8
BLACK
6
CONTINUOUS
10
6.27621
20
-2.12397
11
6.27621
21
-2.11216
0
LINE
8
BLACK
6
CONTINUOUS
10
6.27621
20
-2.11216
11
6.33429
21
-2.11216
0
LINE
8
BLACK
6
CONTINUOUS
10
6.33429
20
-2.11216
11
6.33429
21
-2.12397
0
LINE
8
BLACK
6
CONTINUOUS
10
6.00059
20
-2.10429
11
5.94251
21
-2.10429
0
LINE
8
BLACK
6
CONTINUOUS
10
5.94251
20
-2.10429
11
5.94251
21
-2.09248
0
LINE
8
BLACK
6
CONTINUOUS
10
5.94251
20
-2.09248
11
6.00059
21
-2.09248
0
LINE
8
BLACK
6
CONTINUOUS
10
6.00059
20
-2.09248
11
6.00059
21
-2.10429
0
LINE
8
BLACK
6
CONTINUOUS
10
6.33429
20
-2.10429
11
6.27621
21
-2.10429
0
LINE
8
BLACK
6
CONTINUOUS
10
6.27621
20
-2.10429
11
6.27621
21
-2.09248
0
LINE
8
BLACK
6
CONTINUOUS
10
6.27621
20
-2.09248
11
6.33429
21
-2.09248
0
LINE
8
BLACK
6
CONTINUOUS
10
6.33429
20
-2.09248
11
6.33429
21
-2.10429
0
LINE
8
BLACK
6
CONTINUOUS
10
6.22127
20
-2.09267
11
6.05553
21
-2.09267
0
LINE
8
BLACK
6
CONTINUOUS
10
6.05553
20
-2.09267
11
6.05553
21
-1.92693
0
LINE
8
BLACK
6
CONTINUOUS
10
6.05553
20
-1.92693
11
6.22127
21
-1.92693
0
LINE
8
BLACK
6
CONTINUOUS
10
6.22127
20
-1.92693
11
6.22127
21
-2.09267
0
LINE
8
BLACK
6
CONTINUOUS
10
6.33429
20
-2.0846
11
6.27621
21
-2.0846
0
LINE
8
BLACK
6
CONTINUOUS
10
6.27621
20
-2.0846
11
6.27621
21
-2.07279
0
LINE
8
BLACK
6
CONTINUOUS
10
6.27621
20
-2.07279
11
6.33429
21
-2.07279
0
LINE
8
BLACK
6
CONTINUOUS
10
6.33429
20
-2.07279
11
6.33429
21
-2.0846
0
LINE
8
BLACK
6
CONTINUOUS
10
6.00059
20
-2.0846
11
5.94251
21
-2.0846
0
LINE
8
BLACK
6
CONTINUOUS
10
5.94251
20
-2.0846
11
5.94251
21
-2.07279
0
LINE
8
BLACK
6
CONTINUOUS
10
5.94251
20
-2.07279
11
6.00059
21
-2.07279
0
LINE
8
BLACK
6
CONTINUOUS
10
6.00059
20
-2.07279
11
6.00059
21
-2.0846
0
LINE
8
BLACK
6
CONTINUOUS
10
6.33429
20
-2.06492
11
6.27621
21
-2.06492
0
LINE
8
BLACK
6
CONTINUOUS
10
6.27621
20
-2.06492
11
6.27621
21
-2.05311
0
LINE
8
BLACK
6
CONTINUOUS
10
6.27621
20
-2.05311
11
6.33429
21
-2.05311
0
LINE
8
BLACK
6
CONTINUOUS
10
6.33429
20
-2.05311
11
6.33429
21
-2.06492
0
LINE
8
BLACK
6
CONTINUOUS
10
6.00059
20
-2.06492
11
5.94251
21
-2.06492
0
LINE
8
BLACK
6
CONTINUOUS
10
5.94251
20
-2.06492
11
5.94251
21
-2.05311
0
LINE
8
BLACK
6
CONTINUOUS
10
5.94251
20
-2.05311
11
6.00059
21
-2.05311
0
LINE
8
BLACK
6
CONTINUOUS
10
6.00059
20
-2.05311
11
6.00059
21
-2.06492
0
LINE
8
BLACK
6
CONTINUOUS
10
6.00059
20
-2.04523
11
5.94251
21
-2.04523
0
LINE
8
BLACK
6
CONTINUOUS
10
5.94251
20
-2.04523
11
5.94251
21
-2.03342
0
LINE
8
BLACK
6
CONTINUOUS
10
5.94251
20
-2.03342
11
6.00059
21
-2.03342
0
LINE
8
BLACK
6
CONTINUOUS
10
6.00059
20
-2.03342
11
6.00059
21
-2.04523
0
LINE
8
BLACK
6
CONTINUOUS
10
6.33429
20
-2.04523
11
6.27621
21
-2.04523
0
LINE
8
BLACK
6
CONTINUOUS
10
6.27621
20
-2.04523
11
6.27621
21
-2.03342
0
LINE
8
BLACK
6
CONTINUOUS
10
6.27621
20
-2.03342
11
6.33429
21
-2.03342
0
LINE
8
BLACK
6
CONTINUOUS
10
6.33429
20
-2.03342
11
6.33429
21
-2.04523
0
LINE
8
BLACK
6
CONTINUOUS
10
6.4667
20
-2.00962
11
6.46789
21
-2.00998
0
LINE
8
BLACK
6
CONTINUOUS
10
6.46789
20
-2.00998
11
6.46898
21
-2.01056
0
LINE
8
BLACK
6
CONTINUOUS
10
6.46898
20
-2.01056
11
6.46993
21
-2.01135
0
LINE
8
BLACK
6
CONTINUOUS
10
6.46993
20
-2.01135
11
6.47071
21
-2.0123
0
LINE
8
BLACK
6
CONTINUOUS
10
6.47071
20
-2.0123
11
6.4713
21
-2.01339
0
LINE
8
BLACK
6
CONTINUOUS
10
6.4713
20
-2.01339
11
6.47165
21
-2.01457
0
LINE
8
BLACK
6
CONTINUOUS
10
6.47165
20
-2.01457
11
6.47177
21
-2.0158
0
LINE
8
BLACK
6
CONTINUOUS
10
6.47177
20
-2.0158
11
6.47177
21
-2.0284
0
LINE
8
BLACK
6
CONTINUOUS
10
6.47177
20
-2.0284
11
6.47165
21
-2.02963
0
LINE
8
BLACK
6
CONTINUOUS
10
6.47165
20
-2.02963
11
6.4713
21
-2.03081
0
LINE
8
BLACK
6
CONTINUOUS
10
6.4713
20
-2.03081
11
6.47071
21
-2.0319
0
LINE
8
BLACK
6
CONTINUOUS
10
6.47071
20
-2.0319
11
6.46993
21
-2.03285
0
LINE
8
BLACK
6
CONTINUOUS
10
6.46993
20
-2.03285
11
6.46898
21
-2.03364
0
LINE
8
BLACK
6
CONTINUOUS
10
6.46898
20
-2.03364
11
6.46789
21
-2.03422
0
LINE
8
BLACK
6
CONTINUOUS
10
6.46789
20
-2.03422
11
6.4667
21
-2.03458
0
LINE
8
BLACK
6
CONTINUOUS
10
6.4667
20
-2.03458
11
6.46548
21
-2.0347
0
LINE
8
BLACK
6
CONTINUOUS
10
6.46548
20
-2.0347
11
6.44992
21
-2.0347
0
LINE
8
BLACK
6
CONTINUOUS
10
6.44992
20
-2.0347
11
6.4487
21
-2.03458
0
LINE
8
BLACK
6
CONTINUOUS
10
6.4487
20
-2.03458
11
6.44751
21
-2.03422
0
LINE
8
BLACK
6
CONTINUOUS
10
6.44751
20
-2.03422
11
6.44642
21
-2.03364
0
LINE
8
BLACK
6
CONTINUOUS
10
6.44642
20
-2.03364
11
6.44547
21
-2.03285
0
LINE
8
BLACK
6
CONTINUOUS
10
6.44547
20
-2.03285
11
6.44469
21
-2.0319
0
LINE
8
BLACK
6
CONTINUOUS
10
6.44469
20
-2.0319
11
6.4441
21
-2.03081
0
LINE
8
BLACK
6
CONTINUOUS
10
6.4441
20
-2.03081
11
6.44375
21
-2.02963
0
LINE
8
BLACK
6
CONTINUOUS
10
6.44375
20
-2.02963
11
6.44363
21
-2.0284
0
LINE
8
BLACK
6
CONTINUOUS
10
6.44363
20
-2.0284
11
6.44363
21
-2.0158
0
LINE
8
BLACK
6
CONTINUOUS
10
6.44363
20
-2.0158
11
6.44375
21
-2.01457
0
LINE
8
BLACK
6
CONTINUOUS
10
6.44375
20
-2.01457
11
6.4441
21
-2.01339
0
LINE
8
BLACK
6
CONTINUOUS
10
6.4441
20
-2.01339
11
6.44469
21
-2.0123
0
LINE
8
BLACK
6
CONTINUOUS
10
6.44469
20
-2.0123
11
6.44547
21
-2.01135
0
LINE
8
BLACK
6
CONTINUOUS
10
6.44547
20
-2.01135
11
6.44642
21
-2.01056
0
LINE
8
BLACK
6
CONTINUOUS
10
6.44642
20
-2.01056
11
6.44751
21
-2.00998
0
LINE
8
BLACK
6
CONTINUOUS
10
6.44751
20
-2.00998
11
6.4487
21
-2.00962
0
LINE
8
BLACK
6
CONTINUOUS
10
6.4487
20
-2.00962
11
6.44992
21
-2.0095
0
LINE
8
BLACK
6
CONTINUOUS
10
6.44992
20
-2.0095
11
6.46548
21
-2.0095
0
LINE
8
BLACK
6
CONTINUOUS
10
6.46548
20
-2.0095
11
6.4667
21
-2.00962
0
LINE
8
BLACK
6
CONTINUOUS
10
6.41966
20
-2.00962
11
6.42084
21
-2.00998
0
LINE
8
BLACK
6
CONTINUOUS
10
6.42084
20
-2.00998
11
6.42193
21
-2.01056
0
LINE
8
BLACK
6
CONTINUOUS
10
6.42193
20
-2.01056
11
6.42288
21
-2.01135
0
LINE
8
BLACK
6
CONTINUOUS
10
6.42288
20
-2.01135
11
6.42367
21
-2.0123
0
LINE
8
BLACK
6
CONTINUOUS
10
6.42367
20
-2.0123
11
6.42425
21
-2.01339
0
LINE
8
BLACK
6
CONTINUOUS
10
6.42425
20
-2.01339
11
6.42461
21
-2.01457
0
LINE
8
BLACK
6
CONTINUOUS
10
6.42461
20
-2.01457
11
6.42473
21
-2.0158
0
LINE
8
BLACK
6
CONTINUOUS
10
6.42473
20
-2.0158
11
6.42473
21
-2.0284
0
LINE
8
BLACK
6
CONTINUOUS
10
6.42473
20
-2.0284
11
6.42461
21
-2.02963
0
LINE
8
BLACK
6
CONTINUOUS
10
6.42461
20
-2.02963
11
6.42425
21
-2.03081
0
LINE
8
BLACK
6
CONTINUOUS
10
6.42425
20
-2.03081
11
6.42367
21
-2.0319
0
LINE
8
BLACK
6
CONTINUOUS
10
6.42367
20
-2.0319
11
6.42288
21
-2.03285
0
LINE
8
BLACK
6
CONTINUOUS
10
6.42288
20
-2.03285
11
6.42193
21
-2.03364
0
LINE
8
BLACK
6
CONTINUOUS
10
6.42193
20
-2.03364
11
6.42084
21
-2.03422
0
LINE
8
BLACK
6
CONTINUOUS
10
6.42084
20
-2.03422
11
6.41966
21
-2.03458
0
LINE
8
BLACK
6
CONTINUOUS
10
6.41966
20
-2.03458
11
6.41843
21
-2.0347
0
LINE
8
BLACK
6
CONTINUOUS
10
6.41843
20
-2.0347
11
6.40288
21
-2.0347
0
LINE
8
BLACK
6
CONTINUOUS
10
6.40288
20
-2.0347
11
6.40165
21
-2.03458
0
LINE
8
BLACK
6
CONTINUOUS
10
6.40165
20
-2.03458
11
6.40047
21
-2.03422
0
LINE
8
BLACK
6
CONTINUOUS
10
6.40047
20
-2.03422
11
6.39938
21
-2.03364
0
LINE
8
BLACK
6
CONTINUOUS
10
6.39938
20
-2.03364
11
6.39842
21
-2.03285
0
LINE
8
BLACK
6
CONTINUOUS
10
6.39842
20
-2.03285
11
6.39764
21
-2.0319
0
LINE
8
BLACK
6
CONTINUOUS
10
6.39764
20
-2.0319
11
6.39706
21
-2.03081
0
LINE
8
BLACK
6
CONTINUOUS
10
6.39706
20
-2.03081
11
6.3967
21
-2.02963
0
LINE
8
BLACK
6
CONTINUOUS
10
6.3967
20
-2.02963
11
6.39658
21
-2.0284
0
LINE
8
BLACK
6
CONTINUOUS
10
6.39658
20
-2.0284
11
6.39658
21
-2.0158
0
LINE
8
BLACK
6
CONTINUOUS
10
6.39658
20
-2.0158
11
6.3967
21
-2.01457
0
LINE
8
BLACK
6
CONTINUOUS
10
6.3967
20
-2.01457
11
6.39706
21
-2.01339
0
LINE
8
BLACK
6
CONTINUOUS
10
6.39706
20
-2.01339
11
6.39764
21
-2.0123
0
LINE
8
BLACK
6
CONTINUOUS
10
6.39764
20
-2.0123
11
6.39842
21
-2.01135
0
LINE
8
BLACK
6
CONTINUOUS
10
6.39842
20
-2.01135
11
6.39938
21
-2.01056
0
LINE
8
BLACK
6
CONTINUOUS
10
6.39938
20
-2.01056
11
6.40047
21
-2.00998
0
LINE
8
BLACK
6
CONTINUOUS
10
6.40047
20
-2.00998
11
6.40165
21
-2.00962
0
LINE
8
BLACK
6
CONTINUOUS
10
6.40165
20
-2.00962
11
6.40288
21
-2.0095
0
LINE
8
BLACK
6
CONTINUOUS
10
6.40288
20
-2.0095
11
6.41843
21
-2.0095
0
LINE
8
BLACK
6
CONTINUOUS
10
6.41843
20
-2.0095
11
6.41966
21
-2.00962
0
LINE
8
BLACK
6
CONTINUOUS
10
6.00059
20
-2.02555
11
5.94251
21
-2.02555
0
LINE
8
BLACK
6
CONTINUOUS
10
5.94251
20
-2.02555
11
5.94251
21
-2.01374
0
LINE
8
BLACK
6
CONTINUOUS
10
5.94251
20
-2.01374
11
6.00059
21
-2.01374
0
LINE
8
BLACK
6
CONTINUOUS
10
6.00059
20
-2.01374
11
6.00059
21
-2.02555
0
LINE
8
BLACK
6
CONTINUOUS
10
6.33429
20
-2.02555
11
6.27621
21
-2.02555
0
LINE
8
BLACK
6
CONTINUOUS
10
6.27621
20
-2.02555
11
6.27621
21
-2.01374
0
LINE
8
BLACK
6
CONTINUOUS
10
6.27621
20
-2.01374
11
6.33429
21
-2.01374
0
LINE
8
BLACK
6
CONTINUOUS
10
6.33429
20
-2.01374
11
6.33429
21
-2.02555
0
LINE
8
BLACK
6
CONTINUOUS
10
6.33429
20
-2.00586
11
6.27621
21
-2.00586
0
LINE
8
BLACK
6
CONTINUOUS
10
6.27621
20
-2.00586
11
6.27621
21
-1.99405
0
LINE
8
BLACK
6
CONTINUOUS
10
6.27621
20
-1.99405
11
6.33429
21
-1.99405
0
LINE
8
BLACK
6
CONTINUOUS
10
6.33429
20
-1.99405
11
6.33429
21
-2.00586
0
LINE
8
BLACK
6
CONTINUOUS
10
6.00059
20
-2.00586
11
5.94251
21
-2.00586
0
LINE
8
BLACK
6
CONTINUOUS
10
5.94251
20
-2.00586
11
5.94251
21
-1.99405
0
LINE
8
BLACK
6
CONTINUOUS
10
5.94251
20
-1.99405
11
6.00059
21
-1.99405
0
LINE
8
BLACK
6
CONTINUOUS
10
6.00059
20
-1.99405
11
6.00059
21
-2.00586
0
LINE
8
BLACK
6
CONTINUOUS
10
6.33429
20
-1.98618
11
6.27621
21
-1.98618
0
LINE
8
BLACK
6
CONTINUOUS
10
6.27621
20
-1.98618
11
6.27621
21
-1.97437
0
LINE
8
BLACK
6
CONTINUOUS
10
6.27621
20
-1.97437
11
6.33429
21
-1.97437
0
LINE
8
BLACK
6
CONTINUOUS
10
6.33429
20
-1.97437
11
6.33429
21
-1.98618
0
LINE
8
BLACK
6
CONTINUOUS
10
6.00059
20
-1.98618
11
5.94251
21
-1.98618
0
LINE
8
BLACK
6
CONTINUOUS
10
5.94251
20
-1.98618
11
5.94251
21
-1.97437
0
LINE
8
BLACK
6
CONTINUOUS
10
5.94251
20
-1.97437
11
6.00059
21
-1.97437
0
LINE
8
BLACK
6
CONTINUOUS
10
6.00059
20
-1.97437
11
6.00059
21
-1.98618
0
LINE
8
BLACK
6
CONTINUOUS
10
6.33429
20
-1.96649
11
6.27621
21
-1.96649
0
LINE
8
BLACK
6
CONTINUOUS
10
6.27621
20
-1.96649
11
6.27621
21
-1.95468
0
LINE
8
BLACK
6
CONTINUOUS
10
6.27621
20
-1.95468
11
6.33429
21
-1.95468
0
LINE
8
BLACK
6
CONTINUOUS
10
6.33429
20
-1.95468
11
6.33429
21
-1.96649
0
LINE
8
BLACK
6
CONTINUOUS
10
6.00059
20
-1.96649
11
5.94251
21
-1.96649
0
LINE
8
BLACK
6
CONTINUOUS
10
5.94251
20
-1.96649
11
5.94251
21
-1.95468
0
LINE
8
BLACK
6
CONTINUOUS
10
5.94251
20
-1.95468
11
6.00059
21
-1.95468
0
LINE
8
BLACK
6
CONTINUOUS
10
6.00059
20
-1.95468
11
6.00059
21
-1.96649
0
LINE
8
BLACK
6
CONTINUOUS
10
6.42567
20
-1.95285
11
6.42622
21
-1.95302
0
LINE
8
BLACK
6
CONTINUOUS
10
6.42622
20
-1.95302
11
6.42673
21
-1.95329
0
LINE
8
BLACK
6
CONTINUOUS
10
6.42673
20
-1.95329
11
6.42718
21
-1.95366
0
LINE
8
BLACK
6
CONTINUOUS
10
6.42718
20
-1.95366
11
6.42755
21
-1.95411
0
LINE
8
BLACK
6
CONTINUOUS
10
6.42755
20
-1.95411
11
6.42782
21
-1.95462
0
LINE
8
BLACK
6
CONTINUOUS
10
6.42782
20
-1.95462
11
6.42799
21
-1.95517
0
LINE
8
BLACK
6
CONTINUOUS
10
6.42799
20
-1.95517
11
6.42804
21
-1.95575
0
LINE
8
BLACK
6
CONTINUOUS
10
6.42804
20
-1.95575
11
6.42804
21
-1.96165
0
LINE
8
BLACK
6
CONTINUOUS
10
6.42804
20
-1.96165
11
6.42799
21
-1.96223
0
LINE
8
BLACK
6
CONTINUOUS
10
6.42799
20
-1.96223
11
6.42782
21
-1.96278
0
LINE
8
BLACK
6
CONTINUOUS
10
6.42782
20
-1.96278
11
6.42755
21
-1.96329
0
LINE
8
BLACK
6
CONTINUOUS
10
6.42755
20
-1.96329
11
6.42718
21
-1.96374
0
LINE
8
BLACK
6
CONTINUOUS
10
6.42718
20
-1.96374
11
6.42673
21
-1.96411
0
LINE
8
BLACK
6
CONTINUOUS
10
6.42673
20
-1.96411
11
6.42622
21
-1.96438
0
LINE
8
BLACK
6
CONTINUOUS
10
6.42622
20
-1.96438
11
6.42567
21
-1.96455
0
LINE
8
BLACK
6
CONTINUOUS
10
6.42567
20
-1.96455
11
6.42509
21
-1.96461
0
LINE
8
BLACK
6
CONTINUOUS
10
6.42509
20
-1.96461
11
6.40836
21
-1.96461
0
LINE
8
BLACK
6
CONTINUOUS
10
6.40836
20
-1.96461
11
6.40778
21
-1.96455
0
LINE
8
BLACK
6
CONTINUOUS
10
6.40778
20
-1.96455
11
6.40723
21
-1.96438
0
LINE
8
BLACK
6
CONTINUOUS
10
6.40723
20
-1.96438
11
6.40672
21
-1.96411
0
LINE
8
BLACK
6
CONTINUOUS
10
6.40672
20
-1.96411
11
6.40627
21
-1.96374
0
LINE
8
BLACK
6
CONTINUOUS
10
6.40627
20
-1.96374
11
6.4059
21
-1.96329
0
LINE
8
BLACK
6
CONTINUOUS
10
6.4059
20
-1.96329
11
6.40563
21
-1.96278
0
LINE
8
BLACK
6
CONTINUOUS
10
6.40563
20
-1.96278
11
6.40546
21
-1.96223
0
LINE
8
BLACK
6
CONTINUOUS
10
6.40546
20
-1.96223
11
6.40541
21
-1.96165
0
LINE
8
BLACK
6
CONTINUOUS
10
6.40541
20
-1.96165
11
6.40541
21
-1.95575
0
LINE
8
BLACK
6
CONTINUOUS
10
6.40541
20
-1.95575
11
6.40546
21
-1.95517
0
LINE
8
BLACK
6
CONTINUOUS
10
6.40546
20
-1.95517
11
6.40563
21
-1.95462
0
LINE
8
BLACK
6
CONTINUOUS
10
6.40563
20
-1.95462
11
6.4059
21
-1.95411
0
LINE
8
BLACK
6
CONTINUOUS
10
6.4059
20
-1.95411
11
6.40627
21
-1.95366
0
LINE
8
BLACK
6
CONTINUOUS
10
6.40627
20
-1.95366
11
6.40672
21
-1.95329
0
LINE
8
BLACK
6
CONTINUOUS
10
6.40672
20
-1.95329
11
6.40723
21
-1.95302
0
LINE
8
BLACK
6
CONTINUOUS
10
6.40723
20
-1.95302
11
6.40778
21
-1.95285
0
LINE
8
BLACK
6
CONTINUOUS
10
6.40778
20
-1.95285
11
6.40836
21
-1.95279
0
LINE
8
BLACK
6
CONTINUOUS
10
6.40836
20
-1.95279
11
6.42509
21
-1.95279
0
LINE
8
BLACK
6
CONTINUOUS
10
6.42509
20
-1.95279
11
6.42567
21
-1.95285
0
LINE
8
BLACK
6
CONTINUOUS
10
6.45224
20
-1.95285
11
6.4528
21
-1.95302
0
LINE
8
BLACK
6
CONTINUOUS
10
6.4528
20
-1.95302
11
6.45331
21
-1.95329
0
LINE
8
BLACK
6
CONTINUOUS
10
6.45331
20
-1.95329
11
6.45375
21
-1.95366
0
LINE
8
BLACK
6
CONTINUOUS
10
6.45375
20
-1.95366
11
6.45412
21
-1.95411
0
LINE
8
BLACK
6
CONTINUOUS
10
6.45412
20
-1.95411
11
6.45439
21
-1.95462
0
LINE
8
BLACK
6
CONTINUOUS
10
6.45439
20
-1.95462
11
6.45456
21
-1.95517
0
LINE
8
BLACK
6
CONTINUOUS
10
6.45456
20
-1.95517
11
6.45462
21
-1.95575
0
LINE
8
BLACK
6
CONTINUOUS
10
6.45462
20
-1.95575
11
6.45462
21
-1.96165
0
LINE
8
BLACK
6
CONTINUOUS
10
6.45462
20
-1.96165
11
6.45456
21
-1.96223
0
LINE
8
BLACK
6
CONTINUOUS
10
6.45456
20
-1.96223
11
6.45439
21
-1.96278
0
LINE
8
BLACK
6
CONTINUOUS
10
6.45439
20
-1.96278
11
6.45412
21
-1.96329
0
LINE
8
BLACK
6
CONTINUOUS
10
6.45412
20
-1.96329
11
6.45375
21
-1.96374
0
LINE
8
BLACK
6
CONTINUOUS
10
6.45375
20
-1.96374
11
6.45331
21
-1.96411
0
LINE
8
BLACK
6
CONTINUOUS
10
6.45331
20
-1.96411
11
6.4528
21
-1.96438
0
LINE
8
BLACK
6
CONTINUOUS
10
6.4528
20
-1.96438
11
6.45224
21
-1.96455
0
LINE
8
BLACK
6
CONTINUOUS
10
6.45224
20
-1.96455
11
6.45167
21
-1.96461
0
LINE
8
BLACK
6
CONTINUOUS
10
6.45167
20
-1.96461
11
6.43493
21
-1.96461
0
LINE
8
BLACK
6
CONTINUOUS
10
6.43493
20
-1.96461
11
6.43436
21
-1.96455
0
LINE
8
BLACK
6
CONTINUOUS
10
6.43436
20
-1.96455
11
6.4338
21
-1.96438
0
LINE
8
BLACK
6
CONTINUOUS
10
6.4338
20
-1.96438
11
6.43329
21
-1.96411
0
LINE
8
BLACK
6
CONTINUOUS
10
6.43329
20
-1.96411
11
6.43285
21
-1.96374
0
LINE
8
BLACK
6
CONTINUOUS
10
6.43285
20
-1.96374
11
6.43248
21
-1.96329
0
LINE
8
BLACK
6
CONTINUOUS
10
6.43248
20
-1.96329
11
6.43221
21
-1.96278
0
LINE
8
BLACK
6
CONTINUOUS
10
6.43221
20
-1.96278
11
6.43204
21
-1.96223
0
LINE
8
BLACK
6
CONTINUOUS
10
6.43204
20
-1.96223
11
6.43198
21
-1.96165
0
LINE
8
BLACK
6
CONTINUOUS
10
6.43198
20
-1.96165
11
6.43198
21
-1.95575
0
LINE
8
BLACK
6
CONTINUOUS
10
6.43198
20
-1.95575
11
6.43204
21
-1.95517
0
LINE
8
BLACK
6
CONTINUOUS
10
6.43204
20
-1.95517
11
6.43221
21
-1.95462
0
LINE
8
BLACK
6
CONTINUOUS
10
6.43221
20
-1.95462
11
6.43248
21
-1.95411
0
LINE
8
BLACK
6
CONTINUOUS
10
6.43248
20
-1.95411
11
6.43285
21
-1.95366
0
LINE
8
BLACK
6
CONTINUOUS
10
6.43285
20
-1.95366
11
6.43329
21
-1.95329
0
LINE
8
BLACK
6
CONTINUOUS
10
6.43329
20
-1.95329
11
6.4338
21
-1.95302
0
LINE
8
BLACK
6
CONTINUOUS
10
6.4338
20
-1.95302
11
6.43436
21
-1.95285
0
LINE
8
BLACK
6
CONTINUOUS
10
6.43436
20
-1.95285
11
6.43493
21
-1.95279
0
LINE
8
BLACK
6
CONTINUOUS
10
6.43493
20
-1.95279
11
6.45167
21
-1.95279
0
LINE
8
BLACK
6
CONTINUOUS
10
6.45167
20
-1.95279
11
6.45224
21
-1.95285
0
LINE
8
BLACK
6
CONTINUOUS
10
6.00059
20
-1.94681
11
5.94251
21
-1.94681
0
LINE
8
BLACK
6
CONTINUOUS
10
5.94251
20
-1.94681
11
5.94251
21
-1.935
0
LINE
8
BLACK
6
CONTINUOUS
10
5.94251
20
-1.935
11
6.00059
21
-1.935
0
LINE
8
BLACK
6
CONTINUOUS
10
6.00059
20
-1.935
11
6.00059
21
-1.94681
0
LINE
8
BLACK
6
CONTINUOUS
10
6.33429
20
-1.94681
11
6.27621
21
-1.94681
0
LINE
8
BLACK
6
CONTINUOUS
10
6.27621
20
-1.94681
11
6.27621
21
-1.935
0
LINE
8
BLACK
6
CONTINUOUS
10
6.27621
20
-1.935
11
6.33429
21
-1.935
0
LINE
8
BLACK
6
CONTINUOUS
10
6.33429
20
-1.935
11
6.33429
21
-1.94681
0
LINE
8
BLACK
6
CONTINUOUS
10
6.00059
20
-1.92712
11
5.94251
21
-1.92712
0
LINE
8
BLACK
6
CONTINUOUS
10
5.94251
20
-1.92712
11
5.94251
21
-1.91531
0
LINE
8
BLACK
6
CONTINUOUS
10
5.94251
20
-1.91531
11
6.00059
21
-1.91531
0
LINE
8
BLACK
6
CONTINUOUS
10
6.00059
20
-1.91531
11
6.00059
21
-1.92712
0
LINE
8
BLACK
6
CONTINUOUS
10
6.33429
20
-1.92712
11
6.27621
21
-1.92712
0
LINE
8
BLACK
6
CONTINUOUS
10
6.27621
20
-1.92712
11
6.27621
21
-1.91531
0
LINE
8
BLACK
6
CONTINUOUS
10
6.27621
20
-1.91531
11
6.33429
21
-1.91531
0
LINE
8
BLACK
6
CONTINUOUS
10
6.33429
20
-1.91531
11
6.33429
21
-1.92712
0
LINE
8
BLACK
6
CONTINUOUS
10
6.00059
20
-1.90744
11
5.94251
21
-1.90744
0
LINE
8
BLACK
6
CONTINUOUS
10
5.94251
20
-1.90744
11
5.94251
21
-1.89563
0
LINE
8
BLACK
6
CONTINUOUS
10
5.94251
20
-1.89563
11
6.00059
21
-1.89563
0
LINE
8
BLACK
6
CONTINUOUS
10
6.00059
20
-1.89563
11
6.00059
21
-1.90744
0
LINE
8
BLACK
6
CONTINUOUS
10
6.33429
20
-1.90744
11
6.27621
21
-1.90744
0
LINE
8
BLACK
6
CONTINUOUS
10
6.27621
20
-1.90744
11
6.27621
21
-1.89563
0
LINE
8
BLACK
6
CONTINUOUS
10
6.27621
20
-1.89563
11
6.33429
21
-1.89563
0
LINE
8
BLACK
6
CONTINUOUS
10
6.33429
20
-1.89563
11
6.33429
21
-1.90744
0
LINE
8
BLACK
6
CONTINUOUS
10
6.13446
20
-1.87199
11
6.12265
21
-1.87199
0
LINE
8
BLACK
6
CONTINUOUS
10
6.12265
20
-1.87199
11
6.12265
21
-1.81391
0
LINE
8
BLACK
6
CONTINUOUS
10
6.12265
20
-1.81391
11
6.13446
21
-1.81391
0
LINE
8
BLACK
6
CONTINUOUS
10
6.13446
20
-1.81391
11
6.13446
21
-1.87199
0
LINE
8
BLACK
6
CONTINUOUS
10
6.23289
20
-1.87199
11
6.22108
21
-1.87199
0
LINE
8
BLACK
6
CONTINUOUS
10
6.22108
20
-1.87199
11
6.22108
21
-1.81391
0
LINE
8
BLACK
6
CONTINUOUS
10
6.22108
20
-1.81391
11
6.23289
21
-1.81391
0
LINE
8
BLACK
6
CONTINUOUS
10
6.23289
20
-1.81391
11
6.23289
21
-1.87199
0
LINE
8
BLACK
6
CONTINUOUS
10
6.2132
20
-1.87199
11
6.20139
21
-1.87199
0
LINE
8
BLACK
6
CONTINUOUS
10
6.20139
20
-1.87199
11
6.20139
21
-1.81391
0
LINE
8
BLACK
6
CONTINUOUS
10
6.20139
20
-1.81391
11
6.2132
21
-1.81391
0
LINE
8
BLACK
6
CONTINUOUS
10
6.2132
20
-1.81391
11
6.2132
21
-1.87199
0
LINE
8
BLACK
6
CONTINUOUS
10
6.19352
20
-1.87199
11
6.18171
21
-1.87199
0
LINE
8
BLACK
6
CONTINUOUS
10
6.18171
20
-1.87199
11
6.18171
21
-1.81391
0
LINE
8
BLACK
6
CONTINUOUS
10
6.18171
20
-1.81391
11
6.19352
21
-1.81391
0
LINE
8
BLACK
6
CONTINUOUS
10
6.19352
20
-1.81391
11
6.19352
21
-1.87199
0
LINE
8
BLACK
6
CONTINUOUS
10
6.17383
20
-1.87199
11
6.16202
21
-1.87199
0
LINE
8
BLACK
6
CONTINUOUS
10
6.16202
20
-1.87199
11
6.16202
21
-1.81391
0
LINE
8
BLACK
6
CONTINUOUS
10
6.16202
20
-1.81391
11
6.17383
21
-1.81391
0
LINE
8
BLACK
6
CONTINUOUS
10
6.17383
20
-1.81391
11
6.17383
21
-1.87199
0
LINE
8
BLACK
6
CONTINUOUS
10
6.15415
20
-1.87199
11
6.14234
21
-1.87199
0
LINE
8
BLACK
6
CONTINUOUS
10
6.14234
20
-1.87199
11
6.14234
21
-1.81391
0
LINE
8
BLACK
6
CONTINUOUS
10
6.14234
20
-1.81391
11
6.15415
21
-1.81391
0
LINE
8
BLACK
6
CONTINUOUS
10
6.15415
20
-1.81391
11
6.15415
21
-1.87199
0
LINE
8
BLACK
6
CONTINUOUS
10
6.11478
20
-1.87199
11
6.10297
21
-1.87199
0
LINE
8
BLACK
6
CONTINUOUS
10
6.10297
20
-1.87199
11
6.10297
21
-1.81391
0
LINE
8
BLACK
6
CONTINUOUS
10
6.10297
20
-1.81391
11
6.11478
21
-1.81391
0
LINE
8
BLACK
6
CONTINUOUS
10
6.11478
20
-1.81391
11
6.11478
21
-1.87199
0
LINE
8
BLACK
6
CONTINUOUS
10
6.09509
20
-1.87199
11
6.08328
21
-1.87199
0
LINE
8
BLACK
6
CONTINUOUS
10
6.08328
20
-1.87199
11
6.08328
21
-1.81391
0
LINE
8
BLACK
6
CONTINUOUS
10
6.08328
20
-1.81391
11
6.09509
21
-1.81391
0
LINE
8
BLACK
6
CONTINUOUS
10
6.09509
20
-1.81391
11
6.09509
21
-1.87199
0
LINE
8
BLACK
6
CONTINUOUS
10
6.07541
20
-1.87199
11
6.0636
21
-1.87199
0
LINE
8
BLACK
6
CONTINUOUS
10
6.0636
20
-1.87199
11
6.0636
21
-1.81391
0
LINE
8
BLACK
6
CONTINUOUS
10
6.0636
20
-1.81391
11
6.07541
21
-1.81391
0
LINE
8
BLACK
6
CONTINUOUS
10
6.07541
20
-1.81391
11
6.07541
21
-1.87199
0
LINE
8
BLACK
6
CONTINUOUS
10
6.05572
20
-1.87199
11
6.04391
21
-1.87199
0
LINE
8
BLACK
6
CONTINUOUS
10
6.04391
20
-1.87199
11
6.04391
21
-1.81391
0
LINE
8
BLACK
6
CONTINUOUS
10
6.04391
20
-1.81391
11
6.05572
21
-1.81391
0
LINE
8
BLACK
6
CONTINUOUS
10
6.05572
20
-1.81391
11
6.05572
21
-1.87199
0
LINE
8
BLACK
6
CONTINUOUS
10
6.03604
20
-1.87199
11
6.02423
21
-1.87199
0
LINE
8
BLACK
6
CONTINUOUS
10
6.02423
20
-1.87199
11
6.02423
21
-1.81391
0
LINE
8
BLACK
6
CONTINUOUS
10
6.02423
20
-1.81391
11
6.03604
21
-1.81391
0
LINE
8
BLACK
6
CONTINUOUS
10
6.03604
20
-1.81391
11
6.03604
21
-1.87199
0
LINE
8
BLACK
6
CONTINUOUS
10
6.25257
20
-1.87199
11
6.24076
21
-1.87199
0
LINE
8
BLACK
6
CONTINUOUS
10
6.24076
20
-1.87199
11
6.24076
21
-1.81391
0
LINE
8
BLACK
6
CONTINUOUS
10
6.24076
20
-1.81391
11
6.25257
21
-1.81391
0
LINE
8
BLACK
6
CONTINUOUS
10
6.25257
20
-1.81391
11
6.25257
21
-1.87199
0
LINE
8
BLACK
6
CONTINUOUS
10
6.38524
20
-1.72685
11
6.3858
21
-1.72702
0
LINE
8
BLACK
6
CONTINUOUS
10
6.3858
20
-1.72702
11
6.38631
21
-1.72729
0
LINE
8
BLACK
6
CONTINUOUS
10
6.38631
20
-1.72729
11
6.38675
21
-1.72766
0
LINE
8
BLACK
6
CONTINUOUS
10
6.38675
20
-1.72766
11
6.38712
21
-1.72811
0
LINE
8
BLACK
6
CONTINUOUS
10
6.38712
20
-1.72811
11
6.38739
21
-1.72862
0
LINE
8
BLACK
6
CONTINUOUS
10
6.38739
20
-1.72862
11
6.38756
21
-1.72917
0
LINE
8
BLACK
6
CONTINUOUS
10
6.38756
20
-1.72917
11
6.38762
21
-1.72975
0
LINE
8
BLACK
6
CONTINUOUS
10
6.38762
20
-1.72975
11
6.38762
21
-1.73565
0
LINE
8
BLACK
6
CONTINUOUS
10
6.38762
20
-1.73565
11
6.38756
21
-1.73623
0
LINE
8
BLACK
6
CONTINUOUS
10
6.38756
20
-1.73623
11
6.38739
21
-1.73678
0
LINE
8
BLACK
6
CONTINUOUS
10
6.38739
20
-1.73678
11
6.38712
21
-1.73729
0
LINE
8
BLACK
6
CONTINUOUS
10
6.38712
20
-1.73729
11
6.38675
21
-1.73774
0
LINE
8
BLACK
6
CONTINUOUS
10
6.38675
20
-1.73774
11
6.38631
21
-1.73811
0
LINE
8
BLACK
6
CONTINUOUS
10
6.38631
20
-1.73811
11
6.3858
21
-1.73838
0
LINE
8
BLACK
6
CONTINUOUS
10
6.3858
20
-1.73838
11
6.38524
21
-1.73855
0
LINE
8
BLACK
6
CONTINUOUS
10
6.38524
20
-1.73855
11
6.38467
21
-1.73861
0
LINE
8
BLACK
6
CONTINUOUS
10
6.38467
20
-1.73861
11
6.36793
21
-1.73861
0
LINE
8
BLACK
6
CONTINUOUS
10
6.36793
20
-1.73861
11
6.36736
21
-1.73855
0
LINE
8
BLACK
6
CONTINUOUS
10
6.36736
20
-1.73855
11
6.3668
21
-1.73838
0
LINE
8
BLACK
6
CONTINUOUS
10
6.3668
20
-1.73838
11
6.36629
21
-1.73811
0
LINE
8
BLACK
6
CONTINUOUS
10
6.36629
20
-1.73811
11
6.36585
21
-1.73774
0
LINE
8
BLACK
6
CONTINUOUS
10
6.36585
20
-1.73774
11
6.36548
21
-1.73729
0
LINE
8
BLACK
6
CONTINUOUS
10
6.36548
20
-1.73729
11
6.36521
21
-1.73678
0
LINE
8
BLACK
6
CONTINUOUS
10
6.36521
20
-1.73678
11
6.36504
21
-1.73623
0
LINE
8
BLACK
6
CONTINUOUS
10
6.36504
20
-1.73623
11
6.36498
21
-1.73565
0
LINE
8
BLACK
6
CONTINUOUS
10
6.36498
20
-1.73565
11
6.36498
21
-1.72975
0
LINE
8
BLACK
6
CONTINUOUS
10
6.36498
20
-1.72975
11
6.36504
21
-1.72917
0
LINE
8
BLACK
6
CONTINUOUS
10
6.36504
20
-1.72917
11
6.36521
21
-1.72862
0
LINE
8
BLACK
6
CONTINUOUS
10
6.36521
20
-1.72862
11
6.36548
21
-1.72811
0
LINE
8
BLACK
6
CONTINUOUS
10
6.36548
20
-1.72811
11
6.36585
21
-1.72766
0
LINE
8
BLACK
6
CONTINUOUS
10
6.36585
20
-1.72766
11
6.36629
21
-1.72729
0
LINE
8
BLACK
6
CONTINUOUS
10
6.36629
20
-1.72729
11
6.3668
21
-1.72702
0
LINE
8
BLACK
6
CONTINUOUS
10
6.3668
20
-1.72702
11
6.36736
21
-1.72685
0
LINE
8
BLACK
6
CONTINUOUS
10
6.36736
20
-1.72685
11
6.36793
21
-1.72679
0
LINE
8
BLACK
6
CONTINUOUS
10
6.36793
20
-1.72679
11
6.38467
21
-1.72679
0
LINE
8
BLACK
6
CONTINUOUS
10
6.38467
20
-1.72679
11
6.38524
21
-1.72685
0
LINE
8
BLACK
6
CONTINUOUS
10
6.35867
20
-1.72685
11
6.35922
21
-1.72702
0
LINE
8
BLACK
6
CONTINUOUS
10
6.35922
20
-1.72702
11
6.35973
21
-1.72729
0
LINE
8
BLACK
6
CONTINUOUS
10
6.35973
20
-1.72729
11
6.36018
21
-1.72766
0
LINE
8
BLACK
6
CONTINUOUS
10
6.36018
20
-1.72766
11
6.36055
21
-1.72811
0
LINE
8
BLACK
6
CONTINUOUS
10
6.36055
20
-1.72811
11
6.36082
21
-1.72862
0
LINE
8
BLACK
6
CONTINUOUS
10
6.36082
20
-1.72862
11
6.36099
21
-1.72917
0
LINE
8
BLACK
6
CONTINUOUS
10
6.36099
20
-1.72917
11
6.36104
21
-1.72975
0
LINE
8
BLACK
6
CONTINUOUS
10
6.36104
20
-1.72975
11
6.36104
21
-1.73565
0
LINE
8
BLACK
6
CONTINUOUS
10
6.36104
20
-1.73565
11
6.36099
21
-1.73623
0
LINE
8
BLACK
6
CONTINUOUS
10
6.36099
20
-1.73623
11
6.36082
21
-1.73678
0
LINE
8
BLACK
6
CONTINUOUS
10
6.36082
20
-1.73678
11
6.36055
21
-1.73729
0
LINE
8
BLACK
6
CONTINUOUS
10
6.36055
20
-1.73729
11
6.36018
21
-1.73774
0
LINE
8
BLACK
6
CONTINUOUS
10
6.36018
20
-1.73774
11
6.35973
21
-1.73811
0
LINE
8
BLACK
6
CONTINUOUS
10
6.35973
20
-1.73811
11
6.35922
21
-1.73838
0
LINE
8
BLACK
6
CONTINUOUS
10
6.35922
20
-1.73838
11
6.35867
21
-1.73855
0
LINE
8
BLACK
6
CONTINUOUS
10
6.35867
20
-1.73855
11
6.35809
21
-1.73861
0
LINE
8
BLACK
6
CONTINUOUS
10
6.35809
20
-1.73861
11
6.34136
21
-1.73861
0
LINE
8
BLACK
6
CONTINUOUS
10
6.34136
20
-1.73861
11
6.34078
21
-1.73855
0
LINE
8
BLACK
6
CONTINUOUS
10
6.34078
20
-1.73855
11
6.34023
21
-1.73838
0
LINE
8
BLACK
6
CONTINUOUS
10
6.34023
20
-1.73838
11
6.33972
21
-1.73811
0
LINE
8
BLACK
6
CONTINUOUS
10
6.33972
20
-1.73811
11
6.33927
21
-1.73774
0
LINE
8
BLACK
6
CONTINUOUS
10
6.33927
20
-1.73774
11
6.3389
21
-1.73729
0
LINE
8
BLACK
6
CONTINUOUS
10
6.3389
20
-1.73729
11
6.33863
21
-1.73678
0
LINE
8
BLACK
6
CONTINUOUS
10
6.33863
20
-1.73678
11
6.33846
21
-1.73623
0
LINE
8
BLACK
6
CONTINUOUS
10
6.33846
20
-1.73623
11
6.33841
21
-1.73565
0
LINE
8
BLACK
6
CONTINUOUS
10
6.33841
20
-1.73565
11
6.33841
21
-1.72975
0
LINE
8
BLACK
6
CONTINUOUS
10
6.33841
20
-1.72975
11
6.33846
21
-1.72917
0
LINE
8
BLACK
6
CONTINUOUS
10
6.33846
20
-1.72917
11
6.33863
21
-1.72862
0
LINE
8
BLACK
6
CONTINUOUS
10
6.33863
20
-1.72862
11
6.3389
21
-1.72811
0
LINE
8
BLACK
6
CONTINUOUS
10
6.3389
20
-1.72811
11
6.33927
21
-1.72766
0
LINE
8
BLACK
6
CONTINUOUS
10
6.33927
20
-1.72766
11
6.33972
21
-1.72729
0
LINE
8
BLACK
6
CONTINUOUS
10
6.33972
20
-1.72729
11
6.34023
21
-1.72702
0
LINE
8
BLACK
6
CONTINUOUS
10
6.34023
20
-1.72702
11
6.34078
21
-1.72685
0
LINE
8
BLACK
6
CONTINUOUS
10
6.34078
20
-1.72685
11
6.34136
21
-1.72679
0
LINE
8
BLACK
6
CONTINUOUS
10
6.34136
20
-1.72679
11
6.35809
21
-1.72679
0
LINE
8
BLACK
6
CONTINUOUS
10
6.35809
20
-1.72679
11
6.35867
21
-1.72685
0
LINE
8
BLACK
6
CONTINUOUS
10
6.29185
20
-1.70062
11
6.29303
21
-1.70098
0
LINE
8
BLACK
6
CONTINUOUS
10
6.29303
20
-1.70098
11
6.29412
21
-1.70156
0
LINE
8
BLACK
6
CONTINUOUS
10
6.29412
20
-1.70156
11
6.29508
21
-1.70235
0
LINE
8
BLACK
6
CONTINUOUS
10
6.29508
20
-1.70235
11
6.29586
21
-1.7033
0
LINE
8
BLACK
6
CONTINUOUS
10
6.29586
20
-1.7033
11
6.29644
21
-1.70439
0
LINE
8
BLACK
6
CONTINUOUS
10
6.29644
20
-1.70439
11
6.2968
21
-1.70557
0
LINE
8
BLACK
6
CONTINUOUS
10
6.2968
20
-1.70557
11
6.29692
21
-1.7068
0
LINE
8
BLACK
6
CONTINUOUS
10
6.29692
20
-1.7068
11
6.29692
21
-1.7194
0
LINE
8
BLACK
6
CONTINUOUS
10
6.29692
20
-1.7194
11
6.2968
21
-1.72063
0
LINE
8
BLACK
6
CONTINUOUS
10
6.2968
20
-1.72063
11
6.29644
21
-1.72181
0
LINE
8
BLACK
6
CONTINUOUS
10
6.29644
20
-1.72181
11
6.29586
21
-1.7229
0
LINE
8
BLACK
6
CONTINUOUS
10
6.29586
20
-1.7229
11
6.29508
21
-1.72385
0
LINE
8
BLACK
6
CONTINUOUS
10
6.29508
20
-1.72385
11
6.29412
21
-1.72464
0
LINE
8
BLACK
6
CONTINUOUS
10
6.29412
20
-1.72464
11
6.29303
21
-1.72522
0
LINE
8
BLACK
6
CONTINUOUS
10
6.29303
20
-1.72522
11
6.29185
21
-1.72558
0
LINE
8
BLACK
6
CONTINUOUS
10
6.29185
20
-1.72558
11
6.29062
21
-1.7257
0
LINE
8
BLACK
6
CONTINUOUS
10
6.29062
20
-1.7257
11
6.27507
21
-1.7257
0
LINE
8
BLACK
6
CONTINUOUS
10
6.27507
20
-1.7257
11
6.27384
21
-1.72558
0
LINE
8
BLACK
6
CONTINUOUS
10
6.27384
20
-1.72558
11
6.27266
21
-1.72522
0
LINE
8
BLACK
6
CONTINUOUS
10
6.27266
20
-1.72522
11
6.27157
21
-1.72464
0
LINE
8
BLACK
6
CONTINUOUS
10
6.27157
20
-1.72464
11
6.27062
21
-1.72385
0
LINE
8
BLACK
6
CONTINUOUS
10
6.27062
20
-1.72385
11
6.26983
21
-1.7229
0
LINE
8
BLACK
6
CONTINUOUS
10
6.26983
20
-1.7229
11
6.26925
21
-1.72181
0
LINE
8
BLACK
6
CONTINUOUS
10
6.26925
20
-1.72181
11
6.26889
21
-1.72063
0
LINE
8
BLACK
6
CONTINUOUS
10
6.26889
20
-1.72063
11
6.26877
21
-1.7194
0
LINE
8
BLACK
6
CONTINUOUS
10
6.26877
20
-1.7194
11
6.26877
21
-1.7068
0
LINE
8
BLACK
6
CONTINUOUS
10
6.26877
20
-1.7068
11
6.26889
21
-1.70557
0
LINE
8
BLACK
6
CONTINUOUS
10
6.26889
20
-1.70557
11
6.26925
21
-1.70439
0
LINE
8
BLACK
6
CONTINUOUS
10
6.26925
20
-1.70439
11
6.26983
21
-1.7033
0
LINE
8
BLACK
6
CONTINUOUS
10
6.26983
20
-1.7033
11
6.27062
21
-1.70235
0
LINE
8
BLACK
6
CONTINUOUS
10
6.27062
20
-1.70235
11
6.27157
21
-1.70156
0
LINE
8
BLACK
6
CONTINUOUS
10
6.27157
20
-1.70156
11
6.27266
21
-1.70098
0
LINE
8
BLACK
6
CONTINUOUS
10
6.27266
20
-1.70098
11
6.27384
21
-1.70062
0
LINE
8
BLACK
6
CONTINUOUS
10
6.27384
20
-1.70062
11
6.27507
21
-1.7005
0
LINE
8
BLACK
6
CONTINUOUS
10
6.27507
20
-1.7005
11
6.29062
21
-1.7005
0
LINE
8
BLACK
6
CONTINUOUS
10
6.29062
20
-1.7005
11
6.29185
21
-1.70062
0
LINE
8
BLACK
6
CONTINUOUS
10
6.2448
20
-1.70062
11
6.24599
21
-1.70098
0
LINE
8
BLACK
6
CONTINUOUS
10
6.24599
20
-1.70098
11
6.24708
21
-1.70156
0
LINE
8
BLACK
6
CONTINUOUS
10
6.24708
20
-1.70156
11
6.24803
21
-1.70235
0
LINE
8
BLACK
6
CONTINUOUS
10
6.24803
20
-1.70235
11
6.24881
21
-1.7033
0
LINE
8
BLACK
6
CONTINUOUS
10
6.24881
20
-1.7033
11
6.2494
21
-1.70439
0
LINE
8
BLACK
6
CONTINUOUS
10
6.2494
20
-1.70439
11
6.24975
21
-1.70557
0
LINE
8
BLACK
6
CONTINUOUS
10
6.24975
20
-1.70557
11
6.24987
21
-1.7068
0
LINE
8
BLACK
6
CONTINUOUS
10
6.24987
20
-1.7068
11
6.24987
21
-1.7194
0
LINE
8
BLACK
6
CONTINUOUS
10
6.24987
20
-1.7194
11
6.24975
21
-1.72063
0
LINE
8
BLACK
6
CONTINUOUS
10
6.24975
20
-1.72063
11
6.2494
21
-1.72181
0
LINE
8
BLACK
6
CONTINUOUS
10
6.2494
20
-1.72181
11
6.24881
21
-1.7229
0
LINE
8
BLACK
6
CONTINUOUS
10
6.24881
20
-1.7229
11
6.24803
21
-1.72385
0
LINE
8
BLACK
6
CONTINUOUS
10
6.24803
20
-1.72385
11
6.24708
21
-1.72464
0
LINE
8
BLACK
6
CONTINUOUS
10
6.24708
20
-1.72464
11
6.24599
21
-1.72522
0
LINE
8
BLACK
6
CONTINUOUS
10
6.24599
20
-1.72522
11
6.2448
21
-1.72558
0
LINE
8
BLACK
6
CONTINUOUS
10
6.2448
20
-1.72558
11
6.24358
21
-1.7257
0
LINE
8
BLACK
6
CONTINUOUS
10
6.24358
20
-1.7257
11
6.22802
21
-1.7257
0
LINE
8
BLACK
6
CONTINUOUS
10
6.22802
20
-1.7257
11
6.2268
21
-1.72558
0
LINE
8
BLACK
6
CONTINUOUS
10
6.2268
20
-1.72558
11
6.22561
21
-1.72522
0
LINE
8
BLACK
6
CONTINUOUS
10
6.22561
20
-1.72522
11
6.22452
21
-1.72464
0
LINE
8
BLACK
6
CONTINUOUS
10
6.22452
20
-1.72464
11
6.22357
21
-1.72385
0
LINE
8
BLACK
6
CONTINUOUS
10
6.22357
20
-1.72385
11
6.22279
21
-1.7229
0
LINE
8
BLACK
6
CONTINUOUS
10
6.22279
20
-1.7229
11
6.2222
21
-1.72181
0
LINE
8
BLACK
6
CONTINUOUS
10
6.2222
20
-1.72181
11
6.22185
21
-1.72063
0
LINE
8
BLACK
6
CONTINUOUS
10
6.22185
20
-1.72063
11
6.22173
21
-1.7194
0
LINE
8
BLACK
6
CONTINUOUS
10
6.22173
20
-1.7194
11
6.22173
21
-1.7068
0
LINE
8
BLACK
6
CONTINUOUS
10
6.22173
20
-1.7068
11
6.22185
21
-1.70557
0
LINE
8
BLACK
6
CONTINUOUS
10
6.22185
20
-1.70557
11
6.2222
21
-1.70439
0
LINE
8
BLACK
6
CONTINUOUS
10
6.2222
20
-1.70439
11
6.22279
21
-1.7033
0
LINE
8
BLACK
6
CONTINUOUS
10
6.22279
20
-1.7033
11
6.22357
21
-1.70235
0
LINE
8
BLACK
6
CONTINUOUS
10
6.22357
20
-1.70235
11
6.22452
21
-1.70156
0
LINE
8
BLACK
6
CONTINUOUS
10
6.22452
20
-1.70156
11
6.22561
21
-1.70098
0
LINE
8
BLACK
6
CONTINUOUS
10
6.22561
20
-1.70098
11
6.2268
21
-1.70062
0
LINE
8
BLACK
6
CONTINUOUS
10
6.2268
20
-1.70062
11
6.22802
21
-1.7005
0
LINE
8
BLACK
6
CONTINUOUS
10
6.22802
20
-1.7005
11
6.24358
21
-1.7005
0
LINE
8
BLACK
6
CONTINUOUS
10
6.24358
20
-1.7005
11
6.2448
21
-1.70062
0
LINE
8
BLACK
6
CONTINUOUS
10
6.10675
20
-1.68892
11
6.10793
21
-1.68928
0
LINE
8
BLACK
6
CONTINUOUS
10
6.10793
20
-1.68928
11
6.10902
21
-1.68986
0
LINE
8
BLACK
6
CONTINUOUS
10
6.10902
20
-1.68986
11
6.10998
21
-1.69065
0
LINE
8
BLACK
6
CONTINUOUS
10
6.10998
20
-1.69065
11
6.11076
21
-1.6916
0
LINE
8
BLACK
6
CONTINUOUS
10
6.11076
20
-1.6916
11
6.11134
21
-1.69269
0
LINE
8
BLACK
6
CONTINUOUS
10
6.11134
20
-1.69269
11
6.1117
21
-1.69387
0
LINE
8
BLACK
6
CONTINUOUS
10
6.1117
20
-1.69387
11
6.11182
21
-1.6951
0
LINE
8
BLACK
6
CONTINUOUS
10
6.11182
20
-1.6951
11
6.11182
21
-1.7077
0
LINE
8
BLACK
6
CONTINUOUS
10
6.11182
20
-1.7077
11
6.1117
21
-1.70893
0
LINE
8
BLACK
6
CONTINUOUS
10
6.1117
20
-1.70893
11
6.11134
21
-1.71011
0
LINE
8
BLACK
6
CONTINUOUS
10
6.11134
20
-1.71011
11
6.11076
21
-1.7112
0
LINE
8
BLACK
6
CONTINUOUS
10
6.11076
20
-1.7112
11
6.10998
21
-1.71215
0
LINE
8
BLACK
6
CONTINUOUS
10
6.10998
20
-1.71215
11
6.10902
21
-1.71294
0
LINE
8
BLACK
6
CONTINUOUS
10
6.10902
20
-1.71294
11
6.10793
21
-1.71352
0
LINE
8
BLACK
6
CONTINUOUS
10
6.10793
20
-1.71352
11
6.10675
21
-1.71388
0
LINE
8
BLACK
6
CONTINUOUS
10
6.10675
20
-1.71388
11
6.10552
21
-1.714
0
LINE
8
BLACK
6
CONTINUOUS
10
6.10552
20
-1.714
11
6.08997
21
-1.714
0
LINE
8
BLACK
6
CONTINUOUS
10
6.08997
20
-1.714
11
6.08874
21
-1.71388
0
LINE
8
BLACK
6
CONTINUOUS
10
6.08874
20
-1.71388
11
6.08756
21
-1.71352
0
LINE
8
BLACK
6
CONTINUOUS
10
6.08756
20
-1.71352
11
6.08647
21
-1.71294
0
LINE
8
BLACK
6
CONTINUOUS
10
6.08647
20
-1.71294
11
6.08552
21
-1.71215
0
LINE
8
BLACK
6
CONTINUOUS
10
6.08552
20
-1.71215
11
6.08473
21
-1.7112
0
LINE
8
BLACK
6
CONTINUOUS
10
6.08473
20
-1.7112
11
6.08415
21
-1.71011
0
LINE
8
BLACK
6
CONTINUOUS
10
6.08415
20
-1.71011
11
6.08379
21
-1.70893
0
LINE
8
BLACK
6
CONTINUOUS
10
6.08379
20
-1.70893
11
6.08367
21
-1.7077
0
LINE
8
BLACK
6
CONTINUOUS
10
6.08367
20
-1.7077
11
6.08367
21
-1.6951
0
LINE
8
BLACK
6
CONTINUOUS
10
6.08367
20
-1.6951
11
6.08379
21
-1.69387
0
LINE
8
BLACK
6
CONTINUOUS
10
6.08379
20
-1.69387
11
6.08415
21
-1.69269
0
LINE
8
BLACK
6
CONTINUOUS
10
6.08415
20
-1.69269
11
6.08473
21
-1.6916
0
LINE
8
BLACK
6
CONTINUOUS
10
6.08473
20
-1.6916
11
6.08552
21
-1.69065
0
LINE
8
BLACK
6
CONTINUOUS
10
6.08552
20
-1.69065
11
6.08647
21
-1.68986
0
LINE
8
BLACK
6
CONTINUOUS
10
6.08647
20
-1.68986
11
6.08756
21
-1.68928
0
LINE
8
BLACK
6
CONTINUOUS
10
6.08756
20
-1.68928
11
6.08874
21
-1.68892
0
LINE
8
BLACK
6
CONTINUOUS
10
6.08874
20
-1.68892
11
6.08997
21
-1.6888
0
LINE
8
BLACK
6
CONTINUOUS
10
6.08997
20
-1.6888
11
6.10552
21
-1.6888
0
LINE
8
BLACK
6
CONTINUOUS
10
6.10552
20
-1.6888
11
6.10675
21
-1.68892
0
LINE
8
BLACK
6
CONTINUOUS
10
6.0597
20
-1.68892
11
6.06089
21
-1.68928
0
LINE
8
BLACK
6
CONTINUOUS
10
6.06089
20
-1.68928
11
6.06198
21
-1.68986
0
LINE
8
BLACK
6
CONTINUOUS
10
6.06198
20
-1.68986
11
6.06293
21
-1.69065
0
LINE
8
BLACK
6
CONTINUOUS
10
6.06293
20
-1.69065
11
6.06371
21
-1.6916
0
LINE
8
BLACK
6
CONTINUOUS
10
6.06371
20
-1.6916
11
6.0643
21
-1.69269
0
LINE
8
BLACK
6
CONTINUOUS
10
6.0643
20
-1.69269
11
6.06465
21
-1.69387
0
LINE
8
BLACK
6
CONTINUOUS
10
6.06465
20
-1.69387
11
6.06477
21
-1.6951
0
LINE
8
BLACK
6
CONTINUOUS
10
6.06477
20
-1.6951
11
6.06477
21
-1.7077
0
LINE
8
BLACK
6
CONTINUOUS
10
6.06477
20
-1.7077
11
6.06465
21
-1.70893
0
LINE
8
BLACK
6
CONTINUOUS
10
6.06465
20
-1.70893
11
6.0643
21
-1.71011
0
LINE
8
BLACK
6
CONTINUOUS
10
6.0643
20
-1.71011
11
6.06371
21
-1.7112
0
LINE
8
BLACK
6
CONTINUOUS
10
6.06371
20
-1.7112
11
6.06293
21
-1.71215
0
LINE
8
BLACK
6
CONTINUOUS
10
6.06293
20
-1.71215
11
6.06198
21
-1.71294
0
LINE
8
BLACK
6
CONTINUOUS
10
6.06198
20
-1.71294
11
6.06089
21
-1.71352
0
LINE
8
BLACK
6
CONTINUOUS
10
6.06089
20
-1.71352
11
6.0597
21
-1.71388
0
LINE
8
BLACK
6
CONTINUOUS
10
6.0597
20
-1.71388
11
6.05848
21
-1.714
0
LINE
8
BLACK
6
CONTINUOUS
10
6.05848
20
-1.714
11
6.04292
21
-1.714
0
LINE
8
BLACK
6
CONTINUOUS
10
6.04292
20
-1.714
11
6.0417
21
-1.71388
0
LINE
8
BLACK
6
CONTINUOUS
10
6.0417
20
-1.71388
11
6.04051
21
-1.71352
0
LINE
8
BLACK
6
CONTINUOUS
10
6.04051
20
-1.71352
11
6.03942
21
-1.71294
0
LINE
8
BLACK
6
CONTINUOUS
10
6.03942
20
-1.71294
11
6.03847
21
-1.71215
0
LINE
8
BLACK
6
CONTINUOUS
10
6.03847
20
-1.71215
11
6.03769
21
-1.7112
0
LINE
8
BLACK
6
CONTINUOUS
10
6.03769
20
-1.7112
11
6.0371
21
-1.71011
0
LINE
8
BLACK
6
CONTINUOUS
10
6.0371
20
-1.71011
11
6.03675
21
-1.70893
0
LINE
8
BLACK
6
CONTINUOUS
10
6.03675
20
-1.70893
11
6.03663
21
-1.7077
0
LINE
8
BLACK
6
CONTINUOUS
10
6.03663
20
-1.7077
11
6.03663
21
-1.6951
0
LINE
8
BLACK
6
CONTINUOUS
10
6.03663
20
-1.6951
11
6.03675
21
-1.69387
0
LINE
8
BLACK
6
CONTINUOUS
10
6.03675
20
-1.69387
11
6.0371
21
-1.69269
0
LINE
8
BLACK
6
CONTINUOUS
10
6.0371
20
-1.69269
11
6.03769
21
-1.6916
0
LINE
8
BLACK
6
CONTINUOUS
10
6.03769
20
-1.6916
11
6.03847
21
-1.69065
0
LINE
8
BLACK
6
CONTINUOUS
10
6.03847
20
-1.69065
11
6.03942
21
-1.68986
0
LINE
8
BLACK
6
CONTINUOUS
10
6.03942
20
-1.68986
11
6.04051
21
-1.68928
0
LINE
8
BLACK
6
CONTINUOUS
10
6.04051
20
-1.68928
11
6.0417
21
-1.68892
0
LINE
8
BLACK
6
CONTINUOUS
10
6.0417
20
-1.68892
11
6.04292
21
-1.6888
0
LINE
8
BLACK
6
CONTINUOUS
10
6.04292
20
-1.6888
11
6.05848
21
-1.6888
0
LINE
8
BLACK
6
CONTINUOUS
10
6.05848
20
-1.6888
11
6.0597
21
-1.68892
0
LINE
8
BLACK
6
CONTINUOUS
10
6.06278
20
-1.64442
11
6.06396
21
-1.64478
0
LINE
8
BLACK
6
CONTINUOUS
10
6.06396
20
-1.64478
11
6.06505
21
-1.64536
0
LINE
8
BLACK
6
CONTINUOUS
10
6.06505
20
-1.64536
11
6.06601
21
-1.64615
0
LINE
8
BLACK
6
CONTINUOUS
10
6.06601
20
-1.64615
11
6.06679
21
-1.6471
0
LINE
8
BLACK
6
CONTINUOUS
10
6.06679
20
-1.6471
11
6.06737
21
-1.64819
0
LINE
8
BLACK
6
CONTINUOUS
10
6.06737
20
-1.64819
11
6.06773
21
-1.64937
0
LINE
8
BLACK
6
CONTINUOUS
10
6.06773
20
-1.64937
11
6.06785
21
-1.6506
0
LINE
8
BLACK
6
CONTINUOUS
10
6.06785
20
-1.6506
11
6.06785
21
-1.6632
0
LINE
8
BLACK
6
CONTINUOUS
10
6.06785
20
-1.6632
11
6.06773
21
-1.66443
0
LINE
8
BLACK
6
CONTINUOUS
10
6.06773
20
-1.66443
11
6.06737
21
-1.66561
0
LINE
8
BLACK
6
CONTINUOUS
10
6.06737
20
-1.66561
11
6.06679
21
-1.6667
0
LINE
8
BLACK
6
CONTINUOUS
10
6.06679
20
-1.6667
11
6.06601
21
-1.66765
0
LINE
8
BLACK
6
CONTINUOUS
10
6.06601
20
-1.66765
11
6.06505
21
-1.66844
0
LINE
8
BLACK
6
CONTINUOUS
10
6.06505
20
-1.66844
11
6.06396
21
-1.66902
0
LINE
8
BLACK
6
CONTINUOUS
10
6.06396
20
-1.66902
11
6.06278
21
-1.66938
0
LINE
8
BLACK
6
CONTINUOUS
10
6.06278
20
-1.66938
11
6.06155
21
-1.6695
0
LINE
8
BLACK
6
CONTINUOUS
10
6.06155
20
-1.6695
11
6.046
21
-1.6695
0
LINE
8
BLACK
6
CONTINUOUS
10
6.046
20
-1.6695
11
6.04477
21
-1.66938
0
LINE
8
BLACK
6
CONTINUOUS
10
6.04477
20
-1.66938
11
6.04359
21
-1.66902
0
LINE
8
BLACK
6
CONTINUOUS
10
6.04359
20
-1.66902
11
6.0425
21
-1.66844
0
LINE
8
BLACK
6
CONTINUOUS
10
6.0425
20
-1.66844
11
6.04155
21
-1.66765
0
LINE
8
BLACK
6
CONTINUOUS
10
6.04155
20
-1.66765
11
6.04076
21
-1.6667
0
LINE
8
BLACK
6
CONTINUOUS
10
6.04076
20
-1.6667
11
6.04018
21
-1.66561
0
LINE
8
BLACK
6
CONTINUOUS
10
6.04018
20
-1.66561
11
6.03982
21
-1.66443
0
LINE
8
BLACK
6
CONTINUOUS
10
6.03982
20
-1.66443
11
6.0397
21
-1.6632
0
LINE
8
BLACK
6
CONTINUOUS
10
6.0397
20
-1.6632
11
6.0397
21
-1.6506
0
LINE
8
BLACK
6
CONTINUOUS
10
6.0397
20
-1.6506
11
6.03982
21
-1.64937
0
LINE
8
BLACK
6
CONTINUOUS
10
6.03982
20
-1.64937
11
6.04018
21
-1.64819
0
LINE
8
BLACK
6
CONTINUOUS
10
6.04018
20
-1.64819
11
6.04076
21
-1.6471
0
LINE
8
BLACK
6
CONTINUOUS
10
6.04076
20
-1.6471
11
6.04155
21
-1.64615
0
LINE
8
BLACK
6
CONTINUOUS
10
6.04155
20
-1.64615
11
6.0425
21
-1.64536
0
LINE
8
BLACK
6
CONTINUOUS
10
6.0425
20
-1.64536
11
6.04359
21
-1.64478
0
LINE
8
BLACK
6
CONTINUOUS
10
6.04359
20
-1.64478
11
6.04477
21
-1.64442
0
LINE
8
BLACK
6
CONTINUOUS
10
6.04477
20
-1.64442
11
6.046
21
-1.6443
0
LINE
8
BLACK
6
CONTINUOUS
10
6.046
20
-1.6443
11
6.06155
21
-1.6443
0
LINE
8
BLACK
6
CONTINUOUS
10
6.06155
20
-1.6443
11
6.06278
21
-1.64442
0
LINE
8
BLACK
6
CONTINUOUS
10
6.10983
20
-1.64442
11
6.11101
21
-1.64478
0
LINE
8
BLACK
6
CONTINUOUS
10
6.11101
20
-1.64478
11
6.1121
21
-1.64536
0
LINE
8
BLACK
6
CONTINUOUS
10
6.1121
20
-1.64536
11
6.11305
21
-1.64615
0
LINE
8
BLACK
6
CONTINUOUS
10
6.11305
20
-1.64615
11
6.11384
21
-1.6471
0
LINE
8
BLACK
6
CONTINUOUS
10
6.11384
20
-1.6471
11
6.11442
21
-1.64819
0
LINE
8
BLACK
6
CONTINUOUS
10
6.11442
20
-1.64819
11
6.11478
21
-1.64937
0
LINE
8
BLACK
6
CONTINUOUS
10
6.11478
20
-1.64937
11
6.1149
21
-1.6506
0
LINE
8
BLACK
6
CONTINUOUS
10
6.1149
20
-1.6506
11
6.1149
21
-1.6632
0
LINE
8
BLACK
6
CONTINUOUS
10
6.1149
20
-1.6632
11
6.11478
21
-1.66443
0
LINE
8
BLACK
6
CONTINUOUS
10
6.11478
20
-1.66443
11
6.11442
21
-1.66561
0
LINE
8
BLACK
6
CONTINUOUS
10
6.11442
20
-1.66561
11
6.11384
21
-1.6667
0
LINE
8
BLACK
6
CONTINUOUS
10
6.11384
20
-1.6667
11
6.11305
21
-1.66765
0
LINE
8
BLACK
6
CONTINUOUS
10
6.11305
20
-1.66765
11
6.1121
21
-1.66844
0
LINE
8
BLACK
6
CONTINUOUS
10
6.1121
20
-1.66844
11
6.11101
21
-1.66902
0
LINE
8
BLACK
6
CONTINUOUS
10
6.11101
20
-1.66902
11
6.10983
21
-1.66938
0
LINE
8
BLACK
6
CONTINUOUS
10
6.10983
20
-1.66938
11
6.1086
21
-1.6695
0
LINE
8
BLACK
6
CONTINUOUS
10
6.1086
20
-1.6695
11
6.09305
21
-1.6695
0
LINE
8
BLACK
6
CONTINUOUS
10
6.09305
20
-1.6695
11
6.09182
21
-1.66938
0
LINE
8
BLACK
6
CONTINUOUS
10
6.09182
20
-1.66938
11
6.09064
21
-1.66902
0
LINE
8
BLACK
6
CONTINUOUS
10
6.09064
20
-1.66902
11
6.08955
21
-1.66844
0
LINE
8
BLACK
6
CONTINUOUS
10
6.08955
20
-1.66844
11
6.08859
21
-1.66765
0
LINE
8
BLACK
6
CONTINUOUS
10
6.08859
20
-1.66765
11
6.08781
21
-1.6667
0
LINE
8
BLACK
6
CONTINUOUS
10
6.08781
20
-1.6667
11
6.08723
21
-1.66561
0
LINE
8
BLACK
6
CONTINUOUS
10
6.08723
20
-1.66561
11
6.08687
21
-1.66443
0
LINE
8
BLACK
6
CONTINUOUS
10
6.08687
20
-1.66443
11
6.08675
21
-1.6632
0
LINE
8
BLACK
6
CONTINUOUS
10
6.08675
20
-1.6632
11
6.08675
21
-1.6506
0
LINE
8
BLACK
6
CONTINUOUS
10
6.08675
20
-1.6506
11
6.08687
21
-1.64937
0
LINE
8
BLACK
6
CONTINUOUS
10
6.08687
20
-1.64937
11
6.08723
21
-1.64819
0
LINE
8
BLACK
6
CONTINUOUS
10
6.08723
20
-1.64819
11
6.08781
21
-1.6471
0
LINE
8
BLACK
6
CONTINUOUS
10
6.08781
20
-1.6471
11
6.08859
21
-1.64615
0
LINE
8
BLACK
6
CONTINUOUS
10
6.08859
20
-1.64615
11
6.08955
21
-1.64536
0
LINE
8
BLACK
6
CONTINUOUS
10
6.08955
20
-1.64536
11
6.09064
21
-1.64478
0
LINE
8
BLACK
6
CONTINUOUS
10
6.09064
20
-1.64478
11
6.09182
21
-1.64442
0
LINE
8
BLACK
6
CONTINUOUS
10
6.09182
20
-1.64442
11
6.09305
21
-1.6443
0
LINE
8
BLACK
6
CONTINUOUS
10
6.09305
20
-1.6443
11
6.1086
21
-1.6443
0
LINE
8
BLACK
6
CONTINUOUS
10
6.1086
20
-1.6443
11
6.10983
21
-1.64442
0
LINE
8
BLACK
6
CONTINUOUS
10
6.38225
20
-1.63395
11
6.38281
21
-1.63412
0
LINE
8
BLACK
6
CONTINUOUS
10
6.38281
20
-1.63412
11
6.38332
21
-1.63439
0
LINE
8
BLACK
6
CONTINUOUS
10
6.38332
20
-1.63439
11
6.38377
21
-1.63476
0
LINE
8
BLACK
6
CONTINUOUS
10
6.38377
20
-1.63476
11
6.38413
21
-1.63521
0
LINE
8
BLACK
6
CONTINUOUS
10
6.38413
20
-1.63521
11
6.38441
21
-1.63572
0
LINE
8
BLACK
6
CONTINUOUS
10
6.38441
20
-1.63572
11
6.38457
21
-1.63627
0
LINE
8
BLACK
6
CONTINUOUS
10
6.38457
20
-1.63627
11
6.38463
21
-1.63685
0
LINE
8
BLACK
6
CONTINUOUS
10
6.38463
20
-1.63685
11
6.38463
21
-1.64275
0
LINE
8
BLACK
6
CONTINUOUS
10
6.38463
20
-1.64275
11
6.38457
21
-1.64333
0
LINE
8
BLACK
6
CONTINUOUS
10
6.38457
20
-1.64333
11
6.38441
21
-1.64388
0
LINE
8
BLACK
6
CONTINUOUS
10
6.38441
20
-1.64388
11
6.38413
21
-1.64439
0
LINE
8
BLACK
6
CONTINUOUS
10
6.38413
20
-1.64439
11
6.38377
21
-1.64484
0
LINE
8
BLACK
6
CONTINUOUS
10
6.38377
20
-1.64484
11
6.38332
21
-1.64521
0
LINE
8
BLACK
6
CONTINUOUS
10
6.38332
20
-1.64521
11
6.38281
21
-1.64548
0
LINE
8
BLACK
6
CONTINUOUS
10
6.38281
20
-1.64548
11
6.38225
21
-1.64565
0
LINE
8
BLACK
6
CONTINUOUS
10
6.38225
20
-1.64565
11
6.38168
21
-1.64571
0
LINE
8
BLACK
6
CONTINUOUS
10
6.38168
20
-1.64571
11
6.36495
21
-1.64571
0
LINE
8
BLACK
6
CONTINUOUS
10
6.36495
20
-1.64571
11
6.36437
21
-1.64565
0
LINE
8
BLACK
6
CONTINUOUS
10
6.36437
20
-1.64565
11
6.36382
21
-1.64548
0
LINE
8
BLACK
6
CONTINUOUS
10
6.36382
20
-1.64548
11
6.36331
21
-1.64521
0
LINE
8
BLACK
6
CONTINUOUS
10
6.36331
20
-1.64521
11
6.36286
21
-1.64484
0
LINE
8
BLACK
6
CONTINUOUS
10
6.36286
20
-1.64484
11
6.36249
21
-1.64439
0
LINE
8
BLACK
6
CONTINUOUS
10
6.36249
20
-1.64439
11
6.36222
21
-1.64388
0
LINE
8
BLACK
6
CONTINUOUS
10
6.36222
20
-1.64388
11
6.36205
21
-1.64333
0
LINE
8
BLACK
6
CONTINUOUS
10
6.36205
20
-1.64333
11
6.36199
21
-1.64275
0
LINE
8
BLACK
6
CONTINUOUS
10
6.36199
20
-1.64275
11
6.36199
21
-1.63685
0
LINE
8
BLACK
6
CONTINUOUS
10
6.36199
20
-1.63685
11
6.36205
21
-1.63627
0
LINE
8
BLACK
6
CONTINUOUS
10
6.36205
20
-1.63627
11
6.36222
21
-1.63572
0
LINE
8
BLACK
6
CONTINUOUS
10
6.36222
20
-1.63572
11
6.36249
21
-1.63521
0
LINE
8
BLACK
6
CONTINUOUS
10
6.36249
20
-1.63521
11
6.36286
21
-1.63476
0
LINE
8
BLACK
6
CONTINUOUS
10
6.36286
20
-1.63476
11
6.36331
21
-1.63439
0
LINE
8
BLACK
6
CONTINUOUS
10
6.36331
20
-1.63439
11
6.36382
21
-1.63412
0
LINE
8
BLACK
6
CONTINUOUS
10
6.36382
20
-1.63412
11
6.36437
21
-1.63395
0
LINE
8
BLACK
6
CONTINUOUS
10
6.36437
20
-1.63395
11
6.36495
21
-1.63389
0
LINE
8
BLACK
6
CONTINUOUS
10
6.36495
20
-1.63389
11
6.38168
21
-1.63389
0
LINE
8
BLACK
6
CONTINUOUS
10
6.38168
20
-1.63389
11
6.38225
21
-1.63395
0
LINE
8
BLACK
6
CONTINUOUS
10
6.40883
20
-1.63395
11
6.40938
21
-1.63412
0
LINE
8
BLACK
6
CONTINUOUS
10
6.40938
20
-1.63412
11
6.40989
21
-1.63439
0
LINE
8
BLACK
6
CONTINUOUS
10
6.40989
20
-1.63439
11
6.41034
21
-1.63476
0
LINE
8
BLACK
6
CONTINUOUS
10
6.41034
20
-1.63476
11
6.41071
21
-1.63521
0
LINE
8
BLACK
6
CONTINUOUS
10
6.41071
20
-1.63521
11
6.41098
21
-1.63572
0
LINE
8
BLACK
6
CONTINUOUS
10
6.41098
20
-1.63572
11
6.41115
21
-1.63627
0
LINE
8
BLACK
6
CONTINUOUS
10
6.41115
20
-1.63627
11
6.41121
21
-1.63685
0
LINE
8
BLACK
6
CONTINUOUS
10
6.41121
20
-1.63685
11
6.41121
21
-1.64275
0
LINE
8
BLACK
6
CONTINUOUS
10
6.41121
20
-1.64275
11
6.41115
21
-1.64333
0
LINE
8
BLACK
6
CONTINUOUS
10
6.41115
20
-1.64333
11
6.41098
21
-1.64388
0
LINE
8
BLACK
6
CONTINUOUS
10
6.41098
20
-1.64388
11
6.41071
21
-1.64439
0
LINE
8
BLACK
6
CONTINUOUS
10
6.41071
20
-1.64439
11
6.41034
21
-1.64484
0
LINE
8
BLACK
6
CONTINUOUS
10
6.41034
20
-1.64484
11
6.40989
21
-1.64521
0
LINE
8
BLACK
6
CONTINUOUS
10
6.40989
20
-1.64521
11
6.40938
21
-1.64548
0
LINE
8
BLACK
6
CONTINUOUS
10
6.40938
20
-1.64548
11
6.40883
21
-1.64565
0
LINE
8
BLACK
6
CONTINUOUS
10
6.40883
20
-1.64565
11
6.40825
21
-1.64571
0
LINE
8
BLACK
6
CONTINUOUS
10
6.40825
20
-1.64571
11
6.39152
21
-1.64571
0
LINE
8
BLACK
6
CONTINUOUS
10
6.39152
20
-1.64571
11
6.39095
21
-1.64565
0
LINE
8
BLACK
6
CONTINUOUS
10
6.39095
20
-1.64565
11
6.39039
21
-1.64548
0
LINE
8
BLACK
6
CONTINUOUS
10
6.39039
20
-1.64548
11
6.38988
21
-1.64521
0
LINE
8
BLACK
6
CONTINUOUS
10
6.38988
20
-1.64521
11
6.38943
21
-1.64484
0
LINE
8
BLACK
6
CONTINUOUS
10
6.38943
20
-1.64484
11
6.38907
21
-1.64439
0
LINE
8
BLACK
6
CONTINUOUS
10
6.38907
20
-1.64439
11
6.38879
21
-1.64388
0
LINE
8
BLACK
6
CONTINUOUS
10
6.38879
20
-1.64388
11
6.38863
21
-1.64333
0
LINE
8
BLACK
6
CONTINUOUS
10
6.38863
20
-1.64333
11
6.38857
21
-1.64275
0
LINE
8
BLACK
6
CONTINUOUS
10
6.38857
20
-1.64275
11
6.38857
21
-1.63685
0
LINE
8
BLACK
6
CONTINUOUS
10
6.38857
20
-1.63685
11
6.38863
21
-1.63627
0
LINE
8
BLACK
6
CONTINUOUS
10
6.38863
20
-1.63627
11
6.38879
21
-1.63572
0
LINE
8
BLACK
6
CONTINUOUS
10
6.38879
20
-1.63572
11
6.38907
21
-1.63521
0
LINE
8
BLACK
6
CONTINUOUS
10
6.38907
20
-1.63521
11
6.38943
21
-1.63476
0
LINE
8
BLACK
6
CONTINUOUS
10
6.38943
20
-1.63476
11
6.38988
21
-1.63439
0
LINE
8
BLACK
6
CONTINUOUS
10
6.38988
20
-1.63439
11
6.39039
21
-1.63412
0
LINE
8
BLACK
6
CONTINUOUS
10
6.39039
20
-1.63412
11
6.39095
21
-1.63395
0
LINE
8
BLACK
6
CONTINUOUS
10
6.39095
20
-1.63395
11
6.39152
21
-1.63389
0
LINE
8
BLACK
6
CONTINUOUS
10
6.39152
20
-1.63389
11
6.40825
21
-1.63389
0
LINE
8
BLACK
6
CONTINUOUS
10
6.40825
20
-1.63389
11
6.40883
21
-1.63395
0
LINE
8
BLACK
6
CONTINUOUS
10
5.73726
20
-1.51632
11
5.74335
21
-1.51884
0
LINE
8
BLACK
6
CONTINUOUS
10
5.74335
20
-1.51884
11
5.74883
21
-1.52251
0
LINE
8
BLACK
6
CONTINUOUS
10
5.74883
20
-1.52251
11
5.75349
21
-1.52717
0
LINE
8
BLACK
6
CONTINUOUS
10
5.75349
20
-1.52717
11
5.75716
21
-1.53265
0
LINE
8
BLACK
6
CONTINUOUS
10
5.75716
20
-1.53265
11
5.75968
21
-1.53874
0
LINE
8
BLACK
6
CONTINUOUS
10
5.75968
20
-1.53874
11
5.76096
21
-1.5452
0
LINE
8
BLACK
6
CONTINUOUS
10
5.76096
20
-1.5452
11
5.76096
21
-1.5518
0
LINE
8
BLACK
6
CONTINUOUS
10
5.76096
20
-1.5518
11
5.75968
21
-1.55826
0
LINE
8
BLACK
6
CONTINUOUS
10
5.75968
20
-1.55826
11
5.75716
21
-1.56435
0
LINE
8
BLACK
6
CONTINUOUS
10
5.75716
20
-1.56435
11
5.75349
21
-1.56983
0
LINE
8
BLACK
6
CONTINUOUS
10
5.75349
20
-1.56983
11
5.74883
21
-1.57449
0
LINE
8
BLACK
6
CONTINUOUS
10
5.74883
20
-1.57449
11
5.74335
21
-1.57816
0
LINE
8
BLACK
6
CONTINUOUS
10
5.74335
20
-1.57816
11
5.73726
21
-1.58068
0
LINE
8
BLACK
6
CONTINUOUS
10
5.73726
20
-1.58068
11
5.7308
21
-1.58196
0
LINE
8
BLACK
6
CONTINUOUS
10
5.7308
20
-1.58196
11
5.7242
21
-1.58196
0
LINE
8
BLACK
6
CONTINUOUS
10
5.7242
20
-1.58196
11
5.71774
21
-1.58068
0
LINE
8
BLACK
6
CONTINUOUS
10
5.71774
20
-1.58068
11
5.71165
21
-1.57816
0
LINE
8
BLACK
6
CONTINUOUS
10
5.71165
20
-1.57816
11
5.70617
21
-1.57449
0
LINE
8
BLACK
6
CONTINUOUS
10
5.70617
20
-1.57449
11
5.70151
21
-1.56983
0
LINE
8
BLACK
6
CONTINUOUS
10
5.70151
20
-1.56983
11
5.69784
21
-1.56435
0
LINE
8
BLACK
6
CONTINUOUS
10
5.69784
20
-1.56435
11
5.69532
21
-1.55826
0
LINE
8
BLACK
6
CONTINUOUS
10
5.69532
20
-1.55826
11
5.69404
21
-1.5518
0
LINE
8
BLACK
6
CONTINUOUS
10
5.69404
20
-1.5518
11
5.69404
21
-1.5452
0
LINE
8
BLACK
6
CONTINUOUS
10
5.69404
20
-1.5452
11
5.69532
21
-1.53874
0
LINE
8
BLACK
6
CONTINUOUS
10
5.69532
20
-1.53874
11
5.69784
21
-1.53265
0
LINE
8
BLACK
6
CONTINUOUS
10
5.69784
20
-1.53265
11
5.70151
21
-1.52717
0
LINE
8
BLACK
6
CONTINUOUS
10
5.70151
20
-1.52717
11
5.70617
21
-1.52251
0
LINE
8
BLACK
6
CONTINUOUS
10
5.70617
20
-1.52251
11
5.71165
21
-1.51884
0
LINE
8
BLACK
6
CONTINUOUS
10
5.71165
20
-1.51884
11
5.71774
21
-1.51632
0
LINE
8
BLACK
6
CONTINUOUS
10
5.71774
20
-1.51632
11
5.7242
21
-1.51504
0
LINE
8
BLACK
6
CONTINUOUS
10
5.7242
20
-1.51504
11
5.7308
21
-1.51504
0
LINE
8
BLACK
6
CONTINUOUS
10
5.7308
20
-1.51504
11
5.73726
21
-1.51632
0
LINE
8
BLACK
6
CONTINUOUS
10
5.83726
20
-1.51632
11
5.84335
21
-1.51884
0
LINE
8
BLACK
6
CONTINUOUS
10
5.84335
20
-1.51884
11
5.84883
21
-1.52251
0
LINE
8
BLACK
6
CONTINUOUS
10
5.84883
20
-1.52251
11
5.85349
21
-1.52717
0
LINE
8
BLACK
6
CONTINUOUS
10
5.85349
20
-1.52717
11
5.85716
21
-1.53265
0
LINE
8
BLACK
6
CONTINUOUS
10
5.85716
20
-1.53265
11
5.85968
21
-1.53874
0
LINE
8
BLACK
6
CONTINUOUS
10
5.85968
20
-1.53874
11
5.86096
21
-1.5452
0
LINE
8
BLACK
6
CONTINUOUS
10
5.86096
20
-1.5452
11
5.86096
21
-1.5518
0
LINE
8
BLACK
6
CONTINUOUS
10
5.86096
20
-1.5518
11
5.85968
21
-1.55826
0
LINE
8
BLACK
6
CONTINUOUS
10
5.85968
20
-1.55826
11
5.85716
21
-1.56435
0
LINE
8
BLACK
6
CONTINUOUS
10
5.85716
20
-1.56435
11
5.85349
21
-1.56983
0
LINE
8
BLACK
6
CONTINUOUS
10
5.85349
20
-1.56983
11
5.84883
21
-1.57449
0
LINE
8
BLACK
6
CONTINUOUS
10
5.84883
20
-1.57449
11
5.84335
21
-1.57816
0
LINE
8
BLACK
6
CONTINUOUS
10
5.84335
20
-1.57816
11
5.83726
21
-1.58068
0
LINE
8
BLACK
6
CONTINUOUS
10
5.83726
20
-1.58068
11
5.8308
21
-1.58196
0
LINE
8
BLACK
6
CONTINUOUS
10
5.8308
20
-1.58196
11
5.8242
21
-1.58196
0
LINE
8
BLACK
6
CONTINUOUS
10
5.8242
20
-1.58196
11
5.81774
21
-1.58068
0
LINE
8
BLACK
6
CONTINUOUS
10
5.81774
20
-1.58068
11
5.81165
21
-1.57816
0
LINE
8
BLACK
6
CONTINUOUS
10
5.81165
20
-1.57816
11
5.80617
21
-1.57449
0
LINE
8
BLACK
6
CONTINUOUS
10
5.80617
20
-1.57449
11
5.80151
21
-1.56983
0
LINE
8
BLACK
6
CONTINUOUS
10
5.80151
20
-1.56983
11
5.79784
21
-1.56435
0
LINE
8
BLACK
6
CONTINUOUS
10
5.79784
20
-1.56435
11
5.79532
21
-1.55826
0
LINE
8
BLACK
6
CONTINUOUS
10
5.79532
20
-1.55826
11
5.79404
21
-1.5518
0
LINE
8
BLACK
6
CONTINUOUS
10
5.79404
20
-1.5518
11
5.79404
21
-1.5452
0
LINE
8
BLACK
6
CONTINUOUS
10
5.79404
20
-1.5452
11
5.79532
21
-1.53874
0
LINE
8
BLACK
6
CONTINUOUS
10
5.79532
20
-1.53874
11
5.79784
21
-1.53265
0
LINE
8
BLACK
6
CONTINUOUS
10
5.79784
20
-1.53265
11
5.80151
21
-1.52717
0
LINE
8
BLACK
6
CONTINUOUS
10
5.80151
20
-1.52717
11
5.80617
21
-1.52251
0
LINE
8
BLACK
6
CONTINUOUS
10
5.80617
20
-1.52251
11
5.81165
21
-1.51884
0
LINE
8
BLACK
6
CONTINUOUS
10
5.81165
20
-1.51884
11
5.81774
21
-1.51632
0
LINE
8
BLACK
6
CONTINUOUS
10
5.81774
20
-1.51632
11
5.8242
21
-1.51504
0
LINE
8
BLACK
6
CONTINUOUS
10
5.8242
20
-1.51504
11
5.8308
21
-1.51504
0
LINE
8
BLACK
6
CONTINUOUS
10
5.8308
20
-1.51504
11
5.83726
21
-1.51632
0
LINE
8
BLACK
6
CONTINUOUS
10
5.93726
20
-1.51632
11
5.94335
21
-1.51884
0
LINE
8
BLACK
6
CONTINUOUS
10
5.94335
20
-1.51884
11
5.94883
21
-1.52251
0
LINE
8
BLACK
6
CONTINUOUS
10
5.94883
20
-1.52251
11
5.95349
21
-1.52717
0
LINE
8
BLACK
6
CONTINUOUS
10
5.95349
20
-1.52717
11
5.95716
21
-1.53265
0
LINE
8
BLACK
6
CONTINUOUS
10
5.95716
20
-1.53265
11
5.95968
21
-1.53874
0
LINE
8
BLACK
6
CONTINUOUS
10
5.95968
20
-1.53874
11
5.96096
21
-1.5452
0
LINE
8
BLACK
6
CONTINUOUS
10
5.96096
20
-1.5452
11
5.96096
21
-1.5518
0
LINE
8
BLACK
6
CONTINUOUS
10
5.96096
20
-1.5518
11
5.95968
21
-1.55826
0
LINE
8
BLACK
6
CONTINUOUS
10
5.95968
20
-1.55826
11
5.95716
21
-1.56435
0
LINE
8
BLACK
6
CONTINUOUS
10
5.95716
20
-1.56435
11
5.95349
21
-1.56983
0
LINE
8
BLACK
6
CONTINUOUS
10
5.95349
20
-1.56983
11
5.94883
21
-1.57449
0
LINE
8
BLACK
6
CONTINUOUS
10
5.94883
20
-1.57449
11
5.94335
21
-1.57816
0
LINE
8
BLACK
6
CONTINUOUS
10
5.94335
20
-1.57816
11
5.93726
21
-1.58068
0
LINE
8
BLACK
6
CONTINUOUS
10
5.93726
20
-1.58068
11
5.9308
21
-1.58196
0
LINE
8
BLACK
6
CONTINUOUS
10
5.9308
20
-1.58196
11
5.9242
21
-1.58196
0
LINE
8
BLACK
6
CONTINUOUS
10
5.9242
20
-1.58196
11
5.91774
21
-1.58068
0
LINE
8
BLACK
6
CONTINUOUS
10
5.91774
20
-1.58068
11
5.91165
21
-1.57816
0
LINE
8
BLACK
6
CONTINUOUS
10
5.91165
20
-1.57816
11
5.90617
21
-1.57449
0
LINE
8
BLACK
6
CONTINUOUS
10
5.90617
20
-1.57449
11
5.90151
21
-1.56983
0
LINE
8
BLACK
6
CONTINUOUS
10
5.90151
20
-1.56983
11
5.89784
21
-1.56435
0
LINE
8
BLACK
6
CONTINUOUS
10
5.89784
20
-1.56435
11
5.89532
21
-1.55826
0
LINE
8
BLACK
6
CONTINUOUS
10
5.89532
20
-1.55826
11
5.89404
21
-1.5518
0
LINE
8
BLACK
6
CONTINUOUS
10
5.89404
20
-1.5518
11
5.89404
21
-1.5452
0
LINE
8
BLACK
6
CONTINUOUS
10
5.89404
20
-1.5452
11
5.89532
21
-1.53874
0
LINE
8
BLACK
6
CONTINUOUS
10
5.89532
20
-1.53874
11
5.89784
21
-1.53265
0
LINE
8
BLACK
6
CONTINUOUS
10
5.89784
20
-1.53265
11
5.90151
21
-1.52717
0
LINE
8
BLACK
6
CONTINUOUS
10
5.90151
20
-1.52717
11
5.90617
21
-1.52251
0
LINE
8
BLACK
6
CONTINUOUS
10
5.90617
20
-1.52251
11
5.91165
21
-1.51884
0
LINE
8
BLACK
6
CONTINUOUS
10
5.91165
20
-1.51884
11
5.91774
21
-1.51632
0
LINE
8
BLACK
6
CONTINUOUS
10
5.91774
20
-1.51632
11
5.9242
21
-1.51504
0
LINE
8
BLACK
6
CONTINUOUS
10
5.9242
20
-1.51504
11
5.9308
21
-1.51504
0
LINE
8
BLACK
6
CONTINUOUS
10
5.9308
20
-1.51504
11
5.93726
21
-1.51632
0
LINE
8
BLACK
6
CONTINUOUS
10
6.03726
20
-1.51632
11
6.04335
21
-1.51884
0
LINE
8
BLACK
6
CONTINUOUS
10
6.04335
20
-1.51884
11
6.04883
21
-1.52251
0
LINE
8
BLACK
6
CONTINUOUS
10
6.04883
20
-1.52251
11
6.05349
21
-1.52717
0
LINE
8
BLACK
6
CONTINUOUS
10
6.05349
20
-1.52717
11
6.05716
21
-1.53265
0
LINE
8
BLACK
6
CONTINUOUS
10
6.05716
20
-1.53265
11
6.05968
21
-1.53874
0
LINE
8
BLACK
6
CONTINUOUS
10
6.05968
20
-1.53874
11
6.06096
21
-1.5452
0
LINE
8
BLACK
6
CONTINUOUS
10
6.06096
20
-1.5452
11
6.06096
21
-1.5518
0
LINE
8
BLACK
6
CONTINUOUS
10
6.06096
20
-1.5518
11
6.05968
21
-1.55826
0
LINE
8
BLACK
6
CONTINUOUS
10
6.05968
20
-1.55826
11
6.05716
21
-1.56435
0
LINE
8
BLACK
6
CONTINUOUS
10
6.05716
20
-1.56435
11
6.05349
21
-1.56983
0
LINE
8
BLACK
6
CONTINUOUS
10
6.05349
20
-1.56983
11
6.04883
21
-1.57449
0
LINE
8
BLACK
6
CONTINUOUS
10
6.04883
20
-1.57449
11
6.04335
21
-1.57816
0
LINE
8
BLACK
6
CONTINUOUS
10
6.04335
20
-1.57816
11
6.03726
21
-1.58068
0
LINE
8
BLACK
6
CONTINUOUS
10
6.03726
20
-1.58068
11
6.0308
21
-1.58196
0
LINE
8
BLACK
6
CONTINUOUS
10
6.0308
20
-1.58196
11
6.0242
21
-1.58196
0
LINE
8
BLACK
6
CONTINUOUS
10
6.0242
20
-1.58196
11
6.01774
21
-1.58068
0
LINE
8
BLACK
6
CONTINUOUS
10
6.01774
20
-1.58068
11
6.01165
21
-1.57816
0
LINE
8
BLACK
6
CONTINUOUS
10
6.01165
20
-1.57816
11
6.00617
21
-1.57449
0
LINE
8
BLACK
6
CONTINUOUS
10
6.00617
20
-1.57449
11
6.00151
21
-1.56983
0
LINE
8
BLACK
6
CONTINUOUS
10
6.00151
20
-1.56983
11
5.99784
21
-1.56435
0
LINE
8
BLACK
6
CONTINUOUS
10
5.99784
20
-1.56435
11
5.99532
21
-1.55826
0
LINE
8
BLACK
6
CONTINUOUS
10
5.99532
20
-1.55826
11
5.99404
21
-1.5518
0
LINE
8
BLACK
6
CONTINUOUS
10
5.99404
20
-1.5518
11
5.99404
21
-1.5452
0
LINE
8
BLACK
6
CONTINUOUS
10
5.99404
20
-1.5452
11
5.99532
21
-1.53874
0
LINE
8
BLACK
6
CONTINUOUS
10
5.99532
20
-1.53874
11
5.99784
21
-1.53265
0
LINE
8
BLACK
6
CONTINUOUS
10
5.99784
20
-1.53265
11
6.00151
21
-1.52717
0
LINE
8
BLACK
6
CONTINUOUS
10
6.00151
20
-1.52717
11
6.00617
21
-1.52251
0
LINE
8
BLACK
6
CONTINUOUS
10
6.00617
20
-1.52251
11
6.01165
21
-1.51884
0
LINE
8
BLACK
6
CONTINUOUS
10
6.01165
20
-1.51884
11
6.01774
21
-1.51632
0
LINE
8
BLACK
6
CONTINUOUS
10
6.01774
20
-1.51632
11
6.0242
21
-1.51504
0
LINE
8
BLACK
6
CONTINUOUS
10
6.0242
20
-1.51504
11
6.0308
21
-1.51504
0
LINE
8
BLACK
6
CONTINUOUS
10
6.0308
20
-1.51504
11
6.03726
21
-1.51632
0
LINE
8
BLACK
6
CONTINUOUS
10
6.13726
20
-1.51632
11
6.14335
21
-1.51884
0
LINE
8
BLACK
6
CONTINUOUS
10
6.14335
20
-1.51884
11
6.14883
21
-1.52251
0
LINE
8
BLACK
6
CONTINUOUS
10
6.14883
20
-1.52251
11
6.15349
21
-1.52717
0
LINE
8
BLACK
6
CONTINUOUS
10
6.15349
20
-1.52717
11
6.15716
21
-1.53265
0
LINE
8
BLACK
6
CONTINUOUS
10
6.15716
20
-1.53265
11
6.15968
21
-1.53874
0
LINE
8
BLACK
6
CONTINUOUS
10
6.15968
20
-1.53874
11
6.16096
21
-1.5452
0
LINE
8
BLACK
6
CONTINUOUS
10
6.16096
20
-1.5452
11
6.16096
21
-1.5518
0
LINE
8
BLACK
6
CONTINUOUS
10
6.16096
20
-1.5518
11
6.15968
21
-1.55826
0
LINE
8
BLACK
6
CONTINUOUS
10
6.15968
20
-1.55826
11
6.15716
21
-1.56435
0
LINE
8
BLACK
6
CONTINUOUS
10
6.15716
20
-1.56435
11
6.15349
21
-1.56983
0
LINE
8
BLACK
6
CONTINUOUS
10
6.15349
20
-1.56983
11
6.14883
21
-1.57449
0
LINE
8
BLACK
6
CONTINUOUS
10
6.14883
20
-1.57449
11
6.14335
21
-1.57816
0
LINE
8
BLACK
6
CONTINUOUS
10
6.14335
20
-1.57816
11
6.13726
21
-1.58068
0
LINE
8
BLACK
6
CONTINUOUS
10
6.13726
20
-1.58068
11
6.1308
21
-1.58196
0
LINE
8
BLACK
6
CONTINUOUS
10
6.1308
20
-1.58196
11
6.1242
21
-1.58196
0
LINE
8
BLACK
6
CONTINUOUS
10
6.1242
20
-1.58196
11
6.11774
21
-1.58068
0
LINE
8
BLACK
6
CONTINUOUS
10
6.11774
20
-1.58068
11
6.11165
21
-1.57816
0
LINE
8
BLACK
6
CONTINUOUS
10
6.11165
20
-1.57816
11
6.10617
21
-1.57449
0
LINE
8
BLACK
6
CONTINUOUS
10
6.10617
20
-1.57449
11
6.10151
21
-1.56983
0
LINE
8
BLACK
6
CONTINUOUS
10
6.10151
20
-1.56983
11
6.09784
21
-1.56435
0
LINE
8
BLACK
6
CONTINUOUS
10
6.09784
20
-1.56435
11
6.09532
21
-1.55826
0
LINE
8
BLACK
6
CONTINUOUS
10
6.09532
20
-1.55826
11
6.09404
21
-1.5518
0
LINE
8
BLACK
6
CONTINUOUS
10
6.09404
20
-1.5518
11
6.09404
21
-1.5452
0
LINE
8
BLACK
6
CONTINUOUS
10
6.09404
20
-1.5452
11
6.09532
21
-1.53874
0
LINE
8
BLACK
6
CONTINUOUS
10
6.09532
20
-1.53874
11
6.09784
21
-1.53265
0
LINE
8
BLACK
6
CONTINUOUS
10
6.09784
20
-1.53265
11
6.10151
21
-1.52717
0
LINE
8
BLACK
6
CONTINUOUS
10
6.10151
20
-1.52717
11
6.10617
21
-1.52251
0
LINE
8
BLACK
6
CONTINUOUS
10
6.10617
20
-1.52251
11
6.11165
21
-1.51884
0
LINE
8
BLACK
6
CONTINUOUS
10
6.11165
20
-1.51884
11
6.11774
21
-1.51632
0
LINE
8
BLACK
6
CONTINUOUS
10
6.11774
20
-1.51632
11
6.1242
21
-1.51504
0
LINE
8
BLACK
6
CONTINUOUS
10
6.1242
20
-1.51504
11
6.1308
21
-1.51504
0
LINE
8
BLACK
6
CONTINUOUS
10
6.1308
20
-1.51504
11
6.13726
21
-1.51632
0
LINE
8
BLACK
6
CONTINUOUS
10
6.23726
20
-1.51632
11
6.24335
21
-1.51884
0
LINE
8
BLACK
6
CONTINUOUS
10
6.24335
20
-1.51884
11
6.24883
21
-1.52251
0
LINE
8
BLACK
6
CONTINUOUS
10
6.24883
20
-1.52251
11
6.25349
21
-1.52717
0
LINE
8
BLACK
6
CONTINUOUS
10
6.25349
20
-1.52717
11
6.25716
21
-1.53265
0
LINE
8
BLACK
6
CONTINUOUS
10
6.25716
20
-1.53265
11
6.25968
21
-1.53874
0
LINE
8
BLACK
6
CONTINUOUS
10
6.25968
20
-1.53874
11
6.26096
21
-1.5452
0
LINE
8
BLACK
6
CONTINUOUS
10
6.26096
20
-1.5452
11
6.26096
21
-1.5518
0
LINE
8
BLACK
6
CONTINUOUS
10
6.26096
20
-1.5518
11
6.25968
21
-1.55826
0
LINE
8
BLACK
6
CONTINUOUS
10
6.25968
20
-1.55826
11
6.25716
21
-1.56435
0
LINE
8
BLACK
6
CONTINUOUS
10
6.25716
20
-1.56435
11
6.25349
21
-1.56983
0
LINE
8
BLACK
6
CONTINUOUS
10
6.25349
20
-1.56983
11
6.24883
21
-1.57449
0
LINE
8
BLACK
6
CONTINUOUS
10
6.24883
20
-1.57449
11
6.24335
21
-1.57816
0
LINE
8
BLACK
6
CONTINUOUS
10
6.24335
20
-1.57816
11
6.23726
21
-1.58068
0
LINE
8
BLACK
6
CONTINUOUS
10
6.23726
20
-1.58068
11
6.2308
21
-1.58196
0
LINE
8
BLACK
6
CONTINUOUS
10
6.2308
20
-1.58196
11
6.2242
21
-1.58196
0
LINE
8
BLACK
6
CONTINUOUS
10
6.2242
20
-1.58196
11
6.21774
21
-1.58068
0
LINE
8
BLACK
6
CONTINUOUS
10
6.21774
20
-1.58068
11
6.21165
21
-1.57816
0
LINE
8
BLACK
6
CONTINUOUS
10
6.21165
20
-1.57816
11
6.20617
21
-1.57449
0
LINE
8
BLACK
6
CONTINUOUS
10
6.20617
20
-1.57449
11
6.20151
21
-1.56983
0
LINE
8
BLACK
6
CONTINUOUS
10
6.20151
20
-1.56983
11
6.19784
21
-1.56435
0
LINE
8
BLACK
6
CONTINUOUS
10
6.19784
20
-1.56435
11
6.19532
21
-1.55826
0
LINE
8
BLACK
6
CONTINUOUS
10
6.19532
20
-1.55826
11
6.19404
21
-1.5518
0
LINE
8
BLACK
6
CONTINUOUS
10
6.19404
20
-1.5518
11
6.19404
21
-1.5452
0
LINE
8
BLACK
6
CONTINUOUS
10
6.19404
20
-1.5452
11
6.19532
21
-1.53874
0
LINE
8
BLACK
6
CONTINUOUS
10
6.19532
20
-1.53874
11
6.19784
21
-1.53265
0
LINE
8
BLACK
6
CONTINUOUS
10
6.19784
20
-1.53265
11
6.20151
21
-1.52717
0
LINE
8
BLACK
6
CONTINUOUS
10
6.20151
20
-1.52717
11
6.20617
21
-1.52251
0
LINE
8
BLACK
6
CONTINUOUS
10
6.20617
20
-1.52251
11
6.21165
21
-1.51884
0
LINE
8
BLACK
6
CONTINUOUS
10
6.21165
20
-1.51884
11
6.21774
21
-1.51632
0
LINE
8
BLACK
6
CONTINUOUS
10
6.21774
20
-1.51632
11
6.2242
21
-1.51504
0
LINE
8
BLACK
6
CONTINUOUS
10
6.2242
20
-1.51504
11
6.2308
21
-1.51504
0
LINE
8
BLACK
6
CONTINUOUS
10
6.2308
20
-1.51504
11
6.23726
21
-1.51632
0
LINE
8
BLACK
6
CONTINUOUS
10
6.33726
20
-1.51632
11
6.34335
21
-1.51884
0
LINE
8
BLACK
6
CONTINUOUS
10
6.34335
20
-1.51884
11
6.34883
21
-1.52251
0
LINE
8
BLACK
6
CONTINUOUS
10
6.34883
20
-1.52251
11
6.35349
21
-1.52717
0
LINE
8
BLACK
6
CONTINUOUS
10
6.35349
20
-1.52717
11
6.35716
21
-1.53265
0
LINE
8
BLACK
6
CONTINUOUS
10
6.35716
20
-1.53265
11
6.35968
21
-1.53874
0
LINE
8
BLACK
6
CONTINUOUS
10
6.35968
20
-1.53874
11
6.36096
21
-1.5452
0
LINE
8
BLACK
6
CONTINUOUS
10
6.36096
20
-1.5452
11
6.36096
21
-1.5518
0
LINE
8
BLACK
6
CONTINUOUS
10
6.36096
20
-1.5518
11
6.35968
21
-1.55826
0
LINE
8
BLACK
6
CONTINUOUS
10
6.35968
20
-1.55826
11
6.35716
21
-1.56435
0
LINE
8
BLACK
6
CONTINUOUS
10
6.35716
20
-1.56435
11
6.35349
21
-1.56983
0
LINE
8
BLACK
6
CONTINUOUS
10
6.35349
20
-1.56983
11
6.34883
21
-1.57449
0
LINE
8
BLACK
6
CONTINUOUS
10
6.34883
20
-1.57449
11
6.34335
21
-1.57816
0
LINE
8
BLACK
6
CONTINUOUS
10
6.34335
20
-1.57816
11
6.33726
21
-1.58068
0
LINE
8
BLACK
6
CONTINUOUS
10
6.33726
20
-1.58068
11
6.3308
21
-1.58196
0
LINE
8
BLACK
6
CONTINUOUS
10
6.3308
20
-1.58196
11
6.3242
21
-1.58196
0
LINE
8
BLACK
6
CONTINUOUS
10
6.3242
20
-1.58196
11
6.31774
21
-1.58068
0
LINE
8
BLACK
6
CONTINUOUS
10
6.31774
20
-1.58068
11
6.31165
21
-1.57816
0
LINE
8
BLACK
6
CONTINUOUS
10
6.31165
20
-1.57816
11
6.30617
21
-1.57449
0
LINE
8
BLACK
6
CONTINUOUS
10
6.30617
20
-1.57449
11
6.30151
21
-1.56983
0
LINE
8
BLACK
6
CONTINUOUS
10
6.30151
20
-1.56983
11
6.29784
21
-1.56435
0
LINE
8
BLACK
6
CONTINUOUS
10
6.29784
20
-1.56435
11
6.29532
21
-1.55826
0
LINE
8
BLACK
6
CONTINUOUS
10
6.29532
20
-1.55826
11
6.29404
21
-1.5518
0
LINE
8
BLACK
6
CONTINUOUS
10
6.29404
20
-1.5518
11
6.29404
21
-1.5452
0
LINE
8
BLACK
6
CONTINUOUS
10
6.29404
20
-1.5452
11
6.29532
21
-1.53874
0
LINE
8
BLACK
6
CONTINUOUS
10
6.29532
20
-1.53874
11
6.29784
21
-1.53265
0
LINE
8
BLACK
6
CONTINUOUS
10
6.29784
20
-1.53265
11
6.30151
21
-1.52717
0
LINE
8
BLACK
6
CONTINUOUS
10
6.30151
20
-1.52717
11
6.30617
21
-1.52251
0
LINE
8
BLACK
6
CONTINUOUS
10
6.30617
20
-1.52251
11
6.31165
21
-1.51884
0
LINE
8
BLACK
6
CONTINUOUS
10
6.31165
20
-1.51884
11
6.31774
21
-1.51632
0
LINE
8
BLACK
6
CONTINUOUS
10
6.31774
20
-1.51632
11
6.3242
21
-1.51504
0
LINE
8
BLACK
6
CONTINUOUS
10
6.3242
20
-1.51504
11
6.3308
21
-1.51504
0
LINE
8
BLACK
6
CONTINUOUS
10
6.3308
20
-1.51504
11
6.33726
21
-1.51632
0
LINE
8
BLACK
6
CONTINUOUS
10
6.43726
20
-1.51632
11
6.44335
21
-1.51884
0
LINE
8
BLACK
6
CONTINUOUS
10
6.44335
20
-1.51884
11
6.44883
21
-1.52251
0
LINE
8
BLACK
6
CONTINUOUS
10
6.44883
20
-1.52251
11
6.45349
21
-1.52717
0
LINE
8
BLACK
6
CONTINUOUS
10
6.45349
20
-1.52717
11
6.45716
21
-1.53265
0
LINE
8
BLACK
6
CONTINUOUS
10
6.45716
20
-1.53265
11
6.45968
21
-1.53874
0
LINE
8
BLACK
6
CONTINUOUS
10
6.45968
20
-1.53874
11
6.46096
21
-1.5452
0
LINE
8
BLACK
6
CONTINUOUS
10
6.46096
20
-1.5452
11
6.46096
21
-1.5518
0
LINE
8
BLACK
6
CONTINUOUS
10
6.46096
20
-1.5518
11
6.45968
21
-1.55826
0
LINE
8
BLACK
6
CONTINUOUS
10
6.45968
20
-1.55826
11
6.45716
21
-1.56435
0
LINE
8
BLACK
6
CONTINUOUS
10
6.45716
20
-1.56435
11
6.45349
21
-1.56983
0
LINE
8
BLACK
6
CONTINUOUS
10
6.45349
20
-1.56983
11
6.44883
21
-1.57449
0
LINE
8
BLACK
6
CONTINUOUS
10
6.44883
20
-1.57449
11
6.44335
21
-1.57816
0
LINE
8
BLACK
6
CONTINUOUS
10
6.44335
20
-1.57816
11
6.43726
21
-1.58068
0
LINE
8
BLACK
6
CONTINUOUS
10
6.43726
20
-1.58068
11
6.4308
21
-1.58196
0
LINE
8
BLACK
6
CONTINUOUS
10
6.4308
20
-1.58196
11
6.4242
21
-1.58196
0
LINE
8
BLACK
6
CONTINUOUS
10
6.4242
20
-1.58196
11
6.41774
21
-1.58068
0
LINE
8
BLACK
6
CONTINUOUS
10
6.41774
20
-1.58068
11
6.41165
21
-1.57816
0
LINE
8
BLACK
6
CONTINUOUS
10
6.41165
20
-1.57816
11
6.40617
21
-1.57449
0
LINE
8
BLACK
6
CONTINUOUS
10
6.40617
20
-1.57449
11
6.40151
21
-1.56983
0
LINE
8
BLACK
6
CONTINUOUS
10
6.40151
20
-1.56983
11
6.39784
21
-1.56435
0
LINE
8
BLACK
6
CONTINUOUS
10
6.39784
20
-1.56435
11
6.39532
21
-1.55826
0
LINE
8
BLACK
6
CONTINUOUS
10
6.39532
20
-1.55826
11
6.39404
21
-1.5518
0
LINE
8
BLACK
6
CONTINUOUS
10
6.39404
20
-1.5518
11
6.39404
21
-1.5452
0
LINE
8
BLACK
6
CONTINUOUS
10
6.39404
20
-1.5452
11
6.39532
21
-1.53874
0
LINE
8
BLACK
6
CONTINUOUS
10
6.39532
20
-1.53874
11
6.39784
21
-1.53265
0
LINE
8
BLACK
6
CONTINUOUS
10
6.39784
20
-1.53265
11
6.40151
21
-1.52717
0
LINE
8
BLACK
6
CONTINUOUS
10
6.40151
20
-1.52717
11
6.40617
21
-1.52251
0
LINE
8
BLACK
6
CONTINUOUS
10
6.40617
20
-1.52251
11
6.41165
21
-1.51884
0
LINE
8
BLACK
6
CONTINUOUS
10
6.41165
20
-1.51884
11
6.41774
21
-1.51632
0
LINE
8
BLACK
6
CONTINUOUS
10
6.41774
20
-1.51632
11
6.4242
21
-1.51504
0
LINE
8
BLACK
6
CONTINUOUS
10
6.4242
20
-1.51504
11
6.4308
21
-1.51504
0
LINE
8
BLACK
6
CONTINUOUS
10
6.4308
20
-1.51504
11
6.43726
21
-1.51632
0
LINE
8
BLACK
6
CONTINUOUS
10
6.53726
20
-1.51632
11
6.54335
21
-1.51884
0
LINE
8
BLACK
6
CONTINUOUS
10
6.54335
20
-1.51884
11
6.54883
21
-1.52251
0
LINE
8
BLACK
6
CONTINUOUS
10
6.54883
20
-1.52251
11
6.55349
21
-1.52717
0
LINE
8
BLACK
6
CONTINUOUS
10
6.55349
20
-1.52717
11
6.55716
21
-1.53265
0
LINE
8
BLACK
6
CONTINUOUS
10
6.55716
20
-1.53265
11
6.55968
21
-1.53874
0
LINE
8
BLACK
6
CONTINUOUS
10
6.55968
20
-1.53874
11
6.56096
21
-1.5452
0
LINE
8
BLACK
6
CONTINUOUS
10
6.56096
20
-1.5452
11
6.56096
21
-1.5518
0
LINE
8
BLACK
6
CONTINUOUS
10
6.56096
20
-1.5518
11
6.55968
21
-1.55826
0
LINE
8
BLACK
6
CONTINUOUS
10
6.55968
20
-1.55826
11
6.55716
21
-1.56435
0
LINE
8
BLACK
6
CONTINUOUS
10
6.55716
20
-1.56435
11
6.55349
21
-1.56983
0
LINE
8
BLACK
6
CONTINUOUS
10
6.55349
20
-1.56983
11
6.54883
21
-1.57449
0
LINE
8
BLACK
6
CONTINUOUS
10
6.54883
20
-1.57449
11
6.54335
21
-1.57816
0
LINE
8
BLACK
6
CONTINUOUS
10
6.54335
20
-1.57816
11
6.53726
21
-1.58068
0
LINE
8
BLACK
6
CONTINUOUS
10
6.53726
20
-1.58068
11
6.5308
21
-1.58196
0
LINE
8
BLACK
6
CONTINUOUS
10
6.5308
20
-1.58196
11
6.5242
21
-1.58196
0
LINE
8
BLACK
6
CONTINUOUS
10
6.5242
20
-1.58196
11
6.51774
21
-1.58068
0
LINE
8
BLACK
6
CONTINUOUS
10
6.51774
20
-1.58068
11
6.51165
21
-1.57816
0
LINE
8
BLACK
6
CONTINUOUS
10
6.51165
20
-1.57816
11
6.50617
21
-1.57449
0
LINE
8
BLACK
6
CONTINUOUS
10
6.50617
20
-1.57449
11
6.50151
21
-1.56983
0
LINE
8
BLACK
6
CONTINUOUS
10
6.50151
20
-1.56983
11
6.49784
21
-1.56435
0
LINE
8
BLACK
6
CONTINUOUS
10
6.49784
20
-1.56435
11
6.49532
21
-1.55826
0
LINE
8
BLACK
6
CONTINUOUS
10
6.49532
20
-1.55826
11
6.49404
21
-1.5518
0
LINE
8
BLACK
6
CONTINUOUS
10
6.49404
20
-1.5518
11
6.49404
21
-1.5452
0
LINE
8
BLACK
6
CONTINUOUS
10
6.49404
20
-1.5452
11
6.49532
21
-1.53874
0
LINE
8
BLACK
6
CONTINUOUS
10
6.49532
20
-1.53874
11
6.49784
21
-1.53265
0
LINE
8
BLACK
6
CONTINUOUS
10
6.49784
20
-1.53265
11
6.50151
21
-1.52717
0
LINE
8
BLACK
6
CONTINUOUS
10
6.50151
20
-1.52717
11
6.50617
21
-1.52251
0
LINE
8
BLACK
6
CONTINUOUS
10
6.50617
20
-1.52251
11
6.51165
21
-1.51884
0
LINE
8
BLACK
6
CONTINUOUS
10
6.51165
20
-1.51884
11
6.51774
21
-1.51632
0
LINE
8
BLACK
6
CONTINUOUS
10
6.51774
20
-1.51632
11
6.5242
21
-1.51504
0
LINE
8
BLACK
6
CONTINUOUS
10
6.5242
20
-1.51504
11
6.5308
21
-1.51504
0
LINE
8
BLACK
6
CONTINUOUS
10
6.5308
20
-1.51504
11
6.53726
21
-1.51632
0
LINE
8
BLACK
6
CONTINUOUS
10
6.63726
20
-1.51632
11
6.64335
21
-1.51884
0
LINE
8
BLACK
6
CONTINUOUS
10
6.64335
20
-1.51884
11
6.64883
21
-1.52251
0
LINE
8
BLACK
6
CONTINUOUS
10
6.64883
20
-1.52251
11
6.65349
21
-1.52717
0
LINE
8
BLACK
6
CONTINUOUS
10
6.65349
20
-1.52717
11
6.65716
21
-1.53265
0
LINE
8
BLACK
6
CONTINUOUS
10
6.65716
20
-1.53265
11
6.65968
21
-1.53874
0
LINE
8
BLACK
6
CONTINUOUS
10
6.65968
20
-1.53874
11
6.66096
21
-1.5452
0
LINE
8
BLACK
6
CONTINUOUS
10
6.66096
20
-1.5452
11
6.66096
21
-1.5518
0
LINE
8
BLACK
6
CONTINUOUS
10
6.66096
20
-1.5518
11
6.65968
21
-1.55826
0
LINE
8
BLACK
6
CONTINUOUS
10
6.65968
20
-1.55826
11
6.65716
21
-1.56435
0
LINE
8
BLACK
6
CONTINUOUS
10
6.65716
20
-1.56435
11
6.65349
21
-1.56983
0
LINE
8
BLACK
6
CONTINUOUS
10
6.65349
20
-1.56983
11
6.64883
21
-1.57449
0
LINE
8
BLACK
6
CONTINUOUS
10
6.64883
20
-1.57449
11
6.64335
21
-1.57816
0
LINE
8
BLACK
6
CONTINUOUS
10
6.64335
20
-1.57816
11
6.63726
21
-1.58068
0
LINE
8
BLACK
6
CONTINUOUS
10
6.63726
20
-1.58068
11
6.6308
21
-1.58196
0
LINE
8
BLACK
6
CONTINUOUS
10
6.6308
20
-1.58196
11
6.6242
21
-1.58196
0
LINE
8
BLACK
6
CONTINUOUS
10
6.6242
20
-1.58196
11
6.61774
21
-1.58068
0
LINE
8
BLACK
6
CONTINUOUS
10
6.61774
20
-1.58068
11
6.61165
21
-1.57816
0
LINE
8
BLACK
6
CONTINUOUS
10
6.61165
20
-1.57816
11
6.60617
21
-1.57449
0
LINE
8
BLACK
6
CONTINUOUS
10
6.60617
20
-1.57449
11
6.60151
21
-1.56983
0
LINE
8
BLACK
6
CONTINUOUS
10
6.60151
20
-1.56983
11
6.59784
21
-1.56435
0
LINE
8
BLACK
6
CONTINUOUS
10
6.59784
20
-1.56435
11
6.59532
21
-1.55826
0
LINE
8
BLACK
6
CONTINUOUS
10
6.59532
20
-1.55826
11
6.59404
21
-1.5518
0
LINE
8
BLACK
6
CONTINUOUS
10
6.59404
20
-1.5518
11
6.59404
21
-1.5452
0
LINE
8
BLACK
6
CONTINUOUS
10
6.59404
20
-1.5452
11
6.59532
21
-1.53874
0
LINE
8
BLACK
6
CONTINUOUS
10
6.59532
20
-1.53874
11
6.59784
21
-1.53265
0
LINE
8
BLACK
6
CONTINUOUS
10
6.59784
20
-1.53265
11
6.60151
21
-1.52717
0
LINE
8
BLACK
6
CONTINUOUS
10
6.60151
20
-1.52717
11
6.60617
21
-1.52251
0
LINE
8
BLACK
6
CONTINUOUS
10
6.60617
20
-1.52251
11
6.61165
21
-1.51884
0
LINE
8
BLACK
6
CONTINUOUS
10
6.61165
20
-1.51884
11
6.61774
21
-1.51632
0
LINE
8
BLACK
6
CONTINUOUS
10
6.61774
20
-1.51632
11
6.6242
21
-1.51504
0
LINE
8
BLACK
6
CONTINUOUS
10
6.6242
20
-1.51504
11
6.6308
21
-1.51504
0
LINE
8
BLACK
6
CONTINUOUS
10
6.6308
20
-1.51504
11
6.63726
21
-1.51632
0
LINE
8
BLACK
6
CONTINUOUS
10
6.73726
20
-1.51632
11
6.74335
21
-1.51884
0
LINE
8
BLACK
6
CONTINUOUS
10
6.74335
20
-1.51884
11
6.74883
21
-1.52251
0
LINE
8
BLACK
6
CONTINUOUS
10
6.74883
20
-1.52251
11
6.75349
21
-1.52717
0
LINE
8
BLACK
6
CONTINUOUS
10
6.75349
20
-1.52717
11
6.75716
21
-1.53265
0
LINE
8
BLACK
6
CONTINUOUS
10
6.75716
20
-1.53265
11
6.75968
21
-1.53874
0
LINE
8
BLACK
6
CONTINUOUS
10
6.75968
20
-1.53874
11
6.76096
21
-1.5452
0
LINE
8
BLACK
6
CONTINUOUS
10
6.76096
20
-1.5452
11
6.76096
21
-1.5518
0
LINE
8
BLACK
6
CONTINUOUS
10
6.76096
20
-1.5518
11
6.75968
21
-1.55826
0
LINE
8
BLACK
6
CONTINUOUS
10
6.75968
20
-1.55826
11
6.75716
21
-1.56435
0
LINE
8
BLACK
6
CONTINUOUS
10
6.75716
20
-1.56435
11
6.75349
21
-1.56983
0
LINE
8
BLACK
6
CONTINUOUS
10
6.75349
20
-1.56983
11
6.74883
21
-1.57449
0
LINE
8
BLACK
6
CONTINUOUS
10
6.74883
20
-1.57449
11
6.74335
21
-1.57816
0
LINE
8
BLACK
6
CONTINUOUS
10
6.74335
20
-1.57816
11
6.73726
21
-1.58068
0
LINE
8
BLACK
6
CONTINUOUS
10
6.73726
20
-1.58068
11
6.7308
21
-1.58196
0
LINE
8
BLACK
6
CONTINUOUS
10
6.7308
20
-1.58196
11
6.7242
21
-1.58196
0
LINE
8
BLACK
6
CONTINUOUS
10
6.7242
20
-1.58196
11
6.71774
21
-1.58068
0
LINE
8
BLACK
6
CONTINUOUS
10
6.71774
20
-1.58068
11
6.71165
21
-1.57816
0
LINE
8
BLACK
6
CONTINUOUS
10
6.71165
20
-1.57816
11
6.70617
21
-1.57449
0
LINE
8
BLACK
6
CONTINUOUS
10
6.70617
20
-1.57449
11
6.70151
21
-1.56983
0
LINE
8
BLACK
6
CONTINUOUS
10
6.70151
20
-1.56983
11
6.69784
21
-1.56435
0
LINE
8
BLACK
6
CONTINUOUS
10
6.69784
20
-1.56435
11
6.69532
21
-1.55826
0
LINE
8
BLACK
6
CONTINUOUS
10
6.69532
20
-1.55826
11
6.69404
21
-1.5518
0
LINE
8
BLACK
6
CONTINUOUS
10
6.69404
20
-1.5518
11
6.69404
21
-1.5452
0
LINE
8
BLACK
6
CONTINUOUS
10
6.69404
20
-1.5452
11
6.69532
21
-1.53874
0
LINE
8
BLACK
6
CONTINUOUS
10
6.69532
20
-1.53874
11
6.69784
21
-1.53265
0
LINE
8
BLACK
6
CONTINUOUS
10
6.69784
20
-1.53265
11
6.70151
21
-1.52717
0
LINE
8
BLACK
6
CONTINUOUS
10
6.70151
20
-1.52717
11
6.70617
21
-1.52251
0
LINE
8
BLACK
6
CONTINUOUS
10
6.70617
20
-1.52251
11
6.71165
21
-1.51884
0
LINE
8
BLACK
6
CONTINUOUS
10
6.71165
20
-1.51884
11
6.71774
21
-1.51632
0
LINE
8
BLACK
6
CONTINUOUS
10
6.71774
20
-1.51632
11
6.7242
21
-1.51504
0
LINE
8
BLACK
6
CONTINUOUS
10
6.7242
20
-1.51504
11
6.7308
21
-1.51504
0
LINE
8
BLACK
6
CONTINUOUS
10
6.7308
20
-1.51504
11
6.73726
21
-1.51632
0
LINE
8
BLACK
6
CONTINUOUS
10
5.63726
20
-1.51632
11
5.64335
21
-1.51884
0
LINE
8
BLACK
6
CONTINUOUS
10
5.64335
20
-1.51884
11
5.64883
21
-1.52251
0
LINE
8
BLACK
6
CONTINUOUS
10
5.64883
20
-1.52251
11
5.65349
21
-1.52717
0
LINE
8
BLACK
6
CONTINUOUS
10
5.65349
20
-1.52717
11
5.65716
21
-1.53265
0
LINE
8
BLACK
6
CONTINUOUS
10
5.65716
20
-1.53265
11
5.65968
21
-1.53874
0
LINE
8
BLACK
6
CONTINUOUS
10
5.65968
20
-1.53874
11
5.66096
21
-1.5452
0
LINE
8
BLACK
6
CONTINUOUS
10
5.66096
20
-1.5452
11
5.66096
21
-1.5518
0
LINE
8
BLACK
6
CONTINUOUS
10
5.66096
20
-1.5518
11
5.65968
21
-1.55826
0
LINE
8
BLACK
6
CONTINUOUS
10
5.65968
20
-1.55826
11
5.65716
21
-1.56435
0
LINE
8
BLACK
6
CONTINUOUS
10
5.65716
20
-1.56435
11
5.65349
21
-1.56983
0
LINE
8
BLACK
6
CONTINUOUS
10
5.65349
20
-1.56983
11
5.64883
21
-1.57449
0
LINE
8
BLACK
6
CONTINUOUS
10
5.64883
20
-1.57449
11
5.64335
21
-1.57816
0
LINE
8
BLACK
6
CONTINUOUS
10
5.64335
20
-1.57816
11
5.63726
21
-1.58068
0
LINE
8
BLACK
6
CONTINUOUS
10
5.63726
20
-1.58068
11
5.6308
21
-1.58196
0
LINE
8
BLACK
6
CONTINUOUS
10
5.6308
20
-1.58196
11
5.6242
21
-1.58196
0
LINE
8
BLACK
6
CONTINUOUS
10
5.6242
20
-1.58196
11
5.61774
21
-1.58068
0
LINE
8
BLACK
6
CONTINUOUS
10
5.61774
20
-1.58068
11
5.61165
21
-1.57816
0
LINE
8
BLACK
6
CONTINUOUS
10
5.61165
20
-1.57816
11
5.60617
21
-1.57449
0
LINE
8
BLACK
6
CONTINUOUS
10
5.60617
20
-1.57449
11
5.60151
21
-1.56983
0
LINE
8
BLACK
6
CONTINUOUS
10
5.60151
20
-1.56983
11
5.59784
21
-1.56435
0
LINE
8
BLACK
6
CONTINUOUS
10
5.59784
20
-1.56435
11
5.59532
21
-1.55826
0
LINE
8
BLACK
6
CONTINUOUS
10
5.59532
20
-1.55826
11
5.59404
21
-1.5518
0
LINE
8
BLACK
6
CONTINUOUS
10
5.59404
20
-1.5518
11
5.59404
21
-1.5452
0
LINE
8
BLACK
6
CONTINUOUS
10
5.59404
20
-1.5452
11
5.59532
21
-1.53874
0
LINE
8
BLACK
6
CONTINUOUS
10
5.59532
20
-1.53874
11
5.59784
21
-1.53265
0
LINE
8
BLACK
6
CONTINUOUS
10
5.59784
20
-1.53265
11
5.60151
21
-1.52717
0
LINE
8
BLACK
6
CONTINUOUS
10
5.60151
20
-1.52717
11
5.60617
21
-1.52251
0
LINE
8
BLACK
6
CONTINUOUS
10
5.60617
20
-1.52251
11
5.61165
21
-1.51884
0
LINE
8
BLACK
6
CONTINUOUS
10
5.61165
20
-1.51884
11
5.61774
21
-1.51632
0
LINE
8
BLACK
6
CONTINUOUS
10
5.61774
20
-1.51632
11
5.6242
21
-1.51504
0
LINE
8
BLACK
6
CONTINUOUS
10
5.6242
20
-1.51504
11
5.6308
21
-1.51504
0
LINE
8
BLACK
6
CONTINUOUS
10
5.6308
20
-1.51504
11
5.63726
21
-1.51632
0
LINE
8
BLACK
6
CONTINUOUS
10
5.56096
20
-1.58196
11
5.49404
21
-1.58196
0
LINE
8
BLACK
6
CONTINUOUS
10
5.49404
20
-1.58196
11
5.49404
21
-1.51504
0
LINE
8
BLACK
6
CONTINUOUS
10
5.49404
20
-1.51504
11
5.56096
21
-1.51504
0
LINE
8
BLACK
6
CONTINUOUS
10
5.56096
20
-1.51504
11
5.56096
21
-1.58196
  0
ENDSEC
  0
EOF
