G04 Layer_Physical_Order=1*
G04 Layer_Color=25308*
%FSLAX25Y25*%
%MOIN*%
G70*
G01*
G75*
G04:AMPARAMS|DCode=10|XSize=27.56mil|YSize=29.53mil|CornerRadius=0mil|HoleSize=0mil|Usage=FLASHONLY|Rotation=315.000|XOffset=0mil|YOffset=0mil|HoleType=Round|Shape=Rectangle|*
%AMROTATEDRECTD10*
4,1,4,-0.02018,-0.00070,0.00070,0.02018,0.02018,0.00070,-0.00070,-0.02018,-0.02018,-0.00070,0.0*
%
%ADD10ROTATEDRECTD10*%

G04:AMPARAMS|DCode=11|XSize=23.62mil|YSize=39.37mil|CornerRadius=0mil|HoleSize=0mil|Usage=FLASHONLY|Rotation=225.000|XOffset=0mil|YOffset=0mil|HoleType=Round|Shape=Rectangle|*
%AMROTATEDRECTD11*
4,1,4,-0.00557,0.02227,0.02227,-0.00557,0.00557,-0.02227,-0.02227,0.00557,-0.00557,0.02227,0.0*
%
%ADD11ROTATEDRECTD11*%

%ADD12R,0.02756X0.02953*%
%ADD13R,0.03937X0.02362*%
G04:AMPARAMS|DCode=14|XSize=27.56mil|YSize=29.53mil|CornerRadius=0mil|HoleSize=0mil|Usage=FLASHONLY|Rotation=45.000|XOffset=0mil|YOffset=0mil|HoleType=Round|Shape=Rectangle|*
%AMROTATEDRECTD14*
4,1,4,0.00070,-0.02018,-0.02018,0.00070,-0.00070,0.02018,0.02018,-0.00070,0.00070,-0.02018,0.0*
%
%ADD14ROTATEDRECTD14*%

G04:AMPARAMS|DCode=15|XSize=23.62mil|YSize=39.37mil|CornerRadius=0mil|HoleSize=0mil|Usage=FLASHONLY|Rotation=315.000|XOffset=0mil|YOffset=0mil|HoleType=Round|Shape=Rectangle|*
%AMROTATEDRECTD15*
4,1,4,-0.02227,-0.00557,0.00557,0.02227,0.02227,0.00557,-0.00557,-0.02227,-0.02227,-0.00557,0.0*
%
%ADD15ROTATEDRECTD15*%

%ADD16R,0.02953X0.02756*%
%ADD17R,0.02362X0.03937*%
%ADD18R,0.03937X0.00984*%
%ADD19R,0.00984X0.03937*%
%ADD20R,0.05906X0.05906*%
%ADD21R,0.02362X0.02559*%
%ADD22R,0.02677X0.02520*%
%ADD23R,0.02520X0.02677*%
%ADD24R,0.01181X0.02067*%
%ADD25R,0.01673X0.01181*%
%ADD26C,0.01000*%
%ADD27C,0.00787*%
%ADD28C,0.01787*%
%ADD29C,0.06000*%
%ADD30C,0.06500*%
%ADD31P,0.09192X4X270.0*%
%ADD32R,0.06500X0.06500*%
%ADD33P,0.09192X4X360.0*%
%ADD34R,0.06500X0.06500*%
%ADD35R,0.06102X0.06102*%
%ADD36C,0.06102*%
%ADD37C,0.05000*%
%ADD38C,0.02000*%
D10*
X254472Y357622D02*
D03*
X251827Y354977D02*
D03*
X258803Y353291D02*
D03*
X256158Y350646D02*
D03*
X335685Y272300D02*
D03*
X338330Y274944D02*
D03*
X330961Y277024D02*
D03*
X333606Y279669D02*
D03*
D11*
X245415Y359138D02*
D03*
X250704Y364428D02*
D03*
X242492Y367351D02*
D03*
X344743Y269995D02*
D03*
X339453Y264706D02*
D03*
X347666Y261783D02*
D03*
D12*
X237008Y316831D02*
D03*
Y313090D02*
D03*
X242913Y316831D02*
D03*
Y313090D02*
D03*
X354331D02*
D03*
Y316831D02*
D03*
X348425Y313090D02*
D03*
Y316831D02*
D03*
D13*
X228346Y311221D02*
D03*
Y318701D02*
D03*
X220472Y314961D02*
D03*
X362205Y318701D02*
D03*
Y311221D02*
D03*
X370079Y314961D02*
D03*
D14*
X256552Y278881D02*
D03*
X259196Y276237D02*
D03*
X252221Y274551D02*
D03*
X254866Y271906D02*
D03*
X333999Y351434D02*
D03*
X331355Y354078D02*
D03*
X338330Y355764D02*
D03*
X335685Y358409D02*
D03*
D15*
X250310Y265100D02*
D03*
X245021Y270389D02*
D03*
X242098Y262177D02*
D03*
X339453Y365215D02*
D03*
X344743Y359926D02*
D03*
X347666Y368138D02*
D03*
D16*
X293406Y262992D02*
D03*
X297146D02*
D03*
X293406Y256299D02*
D03*
X297146D02*
D03*
X297047Y373228D02*
D03*
X293307D02*
D03*
X297047Y367913D02*
D03*
X293307D02*
D03*
D17*
X299016Y248031D02*
D03*
X291535D02*
D03*
X295276Y240158D02*
D03*
X291929Y381496D02*
D03*
X299409D02*
D03*
X295669Y389370D02*
D03*
D18*
X278031Y324705D02*
D03*
Y322736D02*
D03*
Y320768D02*
D03*
Y318799D02*
D03*
Y316831D02*
D03*
Y326673D02*
D03*
Y328642D02*
D03*
Y330610D02*
D03*
Y332579D02*
D03*
Y334567D02*
D03*
D19*
X279134Y312642D02*
D03*
X281102Y312697D02*
D03*
X283071D02*
D03*
X285039D02*
D03*
X287008D02*
D03*
X288976D02*
D03*
X290945D02*
D03*
X292913D02*
D03*
X294882D02*
D03*
X300787D02*
D03*
X298819D02*
D03*
X296850D02*
D03*
X296890Y338681D02*
D03*
X298858D02*
D03*
X300827D02*
D03*
X302795D02*
D03*
X304764D02*
D03*
X306732D02*
D03*
X308701D02*
D03*
X310669D02*
D03*
X312638D02*
D03*
X314606D02*
D03*
X294921D02*
D03*
X292953D02*
D03*
X290984D02*
D03*
X289016D02*
D03*
X287047D02*
D03*
X285079D02*
D03*
X283110D02*
D03*
X281142D02*
D03*
X279173D02*
D03*
D20*
X294724Y321752D02*
D03*
X286850D02*
D03*
Y329626D02*
D03*
X294724D02*
D03*
D21*
X314567Y291240D02*
D03*
Y294587D02*
D03*
X279429Y295571D02*
D03*
Y292224D02*
D03*
X275394Y295571D02*
D03*
Y292224D02*
D03*
X294882Y304035D02*
D03*
Y300689D02*
D03*
D22*
X301417Y346850D02*
D03*
X304882D02*
D03*
X299252Y276279D02*
D03*
X302716D02*
D03*
X306063Y300787D02*
D03*
X302598D02*
D03*
D23*
X314567Y282520D02*
D03*
Y285984D02*
D03*
D24*
X306102Y282037D02*
D03*
X304134D02*
D03*
X302165D02*
D03*
X300197D02*
D03*
X298228D02*
D03*
X296260D02*
D03*
X294291D02*
D03*
X292323D02*
D03*
X290354D02*
D03*
X288386D02*
D03*
Y294340D02*
D03*
X290354D02*
D03*
X292323D02*
D03*
X294291D02*
D03*
X296260D02*
D03*
X298228D02*
D03*
X300197D02*
D03*
X302165D02*
D03*
X304134D02*
D03*
X306102D02*
D03*
D25*
X306348Y291142D02*
D03*
Y289173D02*
D03*
Y287205D02*
D03*
Y285236D02*
D03*
X288140Y291142D02*
D03*
Y289173D02*
D03*
Y287205D02*
D03*
Y285236D02*
D03*
D26*
X311417Y392520D02*
X324803D01*
Y362598D02*
Y392520D01*
X294921Y338681D02*
Y351220D01*
X300787Y357087D01*
X292953Y338681D02*
Y352008D01*
X300787Y359842D01*
X290984Y338681D02*
Y354370D01*
X297047Y360433D01*
X273130Y318799D02*
X278031D01*
X273524Y316831D02*
X278031D01*
X255512Y301181D02*
X273130Y318799D01*
X314567Y285984D02*
X318268D01*
X314567Y282520D02*
X326220D01*
X335039Y291339D01*
X259055Y302362D02*
X273524Y316831D01*
X271555Y320768D02*
X278031D01*
X300787Y357087D02*
X314173D01*
X320276Y350984D01*
X300787Y359842D02*
X315354D01*
X318268Y285984D02*
X321654Y289370D01*
Y303150D01*
X259055Y289764D02*
Y302362D01*
X255512Y289764D02*
Y301181D01*
Y289764D02*
X281890Y263386D01*
X293406D01*
X253150Y302362D02*
X271555Y320768D01*
X287047Y338681D02*
Y345236D01*
X243307Y316831D02*
Y331102D01*
X262205Y350000D01*
X282283D01*
X287047Y345236D01*
X289016Y338681D02*
Y348780D01*
X284504Y353291D02*
X289016Y348780D01*
X331355Y354078D02*
Y354078D01*
X339453Y362177D02*
Y365215D01*
X331355Y354078D02*
X335685Y358409D01*
X339453Y362177D01*
X338330Y355764D02*
X342492Y359926D01*
X344743D01*
X347666Y368138D02*
Y374422D01*
X350795Y377551D01*
X351181Y355906D02*
X352362Y357087D01*
X344743Y359926D02*
X348763Y355906D01*
X351181D01*
X357866Y361425D02*
Y370480D01*
X291929Y381496D02*
X293307Y380118D01*
Y367913D02*
Y373228D01*
Y380118D01*
X299409Y381496D02*
X307087D01*
X309842Y384252D01*
X290276Y394764D02*
Y398819D01*
Y394764D02*
X295669Y389370D01*
X300276Y398819D02*
X307362Y391732D01*
X310630D01*
X246513Y360236D02*
X246568D01*
X245415Y359138D02*
X246513Y360236D01*
X246568D02*
X251827Y354977D01*
X256158Y350646D01*
X250704Y364428D02*
X256299Y370023D01*
Y374016D01*
X239362Y377945D02*
X250386D01*
X253543Y381102D01*
X228346Y311221D02*
X230217Y313090D01*
X237008D01*
X242913D01*
X228346Y318701D02*
Y327165D01*
X225984Y329528D02*
X228346Y327165D01*
X211024Y319961D02*
X218504Y327441D01*
Y331102D01*
X250310Y265100D02*
Y267351D01*
X254866Y271906D01*
X259196Y276237D01*
X240607Y274803D02*
X245021Y270389D01*
X237008Y274803D02*
X240607D01*
X232291Y259047D02*
Y268890D01*
X230315Y270866D02*
X232291Y268890D01*
X297146Y249902D02*
X299016Y248031D01*
X297146Y249902D02*
Y256299D01*
Y262992D01*
X283465Y248031D02*
X291535D01*
X280709Y245276D02*
X283465Y248031D01*
X282008Y238583D02*
X290276Y230315D01*
X278346Y238583D02*
X282008D01*
X340953Y251976D02*
X350795D01*
X337795Y248819D02*
X340953Y251976D01*
X331496Y256749D02*
X339453Y264706D01*
X331496Y254331D02*
Y256749D01*
X360335Y316831D02*
X362205Y318701D01*
X348425Y316831D02*
X354331D01*
X360335D01*
X362205Y304331D02*
Y311221D01*
Y304331D02*
X364567Y301969D01*
X370079Y314961D02*
X374134D01*
X379134Y319961D01*
X371654Y302480D02*
X379134Y309961D01*
X371654Y296063D02*
Y302480D01*
X333606Y279669D02*
X338330Y274944D01*
X339794D01*
X344743Y269995D01*
X354331Y313090D02*
X360335D01*
X362205Y311221D01*
X335685Y268474D02*
Y272300D01*
Y268474D02*
X339453Y264706D01*
X291535Y254429D02*
X293406Y256299D01*
X291535Y248031D02*
Y254429D01*
X245021Y270389D02*
X249183Y274551D01*
X252221D01*
X228346Y318701D02*
X235138D01*
X237008Y316831D01*
X254472Y357622D02*
Y360660D01*
X250704Y364428D02*
X254472Y360660D01*
X297047Y373228D02*
Y379134D01*
X299409Y381496D01*
D27*
X272638Y324606D02*
X278031D01*
X268622Y320590D02*
X272638Y324606D01*
X258268Y320590D02*
X268622D01*
X272638Y328543D02*
X278031D01*
X270590Y330591D02*
X272638Y328543D01*
X258268Y330591D02*
X270590D01*
X301654Y344094D02*
Y346614D01*
Y344094D02*
X302795Y342953D01*
Y338583D02*
Y342953D01*
X308701Y338583D02*
Y346850D01*
X312638Y338583D02*
Y346850D01*
X314567Y285984D02*
Y291240D01*
X306348Y285236D02*
X308858D01*
X311575Y282520D01*
X314567D01*
X306348Y287205D02*
X310039D01*
X311260Y285984D01*
X314567D01*
X311417Y293701D02*
X312303Y294587D01*
X314567D01*
X308268Y297638D02*
X309842Y296063D01*
X306693Y297638D02*
X308268D01*
X306102Y297047D02*
X306693Y297638D01*
X306102Y294340D02*
Y297047D01*
X300197Y294340D02*
Y297441D01*
X302598Y299843D01*
Y300787D01*
X298228Y294340D02*
Y302165D01*
X296260Y294340D02*
Y296260D01*
X294882Y297638D02*
X296260Y296260D01*
X294882Y297638D02*
Y300689D01*
Y304035D02*
Y307382D01*
X286221Y298425D02*
X288386D01*
X283858Y296063D02*
X286221Y298425D01*
X283858Y291142D02*
X288140D01*
X288386Y294340D02*
Y298425D01*
X283858Y289173D02*
X288140D01*
X283858Y287795D02*
X284449Y287205D01*
X288140D01*
X280512Y285236D02*
X288140D01*
X280463Y282037D02*
X288386D01*
X298228Y279331D02*
Y282037D01*
Y279331D02*
X299252Y278307D01*
Y276279D02*
Y278307D01*
X304134Y279921D02*
Y282037D01*
X302716Y278504D02*
X304134Y279921D01*
X302716Y276279D02*
Y278504D01*
X288386Y298425D02*
Y303189D01*
X282838Y301969D02*
X290945Y310075D01*
X282704Y303839D02*
X288976Y310111D01*
X282235Y305374D02*
X287008Y310147D01*
X281648Y306791D02*
X285039Y310183D01*
X288386Y303189D02*
X294882Y309685D01*
Y307382D02*
X296850Y309350D01*
X298819Y302756D02*
X300787Y304724D01*
X306102Y297047D02*
Y303248D01*
X304626Y304724D02*
X306102Y303248D01*
X300787Y304724D02*
X304626D01*
X286910Y279823D02*
X292520D01*
X286122Y293602D02*
Y295768D01*
X290158Y296654D02*
X293012D01*
X308366Y280906D02*
Y283366D01*
X306348Y291142D02*
X308465D01*
X309842Y292520D01*
Y296063D01*
X306348Y289173D02*
X309252D01*
X311417Y291339D01*
Y293701D01*
X282283Y299410D02*
X292913Y310039D01*
X279429Y286319D02*
X280512Y285236D01*
X279429Y286319D02*
Y290945D01*
Y292224D02*
X281496D01*
X282283Y293012D01*
Y299410D01*
X280020Y301969D02*
X282838D01*
X275394Y287106D02*
Y292224D01*
Y287106D02*
X280463Y282037D01*
X273130Y292224D02*
X275394D01*
X275847Y305374D02*
X282235D01*
X275259Y306791D02*
X281648D01*
X276476Y303839D02*
X282704D01*
X271752Y293602D02*
X273130Y292224D01*
X271752Y293602D02*
Y299114D01*
X276476Y303839D01*
X268917Y287874D02*
Y300449D01*
X270335Y288819D02*
Y299862D01*
X275847Y305374D01*
X268917Y300449D02*
X275259Y306791D01*
X279429Y295571D02*
Y301378D01*
X280020Y301969D01*
X275394Y295571D02*
Y299606D01*
X277756Y301969D01*
X280020D01*
X298228Y302165D02*
X298819Y302756D01*
Y312598D01*
X283858Y287795D02*
Y296063D01*
X297638Y344980D02*
X300827Y341791D01*
Y338681D02*
Y341791D01*
X297638Y344980D02*
Y350590D01*
X301378Y354331D01*
X312598D01*
X301417Y346850D02*
Y349744D01*
X303091Y351417D01*
X304764Y338681D02*
Y346732D01*
X314606Y338583D02*
Y346850D01*
X312598Y354331D02*
X331968Y334961D01*
X296850Y309350D02*
Y312697D01*
X294882Y309685D02*
Y312697D01*
X292913Y310039D02*
Y312697D01*
X290945Y310075D02*
Y312697D01*
X288976Y310111D02*
Y312697D01*
X287008Y310147D02*
Y312697D01*
X285039Y310183D02*
Y312697D01*
X297047Y360433D02*
Y367913D01*
X315354Y359842D02*
X325590Y349606D01*
X332172D01*
X333999Y351434D01*
X331355Y354078D02*
X331637D01*
X325984Y314567D02*
X331890D01*
Y294488D02*
X335039Y291339D01*
X331890Y294488D02*
Y314567D01*
X304862Y346850D02*
X314567D01*
X324016Y332441D02*
X331890Y324567D01*
X322047Y318504D02*
X325984Y314567D01*
X322047Y318504D02*
Y339370D01*
X314567Y346850D02*
X322047Y339370D01*
X303091Y351417D02*
X312756D01*
X324016Y340158D01*
Y332441D02*
Y340158D01*
X344390Y313090D02*
X348425D01*
X342126Y315354D02*
X344390Y313090D01*
X342126Y315354D02*
Y327559D01*
X302716Y272795D02*
Y276279D01*
X299252Y273366D02*
Y276279D01*
X270335Y288819D02*
X286291Y272862D01*
X298748D01*
X299252Y273366D01*
X268917Y287874D02*
X285268Y271524D01*
X301445D01*
X302716Y272795D01*
X322835Y268898D02*
X330961Y277024D01*
X279921Y268898D02*
X322835D01*
X259055Y289764D02*
X279921Y268898D01*
X253150Y282283D02*
Y302362D01*
Y282283D02*
X256552Y278881D01*
X274153Y343701D02*
X279173Y338681D01*
X258803Y353291D02*
X284504D01*
D28*
X335039Y291339D02*
X361417D01*
D29*
X220472Y290945D02*
D03*
X229921Y287795D02*
D03*
X362598Y336221D02*
D03*
X367717Y344094D02*
D03*
D30*
X232291Y370874D02*
D03*
X211024Y309961D02*
D03*
X239362Y251976D02*
D03*
X300276Y230315D02*
D03*
X357866Y259047D02*
D03*
X379134Y319961D02*
D03*
X350795Y377551D02*
D03*
X290276Y398819D02*
D03*
X257480Y320590D02*
D03*
D31*
X239362Y377945D02*
D03*
X350795Y251976D02*
D03*
D32*
X211024Y319961D02*
D03*
X379134Y309961D02*
D03*
X257480Y330591D02*
D03*
D33*
X232291Y259047D02*
D03*
X357866Y370480D02*
D03*
D34*
X290276Y230315D02*
D03*
X300276Y398819D02*
D03*
D35*
X331890Y314567D02*
D03*
D36*
Y324567D02*
D03*
Y334567D02*
D03*
D37*
X324803Y362598D02*
D03*
X321654Y303150D02*
D03*
X309842Y384252D02*
D03*
X352362Y357087D02*
D03*
X311417Y392520D02*
D03*
X253543Y381102D02*
D03*
X256299Y374016D02*
D03*
X218504Y331102D02*
D03*
X225984Y329528D02*
D03*
X229134Y272047D02*
D03*
X237008Y274803D02*
D03*
X278346Y238583D02*
D03*
X280709Y245276D02*
D03*
X331496Y254331D02*
D03*
X337795Y248819D02*
D03*
X361417Y291339D02*
D03*
X371654Y296063D02*
D03*
X364567Y301969D02*
D03*
D38*
X320276Y350984D02*
D03*
X342520Y327559D02*
D03*
X274213Y343898D02*
D03*
M02*
