G04 Layer_Color=8150272*
%FSLAX25Y25*%
%MOIN*%
G70*
G01*
G75*
%ADD61C,0.06800*%
%ADD62C,0.07300*%
%ADD63P,0.10324X4X270.0*%
%ADD64R,0.07300X0.07300*%
%ADD65P,0.10324X4X360.0*%
%ADD66R,0.07300X0.07300*%
%ADD67R,0.06902X0.06902*%
%ADD68C,0.06902*%
%ADD69C,0.05800*%
%ADD70C,0.02800*%
%ADD71R,0.12611X0.09068*%
%ADD72R,0.07887X0.03162*%
D61*
X220472Y290945D02*
D03*
X229921Y287795D02*
D03*
X362598Y336221D02*
D03*
X367717Y344094D02*
D03*
D62*
X232291Y370874D02*
D03*
X211024Y309961D02*
D03*
X239362Y251976D02*
D03*
X300276Y230315D02*
D03*
X357866Y259047D02*
D03*
X379134Y319961D02*
D03*
X350795Y377551D02*
D03*
X290276Y398819D02*
D03*
X257480Y320590D02*
D03*
D63*
X239362Y377945D02*
D03*
X350795Y251976D02*
D03*
D64*
X211024Y319961D02*
D03*
X379134Y309961D02*
D03*
X257480Y330591D02*
D03*
D65*
X232291Y259047D02*
D03*
X357866Y370480D02*
D03*
D66*
X290276Y230315D02*
D03*
X300276Y398819D02*
D03*
D67*
X331890Y314567D02*
D03*
D68*
Y324567D02*
D03*
Y334567D02*
D03*
D69*
X324803Y362598D02*
D03*
X321654Y303150D02*
D03*
X309842Y384252D02*
D03*
X352362Y357087D02*
D03*
X311417Y392520D02*
D03*
X253543Y381102D02*
D03*
X256299Y374016D02*
D03*
X218504Y331102D02*
D03*
X225984Y329528D02*
D03*
X229134Y272047D02*
D03*
X237008Y274803D02*
D03*
X278346Y238583D02*
D03*
X280709Y245276D02*
D03*
X331496Y254331D02*
D03*
X337795Y248819D02*
D03*
X361417Y291339D02*
D03*
X371654Y296063D02*
D03*
X364567Y301969D02*
D03*
D70*
X320276Y350984D02*
D03*
X342520Y327559D02*
D03*
X274213Y343898D02*
D03*
D71*
X353937Y328150D02*
D03*
Y303150D02*
D03*
X235433Y306890D02*
D03*
Y331890D02*
D03*
D72*
X342126Y313189D02*
D03*
Y318110D02*
D03*
X247244Y321850D02*
D03*
Y316929D02*
D03*
M02*
