G04 Layer_Color=15132400*
%FSLAX25Y25*%
%MOIN*%
G70*
G01*
G75*
%ADD26C,0.01000*%
%ADD27C,0.00787*%
%ADD42C,0.00984*%
%ADD43C,0.01575*%
%ADD44C,0.00394*%
D26*
X358268Y314961D02*
G03*
X358268Y314961I-62992J0D01*
G01*
X299213D02*
G03*
X299213Y314961I-3937J0D01*
G01*
X246787Y378298D02*
X247141Y377945D01*
X246787Y377591D02*
X247141Y377945D01*
X239362Y385723D02*
X246787Y378298D01*
X224160Y370520D02*
X239362Y385723D01*
X224160Y370520D02*
X231938Y362742D01*
X246787Y377591D01*
X216024Y325461D02*
X216524D01*
Y324961D02*
Y325461D01*
X205524D02*
X216024D01*
X205524Y303961D02*
Y325461D01*
Y303961D02*
X216524D01*
Y324961D01*
X231938Y266472D02*
X232291Y266826D01*
X232645Y266472D01*
X224513Y259047D02*
X231938Y266472D01*
X224513Y259047D02*
X239716Y243845D01*
X247494Y251623D01*
X232645Y266472D02*
X247494Y251623D01*
X284776Y235315D02*
Y235815D01*
X285276D01*
X284776Y224815D02*
Y235315D01*
Y224815D02*
X306276D01*
Y235815D01*
X285276D02*
X306276D01*
X343017Y251976D02*
X343371Y251623D01*
X343017Y251976D02*
X343371Y252330D01*
Y251623D02*
X350795Y244198D01*
X365998Y259401D01*
X358220Y267179D02*
X365998Y259401D01*
X343371Y252330D02*
X358220Y267179D01*
X373634Y304461D02*
X374134D01*
X373634D02*
Y304961D01*
X374134Y304461D02*
X384634D01*
Y325961D01*
X373634D02*
X384634D01*
X373634Y304961D02*
Y325961D01*
X357866Y362702D02*
X358220Y363056D01*
X357513Y363056D02*
X357866Y362702D01*
X358220Y363056D02*
X365644Y370480D01*
X350442Y385683D02*
X365644Y370480D01*
X342664Y377905D02*
X350442Y385683D01*
X342664Y377905D02*
X357513Y363056D01*
X305776Y393319D02*
Y393819D01*
X305276Y393319D02*
X305776D01*
Y393819D02*
Y404319D01*
X284276D02*
X305776D01*
X284276Y393319D02*
Y404319D01*
Y393319D02*
X305276D01*
X262480Y336090D02*
X262980D01*
Y335591D02*
Y336090D01*
X251980D02*
X262480D01*
X251980Y314591D02*
Y336090D01*
Y314591D02*
X262980D01*
Y335591D01*
X221407Y378416D02*
X219994Y378431D01*
X218565Y377032D01*
X218550Y375619D01*
X219250Y374904D01*
X220663Y374889D01*
X222092Y376288D01*
X223506Y376273D01*
X224205Y375559D01*
X224190Y374145D01*
X222762Y372747D01*
X221348Y372762D01*
X226333Y376244D02*
X222136Y380529D01*
X224964Y380500D01*
X224994Y383327D01*
X229190Y379041D01*
X230619Y380440D02*
X227821Y383297D01*
X227851Y386124D01*
X230678Y386095D01*
X233476Y383238D01*
X231378Y385381D01*
X228520Y382583D01*
X230708Y388922D02*
X233565Y391720D01*
X234264Y391005D01*
X234205Y385351D01*
X234904Y384636D01*
X198211Y308403D02*
X197197Y307418D01*
X197167Y305419D01*
X198152Y304405D01*
X199151Y304390D01*
X200166Y305375D01*
X200195Y307374D01*
X201210Y308359D01*
X202209Y308344D01*
X203194Y307329D01*
X203164Y305330D01*
X202150Y304345D01*
X203239Y310328D02*
X197241Y310417D01*
X199270Y312386D01*
X197300Y314415D01*
X203298Y314326D01*
X203327Y316325D02*
X199329Y316385D01*
X197360Y318413D01*
X199388Y320383D01*
X203387Y320324D01*
X200388Y320368D01*
X200329Y316370D01*
X197478Y326410D02*
X198448Y324396D01*
X200418Y322367D01*
X202417Y322338D01*
X203431Y323323D01*
X203461Y325322D01*
X202476Y326336D01*
X201477Y326351D01*
X200462Y325366D01*
X200418Y322367D01*
X231829Y241795D02*
X231833Y240382D01*
X233251Y238972D01*
X234664Y238976D01*
X235369Y239684D01*
X235365Y241098D01*
X233948Y242508D01*
X233944Y243922D01*
X234649Y244631D01*
X236063Y244634D01*
X237480Y243225D01*
X237484Y241811D01*
X233936Y246749D02*
X229707Y242496D01*
X229699Y245324D01*
X226871Y245316D01*
X231101Y249569D01*
X229683Y250979D02*
X226863Y248143D01*
X224036Y248136D01*
X224028Y250963D01*
X226848Y253798D01*
X224733Y251672D01*
X227568Y248852D01*
X218365Y253775D02*
X221200Y250955D01*
X223315Y253082D01*
X221193Y253783D01*
X220484Y254488D01*
X220480Y255902D01*
X221890Y257319D01*
X223304Y257323D01*
X224721Y255913D01*
X224725Y254499D01*
X301907Y218230D02*
X302906Y217230D01*
X304906D01*
X305906Y218230D01*
Y219230D01*
X304906Y220229D01*
X302906D01*
X301907Y221229D01*
Y222229D01*
X302906Y223228D01*
X304906D01*
X305906Y222229D01*
X299907Y223228D02*
Y217230D01*
X297908Y219230D01*
X295909Y217230D01*
Y223228D01*
X293909D02*
Y219230D01*
X291910Y217230D01*
X289911Y219230D01*
Y223228D01*
Y220229D01*
X293909D01*
X284912Y223228D02*
Y217230D01*
X287911Y220229D01*
X283913D01*
X368201Y251534D02*
X369615Y251572D01*
X370990Y253023D01*
X370951Y254436D01*
X370226Y255124D01*
X368812Y255086D01*
X367437Y253634D01*
X366024Y253596D01*
X365299Y254284D01*
X365260Y255697D01*
X366635Y257148D01*
X368049Y257187D01*
X363198Y253520D02*
X367552Y249395D01*
X364725Y249318D01*
X364802Y246492D01*
X360448Y250617D01*
X359073Y249165D02*
X361975Y246415D01*
X362052Y243589D01*
X359225Y243512D01*
X356323Y246263D01*
X358500Y244200D01*
X361250Y247103D01*
X358576Y241373D02*
X358614Y239960D01*
X357239Y238509D01*
X355826Y238471D01*
X355100Y239158D01*
X355062Y240571D01*
X355750Y241297D01*
X355062Y240571D01*
X353649Y240533D01*
X352923Y241221D01*
X352885Y242634D01*
X354260Y244085D01*
X355673Y244124D01*
X391219Y322773D02*
X392218Y323773D01*
Y325772D01*
X391219Y326772D01*
X390219D01*
X389219Y325772D01*
Y323773D01*
X388220Y322773D01*
X387220D01*
X386221Y323773D01*
Y325772D01*
X387220Y326772D01*
X386221Y320774D02*
X392218D01*
X390219Y318774D01*
X392218Y316775D01*
X386221D01*
Y314775D02*
X390219D01*
X392218Y312776D01*
X390219Y310777D01*
X386221D01*
X389219D01*
Y314775D01*
X386221Y304779D02*
Y308777D01*
X390219Y304779D01*
X391219D01*
X392218Y305778D01*
Y307778D01*
X391219Y308777D01*
X359499Y387032D02*
X359476Y388445D01*
X358039Y389836D01*
X356626Y389812D01*
X355930Y389094D01*
X355954Y387680D01*
X357390Y386290D01*
X357414Y384876D01*
X356718Y384158D01*
X355305Y384135D01*
X353868Y385525D01*
X353845Y386939D01*
X357460Y382049D02*
X361631Y386360D01*
X361677Y383532D01*
X364505Y383579D01*
X360333Y379269D01*
X361770Y377878D02*
X364551Y380752D01*
X367378Y380798D01*
X367424Y377971D01*
X364644Y375097D01*
X366729Y377252D01*
X363856Y380033D01*
X366080Y373707D02*
X367517Y372317D01*
X366799Y373012D01*
X370970Y377322D01*
X369556Y377299D01*
X259055Y359842D02*
X254927Y364194D01*
X257103Y366258D01*
X258516Y366221D01*
X259892Y364770D01*
X259855Y363357D01*
X257679Y361293D01*
X259130Y362669D02*
X261956Y362595D01*
X266307Y366723D02*
X263406Y363971D01*
X263555Y369624D01*
X262867Y370349D01*
X261454Y370386D01*
X260003Y369010D01*
X259966Y367597D01*
X266531Y375202D02*
X263630Y372450D01*
X265694Y370275D01*
X266456Y372376D01*
X267181Y373064D01*
X268595Y373027D01*
X269971Y371576D01*
X269934Y370163D01*
X268483Y368787D01*
X267070Y368824D01*
X264961Y353543D02*
X260832Y357895D01*
X263008Y359959D01*
X264421Y359922D01*
X265797Y358471D01*
X265760Y357058D01*
X263585Y354994D01*
X265035Y356370D02*
X267862Y356295D01*
X272213Y360424D02*
X269312Y357671D01*
X269461Y363325D01*
X268773Y364050D01*
X267359Y364087D01*
X265909Y362711D01*
X265872Y361298D01*
X275839Y363864D02*
X271711Y368215D01*
X271599Y363976D01*
X274500Y366728D01*
X238583Y321260D02*
X232585D01*
Y324259D01*
X233584Y325259D01*
X235584D01*
X236583Y324259D01*
Y321260D01*
Y323259D02*
X238583Y325259D01*
Y331257D02*
Y327258D01*
X234584Y331257D01*
X233584D01*
X232585Y330257D01*
Y328258D01*
X233584Y327258D01*
Y333256D02*
X232585Y334256D01*
Y336255D01*
X233584Y337255D01*
X234584D01*
X235584Y336255D01*
Y335255D01*
Y336255D01*
X236583Y337255D01*
X237583D01*
X238583Y336255D01*
Y334256D01*
X237583Y333256D01*
X247244Y321260D02*
X241246D01*
Y324259D01*
X242246Y325259D01*
X244245D01*
X245245Y324259D01*
Y321260D01*
Y323259D02*
X247244Y325259D01*
Y331257D02*
Y327258D01*
X243245Y331257D01*
X242246D01*
X241246Y330257D01*
Y328258D01*
X242246Y327258D01*
X247244Y337255D02*
Y333256D01*
X243245Y337255D01*
X242246D01*
X241246Y336255D01*
Y334256D01*
X242246Y333256D01*
X249213Y279134D02*
X244895Y274971D01*
X242813Y277130D01*
X242839Y278543D01*
X244278Y279931D01*
X245692Y279905D01*
X247773Y277746D01*
X246386Y279186D02*
X246437Y282013D01*
X242274Y286331D02*
X245050Y283452D01*
X239395Y283555D01*
X238676Y282861D01*
X238650Y281448D01*
X240038Y280009D01*
X241451Y279983D01*
X240886Y287770D02*
X239499Y289209D01*
X240193Y288490D01*
X235875Y284327D01*
X237288Y284301D01*
X255906Y285039D02*
X251662Y280800D01*
X249542Y282922D01*
X249543Y284336D01*
X250958Y285749D01*
X252372Y285748D01*
X254491Y283626D01*
X253078Y285041D02*
X253079Y287868D01*
X248840Y292112D02*
X251666Y289283D01*
X246011Y289286D01*
X245304Y288579D01*
X245303Y287165D01*
X246716Y285751D01*
X248130Y285750D01*
X243891Y289994D02*
X242477Y289994D01*
X241064Y291409D01*
X241065Y292823D01*
X243894Y295649D01*
X245308Y295648D01*
X246721Y294233D01*
X246720Y292820D01*
X243891Y289994D01*
X288976Y257874D02*
Y251876D01*
X285977D01*
X284978Y252876D01*
Y254875D01*
X285977Y255875D01*
X288976D01*
X286977D02*
X284978Y257874D01*
X282978D02*
X280979D01*
X281979D01*
Y251876D01*
X282978Y252876D01*
X277980Y256874D02*
X276980Y257874D01*
X274981D01*
X273981Y256874D01*
Y252876D01*
X274981Y251876D01*
X276980D01*
X277980Y252876D01*
Y253875D01*
X276980Y254875D01*
X273981D01*
X288976Y267323D02*
Y261325D01*
X285977D01*
X284978Y262324D01*
Y264324D01*
X285977Y265323D01*
X288976D01*
X286977D02*
X284978Y267323D01*
X282978D02*
X280979D01*
X281979D01*
Y261325D01*
X282978Y262324D01*
X277980D02*
X276980Y261325D01*
X274981D01*
X273981Y262324D01*
Y263324D01*
X274981Y264324D01*
X273981Y265323D01*
Y266323D01*
X274981Y267323D01*
X276980D01*
X277980Y266323D01*
Y265323D01*
X276980Y264324D01*
X277980Y263324D01*
Y262324D01*
X276980Y264324D02*
X274981D01*
X331102Y270866D02*
X335272Y266555D01*
X333117Y264470D01*
X331703Y264493D01*
X330313Y265931D01*
X330337Y267344D01*
X332492Y269429D01*
X331055Y268039D02*
X328228Y268086D01*
X326791Y266696D02*
X325354Y265306D01*
X326072Y266001D01*
X330242Y261690D01*
X330266Y263103D01*
X327368Y258910D02*
X324494Y256130D01*
X323798Y256849D01*
X323893Y262503D01*
X323198Y263221D01*
X325197Y277165D02*
X329322Y272811D01*
X327145Y270748D01*
X325732Y270787D01*
X324357Y272238D01*
X324395Y273651D01*
X326572Y275714D01*
X325120Y274339D02*
X322294Y274415D01*
X320843Y273040D02*
X319391Y271665D01*
X320117Y272353D01*
X324242Y267998D01*
X324280Y269412D01*
X318436Y262498D02*
X319200Y264599D01*
X319276Y267425D01*
X317901Y268877D01*
X316488Y268915D01*
X315037Y267540D01*
X314999Y266127D01*
X315686Y265401D01*
X317099Y265363D01*
X319276Y267425D01*
X352756Y309055D02*
X358754Y309100D01*
X358776Y306101D01*
X357784Y305094D01*
X355785Y305079D01*
X354778Y306071D01*
X354755Y309070D01*
X354770Y307071D02*
X352786Y305057D01*
X352801Y303057D02*
X352816Y301058D01*
X352808Y302058D01*
X358806Y302102D01*
X357799Y303095D01*
X358866Y294105D02*
X358836Y298104D01*
X355837Y298081D01*
X356852Y296090D01*
X356859Y295090D01*
X355867Y294083D01*
X353868Y294068D01*
X352860Y295060D01*
X352846Y297059D01*
X353838Y298066D01*
X344094Y309449D02*
X350093D01*
Y306450D01*
X349093Y305450D01*
X347094D01*
X346094Y306450D01*
Y309449D01*
Y307450D02*
X344094Y305450D01*
Y303451D02*
Y301451D01*
Y302451D01*
X350093D01*
X349093Y303451D01*
X344094Y295453D02*
X350093D01*
X347094Y298452D01*
Y294454D01*
X340551Y350787D02*
X344792Y355029D01*
X346913Y352908D01*
Y351494D01*
X345499Y350080D01*
X344086D01*
X341965Y352201D01*
X343379Y350787D02*
Y347960D01*
X344792Y346546D02*
X346206Y345132D01*
X345499Y345839D01*
X349741Y350080D01*
X348327D01*
X351861Y346546D02*
X353275D01*
X354689Y345132D01*
Y343719D01*
X353982Y343012D01*
X352568D01*
X351861Y343719D01*
X352568Y343012D01*
Y341598D01*
X351861Y340891D01*
X350448D01*
X349034Y342305D01*
Y343719D01*
X333465Y344488D02*
X337706Y348729D01*
X339826Y346609D01*
Y345195D01*
X338413Y343781D01*
X336999D01*
X334878Y345902D01*
X336292Y344488D02*
Y341661D01*
X337706Y340247D02*
X339120Y338833D01*
X338413Y339540D01*
X342654Y343781D01*
X341240Y343781D01*
X344068Y333885D02*
X341240Y336713D01*
X346895D01*
X347602Y337419D01*
Y338833D01*
X346188Y340247D01*
X344775Y340247D01*
X361015Y355753D02*
X363842Y358581D01*
Y359995D01*
X362428Y361408D01*
X361015D01*
X358187Y358581D01*
Y357167D01*
X359601Y355753D01*
X360308Y357874D02*
Y355047D01*
X359601Y355753D02*
X361015D01*
X361722Y353633D02*
X363135Y352219D01*
X362428Y352926D01*
X366670Y357167D01*
X365256D01*
X370291Y298363D02*
X374290D01*
X375289Y299363D01*
Y301362D01*
X374290Y302362D01*
X370291D01*
X369291Y301362D01*
Y299363D01*
X371291Y300363D02*
X369291Y298363D01*
Y299363D02*
X370291Y298363D01*
X369291Y292365D02*
Y296364D01*
X373290Y292365D01*
X374290D01*
X375289Y293365D01*
Y295364D01*
X374290Y296364D01*
X336818Y253063D02*
X339263Y249899D01*
X340666Y249720D01*
X342248Y250942D01*
X342427Y252345D01*
X339982Y255508D01*
X338579Y255688D01*
X336997Y254465D01*
X339011Y253495D02*
X336206Y253854D01*
X336997Y254465D02*
X336818Y253063D01*
X337682Y248676D02*
X337502Y247274D01*
X335920Y246051D01*
X334518Y246231D01*
X333907Y247022D01*
X334086Y248424D01*
X334877Y249035D01*
X334086Y248424D01*
X332684Y248603D01*
X332072Y249394D01*
X332252Y250797D01*
X333834Y252019D01*
X335236Y251840D01*
X278251Y239304D02*
X278106Y235308D01*
X279068Y234272D01*
X281066Y234200D01*
X282102Y235162D01*
X282247Y239159D01*
X281284Y240194D01*
X279286Y240266D01*
X280213Y238232D02*
X278287Y240303D01*
X279286Y240266D02*
X278251Y239304D01*
X273292Y240484D02*
X273074Y234490D01*
X276180Y237378D01*
X272184Y237524D01*
X232372Y273114D02*
X229443Y270392D01*
X229392Y268979D01*
X230753Y267515D01*
X232166Y267463D01*
X235094Y270186D01*
X235146Y271598D01*
X233785Y273063D01*
X233001Y270969D02*
X233104Y273795D01*
X233785Y273063D02*
X232372Y273114D01*
X224627Y274105D02*
X227350Y271176D01*
X229547Y273218D01*
X227453Y274002D01*
X226773Y274734D01*
X226824Y276147D01*
X228289Y277508D01*
X229701Y277456D01*
X231063Y275992D01*
X231011Y274579D01*
X221524Y331184D02*
X217526Y331267D01*
X216506Y330288D01*
X216465Y328289D01*
X217444Y327269D01*
X221442Y327186D01*
X222462Y328165D01*
X222503Y330164D01*
X220483Y329206D02*
X222524Y331163D01*
X222503Y330164D02*
X221524Y331184D01*
X216651Y337284D02*
X217609Y335264D01*
X219567Y333224D01*
X221566Y333183D01*
X222586Y334162D01*
X222627Y336160D01*
X221649Y337181D01*
X220649Y337201D01*
X219629Y336223D01*
X219567Y333224D01*
X254140Y377242D02*
X251707Y380415D01*
X250305Y380601D01*
X248719Y379384D01*
X248534Y377982D01*
X250967Y374809D01*
X252368Y374624D01*
X253955Y375840D01*
X251945Y376819D02*
X254748Y376449D01*
X253955Y375840D02*
X254140Y377242D01*
X252685Y382425D02*
X255859Y384858D01*
X256467Y384065D01*
X255727Y378458D01*
X256335Y377665D01*
X288644Y410904D02*
X287645Y411904D01*
X285645D01*
X284646Y410904D01*
Y409904D01*
X285645Y408905D01*
X287645D01*
X288644Y407905D01*
Y406905D01*
X287645Y405905D01*
X285645D01*
X284646Y406905D01*
X290644Y405905D02*
Y411904D01*
X292643Y409904D01*
X294642Y411904D01*
Y405905D01*
X296642D02*
Y409904D01*
X298641Y411904D01*
X300641Y409904D01*
Y405905D01*
Y408905D01*
X296642D01*
X302640Y410904D02*
X303640Y411904D01*
X305639D01*
X306639Y410904D01*
Y406905D01*
X305639Y405905D01*
X303640D01*
X302640Y406905D01*
Y410904D01*
X301969Y371654D02*
Y377652D01*
X304967D01*
X305967Y376652D01*
Y374653D01*
X304967Y373653D01*
X301969D01*
X303968D02*
X305967Y371654D01*
X307967D02*
X309966D01*
X308966D01*
Y377652D01*
X307967Y376652D01*
X312965Y371654D02*
X314964D01*
X313965D01*
Y377652D01*
X312965Y376652D01*
X302362Y363779D02*
Y369778D01*
X305361D01*
X306361Y368778D01*
Y366779D01*
X305361Y365779D01*
X302362D01*
X304362D02*
X306361Y363779D01*
X308360D02*
X310360D01*
X309360D01*
Y369778D01*
X308360Y368778D01*
X313359D02*
X314358Y369778D01*
X316358D01*
X317357Y368778D01*
Y364779D01*
X316358Y363779D01*
X314358D01*
X313359Y364779D01*
Y368778D01*
X276694Y348024D02*
X280692Y344026D01*
X276694D02*
X280692Y348024D01*
X276694Y346025D02*
X280692D01*
X278693Y344026D02*
Y348024D01*
X307542Y385252D02*
Y389250D01*
X306542Y390250D01*
X304543D01*
X303543Y389250D01*
Y385252D01*
X304543Y384252D01*
X306542D01*
X305543Y386251D02*
X307542Y384252D01*
X306542D02*
X307542Y385252D01*
X309541Y389250D02*
X310541Y390250D01*
X312540D01*
X313540Y389250D01*
Y385252D01*
X312540Y384252D01*
X310541D01*
X309541Y385252D01*
Y389250D01*
X256453Y345611D02*
X254454D01*
X255453D01*
Y340612D01*
X254454Y339613D01*
X253454D01*
X252454Y340612D01*
X262451Y339613D02*
X258452D01*
X262451Y343611D01*
Y344611D01*
X261451Y345611D01*
X259452D01*
X258452Y344611D01*
X330951Y350300D02*
X328952D01*
X329952D01*
Y345301D01*
X328952Y344302D01*
X327952D01*
X326953Y345301D01*
X332951Y344302D02*
X334950D01*
X333950D01*
Y350300D01*
X332951Y349300D01*
X318110Y290846D02*
Y296845D01*
X321109D01*
X322109Y295845D01*
Y293846D01*
X321109Y292846D01*
X318110D01*
X320110D02*
X322109Y290846D01*
X328107Y296845D02*
X326108Y295845D01*
X324108Y293846D01*
Y291846D01*
X325108Y290846D01*
X327107D01*
X328107Y291846D01*
Y292846D01*
X327107Y293846D01*
X324108D01*
X298819Y305512D02*
Y311510D01*
X301818D01*
X302818Y310510D01*
Y308511D01*
X301818Y307511D01*
X298819D01*
X300818D02*
X302818Y305512D01*
X304817Y311510D02*
X308816D01*
Y310510D01*
X304817Y306511D01*
Y305512D01*
X323782Y286888D02*
X322782Y287888D01*
X320783D01*
X319783Y286888D01*
Y282889D01*
X320783Y281890D01*
X322782D01*
X323782Y282889D01*
X329780Y281890D02*
X325781D01*
X329780Y285889D01*
Y286888D01*
X328781Y287888D01*
X326781D01*
X325781Y286888D01*
X313743Y303817D02*
X312743Y304817D01*
X310744D01*
X309744Y303817D01*
Y299819D01*
X310744Y298819D01*
X312743D01*
X313743Y299819D01*
X315742Y303817D02*
X316742Y304817D01*
X318741D01*
X319741Y303817D01*
Y302818D01*
X318741Y301818D01*
X317741D01*
X318741D01*
X319741Y300818D01*
Y299819D01*
X318741Y298819D01*
X316742D01*
X315742Y299819D01*
X313447Y274487D02*
X312448Y275486D01*
X310449D01*
X309449Y274487D01*
Y270488D01*
X310449Y269488D01*
X312448D01*
X313447Y270488D01*
X318446Y269488D02*
Y275486D01*
X315447Y272487D01*
X319446D01*
D27*
X239151Y362340D02*
X241378Y360113D01*
X239151Y362340D02*
X241378Y364567D01*
X247503Y370691D02*
X249730Y368464D01*
X245276Y368464D02*
X247503Y370691D01*
X221654Y309055D02*
X224803D01*
X221654D02*
Y312205D01*
Y320866D02*
X224803D01*
X221654Y317717D02*
Y320866D01*
X247109Y258836D02*
X249336Y261063D01*
X244882D02*
X247109Y258836D01*
X238757Y267188D02*
X240985Y269415D01*
X238757Y267188D02*
X240985Y264961D01*
X301181Y241339D02*
Y244488D01*
X298031Y241339D02*
X301181D01*
X289370D02*
Y244488D01*
Y241339D02*
X292520D01*
X348779Y269021D02*
X351006Y266794D01*
X348779Y264567D02*
X351006Y266794D01*
X340428Y260669D02*
X342655Y258442D01*
X344882Y260669D01*
X365748Y320866D02*
X368898D01*
Y317717D02*
Y320866D01*
X365748Y309055D02*
X368898D01*
Y312205D01*
X340428Y369252D02*
X342655Y371479D01*
X344882Y369252D01*
X348779Y360900D02*
X351006Y363127D01*
X348779Y365354D02*
X351006Y363127D01*
X289764Y385039D02*
Y388189D01*
X292913D01*
X301575Y385039D02*
Y388189D01*
X298425D02*
X301575D01*
X326890Y308819D02*
Y340315D01*
Y308819D02*
X336890D01*
Y340315D01*
X326890D02*
X336890D01*
D42*
X243541Y356772D02*
G03*
X243541Y356772I-492J0D01*
G01*
X228839Y307874D02*
G03*
X228839Y307874I-492J0D01*
G01*
X253169Y262734D02*
G03*
X253169Y262734I-492J0D01*
G01*
X302854Y248031D02*
G03*
X302854Y248031I-492J0D01*
G01*
X347601Y272362D02*
G03*
X347601Y272362I-492J0D01*
G01*
X362697Y322047D02*
G03*
X362697Y322047I-492J0D01*
G01*
X337579Y367581D02*
G03*
X337579Y367581I-492J0D01*
G01*
X289075Y381496D02*
G03*
X289075Y381496I-492J0D01*
G01*
D43*
X309842Y279134D02*
G03*
X309842Y279134I-787J0D01*
G01*
D44*
X276445Y340189D02*
X317445D01*
X276445Y311189D02*
Y340189D01*
Y311189D02*
X317445D01*
Y340189D01*
M02*
