G04 Layer_Color=13813960*
%FSLAX25Y25*%
%MOIN*%
G70*
G01*
G75*
%ADD26C,0.01000*%
D26*
X340945Y300394D02*
Y330709D01*
Y300394D02*
X362598D01*
Y330709D01*
X340945D02*
X362598D01*
X248425Y304331D02*
Y334646D01*
X226772D02*
X248425D01*
X226772Y304331D02*
Y334646D01*
Y304331D02*
X248425D01*
X248601Y347326D02*
X250601D01*
X249601D01*
Y342327D01*
X250601Y341328D01*
X251600D01*
X252600Y342327D01*
X246602Y346326D02*
X245602Y347326D01*
X243603D01*
X242603Y346326D01*
Y345326D01*
X244603Y343327D01*
Y342327D02*
Y341328D01*
X359630Y343750D02*
X361629D01*
X360629D01*
Y338752D01*
X361629Y337752D01*
X362629D01*
X363628Y338752D01*
X357630Y342750D02*
X356631Y343750D01*
X354631D01*
X353632Y342750D01*
Y341751D01*
X355631Y339751D01*
Y338752D02*
Y337752D01*
X322835Y352849D02*
Y346850D01*
X318836D01*
X313838D02*
X315837D01*
X316837Y347850D01*
Y349849D01*
X315837Y350849D01*
X313838D01*
X312838Y349849D01*
Y348850D01*
X316837D01*
X309839Y350849D02*
X307839D01*
X306840Y349849D01*
Y346850D01*
X309839D01*
X310839Y347850D01*
X309839Y348850D01*
X306840D01*
X304840Y346850D02*
Y350849D01*
X301841D01*
X300842Y349849D01*
Y346850D01*
X292844Y350849D02*
Y347850D01*
X291845Y346850D01*
X290845Y347850D01*
X289845Y346850D01*
X288846Y347850D01*
Y350849D01*
X286846Y346850D02*
X284847D01*
X285847D01*
Y350849D01*
X286846D01*
X280848Y351849D02*
Y350849D01*
X281848D01*
X279849D01*
X280848D01*
Y347850D01*
X279849Y346850D01*
X270851D02*
X268852D01*
X269852D01*
Y350849D01*
X270851D01*
X264853Y351849D02*
Y350849D01*
X265853D01*
X263854D01*
X264853D01*
Y347850D01*
X263854Y346850D01*
X322441Y336614D02*
Y342612D01*
X319442D01*
X318442Y341613D01*
Y339613D01*
X319442Y338614D01*
X322441D01*
X320442D02*
X318442Y336614D01*
X315443D02*
X313444D01*
X312444Y337614D01*
Y339613D01*
X313444Y340613D01*
X315443D01*
X316443Y339613D01*
Y337614D01*
X315443Y336614D01*
X306446Y340613D02*
X309445D01*
X310445Y339613D01*
Y337614D01*
X309445Y336614D01*
X306446D01*
X304447D02*
Y342612D01*
Y338614D02*
X301448Y340613D01*
X304447Y338614D02*
X301448Y336614D01*
X292451Y340613D02*
Y337614D01*
X291451Y336614D01*
X290451Y337614D01*
X289452Y336614D01*
X288452Y337614D01*
Y340613D01*
X286453Y336614D02*
X284453D01*
X285453D01*
Y340613D01*
X286453D01*
X280454Y341613D02*
Y340613D01*
X281454D01*
X279455D01*
X280454D01*
Y337614D01*
X279455Y336614D01*
X270458D02*
X268458D01*
X269458D01*
Y340613D01*
X270458D01*
X264460Y341613D02*
Y340613D01*
X265459D01*
X263460D01*
X264460D01*
Y337614D01*
X263460Y336614D01*
X321260Y326772D02*
Y332770D01*
X318261D01*
X317261Y331770D01*
Y329771D01*
X318261Y328771D01*
X321260D01*
X319261D02*
X317261Y326772D01*
X314262D02*
X312263D01*
X311263Y327771D01*
Y329771D01*
X312263Y330770D01*
X314262D01*
X315262Y329771D01*
Y327771D01*
X314262Y326772D01*
X309264D02*
X307264D01*
X308264D01*
Y332770D01*
X309264D01*
X304265Y326772D02*
X302266D01*
X303266D01*
Y332770D01*
X304265D01*
X293269Y330770D02*
Y327771D01*
X292269Y326772D01*
X291269Y327771D01*
X290270Y326772D01*
X289270Y327771D01*
Y330770D01*
X287271Y326772D02*
X285272D01*
X286271D01*
Y330770D01*
X287271D01*
X281273Y331770D02*
Y330770D01*
X282273D01*
X280273D01*
X281273D01*
Y327771D01*
X280273Y326772D01*
X271276D02*
X269277D01*
X270276D01*
Y330770D01*
X271276D01*
X265278Y331770D02*
Y330770D01*
X266278D01*
X264278D01*
X265278D01*
Y327771D01*
X264278Y326772D01*
X317655Y321927D02*
X318654Y322927D01*
X320654D01*
X321654Y321927D01*
Y320928D01*
X320654Y319928D01*
X318654D01*
X317655Y318929D01*
Y317929D01*
X318654Y316929D01*
X320654D01*
X321654Y317929D01*
X315655Y320928D02*
Y317929D01*
X314656Y316929D01*
X313656Y317929D01*
X312656Y316929D01*
X311657Y317929D01*
Y320928D01*
X309657Y316929D02*
X307658D01*
X308658D01*
Y320928D01*
X309657D01*
X304659Y316929D02*
Y320928D01*
X303659D01*
X302660Y319928D01*
Y316929D01*
Y319928D01*
X301660Y320928D01*
X300660Y319928D01*
Y316929D01*
X292663Y320928D02*
Y317929D01*
X291663Y316929D01*
X290664Y317929D01*
X289664Y316929D01*
X288664Y317929D01*
Y320928D01*
X286665Y316929D02*
X284665D01*
X285665D01*
Y320928D01*
X286665D01*
X280667Y321927D02*
Y320928D01*
X281666D01*
X279667D01*
X280667D01*
Y317929D01*
X279667Y316929D01*
X270670D02*
X268671D01*
X269670D01*
Y320928D01*
X270670D01*
X264672Y321927D02*
Y320928D01*
X265672D01*
X263672D01*
X264672D01*
Y317929D01*
X263672Y316929D01*
X341671Y284738D02*
Y278740D01*
X344670D01*
X345669Y279740D01*
Y281739D01*
X344670Y282739D01*
X341671D01*
X336672Y278740D02*
X338671D01*
X339671Y279740D01*
Y281739D01*
X338671Y282739D01*
X336672D01*
X335672Y281739D01*
Y280739D01*
X339671D01*
X333673Y278740D02*
Y282739D01*
X332674D01*
X331674Y281739D01*
Y278740D01*
Y281739D01*
X330674Y282739D01*
X329675Y281739D01*
Y278740D01*
X320677D02*
Y283738D01*
Y281739D01*
X321677D01*
X319678D01*
X320677D01*
Y283738D01*
X319678Y284738D01*
X316679Y282739D02*
Y278740D01*
Y280739D01*
X315679Y281739D01*
X314679Y282739D01*
X313680D01*
X309681D02*
X307682D01*
X306682Y281739D01*
Y278740D01*
X309681D01*
X310681Y279740D01*
X309681Y280739D01*
X306682D01*
X304682Y278740D02*
Y282739D01*
X301683D01*
X300684Y281739D01*
Y278740D01*
X294686Y282739D02*
X297685D01*
X298685Y281739D01*
Y279740D01*
X297685Y278740D01*
X294686D01*
X292686Y284738D02*
Y278740D01*
Y281739D01*
X291687Y282739D01*
X289687D01*
X288688Y281739D01*
Y278740D01*
X286688D02*
X284689D01*
X285689D01*
Y282739D01*
X286688D01*
X281690D02*
X277691D01*
X281690Y278740D01*
X277691D01*
X272693D02*
X274692D01*
X275692Y279740D01*
Y281739D01*
X274692Y282739D01*
X272693D01*
X271693Y281739D01*
Y280739D01*
X275692D01*
X263696Y284738D02*
Y278740D01*
X260697D01*
X259697Y279740D01*
Y280739D01*
Y281739D01*
X260697Y282739D01*
X263696D01*
X256698Y278740D02*
X254699D01*
X253699Y279740D01*
Y281739D01*
X254699Y282739D01*
X256698D01*
X257698Y281739D01*
Y279740D01*
X256698Y278740D01*
X251700Y282739D02*
Y279740D01*
X250700Y278740D01*
X247701D01*
Y277741D01*
X248701Y276741D01*
X249700D01*
X247701Y278740D02*
Y282739D01*
X245702D02*
X241703D01*
X245702Y278740D01*
X241703D01*
M02*
