G04 Layer_Physical_Order=2*
G04 Layer_Color=11436288*
%FSLAX25Y25*%
%MOIN*%
G70*
G01*
G75*
%ADD26C,0.01000*%
%ADD27C,0.00787*%
%ADD29C,0.06000*%
%ADD30C,0.06500*%
%ADD31P,0.09192X4X270.0*%
%ADD32R,0.06500X0.06500*%
%ADD33P,0.09192X4X360.0*%
%ADD34R,0.06500X0.06500*%
%ADD35R,0.06102X0.06102*%
%ADD36C,0.06102*%
%ADD37C,0.05000*%
%ADD38C,0.02000*%
%ADD39C,0.01394*%
%ADD40R,0.11811X0.08268*%
%ADD41R,0.07087X0.02362*%
D26*
X324803Y362598D02*
X331496D01*
X345669Y348425D01*
Y321654D02*
Y348425D01*
X342126Y318110D02*
X345669Y321654D01*
X342126Y306693D02*
Y313189D01*
X329921Y294488D02*
X342126Y306693D01*
X269685Y294488D02*
X329921D01*
X247244Y316929D02*
X269685Y294488D01*
X224853Y321850D02*
X247244D01*
D27*
X320276Y350984D02*
X327953Y343307D01*
X340945D01*
X321654Y303150D02*
Y321260D01*
X324961Y324567D01*
X331890D01*
X340945Y343307D02*
X342520Y341732D01*
Y327953D02*
Y341732D01*
X230709Y343898D02*
X274213D01*
D29*
X220472Y290945D02*
D03*
X229921Y287795D02*
D03*
X362598Y336221D02*
D03*
X367717Y344094D02*
D03*
D30*
X232291Y370874D02*
D03*
X211024Y309961D02*
D03*
X239362Y251976D02*
D03*
X300276Y230315D02*
D03*
X357866Y259047D02*
D03*
X379134Y319961D02*
D03*
X350795Y377551D02*
D03*
X290276Y398819D02*
D03*
X257480Y320590D02*
D03*
D31*
X239362Y377945D02*
D03*
X350795Y251976D02*
D03*
D32*
X211024Y319961D02*
D03*
X379134Y309961D02*
D03*
X257480Y330591D02*
D03*
D33*
X232291Y259047D02*
D03*
X357866Y370480D02*
D03*
D34*
X290276Y230315D02*
D03*
X300276Y398819D02*
D03*
D35*
X331890Y314567D02*
D03*
D36*
Y324567D02*
D03*
Y334567D02*
D03*
D37*
X324803Y362598D02*
D03*
X321654Y303150D02*
D03*
X309842Y384252D02*
D03*
X352362Y357087D02*
D03*
X311417Y392520D02*
D03*
X253543Y381102D02*
D03*
X256299Y374016D02*
D03*
X218504Y331102D02*
D03*
X225984Y329528D02*
D03*
X229134Y272047D02*
D03*
X237008Y274803D02*
D03*
X278346Y238583D02*
D03*
X280709Y245276D02*
D03*
X331496Y254331D02*
D03*
X337795Y248819D02*
D03*
X361417Y291339D02*
D03*
X371654Y296063D02*
D03*
X364567Y301969D02*
D03*
D38*
X320276Y350984D02*
D03*
X342520Y327559D02*
D03*
X274213Y343898D02*
D03*
D39*
X366230Y314961D02*
G03*
X366230Y314961I-70955J0D01*
G01*
X373720D02*
G03*
X373720Y314961I-78444J0D01*
G01*
D40*
X353937Y328150D02*
D03*
Y303150D02*
D03*
X235433Y306890D02*
D03*
Y331890D02*
D03*
D41*
X342126Y313189D02*
D03*
Y318110D02*
D03*
X247244Y321850D02*
D03*
Y316929D02*
D03*
M02*
