G04 Layer_Color=8150272*
%FSLAX25Y25*%
%MOIN*%
G70*
G01*
G75*
%ADD47R,0.03477X0.03320*%
%ADD62C,0.06902*%
%ADD63R,0.06902X0.06902*%
%ADD64R,0.07300X0.07300*%
%ADD65C,0.07300*%
%ADD66R,0.07300X0.07300*%
%ADD67C,0.06800*%
%ADD68P,0.10324X4X180.0*%
%ADD69P,0.10324X4X90.0*%
%ADD70C,0.05800*%
%ADD71C,0.02800*%
G04:AMPARAMS|DCode=72|XSize=31.62mil|YSize=78.87mil|CornerRadius=0mil|HoleSize=0mil|Usage=FLASHONLY|Rotation=202.500|XOffset=0mil|YOffset=0mil|HoleType=Round|Shape=Rectangle|*
%AMROTATEDRECTD72*
4,1,4,-0.00048,0.04248,0.02970,-0.03038,0.00048,-0.04248,-0.02970,0.03038,-0.00048,0.04248,0.0*
%
%ADD72ROTATEDRECTD72*%

G04:AMPARAMS|DCode=73|XSize=90.68mil|YSize=126.11mil|CornerRadius=0mil|HoleSize=0mil|Usage=FLASHONLY|Rotation=202.500|XOffset=0mil|YOffset=0mil|HoleType=Round|Shape=Rectangle|*
%AMROTATEDRECTD73*
4,1,4,0.01776,0.07561,0.06602,-0.04091,-0.01776,-0.07561,-0.06602,0.04091,0.01776,0.07561,0.0*
%
%ADD73ROTATEDRECTD73*%

%ADD74R,0.04343X0.03359*%
D47*
X283701Y324803D02*
D03*
X287165D02*
D03*
D62*
X331890Y334567D02*
D03*
Y324567D02*
D03*
D63*
Y314567D02*
D03*
D64*
X257480Y330591D02*
D03*
X379134Y309961D02*
D03*
X211024Y319961D02*
D03*
D65*
X257480Y320590D02*
D03*
X290276Y398819D02*
D03*
X350795Y377551D02*
D03*
X379134Y319961D02*
D03*
X357866Y259047D02*
D03*
X300276Y230315D02*
D03*
X239362Y251976D02*
D03*
X211024Y309961D02*
D03*
X232291Y370874D02*
D03*
D66*
X300276Y398819D02*
D03*
X290276Y230315D02*
D03*
D67*
X367717Y344094D02*
D03*
X362598Y336221D02*
D03*
X229921Y287795D02*
D03*
X220472Y290945D02*
D03*
D68*
X357866Y370480D02*
D03*
X232291Y259047D02*
D03*
D69*
X350795Y251976D02*
D03*
X239362Y377945D02*
D03*
D70*
X364567Y301969D02*
D03*
X371654Y296063D02*
D03*
X361417Y291339D02*
D03*
X337795Y248819D02*
D03*
X331496Y254331D02*
D03*
X280709Y245276D02*
D03*
X278346Y238583D02*
D03*
X237008Y274803D02*
D03*
X229134Y272047D02*
D03*
X225984Y329528D02*
D03*
X218504Y331102D02*
D03*
X256299Y374016D02*
D03*
X253543Y381102D02*
D03*
X311417Y392520D02*
D03*
X352362Y357087D02*
D03*
X309842Y384252D02*
D03*
X321654Y303150D02*
D03*
X324803Y362598D02*
D03*
D71*
X274213Y343898D02*
D03*
X342520Y327559D02*
D03*
X320276Y350984D02*
D03*
D72*
X318504Y272441D02*
D03*
X313957Y270558D02*
D03*
X277559Y358661D02*
D03*
X282106Y360545D02*
D03*
D73*
X309202Y255804D02*
D03*
X332299Y265371D02*
D03*
X286861Y375299D02*
D03*
X263764Y365732D02*
D03*
D74*
X301969Y325000D02*
D03*
Y332480D02*
D03*
X292520Y332480D02*
D03*
Y328740D02*
D03*
Y325000D02*
D03*
M02*
