G04 Layer_Color=13813960*
%FSLAX25Y25*%
%MOIN*%
G70*
G01*
G75*
%ADD26C,0.01000*%
%ADD27C,0.00787*%
%ADD44C,0.00984*%
D26*
X329691Y278353D02*
X337978Y258348D01*
X309970Y246747D02*
X337978Y258348D01*
X301684Y266752D02*
X309970Y246747D01*
X301684Y266752D02*
X329691Y278353D01*
X258085Y372754D02*
X266372Y352749D01*
X258085Y372754D02*
X286092Y384355D01*
X294379Y364350D01*
X266372Y352749D02*
X294379Y364350D01*
X364355Y300787D02*
X362355D01*
X361356Y301787D01*
Y303786D01*
X362355Y304786D01*
X364355D01*
X365354Y303786D01*
Y301787D01*
X364355Y300787D01*
X358357D02*
Y305786D01*
Y303786D01*
X359356D01*
X357357D01*
X358357D01*
Y305786D01*
X357357Y306785D01*
X348360Y300787D02*
Y304786D01*
X347360D01*
X346360Y303786D01*
Y300787D01*
Y303786D01*
X345361Y304786D01*
X344361Y303786D01*
Y300787D01*
X342362Y304786D02*
Y301787D01*
X341362Y300787D01*
X338363D01*
Y299788D01*
X339363Y298788D01*
X340362D01*
X338363Y300787D02*
Y304786D01*
X330366Y300787D02*
Y304786D01*
X329366D01*
X328366Y303786D01*
Y300787D01*
Y303786D01*
X327367Y304786D01*
X326367Y303786D01*
Y300787D01*
X324368D02*
X322368D01*
X323368D01*
Y304786D01*
X324368D01*
X319369Y300787D02*
Y304786D01*
X316370D01*
X315370Y303786D01*
Y300787D01*
X309372Y306785D02*
Y300787D01*
X312371D01*
X313371Y301787D01*
Y303786D01*
X312371Y304786D01*
X309372D01*
X300375D02*
X298376D01*
X297376Y303786D01*
Y300787D01*
X300375D01*
X301375Y301787D01*
X300375Y302787D01*
X297376D01*
X295377Y304786D02*
Y300787D01*
Y302787D01*
X294377Y303786D01*
X293378Y304786D01*
X292378D01*
X286380Y300787D02*
X288379D01*
X289379Y301787D01*
Y303786D01*
X288379Y304786D01*
X286380D01*
X285380Y303786D01*
Y302787D01*
X289379D01*
X276383Y304786D02*
X274384D01*
X273384Y303786D01*
Y300787D01*
X276383D01*
X277383Y301787D01*
X276383Y302787D01*
X273384D01*
X271385Y300787D02*
Y304786D01*
X268386D01*
X267386Y303786D01*
Y300787D01*
X256390D02*
X258389D01*
X259389Y301787D01*
Y303786D01*
X258389Y304786D01*
X256390D01*
X255390Y303786D01*
Y302787D01*
X259389D01*
X253391Y300787D02*
Y304786D01*
X250392D01*
X249392Y303786D01*
Y300787D01*
X247393D02*
X245393D01*
X246393D01*
Y304786D01*
X247393D01*
X240395Y298788D02*
X239395D01*
X238395Y299788D01*
Y304786D01*
X241394D01*
X242394Y303786D01*
Y301787D01*
X241394Y300787D01*
X238395D01*
X236396D02*
Y304786D01*
X235396D01*
X234397Y303786D01*
Y300787D01*
Y303786D01*
X233397Y304786D01*
X232397Y303786D01*
Y300787D01*
X229398Y304786D02*
X227399D01*
X226399Y303786D01*
Y300787D01*
X229398D01*
X230398Y301787D01*
X229398Y302787D01*
X226399D01*
X349938Y267415D02*
X351938D01*
X350938D01*
Y262417D01*
X351938Y261417D01*
X352937D01*
X353937Y262417D01*
X347939Y267415D02*
Y261417D01*
X344940D01*
X343940Y262417D01*
Y263417D01*
X344940Y264416D01*
X347939D01*
X344940D01*
X343940Y265416D01*
Y266416D01*
X344940Y267415D01*
X347939D01*
X337942Y261417D02*
X341941D01*
X337942Y265416D01*
Y266416D01*
X338942Y267415D01*
X340941D01*
X341941Y266416D01*
X284308Y334848D02*
X285307Y335848D01*
X287307D01*
X288306Y334848D01*
Y330849D01*
X287307Y329850D01*
X285307D01*
X284308Y330849D01*
X278309Y335848D02*
X282308D01*
Y332849D01*
X280309Y333848D01*
X279309D01*
X278309Y332849D01*
Y330849D01*
X279309Y329850D01*
X281309D01*
X282308Y330849D01*
X303257Y344297D02*
Y339299D01*
X302257Y338299D01*
X300258D01*
X299258Y339299D01*
Y344297D01*
X297259Y338299D02*
X295259D01*
X296259D01*
Y344297D01*
X297259Y343298D01*
X294582Y396563D02*
X296581D01*
X295582D01*
Y391564D01*
X296581Y390565D01*
X297581D01*
X298581Y391564D01*
X292583Y396563D02*
Y390565D01*
X289583D01*
X288584Y391564D01*
Y392564D01*
X289583Y393564D01*
X292583D01*
X289583D01*
X288584Y394563D01*
Y395563D01*
X289583Y396563D01*
X292583D01*
X286584Y390565D02*
X284585D01*
X285585D01*
Y396563D01*
X286584Y395563D01*
X360630Y313872D02*
X356631D01*
X358631D01*
Y307874D01*
X354632Y313872D02*
Y307874D01*
Y310873D01*
X353632Y311873D01*
X351633D01*
X350633Y310873D01*
Y307874D01*
X345635D02*
X347634D01*
X348634Y308874D01*
Y310873D01*
X347634Y311873D01*
X345635D01*
X344635Y310873D01*
Y309873D01*
X348634D01*
X336638Y307874D02*
X334638D01*
X335638D01*
Y311873D01*
X336638D01*
X331639Y307874D02*
Y311873D01*
X328640D01*
X327641Y310873D01*
Y307874D01*
X325641D02*
Y311873D01*
X322642D01*
X321642Y310873D01*
Y307874D01*
X316644D02*
X318643D01*
X319643Y308874D01*
Y310873D01*
X318643Y311873D01*
X316644D01*
X315645Y310873D01*
Y309873D01*
X319643D01*
X313645Y311873D02*
Y307874D01*
Y309873D01*
X312645Y310873D01*
X311646Y311873D01*
X310646D01*
X301649Y307874D02*
Y311873D01*
X300649D01*
X299650Y310873D01*
Y307874D01*
Y310873D01*
X298650Y311873D01*
X297650Y310873D01*
Y307874D01*
X294651Y311873D02*
X292652D01*
X291652Y310873D01*
Y307874D01*
X294651D01*
X295651Y308874D01*
X294651Y309873D01*
X291652D01*
X285654Y311873D02*
X288653D01*
X289653Y310873D01*
Y308874D01*
X288653Y307874D01*
X285654D01*
X283655Y313872D02*
Y307874D01*
Y310873D01*
X282655Y311873D01*
X280656D01*
X279656Y310873D01*
Y307874D01*
X277657D02*
X275657D01*
X276657D01*
Y311873D01*
X277657D01*
X272658Y307874D02*
Y311873D01*
X269659D01*
X268660Y310873D01*
Y307874D01*
X265661Y311873D02*
X263661D01*
X262662Y310873D01*
Y307874D01*
X265661D01*
X266660Y308874D01*
X265661Y309873D01*
X262662D01*
X259663Y312872D02*
Y311873D01*
X260662D01*
X258663D01*
X259663D01*
Y308874D01*
X258663Y307874D01*
X255664D02*
X253664D01*
X254664D01*
Y311873D01*
X255664D01*
X249666Y307874D02*
X247667D01*
X246667Y308874D01*
Y310873D01*
X247667Y311873D01*
X249666D01*
X250665Y310873D01*
Y308874D01*
X249666Y307874D01*
X244667D02*
Y311873D01*
X241668D01*
X240669Y310873D01*
Y307874D01*
X238669D02*
X235670D01*
X234671Y308874D01*
X235670Y309873D01*
X237670D01*
X238669Y310873D01*
X237670Y311873D01*
X234671D01*
D27*
X298622Y322638D02*
Y334842D01*
X295866Y322638D02*
Y334842D01*
X298622D01*
X295866Y322638D02*
X298622D01*
D44*
X293012Y321555D02*
G03*
X293012Y321555I-492J0D01*
G01*
M02*
