G04 Layer_Physical_Order=2*
G04 Layer_Color=11436288*
%FSLAX25Y25*%
%MOIN*%
G70*
G01*
G75*
%ADD11R,0.02677X0.02520*%
%ADD26C,0.01000*%
%ADD27C,0.00787*%
%ADD29C,0.06102*%
%ADD30R,0.06102X0.06102*%
%ADD31R,0.06500X0.06500*%
%ADD32C,0.06500*%
%ADD33R,0.06500X0.06500*%
%ADD34C,0.06000*%
%ADD35P,0.09192X4X180.0*%
%ADD36P,0.09192X4X90.0*%
%ADD37C,0.05000*%
%ADD38C,0.02000*%
%ADD39C,0.01394*%
G04:AMPARAMS|DCode=40|XSize=23.62mil|YSize=70.87mil|CornerRadius=0mil|HoleSize=0mil|Usage=FLASHONLY|Rotation=202.500|XOffset=0mil|YOffset=0mil|HoleType=Round|Shape=Rectangle|*
%AMROTATEDRECTD40*
4,1,4,-0.00265,0.03726,0.02447,-0.02822,0.00265,-0.03726,-0.02447,0.02822,-0.00265,0.03726,0.0*
%
%ADD40ROTATEDRECTD40*%

G04:AMPARAMS|DCode=41|XSize=82.68mil|YSize=118.11mil|CornerRadius=0mil|HoleSize=0mil|Usage=FLASHONLY|Rotation=202.500|XOffset=0mil|YOffset=0mil|HoleType=Round|Shape=Rectangle|*
%AMROTATEDRECTD41*
4,1,4,0.01559,0.07038,0.06079,-0.03874,-0.01559,-0.07038,-0.06079,0.03874,0.01559,0.07038,0.0*
%
%ADD41ROTATEDRECTD41*%

%ADD42R,0.03543X0.02559*%
D11*
X283701Y324803D02*
D03*
X287165D02*
D03*
D26*
X345669Y299606D02*
Y348425D01*
X331496Y362598D02*
X345669Y348425D01*
X324803Y362598D02*
X331496D01*
X292913Y332480D02*
Y344587D01*
X310925Y362598D01*
X324803D01*
X292913Y325000D02*
X296654D01*
Y332480D01*
X296457Y332677D02*
X296654Y332480D01*
X293110Y332677D02*
X296457D01*
X277559Y306956D02*
X313957Y270558D01*
X277559Y306956D02*
Y358661D01*
X318504Y272441D02*
X345669Y299606D01*
X287165Y324803D02*
X292323D01*
X292520Y325000D01*
D27*
X342520Y327953D02*
Y341732D01*
X340945Y343307D02*
X342520Y341732D01*
X324961Y324567D02*
X331890D01*
X321654Y321260D02*
X324961Y324567D01*
X321654Y303150D02*
Y321260D01*
X327953Y343307D02*
X340945D01*
X320276Y350984D02*
X327953Y343307D01*
X302362Y325000D02*
X331457D01*
X260170Y343898D02*
X274213D01*
X246864Y357204D02*
X260170Y343898D01*
X238512Y357204D02*
X246864D01*
X280709Y361942D02*
X282106Y360545D01*
X280709Y361942D02*
Y368110D01*
X268856Y379963D02*
X280709Y368110D01*
X268856Y379963D02*
Y380813D01*
X287008Y328740D02*
X292913D01*
X282106Y333642D02*
Y360545D01*
X283701Y324803D02*
Y332047D01*
X282106Y333642D02*
X283701Y332047D01*
X287008Y328740D01*
D29*
X331890Y334567D02*
D03*
Y324567D02*
D03*
D30*
Y314567D02*
D03*
D31*
X257480Y330591D02*
D03*
X379134Y309961D02*
D03*
X211024Y319961D02*
D03*
D32*
X257480Y320590D02*
D03*
X290276Y398819D02*
D03*
X350795Y377551D02*
D03*
X379134Y319961D02*
D03*
X357866Y259047D02*
D03*
X300276Y230315D02*
D03*
X239362Y251976D02*
D03*
X211024Y309961D02*
D03*
X232291Y370874D02*
D03*
D33*
X300276Y398819D02*
D03*
X290276Y230315D02*
D03*
D34*
X367717Y344094D02*
D03*
X362598Y336221D02*
D03*
X229921Y287795D02*
D03*
X220472Y290945D02*
D03*
D35*
X357866Y370480D02*
D03*
X232291Y259047D02*
D03*
D36*
X350795Y251976D02*
D03*
X239362Y377945D02*
D03*
D37*
X364567Y301969D02*
D03*
X371654Y296063D02*
D03*
X361417Y291339D02*
D03*
X337795Y248819D02*
D03*
X331496Y254331D02*
D03*
X280709Y245276D02*
D03*
X278346Y238583D02*
D03*
X237008Y274803D02*
D03*
X229134Y272047D02*
D03*
X225984Y329528D02*
D03*
X218504Y331102D02*
D03*
X256299Y374016D02*
D03*
X253543Y381102D02*
D03*
X311417Y392520D02*
D03*
X352362Y357087D02*
D03*
X309842Y384252D02*
D03*
X321654Y303150D02*
D03*
X324803Y362598D02*
D03*
D38*
X274213Y343898D02*
D03*
X342520Y327559D02*
D03*
X320276Y350984D02*
D03*
D39*
X373720Y314961D02*
G03*
X373720Y314961I-78444J0D01*
G01*
X234260Y351177D02*
G03*
X366230Y314961I61016J-36216D01*
G01*
X268856Y380813D02*
G03*
X234260Y351177I26420J-65852D01*
G01*
X366230Y314961D02*
G03*
X268856Y380813I-70955J0D01*
G01*
D40*
X318504Y272441D02*
D03*
X313957Y270558D02*
D03*
X277559Y358661D02*
D03*
X282106Y360545D02*
D03*
D41*
X309202Y255804D02*
D03*
X332299Y265371D02*
D03*
X286861Y375299D02*
D03*
X263764Y365732D02*
D03*
D42*
X301969Y325000D02*
D03*
Y332480D02*
D03*
X292520Y332480D02*
D03*
Y328740D02*
D03*
Y325000D02*
D03*
M02*
