G04 EAGLE Gerber RS-274X export*
G75*
%MOMM*%
%FSLAX34Y34*%
%LPD*%
%INTop Copper*%
%IPPOS*%
%AMOC8*
5,1,8,0,0,1.08239X$1,22.5*%
G01*
%ADD10R,1.000000X1.100000*%
%ADD11R,1.100000X1.000000*%
%ADD12R,0.550000X1.200000*%
%ADD13R,0.600000X2.000000*%
%ADD14R,0.600000X4.200000*%
%ADD15R,0.700000X0.254000*%
%ADD16R,0.254000X0.700000*%
%ADD17R,1.000000X1.400000*%
%ADD18R,0.800000X1.200000*%
%ADD19R,0.600000X0.540000*%
%ADD20R,0.540000X0.600000*%
%ADD21C,0.055000*%
%ADD22R,1.200000X0.800000*%
%ADD23R,0.700000X0.900000*%
%ADD24C,0.508000*%
%ADD25C,0.635000*%
%ADD26C,1.270000*%
%ADD27C,0.254000*%
%ADD28C,0.609600*%
%ADD29C,0.203200*%


D10*
X112522Y205096D03*
X112522Y188096D03*
D11*
X143628Y203200D03*
X126628Y203200D03*
D12*
X108102Y273257D03*
X117602Y273257D03*
X127102Y273257D03*
X127102Y299259D03*
X108102Y299259D03*
D13*
X60626Y372110D03*
X70626Y372110D03*
X80626Y372110D03*
X50626Y372110D03*
X40626Y372110D03*
D14*
X30786Y393110D03*
X90626Y393110D03*
D15*
X84582Y206502D03*
X84582Y211502D03*
X84582Y216502D03*
X84582Y221502D03*
X84582Y226502D03*
X84582Y231502D03*
X84582Y236502D03*
X84582Y241502D03*
X84582Y246502D03*
X84582Y251502D03*
X84582Y256502D03*
X84582Y261502D03*
X84582Y266502D03*
X84582Y271502D03*
X84582Y276502D03*
X84582Y281502D03*
X84582Y286502D03*
X84582Y291502D03*
X84582Y296502D03*
D16*
X75556Y297878D03*
X70556Y297878D03*
X65556Y297878D03*
X60556Y297878D03*
X55556Y297878D03*
X50556Y297878D03*
X45556Y297878D03*
X40556Y297878D03*
X35556Y297878D03*
X30556Y297878D03*
D15*
X21530Y296502D03*
X21530Y291502D03*
X21530Y286502D03*
X21530Y281502D03*
X21530Y276502D03*
X21530Y271502D03*
X21530Y266502D03*
X21530Y261502D03*
X21530Y256502D03*
X21530Y251502D03*
X21530Y246502D03*
X21530Y241502D03*
D17*
X-1524Y369648D03*
X7976Y347648D03*
X-11024Y347648D03*
D18*
X5952Y321818D03*
X-12048Y321818D03*
D17*
X123952Y354916D03*
X133452Y332916D03*
X114452Y332916D03*
D18*
X132698Y314706D03*
X114698Y314706D03*
D17*
X0Y88060D03*
X-9500Y110060D03*
X9500Y110060D03*
D18*
X-9508Y128270D03*
X8492Y128270D03*
D17*
X125984Y76884D03*
X116484Y98884D03*
X135484Y98884D03*
D18*
X115714Y122174D03*
X133714Y122174D03*
D19*
X-19558Y290304D03*
X-19558Y281704D03*
D20*
X-3574Y304292D03*
X-12174Y304292D03*
D19*
X-11430Y279128D03*
X-11430Y270528D03*
D21*
X75263Y85821D02*
X77709Y85821D01*
X77709Y84171D01*
X75263Y84171D01*
X75263Y85821D01*
X75263Y84693D02*
X77709Y84693D01*
X77709Y85215D02*
X75263Y85215D01*
X75263Y85737D02*
X77709Y85737D01*
X77709Y89821D02*
X75263Y89821D01*
X77709Y89821D02*
X77709Y88171D01*
X75263Y88171D01*
X75263Y89821D01*
X75263Y88693D02*
X77709Y88693D01*
X77709Y89215D02*
X75263Y89215D01*
X75263Y89737D02*
X77709Y89737D01*
X77709Y93821D02*
X75263Y93821D01*
X77709Y93821D02*
X77709Y92171D01*
X75263Y92171D01*
X75263Y93821D01*
X75263Y92693D02*
X77709Y92693D01*
X77709Y93215D02*
X75263Y93215D01*
X75263Y93737D02*
X77709Y93737D01*
X77709Y97821D02*
X75263Y97821D01*
X77709Y97821D02*
X77709Y96171D01*
X75263Y96171D01*
X75263Y97821D01*
X75263Y96693D02*
X77709Y96693D01*
X77709Y97215D02*
X75263Y97215D01*
X75263Y97737D02*
X77709Y97737D01*
X77709Y101821D02*
X75263Y101821D01*
X77709Y101821D02*
X77709Y100171D01*
X75263Y100171D01*
X75263Y101821D01*
X75263Y100693D02*
X77709Y100693D01*
X77709Y101215D02*
X75263Y101215D01*
X75263Y101737D02*
X77709Y101737D01*
X77709Y105821D02*
X75263Y105821D01*
X77709Y105821D02*
X77709Y104171D01*
X75263Y104171D01*
X75263Y105821D01*
X75263Y104693D02*
X77709Y104693D01*
X77709Y105215D02*
X75263Y105215D01*
X75263Y105737D02*
X77709Y105737D01*
X71913Y107521D02*
X71913Y109967D01*
X73563Y109967D01*
X73563Y107521D01*
X71913Y107521D01*
X71913Y108043D02*
X73563Y108043D01*
X73563Y108565D02*
X71913Y108565D01*
X71913Y109087D02*
X73563Y109087D01*
X73563Y109609D02*
X71913Y109609D01*
X67913Y109967D02*
X67913Y107521D01*
X67913Y109967D02*
X69563Y109967D01*
X69563Y107521D01*
X67913Y107521D01*
X67913Y108043D02*
X69563Y108043D01*
X69563Y108565D02*
X67913Y108565D01*
X67913Y109087D02*
X69563Y109087D01*
X69563Y109609D02*
X67913Y109609D01*
X63913Y109967D02*
X63913Y107521D01*
X63913Y109967D02*
X65563Y109967D01*
X65563Y107521D01*
X63913Y107521D01*
X63913Y108043D02*
X65563Y108043D01*
X65563Y108565D02*
X63913Y108565D01*
X63913Y109087D02*
X65563Y109087D01*
X65563Y109609D02*
X63913Y109609D01*
X59913Y109967D02*
X59913Y107521D01*
X59913Y109967D02*
X61563Y109967D01*
X61563Y107521D01*
X59913Y107521D01*
X59913Y108043D02*
X61563Y108043D01*
X61563Y108565D02*
X59913Y108565D01*
X59913Y109087D02*
X61563Y109087D01*
X61563Y109609D02*
X59913Y109609D01*
X55913Y109967D02*
X55913Y107521D01*
X55913Y109967D02*
X57563Y109967D01*
X57563Y107521D01*
X55913Y107521D01*
X55913Y108043D02*
X57563Y108043D01*
X57563Y108565D02*
X55913Y108565D01*
X55913Y109087D02*
X57563Y109087D01*
X57563Y109609D02*
X55913Y109609D01*
X51913Y109967D02*
X51913Y107521D01*
X51913Y109967D02*
X53563Y109967D01*
X53563Y107521D01*
X51913Y107521D01*
X51913Y108043D02*
X53563Y108043D01*
X53563Y108565D02*
X51913Y108565D01*
X51913Y109087D02*
X53563Y109087D01*
X53563Y109609D02*
X51913Y109609D01*
X50213Y104171D02*
X47767Y104171D01*
X47767Y105821D01*
X50213Y105821D01*
X50213Y104171D01*
X50213Y104693D02*
X47767Y104693D01*
X47767Y105215D02*
X50213Y105215D01*
X50213Y105737D02*
X47767Y105737D01*
X47767Y100171D02*
X50213Y100171D01*
X47767Y100171D02*
X47767Y101821D01*
X50213Y101821D01*
X50213Y100171D01*
X50213Y100693D02*
X47767Y100693D01*
X47767Y101215D02*
X50213Y101215D01*
X50213Y101737D02*
X47767Y101737D01*
X47767Y96171D02*
X50213Y96171D01*
X47767Y96171D02*
X47767Y97821D01*
X50213Y97821D01*
X50213Y96171D01*
X50213Y96693D02*
X47767Y96693D01*
X47767Y97215D02*
X50213Y97215D01*
X50213Y97737D02*
X47767Y97737D01*
X47767Y92171D02*
X50213Y92171D01*
X47767Y92171D02*
X47767Y93821D01*
X50213Y93821D01*
X50213Y92171D01*
X50213Y92693D02*
X47767Y92693D01*
X47767Y93215D02*
X50213Y93215D01*
X50213Y93737D02*
X47767Y93737D01*
X47767Y88171D02*
X50213Y88171D01*
X47767Y88171D02*
X47767Y89821D01*
X50213Y89821D01*
X50213Y88171D01*
X50213Y88693D02*
X47767Y88693D01*
X47767Y89215D02*
X50213Y89215D01*
X50213Y89737D02*
X47767Y89737D01*
X47767Y84171D02*
X50213Y84171D01*
X47767Y84171D02*
X47767Y85821D01*
X50213Y85821D01*
X50213Y84171D01*
X50213Y84693D02*
X47767Y84693D01*
X47767Y85215D02*
X50213Y85215D01*
X50213Y85737D02*
X47767Y85737D01*
X53563Y82471D02*
X53563Y80025D01*
X51913Y80025D01*
X51913Y82471D01*
X53563Y82471D01*
X53563Y80547D02*
X51913Y80547D01*
X51913Y81069D02*
X53563Y81069D01*
X53563Y81591D02*
X51913Y81591D01*
X51913Y82113D02*
X53563Y82113D01*
X57563Y82471D02*
X57563Y80025D01*
X55913Y80025D01*
X55913Y82471D01*
X57563Y82471D01*
X57563Y80547D02*
X55913Y80547D01*
X55913Y81069D02*
X57563Y81069D01*
X57563Y81591D02*
X55913Y81591D01*
X55913Y82113D02*
X57563Y82113D01*
X61563Y82471D02*
X61563Y80025D01*
X59913Y80025D01*
X59913Y82471D01*
X61563Y82471D01*
X61563Y80547D02*
X59913Y80547D01*
X59913Y81069D02*
X61563Y81069D01*
X61563Y81591D02*
X59913Y81591D01*
X59913Y82113D02*
X61563Y82113D01*
X65563Y82471D02*
X65563Y80025D01*
X63913Y80025D01*
X63913Y82471D01*
X65563Y82471D01*
X65563Y80547D02*
X63913Y80547D01*
X63913Y81069D02*
X65563Y81069D01*
X65563Y81591D02*
X63913Y81591D01*
X63913Y82113D02*
X65563Y82113D01*
X69563Y82471D02*
X69563Y80025D01*
X67913Y80025D01*
X67913Y82471D01*
X69563Y82471D01*
X69563Y80547D02*
X67913Y80547D01*
X67913Y81069D02*
X69563Y81069D01*
X69563Y81591D02*
X67913Y81591D01*
X67913Y82113D02*
X69563Y82113D01*
X73563Y82471D02*
X73563Y80025D01*
X71913Y80025D01*
X71913Y82471D01*
X73563Y82471D01*
X73563Y80547D02*
X71913Y80547D01*
X71913Y81069D02*
X73563Y81069D01*
X73563Y81591D02*
X71913Y81591D01*
X71913Y82113D02*
X73563Y82113D01*
D10*
X73914Y129422D03*
X73914Y146422D03*
X56388Y136280D03*
X56388Y153280D03*
X39116Y138058D03*
X39116Y155058D03*
D22*
X115062Y227728D03*
X115062Y245728D03*
X136144Y228490D03*
X136144Y246490D03*
D18*
G36*
X103282Y82495D02*
X108939Y76838D01*
X100454Y68353D01*
X94797Y74010D01*
X103282Y82495D01*
G37*
G36*
X90554Y95223D02*
X96211Y89566D01*
X87726Y81081D01*
X82069Y86738D01*
X90554Y95223D01*
G37*
X41258Y115062D03*
X23258Y115062D03*
D23*
X86972Y144272D03*
X99972Y144272D03*
D18*
X50148Y55626D03*
X32148Y55626D03*
G36*
X78939Y314040D02*
X73282Y308383D01*
X64797Y316868D01*
X70454Y322525D01*
X78939Y314040D01*
G37*
G36*
X91667Y326768D02*
X86010Y321111D01*
X77525Y329596D01*
X83182Y335253D01*
X91667Y326768D01*
G37*
G36*
X100275Y335884D02*
X94618Y330227D01*
X86133Y338712D01*
X91790Y344369D01*
X100275Y335884D01*
G37*
G36*
X113003Y348612D02*
X107346Y342955D01*
X98861Y351440D01*
X104518Y357097D01*
X113003Y348612D01*
G37*
D24*
X-9508Y128891D02*
X-9508Y128270D01*
D25*
X-9906Y128668D01*
D26*
X-9508Y110068D02*
X-9500Y110060D01*
X-9508Y110068D02*
X-9508Y128270D01*
D27*
X102870Y188096D02*
X112522Y188096D01*
X10354Y297325D02*
X10354Y319024D01*
D25*
X116484Y98884D02*
X114436Y96836D01*
X116479Y121409D02*
X115714Y122174D01*
X116479Y121409D02*
X116233Y99135D01*
X116484Y98884D01*
X5952Y321818D02*
X6896Y322762D01*
D27*
X5952Y321818D02*
X5001Y321818D01*
D28*
X5182Y345532D02*
X5182Y350442D01*
X7976Y347648D01*
X5952Y345624D02*
X5952Y321818D01*
X5952Y345624D02*
X7976Y347648D01*
X-9500Y110060D02*
X-14224Y105336D01*
X-14224Y62992D01*
X5842Y42926D01*
X114436Y59064D02*
X114436Y96836D01*
X43688Y42926D02*
X5842Y42926D01*
X41402Y42926D02*
X98298Y42926D01*
X114436Y59064D01*
D24*
X115824Y228490D02*
X136144Y228490D01*
X115824Y228490D02*
X115062Y227728D01*
X112522Y188096D02*
X112776Y187842D01*
D27*
X103124Y206502D02*
X84582Y206502D01*
X102870Y206502D02*
X102870Y188096D01*
X102870Y206502D02*
X97870Y211502D01*
D24*
X10354Y319024D02*
X7560Y321818D01*
X5952Y321818D01*
D27*
X84582Y231502D02*
X97536Y231502D01*
X97536Y221600D02*
X97456Y221600D01*
X86204Y221600D01*
X84582Y221502D01*
X97456Y211502D02*
X97870Y211502D01*
X97456Y211502D02*
X84582Y211502D01*
X97456Y211502D02*
X97456Y221600D01*
X112522Y188840D02*
X112522Y188096D01*
X48990Y84996D02*
X34892Y84996D01*
X34798Y85090D01*
X34290Y84582D01*
X34290Y69088D01*
X41402Y68834D02*
X56738Y68834D01*
X41402Y69088D02*
X34290Y69088D01*
X56738Y68834D02*
X56738Y81248D01*
X41402Y69088D02*
X41402Y68834D01*
X41402Y42926D01*
X97536Y221600D02*
X97536Y231502D01*
D24*
X131857Y224203D02*
X136144Y228490D01*
X131857Y224203D02*
X126628Y203200D01*
D28*
X115714Y158386D02*
X115714Y122174D01*
X115714Y158386D02*
X127000Y169672D01*
X127000Y187842D01*
X127000Y202828D01*
X126628Y203200D01*
X127000Y187842D02*
X112776Y187842D01*
D27*
X40640Y372096D02*
X40626Y372110D01*
X40640Y372096D02*
X40640Y333756D01*
X40640Y332292D01*
X21530Y296502D02*
X11177Y296502D01*
X10354Y297325D01*
X5952Y321818D02*
X28702Y321818D01*
X40640Y333756D01*
X137008Y238150D02*
X137008Y237896D01*
X126594Y272749D02*
X127102Y273257D01*
X126594Y272749D02*
X126594Y238150D01*
X105664Y238150D01*
X126340Y238150D02*
X137008Y238150D01*
X105664Y270819D02*
X108102Y273257D01*
X105664Y270819D02*
X105664Y238150D01*
D28*
X147828Y237896D02*
X147828Y367792D01*
D27*
X147828Y237896D02*
X137008Y237896D01*
D28*
X143628Y203200D02*
X148590Y198238D01*
X148590Y27839D01*
X143628Y203200D02*
X147828Y207400D01*
X147828Y237896D01*
X148590Y27839D02*
X-27686Y27839D01*
X-36322Y36475D01*
X-36322Y383540D01*
D27*
X86145Y241463D02*
X92467Y241438D01*
X86145Y241463D02*
X84582Y241502D01*
X95747Y244718D02*
X95747Y304292D01*
X95747Y244718D02*
X92467Y241438D01*
X70866Y371870D02*
X70626Y372110D01*
X70866Y329173D02*
X95747Y304292D01*
X70866Y329173D02*
X70866Y371870D01*
X60626Y372110D02*
X60556Y372040D01*
X60556Y297878D01*
X50302Y371786D02*
X50626Y372110D01*
X50556Y372040D01*
X50556Y297878D01*
D26*
X-1524Y369648D02*
X-1524Y385311D01*
X-1270Y385318D01*
D28*
X-11024Y347648D02*
X-12048Y346624D01*
X-12048Y321818D01*
D27*
X-12174Y321692D01*
X-12174Y304292D01*
D26*
X123818Y355045D02*
X123952Y354916D01*
X123818Y355045D02*
X123698Y368808D01*
D25*
X9500Y127262D02*
X9500Y110060D01*
X9500Y127262D02*
X8492Y128270D01*
D27*
X6460Y128270D01*
X-18992Y153722D01*
X-18992Y270528D02*
X-11430Y270528D01*
X-18992Y270528D02*
X-18992Y153722D01*
D25*
X0Y88060D02*
X0Y84754D01*
D26*
X8693Y79367D02*
X8890Y71374D01*
X8693Y79367D02*
X0Y88060D01*
D27*
X133714Y122174D02*
X133530Y124591D01*
D25*
X134695Y99673D02*
X135484Y98884D01*
X134695Y99673D02*
X133941Y121947D01*
X133714Y122174D01*
D27*
X-23683Y277579D02*
X-19558Y281704D01*
X-23683Y277579D02*
X-23683Y58481D01*
X-1016Y35814D01*
X140970Y35814D01*
X140970Y93398D01*
X135484Y98884D01*
D26*
X125984Y76884D02*
X127000Y75868D01*
X127000Y57404D01*
D27*
X70556Y297878D02*
X70556Y313126D01*
X70612Y313182D01*
X-2812Y303530D02*
X-3574Y304292D01*
D29*
X9216Y291502D01*
D27*
X21530Y291502D01*
X84597Y236487D02*
X100836Y236465D01*
X84597Y236487D02*
X84582Y236502D01*
X102710Y234536D02*
X102737Y234563D01*
X104648Y300275D02*
X104648Y331470D01*
X100584Y296211D02*
X100584Y236157D01*
X103632Y299259D02*
X104648Y300275D01*
X103632Y299259D02*
X100584Y296211D01*
X100836Y236465D02*
X102737Y234563D01*
X102710Y234536D02*
X102710Y214908D01*
X112522Y205096D01*
X108102Y299259D02*
X103632Y299259D01*
X80626Y362858D02*
X80626Y372110D01*
X80626Y362858D02*
X104902Y338582D01*
X104902Y331724D01*
X104648Y331470D01*
X73598Y129738D02*
X73914Y129422D01*
D29*
X89248Y84996D02*
X89408Y84836D01*
D27*
X68738Y108744D02*
X68738Y122078D01*
X5849Y165082D02*
X196Y170735D01*
X196Y251460D01*
X21488Y251460D02*
X21530Y251502D01*
X21488Y251460D02*
X196Y251460D01*
X76486Y84996D02*
X85984Y84996D01*
X89140Y88152D01*
X90152Y101836D02*
X90152Y103124D01*
X90152Y101836D02*
X90660Y101328D01*
X90660Y89672D01*
X89140Y88152D01*
X90152Y103124D02*
X86972Y106304D01*
X86972Y144272D01*
X86868Y158496D02*
X80282Y165082D01*
X86868Y158496D02*
X86210Y157838D01*
X80282Y165082D02*
X5849Y165082D01*
X86210Y157838D02*
X86210Y130810D01*
X86972Y131572D02*
X86972Y144272D01*
X86972Y131572D02*
X86210Y130810D01*
X84822Y129422D01*
X73914Y129422D01*
X73914Y127254D02*
X68738Y122078D01*
X73914Y127254D02*
X73914Y129422D01*
X60738Y117634D02*
X60738Y108744D01*
X60738Y117634D02*
X56388Y121984D01*
X56388Y136280D01*
X68738Y81248D02*
X68676Y66198D01*
D29*
X107206Y79843D02*
X107206Y155869D01*
D27*
X87561Y175514D01*
X9906Y175514D01*
X9906Y241536D01*
X21496Y241536D01*
X21530Y241502D01*
X101868Y75424D02*
X92720Y66276D01*
X102787Y75424D02*
X107206Y79843D01*
X102787Y75424D02*
X101868Y75424D01*
X68754Y66276D02*
X68676Y66198D01*
X68754Y66276D02*
X92720Y66276D01*
D24*
X115062Y245728D02*
X117348Y248014D01*
X117348Y273003D02*
X117602Y273257D01*
X117348Y273003D02*
X117348Y248014D01*
D27*
X-3292Y281658D02*
X-11938Y290304D01*
X-19558Y290304D01*
X21374Y281658D02*
X21530Y281502D01*
X21374Y281658D02*
X-3292Y281658D01*
D25*
X114452Y314952D02*
X114452Y332916D01*
X114452Y314952D02*
X114698Y314706D01*
D27*
X114452Y341506D02*
X105932Y350026D01*
X114452Y341506D02*
X114452Y332916D01*
D24*
X136144Y311260D02*
X136144Y246490D01*
X136144Y311260D02*
X132698Y314706D01*
X133452Y315460D02*
X133452Y332916D01*
X133452Y315460D02*
X132698Y314706D01*
D27*
X48990Y104996D02*
X33274Y104996D01*
D29*
X32258Y104996D01*
X32258Y131200D02*
X39116Y138058D01*
X32258Y131200D02*
X32258Y104996D01*
D27*
X39116Y138058D02*
X19890Y138058D01*
X-9812Y167760D02*
X-9812Y255260D01*
X-9812Y167760D02*
X19890Y138058D01*
X21530Y266502D02*
X-434Y266502D01*
X-520Y266416D02*
X-520Y264552D01*
X-520Y266416D02*
X-434Y266502D01*
X-520Y264552D02*
X-9812Y255260D01*
X31863Y55626D02*
X32148Y55626D01*
X31863Y55626D02*
X27414Y60075D01*
X27414Y99136D01*
X33274Y104996D01*
X46420Y115062D02*
X52738Y108744D01*
X46420Y115062D02*
X41258Y115062D01*
X23258Y115062D02*
X15995Y122325D01*
X-14402Y165859D02*
X-14402Y259842D01*
X15995Y135462D02*
X15995Y122325D01*
X15995Y135462D02*
X-14402Y165859D01*
X-14402Y259842D02*
X-9736Y264508D01*
X-7055Y264508D01*
X-5110Y266453D01*
X-5110Y271404D01*
X21432Y271404D02*
X21530Y271502D01*
X21432Y271404D02*
X-5110Y271404D01*
X-7112Y278874D02*
X-11176Y278874D01*
X-11430Y279128D01*
D29*
X21450Y276582D02*
X21530Y276502D01*
D27*
X-7253Y279128D02*
X-11430Y279128D01*
X-7253Y279128D02*
X-4529Y276404D01*
X21432Y276404D02*
X21530Y276502D01*
X21432Y276404D02*
X-4529Y276404D01*
X72738Y81248D02*
X72738Y70612D01*
X84441Y70612D01*
X101854Y88025D01*
X6734Y170688D02*
X4786Y172636D01*
X4786Y246380D01*
X21408Y246380D01*
X21530Y246502D01*
X101854Y142390D02*
X101854Y88025D01*
X101854Y142390D02*
X99972Y144272D01*
X102362Y146662D01*
X102362Y152400D01*
X102257Y152295D02*
X83864Y170688D01*
X6734Y170688D01*
X64738Y144494D02*
X64738Y108744D01*
X66666Y146422D02*
X73914Y146422D01*
X66666Y146422D02*
X64738Y144494D01*
X63246Y146422D02*
X73914Y146422D01*
X63246Y146422D02*
X56388Y153280D01*
X54610Y155058D01*
X47752Y155058D01*
X39116Y155058D01*
X56738Y115220D02*
X56738Y108744D01*
X56738Y115220D02*
X47752Y124206D01*
X47752Y155058D01*
X39116Y155058D02*
X9382Y155058D01*
X-5156Y169596D01*
X-5156Y252662D01*
X3684Y261502D02*
X21530Y261502D01*
X3684Y261502D02*
X-5156Y252662D01*
X64738Y81248D02*
X64738Y55404D01*
X64770Y55626D02*
X50148Y55626D01*
X84596Y328182D02*
X93204Y336790D01*
X93204Y337298D01*
M02*
