G04 EAGLE Gerber RS-274X export*
G75*
%MOMM*%
%FSLAX34Y34*%
%LPD*%
%INSilkscreen Top*%
%IPPOS*%
%AMOC8*
5,1,8,0,0,1.08239X$1,22.5*%
G01*
%ADD10C,0.127000*%
%ADD11C,0.200000*%
%ADD12C,0.101600*%
%ADD13C,0.558800*%
%ADD14C,0.025400*%
%ADD15C,0.050800*%
%ADD16C,0.152400*%


D10*
X8936Y280410D02*
X11436Y280410D01*
X11436Y282910D01*
X-17064Y280410D02*
X-19564Y280410D01*
X-19564Y282910D01*
X-19564Y308910D02*
X-19564Y311410D01*
X-17064Y311410D01*
X11436Y311410D02*
X11436Y308910D01*
X11436Y311410D02*
X8936Y311410D01*
D11*
X18936Y285910D02*
X18938Y285973D01*
X18944Y286035D01*
X18954Y286097D01*
X18967Y286159D01*
X18985Y286219D01*
X19006Y286278D01*
X19031Y286336D01*
X19060Y286392D01*
X19092Y286446D01*
X19127Y286498D01*
X19165Y286547D01*
X19207Y286595D01*
X19251Y286639D01*
X19299Y286681D01*
X19348Y286719D01*
X19400Y286754D01*
X19454Y286786D01*
X19510Y286815D01*
X19568Y286840D01*
X19627Y286861D01*
X19687Y286879D01*
X19749Y286892D01*
X19811Y286902D01*
X19873Y286908D01*
X19936Y286910D01*
X19999Y286908D01*
X20061Y286902D01*
X20123Y286892D01*
X20185Y286879D01*
X20245Y286861D01*
X20304Y286840D01*
X20362Y286815D01*
X20418Y286786D01*
X20472Y286754D01*
X20524Y286719D01*
X20573Y286681D01*
X20621Y286639D01*
X20665Y286595D01*
X20707Y286547D01*
X20745Y286498D01*
X20780Y286446D01*
X20812Y286392D01*
X20841Y286336D01*
X20866Y286278D01*
X20887Y286219D01*
X20905Y286159D01*
X20918Y286097D01*
X20928Y286035D01*
X20934Y285973D01*
X20936Y285910D01*
X20934Y285847D01*
X20928Y285785D01*
X20918Y285723D01*
X20905Y285661D01*
X20887Y285601D01*
X20866Y285542D01*
X20841Y285484D01*
X20812Y285428D01*
X20780Y285374D01*
X20745Y285322D01*
X20707Y285273D01*
X20665Y285225D01*
X20621Y285181D01*
X20573Y285139D01*
X20524Y285101D01*
X20472Y285066D01*
X20418Y285034D01*
X20362Y285005D01*
X20304Y284980D01*
X20245Y284959D01*
X20185Y284941D01*
X20123Y284928D01*
X20061Y284918D01*
X19999Y284912D01*
X19936Y284910D01*
X19873Y284912D01*
X19811Y284918D01*
X19749Y284928D01*
X19687Y284941D01*
X19627Y284959D01*
X19568Y284980D01*
X19510Y285005D01*
X19454Y285034D01*
X19400Y285066D01*
X19348Y285101D01*
X19299Y285139D01*
X19251Y285181D01*
X19207Y285225D01*
X19165Y285273D01*
X19127Y285322D01*
X19092Y285374D01*
X19060Y285428D01*
X19031Y285484D01*
X19006Y285542D01*
X18985Y285601D01*
X18967Y285661D01*
X18954Y285723D01*
X18944Y285785D01*
X18938Y285847D01*
X18936Y285910D01*
D12*
X-1541Y269968D02*
X-1541Y260204D01*
X412Y258252D01*
X4317Y258252D01*
X6270Y260204D01*
X6270Y269968D01*
X10174Y258252D02*
X17984Y258252D01*
X10174Y258252D02*
X17984Y266063D01*
X17984Y268015D01*
X16032Y269968D01*
X12126Y269968D01*
X10174Y268015D01*
D13*
X12649Y346456D02*
X13259Y346456D01*
D14*
X2029Y340235D02*
X1394Y339600D01*
X1394Y338329D01*
X2029Y337693D01*
X4571Y337693D01*
X5207Y338329D01*
X5207Y339600D01*
X4571Y340235D01*
X5207Y341435D02*
X5207Y343977D01*
X5207Y341435D02*
X2665Y343977D01*
X2029Y343977D01*
X1394Y343342D01*
X1394Y342071D01*
X2029Y341435D01*
D13*
X-2997Y345694D02*
X-3607Y345694D01*
D14*
X-14227Y339473D02*
X-14862Y338838D01*
X-14862Y337567D01*
X-14227Y336931D01*
X-11685Y336931D01*
X-11049Y337567D01*
X-11049Y338838D01*
X-11685Y339473D01*
X-11049Y342580D02*
X-14862Y342580D01*
X-12956Y340673D01*
X-12956Y343215D01*
D13*
X-27889Y343916D02*
X-28499Y343916D01*
D14*
X-39119Y337695D02*
X-39754Y337060D01*
X-39754Y335789D01*
X-39119Y335153D01*
X-36577Y335153D01*
X-35941Y335789D01*
X-35941Y337060D01*
X-36577Y337695D01*
X-39754Y338895D02*
X-39754Y341437D01*
X-39754Y338895D02*
X-37848Y338895D01*
X-38483Y340166D01*
X-38483Y340802D01*
X-37848Y341437D01*
X-36577Y341437D01*
X-35941Y340802D01*
X-35941Y339531D01*
X-36577Y338895D01*
D10*
X16773Y266857D02*
X16807Y256857D01*
X26407Y256891D02*
X26373Y266891D01*
D15*
X13986Y259949D02*
X9484Y259933D01*
X13986Y259949D02*
X13994Y257698D01*
X13246Y256945D01*
X11746Y256940D01*
X10993Y257687D01*
X10985Y259939D01*
X10990Y258438D02*
X9494Y256932D01*
X13252Y255336D02*
X14005Y254588D01*
X14010Y253088D01*
X13263Y252335D01*
X12512Y252332D01*
X11759Y253080D01*
X11011Y252327D01*
X10261Y252324D01*
X9508Y253072D01*
X9502Y254573D01*
X10250Y255326D01*
X11001Y255328D01*
X11754Y254581D01*
X12502Y255334D01*
X13252Y255336D01*
X11754Y254581D02*
X11759Y253080D01*
D10*
X-7007Y260355D02*
X-7164Y270354D01*
X2435Y270505D02*
X2592Y260506D01*
D15*
X-9865Y263412D02*
X-14368Y263342D01*
X-9865Y263412D02*
X-9830Y261161D01*
X-10569Y260399D01*
X-12069Y260376D01*
X-12832Y261114D01*
X-12867Y263365D01*
X-12843Y261864D02*
X-14320Y260340D01*
X-13545Y258744D02*
X-14283Y257982D01*
X-14260Y256481D01*
X-13498Y255742D01*
X-10496Y255789D01*
X-9758Y256552D01*
X-9781Y258052D01*
X-10543Y258791D01*
X-11294Y258779D01*
X-12032Y258017D01*
X-11997Y255766D01*
D16*
X69850Y298958D02*
X69850Y311658D01*
X69850Y298958D02*
X63500Y292608D01*
X50800Y292608D01*
X44450Y298958D01*
X63500Y292608D02*
X69850Y286258D01*
X69850Y273558D01*
X63500Y267208D01*
X50800Y267208D01*
X44450Y273558D01*
X44450Y286258D01*
X50800Y292608D01*
X69850Y337058D02*
X63500Y343408D01*
X69850Y337058D02*
X69850Y324358D01*
X63500Y318008D01*
X50800Y318008D01*
X44450Y324358D01*
X44450Y337058D01*
X50800Y343408D01*
X63500Y318008D02*
X69850Y311658D01*
X50800Y318008D02*
X44450Y311658D01*
X44450Y298958D01*
X69850Y375158D02*
X69850Y387858D01*
X69850Y375158D02*
X63500Y368808D01*
X50800Y368808D01*
X44450Y375158D01*
X63500Y368808D02*
X69850Y362458D01*
X69850Y349758D01*
X63500Y343408D01*
X50800Y343408D01*
X44450Y349758D01*
X44450Y362458D01*
X50800Y368808D01*
X50800Y394208D02*
X63500Y394208D01*
X69850Y387858D01*
X50800Y394208D02*
X44450Y387858D01*
X44450Y375158D01*
X69850Y260858D02*
X69850Y248158D01*
X63500Y241808D01*
X50800Y241808D01*
X44450Y248158D01*
X63500Y267208D02*
X69850Y260858D01*
X50800Y267208D02*
X44450Y260858D01*
X44450Y248158D01*
D10*
X85596Y360523D02*
X87503Y362430D01*
X87503Y364336D01*
X85596Y366243D01*
X76063Y366243D01*
X76063Y364336D02*
X76063Y368150D01*
X76063Y372217D02*
X87503Y372217D01*
X76063Y372217D02*
X76063Y377937D01*
X77970Y379844D01*
X81783Y379844D01*
X83690Y377937D01*
X83690Y372217D01*
X79877Y383911D02*
X76063Y387724D01*
X87503Y387724D01*
X87503Y383911D02*
X87503Y391537D01*
D16*
X-81026Y336804D02*
X-81026Y324104D01*
X-81026Y336804D02*
X-74676Y343154D01*
X-61976Y343154D01*
X-55626Y336804D01*
X-74676Y343154D02*
X-81026Y349504D01*
X-81026Y362204D01*
X-74676Y368554D01*
X-61976Y368554D01*
X-55626Y362204D01*
X-55626Y349504D01*
X-61976Y343154D01*
X-81026Y298704D02*
X-74676Y292354D01*
X-81026Y298704D02*
X-81026Y311404D01*
X-74676Y317754D01*
X-61976Y317754D01*
X-55626Y311404D01*
X-55626Y298704D01*
X-61976Y292354D01*
X-74676Y317754D02*
X-81026Y324104D01*
X-61976Y317754D02*
X-55626Y324104D01*
X-55626Y336804D01*
X-81026Y260604D02*
X-81026Y247904D01*
X-81026Y260604D02*
X-74676Y266954D01*
X-61976Y266954D01*
X-55626Y260604D01*
X-74676Y266954D02*
X-81026Y273304D01*
X-81026Y286004D01*
X-74676Y292354D01*
X-61976Y292354D01*
X-55626Y286004D01*
X-55626Y273304D01*
X-61976Y266954D01*
X-61976Y241554D02*
X-74676Y241554D01*
X-81026Y247904D01*
X-61976Y241554D02*
X-55626Y247904D01*
X-55626Y260604D01*
X-81026Y374904D02*
X-81026Y387604D01*
X-74676Y393954D01*
X-61976Y393954D01*
X-55626Y387604D01*
X-74676Y368554D02*
X-81026Y374904D01*
X-61976Y368554D02*
X-55626Y374904D01*
X-55626Y387604D01*
D10*
X-87249Y243334D02*
X-89156Y241427D01*
X-87249Y243334D02*
X-87249Y245240D01*
X-89156Y247147D01*
X-98689Y247147D01*
X-98689Y245240D02*
X-98689Y249054D01*
X-98689Y253121D02*
X-87249Y253121D01*
X-98689Y253121D02*
X-98689Y258841D01*
X-96782Y260747D01*
X-92969Y260747D01*
X-91062Y258841D01*
X-91062Y253121D01*
X-87249Y264815D02*
X-87249Y272441D01*
X-87249Y264815D02*
X-94876Y272441D01*
X-96782Y272441D01*
X-98689Y270535D01*
X-98689Y266722D01*
X-96782Y264815D01*
M02*
