G04 EAGLE Gerber RS-274X export*
G75*
%MOMM*%
%FSLAX34Y34*%
%LPD*%
%INSoldermask Top*%
%IPPOS*%
%AMOC8*
5,1,8,0,0,1.08239X$1,22.5*%
G01*
%ADD10C,0.258150*%
%ADD11R,1.903200X1.743200*%
%ADD12R,1.203200X1.303200*%
%ADD13R,0.743200X0.803200*%
%ADD14P,1.869504X8X22.500000*%
%ADD15P,1.869504X8X202.500000*%
%ADD16C,0.959600*%


D10*
X8461Y286735D02*
X14311Y286735D01*
X14311Y285085D01*
X8461Y285085D01*
X8461Y286735D01*
X8461Y290735D02*
X14311Y290735D01*
X14311Y289085D01*
X8461Y289085D01*
X8461Y290735D01*
X8461Y294735D02*
X14311Y294735D01*
X14311Y293085D01*
X8461Y293085D01*
X8461Y294735D01*
X8461Y298735D02*
X14311Y298735D01*
X14311Y297085D01*
X8461Y297085D01*
X8461Y298735D01*
X8461Y302735D02*
X14311Y302735D01*
X14311Y301085D01*
X8461Y301085D01*
X8461Y302735D01*
X8461Y306735D02*
X14311Y306735D01*
X14311Y305085D01*
X8461Y305085D01*
X8461Y306735D01*
X5111Y308435D02*
X5111Y314285D01*
X6761Y314285D01*
X6761Y308435D01*
X5111Y308435D01*
X5111Y310888D02*
X6761Y310888D01*
X6761Y313341D02*
X5111Y313341D01*
X1111Y314285D02*
X1111Y308435D01*
X1111Y314285D02*
X2761Y314285D01*
X2761Y308435D01*
X1111Y308435D01*
X1111Y310888D02*
X2761Y310888D01*
X2761Y313341D02*
X1111Y313341D01*
X-2889Y314285D02*
X-2889Y308435D01*
X-2889Y314285D02*
X-1239Y314285D01*
X-1239Y308435D01*
X-2889Y308435D01*
X-2889Y310888D02*
X-1239Y310888D01*
X-1239Y313341D02*
X-2889Y313341D01*
X-6889Y314285D02*
X-6889Y308435D01*
X-6889Y314285D02*
X-5239Y314285D01*
X-5239Y308435D01*
X-6889Y308435D01*
X-6889Y310888D02*
X-5239Y310888D01*
X-5239Y313341D02*
X-6889Y313341D01*
X-10889Y314285D02*
X-10889Y308435D01*
X-10889Y314285D02*
X-9239Y314285D01*
X-9239Y308435D01*
X-10889Y308435D01*
X-10889Y310888D02*
X-9239Y310888D01*
X-9239Y313341D02*
X-10889Y313341D01*
X-14889Y314285D02*
X-14889Y308435D01*
X-14889Y314285D02*
X-13239Y314285D01*
X-13239Y308435D01*
X-14889Y308435D01*
X-14889Y310888D02*
X-13239Y310888D01*
X-13239Y313341D02*
X-14889Y313341D01*
X-16589Y305085D02*
X-22439Y305085D01*
X-22439Y306735D01*
X-16589Y306735D01*
X-16589Y305085D01*
X-16589Y301085D02*
X-22439Y301085D01*
X-22439Y302735D01*
X-16589Y302735D01*
X-16589Y301085D01*
X-16589Y297085D02*
X-22439Y297085D01*
X-22439Y298735D01*
X-16589Y298735D01*
X-16589Y297085D01*
X-16589Y293085D02*
X-22439Y293085D01*
X-22439Y294735D01*
X-16589Y294735D01*
X-16589Y293085D01*
X-16589Y289085D02*
X-22439Y289085D01*
X-22439Y290735D01*
X-16589Y290735D01*
X-16589Y289085D01*
X-16589Y285085D02*
X-22439Y285085D01*
X-22439Y286735D01*
X-16589Y286735D01*
X-16589Y285085D01*
X-13239Y283385D02*
X-13239Y277535D01*
X-14889Y277535D01*
X-14889Y283385D01*
X-13239Y283385D01*
X-13239Y279988D02*
X-14889Y279988D01*
X-14889Y282441D02*
X-13239Y282441D01*
X-9239Y283385D02*
X-9239Y277535D01*
X-10889Y277535D01*
X-10889Y283385D01*
X-9239Y283385D01*
X-9239Y279988D02*
X-10889Y279988D01*
X-10889Y282441D02*
X-9239Y282441D01*
X-5239Y283385D02*
X-5239Y277535D01*
X-6889Y277535D01*
X-6889Y283385D01*
X-5239Y283385D01*
X-5239Y279988D02*
X-6889Y279988D01*
X-6889Y282441D02*
X-5239Y282441D01*
X-1239Y283385D02*
X-1239Y277535D01*
X-2889Y277535D01*
X-2889Y283385D01*
X-1239Y283385D01*
X-1239Y279988D02*
X-2889Y279988D01*
X-2889Y282441D02*
X-1239Y282441D01*
X2761Y283385D02*
X2761Y277535D01*
X1111Y277535D01*
X1111Y283385D01*
X2761Y283385D01*
X2761Y279988D02*
X1111Y279988D01*
X1111Y282441D02*
X2761Y282441D01*
X6761Y283385D02*
X6761Y277535D01*
X5111Y277535D01*
X5111Y283385D01*
X6761Y283385D01*
X6761Y279988D02*
X5111Y279988D01*
X5111Y282441D02*
X6761Y282441D01*
D11*
X-4064Y295910D03*
D12*
X12954Y337956D03*
X12954Y354956D03*
X-3302Y337194D03*
X-3302Y354194D03*
X-28194Y335416D03*
X-28194Y352416D03*
D13*
G36*
X25608Y261303D02*
X25633Y253873D01*
X17602Y253845D01*
X17577Y261275D01*
X25608Y261303D01*
G37*
G36*
X25578Y269903D02*
X25603Y262473D01*
X17572Y262445D01*
X17547Y269875D01*
X25578Y269903D01*
G37*
G36*
X1739Y264909D02*
X1855Y257479D01*
X-6175Y257353D01*
X-6291Y264783D01*
X1739Y264909D01*
G37*
G36*
X1603Y273507D02*
X1719Y266077D01*
X-6311Y265951D01*
X-6427Y273381D01*
X1603Y273507D01*
G37*
D14*
X57150Y381508D03*
X57150Y356108D03*
X57150Y330708D03*
X57150Y305308D03*
X57150Y279908D03*
X57150Y254508D03*
D15*
X-68326Y254254D03*
X-68326Y279654D03*
X-68326Y305054D03*
X-68326Y330454D03*
X-68326Y355854D03*
X-68326Y381254D03*
D16*
X-19812Y318262D03*
M02*
