M48
;Layer_Color=6321
;FILE_FORMAT=2:5
INCH,LZ
;TYPE=PLATED
T1F00S00C0.01000
T2F00S00C0.02800
T3F00S00C0.03000
T4F00S00C0.04000
T5F00S00C0.04016
%
T01
X0274213Y0343898
X0320276Y0350984
X034252Y0327559
T02
X0331496Y0254331
X0337795Y0248819
X0361417Y0291339
X0364567Y0301969
X0371654Y0296063
X0321654Y030315
X0280709Y0245276
X0278346Y0238583
X0237008Y0274803
X0229134Y0272047
X0225984Y0329528
X0218504Y0331102
X0256299Y0374016
X0253543Y0381102
X0309842Y0384252
X0311417Y039252
X0324803Y0362598
X0352362Y0357087
T03
X0220472Y0290945
X0229921Y0287795
X0362598Y0336221
X0367717Y0344094
T04
X0350795Y0251976
X0357866Y0259047
X0379134Y0309961
X0300276Y0230315
X0290276
X0239362Y0251976
X0232291Y0259047
X0211024Y0309961
Y0319961
X025748Y032059
Y0330591
X0232291Y0370874
X0239362Y0377945
X0290276Y0398819
X0300276
X0350795Y0377551
X0357866Y037048
X0379134Y0319961
T05
X033189Y0314567
Y0324567
Y0334567
M30
