  0
SECTION
  2
HEADER
  9
$ACADVER
  1
AC1009
  9
$DWGCODEPAGE
  3
ansi_1252
  9
$INSBASE
 10
0.0
 20
0.0
 30
0.0
  9
$EXTMIN
 10
1.000000000000000E+20
 20
1.000000000000000E+20
 30
1.000000000000000E+20
  9
$EXTMAX
 10
-1.000000000000000E+20
 20
-1.000000000000000E+20
 30
-1.000000000000000E+20
  9
$LIMMIN
 10
0.0
 20
0.0
  9
$LIMMAX
 10
12.0
 20
9.0
  9
$ORTHOMODE
 70
     0
  9
$REGENMODE
 70
     1
  9
$FILLMODE
 70
     1
  9
$QTEXTMODE
 70
     0
  9
$MIRRTEXT
 70
     1
  9
$DRAGMODE
 70
     2
  9
$LTSCALE
 40
1.0
  9
$OSMODE
 70
    37
  9
$ATTMODE
 70
     1
  9
$TEXTSIZE
 40
0.2
  9
$TRACEWID
 40
0.05
  9
$TEXTSTYLE
  7
STANDARD
  9
$CLAYER
  8
0
  9
$CELTYPE
  6
BYLAYER
  9
$CECOLOR
 62
   256
  9
$DIMSCALE
 40
1.0
  9
$DIMASZ
 40
0.18
  9
$DIMEXO
 40
0.0625
  9
$DIMDLI
 40
0.38
  9
$DIMRND
 40
0.0
  9
$DIMDLE
 40
0.0
  9
$DIMEXE
 40
0.18
  9
$DIMTP
 40
0.0
  9
$DIMTM
 40
0.0
  9
$DIMTXT
 40
0.18
  9
$DIMCEN
 40
0.09
  9
$DIMTSZ
 40
0.0
  9
$DIMTOL
 70
     0
  9
$DIMLIM
 70
     0
  9
$DIMTIH
 70
     1
  9
$DIMTOH
 70
     1
  9
$DIMSE1
 70
     0
  9
$DIMSE2
 70
     0
  9
$DIMTAD
 70
     0
  9
$DIMZIN
 70
     0
  9
$DIMBLK
  1

  9
$DIMASO
 70
     1
  9
$DIMSHO
 70
     1
  9
$DIMPOST
  1

  9
$DIMAPOST
  1

  9
$DIMALT
 70
     0
  9
$DIMALTD
 70
     2
  9
$DIMALTF
 40
0.0393700787401575
  9
$DIMLFAC
 40
1.0
  9
$DIMTOFL
 70
     0
  9
$DIMTVP
 40
0.0
  9
$DIMTIX
 70
     0
  9
$DIMSOXD
 70
     0
  9
$DIMSAH
 70
     0
  9
$DIMBLK1
  1

  9
$DIMBLK2
  1

  9
$DIMSTYLE
  2
STANDARD
  9
$DIMCLRD
 70
     0
  9
$DIMCLRE
 70
     0
  9
$DIMCLRT
 70
     0
  9
$DIMTFAC
 40
1.0
  9
$DIMGAP
 40
0.09
  9
$LUNITS
 70
     2
  9
$LUPREC
 70
     4
  9
$SKETCHINC
 40
0.1
  9
$FILLETRAD
 40
0.5
  9
$AUNITS
 70
     0
  9
$AUPREC
 70
     0
  9
$MENU
  1
.
  9
$ELEVATION
 40
0.0
  9
$PELEVATION
 40
0.0
  9
$THICKNESS
 40
0.0
  9
$LIMCHECK
 70
     0
  9
$CHAMFERA
 40
0.0
  9
$CHAMFERB
 40
0.0
  9
$SKPOLY
 70
     0
  9
$TDCREATE
 40
2459398.667326238
  9
$TDUPDATE
 40
2459398.66732625
  9
$TDINDWG
 40
0.0000000116
  9
$TDUSRTIMER
 40
0.0000000116
  9
$USRTIMER
 70
     1
  9
$ANGBASE
 50
0.0
  9
$ANGDIR
 70
     0
  9
$PDMODE
 70
     0
  9
$PDSIZE
 40
0.0
  9
$PLINEWID
 40
0.0
  9
$COORDS
 70
     1
  9
$SPLFRAME
 70
     0
  9
$SPLINETYPE
 70
     6
  9
$SPLINESEGS
 70
     8
  9
$ATTDIA
 70
     0
  9
$ATTREQ
 70
     1
  9
$HANDLING
 70
     1
  9
$HANDSEED
  5
1000028A
  9
$SURFTAB1
 70
     6
  9
$SURFTAB2
 70
     6
  9
$SURFTYPE
 70
     6
  9
$SURFU
 70
     6
  9
$SURFV
 70
     6
  9
$UCSNAME
  2

  9
$UCSORG
 10
0.0
 20
0.0
 30
0.0
  9
$UCSXDIR
 10
1.0
 20
0.0
 30
0.0
  9
$UCSYDIR
 10
0.0
 20
1.0
 30
0.0
  9
$PUCSNAME
  2

  9
$PUCSORG
 10
0.0
 20
0.0
 30
0.0
  9
$PUCSXDIR
 10
1.0
 20
0.0
 30
0.0
  9
$PUCSYDIR
 10
0.0
 20
1.0
 30
0.0
  9
$USERI1
 70
     0
  9
$USERI2
 70
     0
  9
$USERI3
 70
     0
  9
$USERI4
 70
     0
  9
$USERI5
 70
     0
  9
$USERR1
 40
0.0
  9
$USERR2
 40
0.0
  9
$USERR3
 40
0.0
  9
$USERR4
 40
0.0
  9
$USERR5
 40
0.0
  9
$WORLDVIEW
 70
     1
  9
$SHADEDGE
 70
     3
  9
$SHADEDIF
 70
    70
  9
$TILEMODE
 70
     1
  9
$MAXACTVP
 70
    64
  9
$PLIMCHECK
 70
     0
  9
$PEXTMIN
 10
1.000000000000000E+20
 20
1.000000000000000E+20
 30
1.000000000000000E+20
  9
$PEXTMAX
 10
-1.000000000000000E+20
 20
-1.000000000000000E+20
 30
-1.000000000000000E+20
  9
$PLIMMIN
 10
0.0
 20
0.0
  9
$PLIMMAX
 10
12.0
 20
9.0
  9
$UNITMODE
 70
     0
  9
$VISRETAIN
 70
     1
  9
$PLINEGEN
 70
     0
  9
$PSLTSCALE
 70
     1
  0
ENDSEC
  0
SECTION
  2
TABLES
  0
TABLE
  2
VPORT
 70
     1
  0
VPORT
  2
*ACTIVE
 70
     0
 10
0.0
 20
0.0
 11
1.0
 21
1.0
 12
10.42990654205607
 22
4.5
 13
0.0
 23
0.0
 14
0.5
 24
0.5
 15
0.5
 25
0.5
 16
0.0
 26
0.0
 36
1.0
 17
0.0
 27
0.0
 37
0.0
 40
9.0
 41
1.972972972850329
 42
50.0
 43
0.0
 44
0.0
 50
0.0
 51
0.0
 71
     0
 72
   100
 73
     1
 74
     3
 75
     0
 76
     0
 77
     0
 78
     0
  0
ENDTAB
  0
TABLE
  2
LTYPE
 70
     7
  0
LTYPE
  2
CONTINUOUS
 70
     0
  3
Solid line
 72
    65
 73
     0
 40
0.0
  0
LTYPE
  2
ONS_PHANTOM
 70
     0
  3
Onshape Phantom line ______ __ __ ______
 72
    65
 73
     6
 40
0.4999999999999999
 49
0.25
 49
-0.05
 49
0.05
 49
-0.05
 49
0.05
 49
-0.05
  0
LTYPE
  2
CENTER
 70
     0
  3
Center line ____ _ ____ _ ____ _
 72
    65
 73
     4
 40
0.7199999999999999
 49
0.45
 49
-0.09
 49
0.09
 49
-0.09
  0
LTYPE
  2
DASHED
 70
     0
  3
Dashed line __ __ __ __ __
 72
    65
 73
     2
 40
0.75
 49
0.5
 49
-0.25
  0
LTYPE
  2
ONS_DASHDOT
 70
     0
  3
Onshape Dashed with Dot _ . ____ . ____
 72
    65
 73
     4
 40
0.71
 49
0.5
 49
-0.1
 49
0.01
 49
-0.1
  0
LTYPE
  2
ONS_DOTTED
 70
     0
  3
Onshape Dotted line . . . . . . .
 72
    65
 73
     2
 40
0.11
 49
0.01
 49
-0.1
  0
LTYPE
  2
HIDDEN
 70
     0
  3
Hidden line ____ ____ ____ ____ 
 72
    65
 73
     2
 40
0.15
 49
0.1
 49
-0.05
  0
ENDTAB
  0
TABLE
  2
LAYER
 70
    39
  0
LAYER
  2
0
 70
     0
 62
     7
  6
CONTINUOUS
  0
LAYER
  2
SECTION_CUTTING_LINE
 70
     0
 62
     7
  6
ONS_PHANTOM
  0
LAYER
  2
DETAIL_VIEW_BORDER
 70
     0
 62
     7
  6
CONTINUOUS
  0
LAYER
  2
DETAIL_VIEW_PARENT_BORDER
 70
     0
 62
     7
  6
ONS_PHANTOM
  0
LAYER
  2
TEXT
 70
     0
 62
     7
  6
CONTINUOUS
  0
LAYER
  2
SKETCHED_GEOMETRY
 70
     0
 62
    -7
  6
CONTINUOUS
  0
LAYER
  2
VIRTUAL_SHARPS
 70
     0
 62
    -7
  6
CONTINUOUS
  0
LAYER
  2
CENTERLINES
 70
     0
 62
    -7
  6
CENTER
  0
LAYER
  2
CENTERMARKS
 70
     0
 62
    -7
  6
CONTINUOUS
  0
LAYER
  2
TABLES
 70
     0
 62
     7
  6
CONTINUOUS
  0
LAYER
  2
IMAGES
 70
     0
 62
    -7
  6
CONTINUOUS
  0
LAYER
  2
ANNOTATION_LINES
 70
     0
 62
    -7
  6
CONTINUOUS
  0
LAYER
  2
ANNOTATION_TEXT
 70
     0
 62
    -7
  6
CONTINUOUS
  0
LAYER
  2
SIDE_THREAD_SYMBOLS
 70
     0
 62
     7
  6
HIDDEN
  0
LAYER
  2
SIDE_THREAD_SYMBOLS_HIDDEN
 70
     0
 62
    -7
  6
HIDDEN
  0
LAYER
  2
SURFACE_THREAD_SYMBOLS
 70
     0
 62
     7
  6
HIDDEN
  0
LAYER
  2
SURFACE_THREAD_SYMBOLS_ON_
 70
     0
 62
     7
  6
HIDDEN
  0
LAYER
  2
SURFACE_THREAD_SYMBOLS_HID
 70
     0
 62
    -7
  6
HIDDEN
  0
LAYER
  2
BLIND_THREAD_SYMBOLS
 70
     0
 62
     7
  6
CONTINUOUS
  0
LAYER
  2
BLIND_THREAD_SYMBOLS_HIDDE
 70
     0
 62
    -7
  6
HIDDEN
  0
LAYER
  2
EXPLODE_LINES
 70
     0
 62
     7
  6
ONS_PHANTOM
  0
LAYER
  2
HIDDEN_EXPLODE_LINES
 70
     0
 62
    -7
  6
ONS_PHANTOM
  0
LAYER
  2
BREAK_LINES
 70
     0
 62
    -7
  6
CONTINUOUS
  0
LAYER
  2
SHEETMETAL_BEND_LINES_UP
 70
     0
 62
     7
  6
CENTER
  0
LAYER
  2
SHEETMETAL_BEND_LINES_DOWN
 70
     0
 62
     7
  6
CENTER
  0
LAYER
  2
SHEETMETAL_BEND_TANGENT_LI
 70
     0
 62
     7
  6
CONTINUOUS
  0
LAYER
  2
SHEETMETAL_CUT_LINES
 70
     0
 62
     7
  6
CONTINUOUS
  0
LAYER
  2
REGION_ASSOC_POINTS
 70
     0
 62
    -7
  6
CONTINUOUS
  0
LAYER
  2
HIDDEN
 70
     0
 62
    -7
  6
HIDDEN
  0
LAYER
  2
VISIBLE
 70
     0
 62
     7
  6
CONTINUOUS
  0
LAYER
  2
MODELSKETCH_VISIBLE
 70
     0
 62
     7
  6
CONTINUOUS
  0
LAYER
  2
MODELSKETCH_POINT
 70
     0
 62
     7
  6
CONTINUOUS
  0
LAYER
  2
MODELSKETCH_CONSTRUCTION
 70
     0
 62
    -7
  6
CENTER
  0
LAYER
  2
HIDDEN_BASE_VIEW
 70
     0
 62
     7
  6
CONTINUOUS
  0
LAYER
  2
TANGENT_LINES
 70
     0
 62
    -7
  6
CONTINUOUS
  0
LAYER
  2
TANGENT_HIDDEN
 70
     0
 62
    -7
  6
HIDDEN
  0
LAYER
  2
INVISIBLE_LINES
 70
     0
 62
    -7
  6
CONTINUOUS
  0
LAYER
  2
VIEW_HATCHES
 70
     0
 62
    -7
  6
CONTINUOUS
  0
LAYER
  2
SECTION_JOG_LINES
 70
     0
 62
    -7
  6
CONTINUOUS
  0
ENDTAB
  0
TABLE
  2
STYLE
 70
     2
  0
STYLE
  2
STANDARD
 70
     0
 40
0.0
 41
1.0
 50
0.0
 71
     0
 42
0.2
  3
txt
  4

  0
STYLE
  2
TTFSTYLE
 70
     0
 40
0.0
 41
1.0
 50
0.0
 71
     0
 42
0.2
  3
Verdana.ttf
  4

  0
ENDTAB
  0
TABLE
  2
VIEW
 70
     0
  0
ENDTAB
  0
TABLE
  2
UCS
 70
     0
  0
ENDTAB
  0
TABLE
  2
APPID
 70
     1
  0
APPID
  2
ACAD
 70
     0
  0
ENDTAB
  0
TABLE
  2
DIMSTYLE
 70
     1
  0
DIMSTYLE
  2
STANDARD
 70
     0
  3

  4

  5

  6

  7

 40
1.0
 41
0.18
 42
0.0625
 43
0.38
 44
0.18
 45
0.0
 46
0.0
 47
0.0
 48
0.0
140
0.18
141
0.09
142
0.0
143
25.4
144
1.0
145
0.0
146
1.0
147
0.09
 71
     0
 72
     0
 73
     1
 74
     1
 75
     0
 76
     0
 77
     0
 78
     0
170
     0
171
     2
172
     0
173
     0
174
     0
175
     0
176
     0
177
     0
178
     0
  0
ENDTAB
  0
ENDSEC
  0
SECTION
  2
BLOCKS
  0
BLOCK
  8
0
  2
$MODEL_SPACE
 70
     0
 10
0.0
 20
0.0
 30
0.0
  3
$MODEL_SPACE
  1

  0
ENDBLK
  5
21
  8
0
  0
BLOCK
 67
     1
  8
0
  2
$PAPER_SPACE
 70
     0
 10
0.0
 20
0.0
 30
0.0
  3
$PAPER_SPACE
  1

  0
ENDBLK
  5
1D
 67
     1
  8
0
  0
ENDSEC
  0
SECTION
  2
ENTITIES
  0
POLYLINE
  5
10000050
  8
VISIBLE
 66
     1
 10
0.0
 20
0.0
 30
0.0
  0
VERTEX
  5
100001EE
  8
VISIBLE
 10
-15.58845726811991
 20
23.29599999999996
 30
0.0
  0
VERTEX
  5
100001EF
  8
VISIBLE
 10
-15.91990965242015
 20
23.90090965929938
 30
0.0
  0
VERTEX
  5
100001F0
  8
VISIBLE
 10
-16.23091133249746
 20
24.52726931813365
 30
0.0
  0
VERTEX
  5
100001F1
  8
VISIBLE
 10
-16.52373409434819
 20
25.17186944451696
 30
0.0
  0
VERTEX
  5
100001F2
  8
VISIBLE
 10
-16.80064972396868
 20
25.8315005064635
 30
0.0
  0
VERTEX
  5
100001F3
  8
VISIBLE
 10
-17.06393000735526
 20
26.50295297198744
 30
0.0
  0
VERTEX
  5
100001F4
  8
VISIBLE
 10
-17.31584673050428
 20
27.183017309103
 30
0.0
  0
VERTEX
  5
100001F5
  8
VISIBLE
 10
-17.55867167941207
 20
27.86848398582433
 30
0.0
  0
VERTEX
  5
100001F6
  8
VISIBLE
 10
-17.79467664007498
 20
28.55614347016564
 30
0.0
  0
VERTEX
  5
100001F7
  8
VISIBLE
 10
-18.02613339848935
 20
29.2427862301411
 30
0.0
  0
VERTEX
  5
100001F8
  8
VISIBLE
 10
-18.25531374065151
 20
29.9252027337649
 30
0.0
  0
VERTEX
  5
100001F9
  8
VISIBLE
 10
-18.48448945255781
 20
30.60018344905123
 30
0.0
  0
VERTEX
  5
100001FA
  8
VISIBLE
 10
-18.71593232020459
 20
31.26451884401428
 30
0.0
  0
VERTEX
  5
100001FB
  8
VISIBLE
 10
-18.95191412958818
 20
31.91499938666823
 30
0.0
  0
VERTEX
  5
100001FC
  8
VISIBLE
 10
-19.19470666670493
 20
32.54841554502725
 30
0.0
  0
VERTEX
  5
100001FD
  8
VISIBLE
 10
-19.44658171755117
 20
33.16155778710556
 30
0.0
  0
VERTEX
  5
100001FE
  8
VISIBLE
 10
-19.70981106812325
 20
33.75121658091732
 30
0.0
  0
VERTEX
  5
100001FF
  8
VISIBLE
 10
-19.9866665044175
 20
34.31418239447673
 30
0.0
  0
VERTEX
  5
10000200
  8
VISIBLE
 10
-20.27941981243028
 20
34.84724569579797
 30
0.0
  0
VERTEX
  5
10000201
  8
VISIBLE
 10
-20.5903427781579
 20
35.34719695289522
 30
0.0
  0
VERTEX
  5
10000202
  8
VISIBLE
 10
-20.92170718759672
 20
35.81082663378267
 30
0.0
  0
VERTEX
  5
10000203
  8
VISIBLE
 10
-21.27578482674308
 20
36.23492520647451
 30
0.0
  0
VERTEX
  5
10000204
  8
VISIBLE
 10
-21.65484748159331
 20
36.61628313898493
 30
0.0
  0
VERTEX
  5
10000205
  8
VISIBLE
 10
-22.06116693814376
 20
36.9516908993281
 30
0.0
  0
VERTEX
  5
10000206
  8
VISIBLE
 10
-22.49701498239077
 20
37.23793895551822
 30
0.0
  0
SEQEND
  5
10000284
  8
VISIBLE
  0
POLYLINE
  5
10000053
  8
VISIBLE
 66
     1
 10
0.0
 20
0.0
 30
0.0
  0
VERTEX
  5
10000207
  8
VISIBLE
 10
-15.58845726811994
 20
23.29600000000001
 30
0.0
  0
VERTEX
  5
10000208
  8
VISIBLE
 10
-15.23031632832217
 20
22.70649898540138
 30
0.0
  0
VERTEX
  5
10000209
  8
VISIBLE
 10
-14.84337379190459
 20
22.12398380041765
 30
0.0
  0
VERTEX
  5
1000020A
  8
VISIBLE
 10
-14.43154508809935
 20
21.54809178665694
 30
0.0
  0
VERTEX
  5
1000020B
  8
VISIBLE
 10
-13.99874564613859
 20
20.97846028572737
 30
0.0
  0
VERTEX
  5
1000020C
  8
VISIBLE
 10
-13.54889089525444
 20
20.41472663923705
 30
0.0
  0
VERTEX
  5
1000020D
  8
VISIBLE
 10
-13.08589626467906
 20
19.85652818879409
 30
0.0
  0
VERTEX
  5
1000020E
  8
VISIBLE
 10
-12.61367718364459
 20
19.30350227600662
 30
0.0
  0
VERTEX
  5
1000020F
  8
VISIBLE
 10
-12.13614908138317
 20
18.75528624248274
 30
0.0
  0
VERTEX
  5
10000210
  8
VISIBLE
 10
-11.65722738712694
 20
18.21151742983056
 30
0.0
  0
VERTEX
  5
10000211
  8
VISIBLE
 10
-11.18082753010805
 20
17.67183317965822
 30
0.0
  0
VERTEX
  5
10000212
  8
VISIBLE
 10
-10.71086493955865
 20
17.13587083357382
 30
0.0
  0
VERTEX
  5
10000213
  8
VISIBLE
 10
-10.25125504471087
 20
16.60326773318546
 30
0.0
  0
VERTEX
  5
10000214
  8
VISIBLE
 10
-9.805913274796861
 20
16.07366122010129
 30
0.0
  0
VERTEX
  5
10000215
  8
VISIBLE
 10
-9.378755059048768
 20
15.54668863592939
 30
0.0
  0
VERTEX
  5
10000216
  8
VISIBLE
 10
-8.97369582669873
 20
15.02198732227789
 30
0.0
  0
VERTEX
  5
10000217
  8
VISIBLE
 10
-8.594651006978893
 20
14.49919462075491
 30
0.0
  0
VERTEX
  5
10000218
  8
VISIBLE
 10
-8.2455360291214
 20
13.97794787296856
 30
0.0
  0
VERTEX
  5
10000219
  8
VISIBLE
 10
-7.930266322358396
 20
13.45788442052695
 30
0.0
  0
VERTEX
  5
1000021A
  8
VISIBLE
 10
-7.652757315922025
 20
12.9386416050382
 30
0.0
  0
VERTEX
  5
1000021B
  8
VISIBLE
 10
-7.416924439044428
 20
12.41985676811043
 30
0.0
  0
VERTEX
  5
1000021C
  8
VISIBLE
 10
-7.226683120957752
 20
11.90116725135175
 30
0.0
  0
VERTEX
  5
1000021D
  8
VISIBLE
 10
-7.085948790894138
 20
11.38221039637027
 30
0.0
  0
VERTEX
  5
1000021E
  8
VISIBLE
 10
-6.99863687808573
 20
10.8626235447741
 30
0.0
  0
VERTEX
  5
1000021F
  8
VISIBLE
 10
-6.968662811764673
 20
10.34204403817137
 30
0.0
  0
SEQEND
  5
10000285
  8
VISIBLE
  0
LINE
  5
10000056
  8
VISIBLE
 10
-6.96866281176467
 20
8.150015960589633
 30
0.0
 11
-6.968662811764673
 21
10.34204403817137
 31
0.0
  0
ARC
  5
10000059
  8
VISIBLE
 10
-0.0000000000000013
 20
32.29600000000001
 30
0.0
 40
25.13147044276424
 50
253.9015713368906
 51
286.0984286631094
  0
LINE
  5
1000005C
  8
VISIBLE
 10
6.968662811764673
 20
8.150015960589627
 30
0.0
 11
6.968662811764673
 21
10.34204403817137
 31
0.0
  0
POLYLINE
  5
1000005F
  8
VISIBLE
 66
     1
 10
0.0
 20
0.0
 30
0.0
  0
VERTEX
  5
10000220
  8
VISIBLE
 10
15.58845726811994
 20
23.29600000000001
 30
0.0
  0
VERTEX
  5
10000221
  8
VISIBLE
 10
15.23031632832217
 20
22.70649898540138
 30
0.0
  0
VERTEX
  5
10000222
  8
VISIBLE
 10
14.84337379190459
 20
22.12398380041765
 30
0.0
  0
VERTEX
  5
10000223
  8
VISIBLE
 10
14.43154508809935
 20
21.54809178665694
 30
0.0
  0
VERTEX
  5
10000224
  8
VISIBLE
 10
13.99874564613859
 20
20.97846028572737
 30
0.0
  0
VERTEX
  5
10000225
  8
VISIBLE
 10
13.54889089525444
 20
20.41472663923705
 30
0.0
  0
VERTEX
  5
10000226
  8
VISIBLE
 10
13.08589626467906
 20
19.85652818879409
 30
0.0
  0
VERTEX
  5
10000227
  8
VISIBLE
 10
12.61367718364459
 20
19.30350227600662
 30
0.0
  0
VERTEX
  5
10000228
  8
VISIBLE
 10
12.13614908138317
 20
18.75528624248274
 30
0.0
  0
VERTEX
  5
10000229
  8
VISIBLE
 10
11.65722738712694
 20
18.21151742983056
 30
0.0
  0
VERTEX
  5
1000022A
  8
VISIBLE
 10
11.18082753010805
 20
17.67183317965822
 30
0.0
  0
VERTEX
  5
1000022B
  8
VISIBLE
 10
10.71086493955865
 20
17.13587083357382
 30
0.0
  0
VERTEX
  5
1000022C
  8
VISIBLE
 10
10.25125504471087
 20
16.60326773318546
 30
0.0
  0
VERTEX
  5
1000022D
  8
VISIBLE
 10
9.805913274796861
 20
16.07366122010129
 30
0.0
  0
VERTEX
  5
1000022E
  8
VISIBLE
 10
9.378755059048768
 20
15.54668863592939
 30
0.0
  0
VERTEX
  5
1000022F
  8
VISIBLE
 10
8.97369582669873
 20
15.02198732227789
 30
0.0
  0
VERTEX
  5
10000230
  8
VISIBLE
 10
8.594651006978893
 20
14.49919462075491
 30
0.0
  0
VERTEX
  5
10000231
  8
VISIBLE
 10
8.2455360291214
 20
13.97794787296856
 30
0.0
  0
VERTEX
  5
10000232
  8
VISIBLE
 10
7.930266322358396
 20
13.45788442052695
 30
0.0
  0
VERTEX
  5
10000233
  8
VISIBLE
 10
7.652757315922025
 20
12.9386416050382
 30
0.0
  0
VERTEX
  5
10000234
  8
VISIBLE
 10
7.416924439044428
 20
12.41985676811043
 30
0.0
  0
VERTEX
  5
10000235
  8
VISIBLE
 10
7.226683120957752
 20
11.90116725135175
 30
0.0
  0
VERTEX
  5
10000236
  8
VISIBLE
 10
7.085948790894138
 20
11.38221039637027
 30
0.0
  0
VERTEX
  5
10000237
  8
VISIBLE
 10
6.99863687808573
 20
10.8626235447741
 30
0.0
  0
VERTEX
  5
10000238
  8
VISIBLE
 10
6.968662811764673
 20
10.34204403817137
 30
0.0
  0
SEQEND
  5
10000286
  8
VISIBLE
  0
POLYLINE
  5
10000062
  8
VISIBLE
 66
     1
 10
0.0
 20
0.0
 30
0.0
  0
VERTEX
  5
10000239
  8
VISIBLE
 10
15.58845726811992
 20
23.29599999999998
 30
0.0
  0
VERTEX
  5
1000023A
  8
VISIBLE
 10
15.91990965242015
 20
23.90090965929939
 30
0.0
  0
VERTEX
  5
1000023B
  8
VISIBLE
 10
16.23091133249747
 20
24.52726931813367
 30
0.0
  0
VERTEX
  5
1000023C
  8
VISIBLE
 10
16.52373409434819
 20
25.17186944451697
 30
0.0
  0
VERTEX
  5
1000023D
  8
VISIBLE
 10
16.80064972396868
 20
25.83150050646351
 30
0.0
  0
VERTEX
  5
1000023E
  8
VISIBLE
 10
17.06393000735526
 20
26.50295297198746
 30
0.0
  0
VERTEX
  5
1000023F
  8
VISIBLE
 10
17.31584673050428
 20
27.18301730910301
 30
0.0
  0
VERTEX
  5
10000240
  8
VISIBLE
 10
17.55867167941207
 20
27.86848398582434
 30
0.0
  0
VERTEX
  5
10000241
  8
VISIBLE
 10
17.79467664007498
 20
28.55614347016565
 30
0.0
  0
VERTEX
  5
10000242
  8
VISIBLE
 10
18.02613339848935
 20
29.24278623014111
 30
0.0
  0
VERTEX
  5
10000243
  8
VISIBLE
 10
18.25531374065151
 20
29.92520273376491
 30
0.0
  0
VERTEX
  5
10000244
  8
VISIBLE
 10
18.48448945255781
 20
30.60018344905124
 30
0.0
  0
VERTEX
  5
10000245
  8
VISIBLE
 10
18.71593232020459
 20
31.26451884401429
 30
0.0
  0
VERTEX
  5
10000246
  8
VISIBLE
 10
18.95191412958818
 20
31.91499938666824
 30
0.0
  0
VERTEX
  5
10000247
  8
VISIBLE
 10
19.19470666670493
 20
32.54841554502727
 30
0.0
  0
VERTEX
  5
10000248
  8
VISIBLE
 10
19.44658171755117
 20
33.16155778710557
 30
0.0
  0
VERTEX
  5
10000249
  8
VISIBLE
 10
19.70981106812325
 20
33.75121658091733
 30
0.0
  0
VERTEX
  5
1000024A
  8
VISIBLE
 10
19.9866665044175
 20
34.31418239447674
 30
0.0
  0
VERTEX
  5
1000024B
  8
VISIBLE
 10
20.27941981243027
 20
34.84724569579797
 30
0.0
  0
VERTEX
  5
1000024C
  8
VISIBLE
 10
20.5903427781579
 20
35.34719695289522
 30
0.0
  0
VERTEX
  5
1000024D
  8
VISIBLE
 10
20.92170718759672
 20
35.81082663378268
 30
0.0
  0
VERTEX
  5
1000024E
  8
VISIBLE
 10
21.27578482674308
 20
36.23492520647452
 30
0.0
  0
VERTEX
  5
1000024F
  8
VISIBLE
 10
21.65484748159331
 20
36.61628313898494
 30
0.0
  0
VERTEX
  5
10000250
  8
VISIBLE
 10
22.06116693814375
 20
36.95169089932811
 30
0.0
  0
VERTEX
  5
10000251
  8
VISIBLE
 10
22.49701498239076
 20
37.23793895551823
 30
0.0
  0
SEQEND
  5
10000287
  8
VISIBLE
  0
LINE
  5
10000065
  8
VISIBLE
 10
24.39536698338531
 20
38.33395299430911
 30
0.0
 11
22.49701498239076
 21
37.23793895551823
 31
0.0
  0
ARC
  5
10000068
  8
VISIBLE
 10
0.0
 20
32.29600000000001
 30
0.0
 40
25.13147044276424
 50
13.90157133689064
 51
46.09842866310944
  0
LINE
  5
1000006B
  8
VISIBLE
 10
17.42670417162064
 20
50.40403104510131
 30
0.0
 11
15.52835217062608
 21
49.30801700631044
 31
0.0
  0
POLYLINE
  5
1000006E
  8
VISIBLE
 66
     1
 10
0.0
 20
0.0
 30
0.0
  0
VERTEX
  5
10000252
  8
VISIBLE
 10
-0.0000000000000347
 20
50.29600000000003
 30
0.0
  0
VERTEX
  5
10000253
  8
VISIBLE
 10
0.6895933240979655
 20
50.28059135529926
 30
0.0
  0
VERTEX
  5
10000254
  8
VISIBLE
 10
1.387537540592855
 20
50.23674688144871
 30
0.0
  0
VERTEX
  5
10000255
  8
VISIBLE
 10
2.092189006248825
 20
50.16803876882611
 30
0.0
  0
VERTEX
  5
10000256
  8
VISIBLE
 10
2.801904077830077
 20
50.07803920780915
 30
0.0
  0
VERTEX
  5
10000257
  8
VISIBLE
 10
3.515039112100803
 20
49.97032038877552
 30
0.0
  0
VERTEX
  5
10000258
  8
VISIBLE
 10
4.229950465825203
 20
49.84845450210292
 30
0.0
  0
VERTEX
  5
10000259
  8
VISIBLE
 10
4.944994495767471
 20
49.71601373816907
 30
0.0
  0
VERTEX
  5
1000025A
  8
VISIBLE
 10
5.658527558691803
 20
49.57657028735164
 30
0.0
  0
VERTEX
  5
1000025B
  8
VISIBLE
 10
6.368906011362398
 20
49.43369634002836
 30
0.0
  0
VERTEX
  5
1000025C
  8
VISIBLE
 10
7.07448621054345
 20
49.29096408657689
 30
0.0
  0
VERTEX
  5
1000025D
  8
VISIBLE
 10
7.773624512999154
 20
49.15194571737497
 30
0.0
  0
VERTEX
  5
1000025E
  8
VISIBLE
 10
8.464677275493708
 20
49.02021342280027
 30
0.0
  0
VERTEX
  5
1000025F
  8
VISIBLE
 10
9.146000854791307
 20
48.89933939323051
 30
0.0
  0
VERTEX
  5
10000260
  8
VISIBLE
 10
9.81595160765615
 20
48.79289581904337
 30
0.0
  0
VERTEX
  5
10000261
  8
VISIBLE
 10
10.47288589085243
 20
48.70445489061656
 30
0.0
  0
VERTEX
  5
10000262
  8
VISIBLE
 10
11.11516006114434
 20
48.63758879832778
 30
0.0
  0
VERTEX
  5
10000263
  8
VISIBLE
 10
11.74113047529609
 20
48.59586973255473
 30
0.0
  0
VERTEX
  5
10000264
  8
VISIBLE
 10
12.34915349007187
 20
48.5828698836751
 30
0.0
  0
VERTEX
  5
10000265
  8
VISIBLE
 10
12.93758546223586
 20
48.6021614420666
 30
0.0
  0
VERTEX
  5
10000266
  8
VISIBLE
 10
13.50478274855228
 20
48.65731659810692
 30
0.0
  0
VERTEX
  5
10000267
  8
VISIBLE
 10
14.04910170578531
 20
48.75190754217377
 30
0.0
  0
VERTEX
  5
10000268
  8
VISIBLE
 10
14.56889869069916
 20
48.88950646464484
 30
0.0
  0
VERTEX
  5
10000269
  8
VISIBLE
 10
15.06253006005802
 20
49.07368555589782
 30
0.0
  0
VERTEX
  5
1000026A
  8
VISIBLE
 10
15.52835217062608
 20
49.30801700631044
 30
0.0
  0
SEQEND
  5
10000288
  8
VISIBLE
  0
POLYLINE
  5
10000071
  8
VISIBLE
 66
     1
 10
0.0
 20
0.0
 30
0.0
  0
VERTEX
  5
1000026B
  8
VISIBLE
 10
0.0000000000000208
 20
50.29600000000003
 30
0.0
  0
VERTEX
  5
1000026C
  8
VISIBLE
 10
-0.6895933240979801
 20
50.28059135529926
 30
0.0
  0
VERTEX
  5
1000026D
  8
VISIBLE
 10
-1.38753754059287
 20
50.23674688144871
 30
0.0
  0
VERTEX
  5
1000026E
  8
VISIBLE
 10
-2.092189006248841
 20
50.16803876882611
 30
0.0
  0
VERTEX
  5
1000026F
  8
VISIBLE
 10
-2.801904077830093
 20
50.07803920780915
 30
0.0
  0
VERTEX
  5
10000270
  8
VISIBLE
 10
-3.51503911210082
 20
49.97032038877552
 30
0.0
  0
VERTEX
  5
10000271
  8
VISIBLE
 10
-4.22995046582522
 20
49.84845450210292
 30
0.0
  0
VERTEX
  5
10000272
  8
VISIBLE
 10
-4.944994495767487
 20
49.71601373816907
 30
0.0
  0
VERTEX
  5
10000273
  8
VISIBLE
 10
-5.65852755869182
 20
49.57657028735164
 30
0.0
  0
VERTEX
  5
10000274
  8
VISIBLE
 10
-6.368906011362414
 20
49.43369634002836
 30
0.0
  0
VERTEX
  5
10000275
  8
VISIBLE
 10
-7.074486210543466
 20
49.29096408657689
 30
0.0
  0
VERTEX
  5
10000276
  8
VISIBLE
 10
-7.77362451299917
 20
49.15194571737496
 30
0.0
  0
VERTEX
  5
10000277
  8
VISIBLE
 10
-8.464677275493724
 20
49.02021342280027
 30
0.0
  0
VERTEX
  5
10000278
  8
VISIBLE
 10
-9.146000854791323
 20
48.89933939323051
 30
0.0
  0
VERTEX
  5
10000279
  8
VISIBLE
 10
-9.815951607656165
 20
48.79289581904337
 30
0.0
  0
VERTEX
  5
1000027A
  8
VISIBLE
 10
-10.47288589085245
 20
48.70445489061656
 30
0.0
  0
VERTEX
  5
1000027B
  8
VISIBLE
 10
-11.11516006114436
 20
48.63758879832777
 30
0.0
  0
VERTEX
  5
1000027C
  8
VISIBLE
 10
-11.74113047529611
 20
48.59586973255472
 30
0.0
  0
VERTEX
  5
1000027D
  8
VISIBLE
 10
-12.34915349007188
 20
48.58286988367509
 30
0.0
  0
VERTEX
  5
1000027E
  8
VISIBLE
 10
-12.93758546223588
 20
48.60216144206659
 30
0.0
  0
VERTEX
  5
1000027F
  8
VISIBLE
 10
-13.5047827485523
 20
48.65731659810691
 30
0.0
  0
VERTEX
  5
10000280
  8
VISIBLE
 10
-14.04910170578533
 20
48.75190754217375
 30
0.0
  0
VERTEX
  5
10000281
  8
VISIBLE
 10
-14.56889869069918
 20
48.88950646464482
 30
0.0
  0
VERTEX
  5
10000282
  8
VISIBLE
 10
-15.06253006005803
 20
49.07368555589781
 30
0.0
  0
VERTEX
  5
10000283
  8
VISIBLE
 10
-15.5283521706261
 20
49.30801700631042
 30
0.0
  0
SEQEND
  5
10000289
  8
VISIBLE
  0
LINE
  5
10000074
  8
VISIBLE
 10
-17.42670417162065
 20
50.40403104510128
 30
0.0
 11
-15.5283521706261
 21
49.30801700631042
 31
0.0
  0
ARC
  5
10000077
  8
VISIBLE
 10
0.0
 20
32.29600000000001
 30
0.0
 40
25.13147044276424
 50
133.9015713368906
 51
166.0984286631094
  0
LINE
  5
1000007A
  8
VISIBLE
 10
-24.39536698338532
 20
38.33395299430909
 30
0.0
 11
-22.49701498239077
 21
37.23793895551822
 31
0.0
  0
LINE
  5
1000007D
  8
VISIBLE
 10
3.815429007901094
 20
12.25000000001
 30
0.0
 11
3.815429007901094
 21
12.45000000001
 31
0.0
  0
LINE
  5
10000080
  8
VISIBLE
 10
3.815429007901094
 20
12.45000000001
 30
0.0
 11
4.015429007901095
 21
12.45000000001
 31
0.0
  0
LINE
  5
10000083
  8
VISIBLE
 10
4.015429007901095
 20
12.45000000001
 30
0.0
 11
4.015429007901095
 21
12.25000000001
 31
0.0
  0
LINE
  5
10000086
  8
VISIBLE
 10
4.015429007901095
 20
12.25000000001
 30
0.0
 11
3.815429007901094
 21
12.25000000001
 31
0.0
  0
LINE
  5
10000089
  8
VISIBLE
 10
1.815429007901094
 20
12.25000000001
 30
0.0
 11
1.815429007901094
 21
12.45000000001
 31
0.0
  0
LINE
  5
1000008C
  8
VISIBLE
 10
1.815429007901094
 20
12.45000000001
 30
0.0
 11
2.015429007901093
 21
12.45000000001
 31
0.0
  0
LINE
  5
1000008F
  8
VISIBLE
 10
2.015429007901093
 20
12.45000000001
 30
0.0
 11
2.015429007901093
 21
12.25000000001
 31
0.0
  0
LINE
  5
10000092
  8
VISIBLE
 10
2.015429007901093
 20
12.25000000001
 30
0.0
 11
1.815429007901094
 21
12.25000000001
 31
0.0
  0
LINE
  5
10000095
  8
VISIBLE
 10
-0.1845709921189061
 20
12.25000000001
 30
0.0
 11
-0.1845709921189061
 21
12.45000000001
 31
0.0
  0
LINE
  5
10000098
  8
VISIBLE
 10
-0.1845709921189061
 20
12.45000000001
 30
0.0
 11
0.0154290079010939
 21
12.45000000001
 31
0.0
  0
LINE
  5
1000009B
  8
VISIBLE
 10
0.0154290079010939
 20
12.45000000001
 30
0.0
 11
0.0154290079010939
 21
12.25000000001
 31
0.0
  0
LINE
  5
1000009E
  8
VISIBLE
 10
0.0154290079010939
 20
12.25000000001
 30
0.0
 11
-0.1845709921189061
 21
12.25000000001
 31
0.0
  0
LINE
  5
100000A1
  8
VISIBLE
 10
-2.184570992118906
 20
12.25000000001
 30
0.0
 11
-2.184570992118906
 21
12.45000000001
 31
0.0
  0
LINE
  5
100000A4
  8
VISIBLE
 10
-2.184570992118906
 20
12.45000000001
 30
0.0
 11
-1.984570992118906
 21
12.45000000001
 31
0.0
  0
LINE
  5
100000A7
  8
VISIBLE
 10
-1.984570992118906
 20
12.45000000001
 30
0.0
 11
-1.984570992118906
 21
12.25000000001
 31
0.0
  0
LINE
  5
100000AA
  8
VISIBLE
 10
-1.984570992118906
 20
12.25000000001
 30
0.0
 11
-2.184570992118906
 21
12.25000000001
 31
0.0
  0
LINE
  5
100000AD
  8
VISIBLE
 10
-2.184570992118906
 20
10.25000000001
 30
0.0
 11
-2.184570992118906
 21
10.45000000001
 31
0.0
  0
LINE
  5
100000B0
  8
VISIBLE
 10
-2.184570992118906
 20
10.45000000001
 30
0.0
 11
-1.984570992118906
 21
10.45000000001
 31
0.0
  0
LINE
  5
100000B3
  8
VISIBLE
 10
-1.984570992118906
 20
10.45000000001
 30
0.0
 11
-1.984570992118906
 21
10.25000000001
 31
0.0
  0
LINE
  5
100000B6
  8
VISIBLE
 10
-1.984570992118906
 20
10.25000000001
 30
0.0
 11
-2.184570992118906
 21
10.25000000001
 31
0.0
  0
LINE
  5
100000B9
  8
VISIBLE
 10
-0.1845709921189061
 20
10.25000000001
 30
0.0
 11
-0.1845709921189061
 21
10.45000000001
 31
0.0
  0
LINE
  5
100000BC
  8
VISIBLE
 10
-0.1845709921189061
 20
10.45000000001
 30
0.0
 11
0.0154290079010939
 21
10.45000000001
 31
0.0
  0
LINE
  5
100000BF
  8
VISIBLE
 10
0.0154290079010939
 20
10.45000000001
 30
0.0
 11
0.0154290079010939
 21
10.25000000001
 31
0.0
  0
LINE
  5
100000C2
  8
VISIBLE
 10
0.0154290079010939
 20
10.25000000001
 30
0.0
 11
-0.1845709921189061
 21
10.25000000001
 31
0.0
  0
LINE
  5
100000C5
  8
VISIBLE
 10
1.815429007901094
 20
10.25000000001
 30
0.0
 11
1.815429007901094
 21
10.45000000001
 31
0.0
  0
LINE
  5
100000C8
  8
VISIBLE
 10
1.815429007901094
 20
10.45000000001
 30
0.0
 11
2.015429007901093
 21
10.45000000001
 31
0.0
  0
LINE
  5
100000CB
  8
VISIBLE
 10
2.015429007901093
 20
10.45000000001
 30
0.0
 11
2.015429007901093
 21
10.25000000001
 31
0.0
  0
LINE
  5
100000CE
  8
VISIBLE
 10
2.015429007901093
 20
10.25000000001
 30
0.0
 11
1.815429007901094
 21
10.25000000001
 31
0.0
  0
LINE
  5
100000D1
  8
VISIBLE
 10
3.815429007901094
 20
10.25000000001
 30
0.0
 11
3.815429007901094
 21
10.45000000001
 31
0.0
  0
LINE
  5
100000D4
  8
VISIBLE
 10
3.815429007901094
 20
10.45000000001
 30
0.0
 11
4.015429007901095
 21
10.45000000001
 31
0.0
  0
LINE
  5
100000D7
  8
VISIBLE
 10
4.015429007901095
 20
10.45000000001
 30
0.0
 11
4.015429007901095
 21
10.25000000001
 31
0.0
  0
LINE
  5
100000DA
  8
VISIBLE
 10
4.015429007901095
 20
10.25000000001
 30
0.0
 11
3.815429007901094
 21
10.25000000001
 31
0.0
  0
LINE
  5
100000DD
  8
VISIBLE
 10
-4.184570992118905
 20
10.25000000001
 30
0.0
 11
-4.184570992118905
 21
10.45000000001
 31
0.0
  0
LINE
  5
100000E0
  8
VISIBLE
 10
-4.184570992118905
 20
10.45000000001
 30
0.0
 11
-3.984570992118905
 21
10.45000000001
 31
0.0
  0
LINE
  5
100000E3
  8
VISIBLE
 10
-3.984570992118905
 20
10.45000000001
 30
0.0
 11
-3.984570992118905
 21
10.25000000001
 31
0.0
  0
LINE
  5
100000E6
  8
VISIBLE
 10
-3.984570992118905
 20
10.25000000001
 30
0.0
 11
-4.184570992118905
 21
10.25000000001
 31
0.0
  0
LINE
  5
100000E9
  8
VISIBLE
 10
-4.184570992118905
 20
12.25000000001
 30
0.0
 11
-4.184570992118905
 21
12.45000000001
 31
0.0
  0
LINE
  5
100000EC
  8
VISIBLE
 10
-4.184570992118905
 20
12.45000000001
 30
0.0
 11
-3.984570992118905
 21
12.45000000001
 31
0.0
  0
LINE
  5
100000EF
  8
VISIBLE
 10
-3.984570992118905
 20
12.45000000001
 30
0.0
 11
-3.984570992118905
 21
12.25000000001
 31
0.0
  0
LINE
  5
100000F2
  8
VISIBLE
 10
-3.984570992118905
 20
12.25000000001
 30
0.0
 11
-4.184570992118905
 21
12.25000000001
 31
0.0
  0
LINE
  5
100000F5
  8
VISIBLE
 10
-19.26805974820475
 20
39.0147415528166
 30
0.0
 11
-19.09485466744786
 21
38.9147415528166
 31
0.0
  0
LINE
  5
100000F8
  8
VISIBLE
 10
-19.09485466744786
 20
38.9147415528166
 30
0.0
 11
-19.19485466744786
 21
38.74153647205971
 31
0.0
  0
LINE
  5
100000FB
  8
VISIBLE
 10
-19.19485466744786
 20
38.74153647205971
 30
0.0
 11
-19.36805974820475
 21
38.84153647205971
 31
0.0
  0
LINE
  5
100000FE
  8
VISIBLE
 10
-19.36805974820475
 20
38.84153647205971
 30
0.0
 11
-19.26805974820475
 21
39.0147415528166
 31
0.0
  0
LINE
  5
10000101
  8
VISIBLE
 10
-18.26805974820475
 20
40.74679236038548
 30
0.0
 11
-18.09485466744786
 21
40.64679236038548
 31
0.0
  0
LINE
  5
10000104
  8
VISIBLE
 10
-18.09485466744786
 20
40.64679236038548
 30
0.0
 11
-18.19485466744786
 21
40.47358727962859
 31
0.0
  0
LINE
  5
10000107
  8
VISIBLE
 10
-18.19485466744786
 20
40.47358727962859
 30
0.0
 11
-18.36805974820475
 21
40.57358727962859
 31
0.0
  0
LINE
  5
1000010A
  8
VISIBLE
 10
-18.36805974820475
 20
40.57358727962859
 30
0.0
 11
-18.26805974820475
 21
40.74679236038548
 31
0.0
  0
LINE
  5
1000010D
  8
VISIBLE
 10
-17.26805974819475
 20
42.47884316797168
 30
0.0
 11
-17.09485466743786
 21
42.37884316797167
 31
0.0
  0
LINE
  5
10000110
  8
VISIBLE
 10
-17.09485466743786
 20
42.37884316797167
 30
0.0
 11
-17.19485466744786
 21
42.20563808719747
 31
0.0
  0
LINE
  5
10000113
  8
VISIBLE
 10
-17.19485466744786
 20
42.20563808719747
 30
0.0
 11
-17.36805974820475
 21
42.30563808719747
 31
0.0
  0
LINE
  5
10000116
  8
VISIBLE
 10
-17.36805974820475
 20
42.30563808719747
 30
0.0
 11
-17.26805974819475
 21
42.47884316797168
 31
0.0
  0
LINE
  5
10000119
  8
VISIBLE
 10
-16.26805974819475
 20
44.21089397554055
 30
0.0
 11
-16.09485466743786
 21
44.11089397554055
 31
0.0
  0
LINE
  5
1000011C
  8
VISIBLE
 10
-16.09485466743786
 20
44.11089397554055
 30
0.0
 11
-16.19485466743786
 21
43.93768889478367
 31
0.0
  0
LINE
  5
1000011F
  8
VISIBLE
 10
-16.19485466743786
 20
43.93768889478367
 30
0.0
 11
-16.36805974819475
 21
44.03768889478366
 31
0.0
  0
LINE
  5
10000122
  8
VISIBLE
 10
-16.36805974819475
 20
44.03768889478366
 30
0.0
 11
-16.26805974819475
 21
44.21089397554055
 31
0.0
  0
LINE
  5
10000125
  8
VISIBLE
 10
-18.00011055576363
 20
45.21089397554055
 30
0.0
 11
-17.82690547500674
 21
45.11089397554055
 31
0.0
  0
LINE
  5
10000128
  8
VISIBLE
 10
-17.82690547500674
 20
45.11089397554055
 30
0.0
 11
-17.92690547500674
 21
44.93768889478367
 31
0.0
  0
LINE
  5
1000012B
  8
VISIBLE
 10
-17.92690547500674
 20
44.93768889478367
 30
0.0
 11
-18.10011055576363
 21
45.03768889478366
 31
0.0
  0
LINE
  5
1000012E
  8
VISIBLE
 10
-18.10011055576363
 20
45.03768889478366
 30
0.0
 11
-18.00011055576363
 21
45.21089397554055
 31
0.0
  0
LINE
  5
10000131
  8
VISIBLE
 10
-19.00011055576363
 20
43.47884316797168
 30
0.0
 11
-18.82690547500674
 21
43.37884316797167
 31
0.0
  0
LINE
  5
10000134
  8
VISIBLE
 10
-18.82690547500674
 20
43.37884316797167
 30
0.0
 11
-18.92690547501674
 21
43.20563808719746
 31
0.0
  0
LINE
  5
10000137
  8
VISIBLE
 10
-18.92690547501674
 20
43.20563808719746
 30
0.0
 11
-19.10011055577363
 21
43.30563808719747
 31
0.0
  0
LINE
  5
1000013A
  8
VISIBLE
 10
-19.10011055577363
 20
43.30563808719747
 30
0.0
 11
-19.00011055576363
 21
43.47884316797168
 31
0.0
  0
LINE
  5
1000013D
  8
VISIBLE
 10
-20.00011055577363
 20
41.74679236038548
 30
0.0
 11
-19.82690547501674
 21
41.64679236038548
 31
0.0
  0
LINE
  5
10000140
  8
VISIBLE
 10
-19.82690547501674
 20
41.64679236038548
 30
0.0
 11
-19.92690547501674
 21
41.47358727962859
 31
0.0
  0
LINE
  5
10000143
  8
VISIBLE
 10
-19.92690547501674
 20
41.47358727962859
 30
0.0
 11
-20.10011055577363
 21
41.57358727962858
 31
0.0
  0
LINE
  5
10000146
  8
VISIBLE
 10
-20.10011055577363
 20
41.57358727962858
 30
0.0
 11
-20.00011055577363
 21
41.74679236038548
 31
0.0
  0
LINE
  5
10000149
  8
VISIBLE
 10
-21.00011055577363
 20
40.0147415528166
 30
0.0
 11
-20.82690547501674
 21
39.9147415528166
 31
0.0
  0
LINE
  5
1000014C
  8
VISIBLE
 10
-20.82690547501674
 20
39.9147415528166
 30
0.0
 11
-20.92690547501674
 21
39.74153647205971
 31
0.0
  0
LINE
  5
1000014F
  8
VISIBLE
 10
-20.92690547501674
 20
39.74153647205971
 30
0.0
 11
-21.10011055577363
 21
39.84153647205971
 31
0.0
  0
LINE
  5
10000152
  8
VISIBLE
 10
-21.10011055577363
 20
39.84153647205971
 30
0.0
 11
-21.00011055577363
 21
40.0147415528166
 31
0.0
  0
LINE
  5
10000155
  8
VISIBLE
 10
-17.00011055576363
 20
46.94294478310943
 30
0.0
 11
-16.82690547500674
 21
46.84294478310943
 31
0.0
  0
LINE
  5
10000158
  8
VISIBLE
 10
-16.82690547500674
 20
46.84294478310943
 30
0.0
 11
-16.92690547500674
 21
46.66973970235254
 31
0.0
  0
LINE
  5
1000015B
  8
VISIBLE
 10
-16.92690547500674
 20
46.66973970235254
 30
0.0
 11
-17.10011055576363
 21
46.76973970235254
 31
0.0
  0
LINE
  5
1000015E
  8
VISIBLE
 10
-17.10011055576363
 20
46.76973970235254
 30
0.0
 11
-17.00011055576363
 21
46.94294478310943
 31
0.0
  0
LINE
  5
10000161
  8
VISIBLE
 10
-15.26805974819475
 20
45.94294478310943
 30
0.0
 11
-15.09485466743786
 21
45.84294478310943
 31
0.0
  0
LINE
  5
10000164
  8
VISIBLE
 10
-15.09485466743786
 20
45.84294478310943
 30
0.0
 11
-15.19485466743786
 21
45.66973970235254
 31
0.0
  0
LINE
  5
10000167
  8
VISIBLE
 10
-15.19485466743786
 20
45.66973970235254
 30
0.0
 11
-15.36805974819475
 21
45.76973970235254
 31
0.0
  0
LINE
  5
1000016A
  8
VISIBLE
 10
-15.36805974819475
 20
45.76973970235254
 30
0.0
 11
-15.26805974819475
 21
45.94294478310943
 31
0.0
  0
LINE
  5
1000016D
  8
VISIBLE
 10
15.45263074030365
 20
45.62325844717342
 30
0.0
 11
15.27942565954676
 21
45.52325844717342
 31
0.0
  0
LINE
  5
10000170
  8
VISIBLE
 10
15.27942565954676
 20
45.52325844717342
 30
0.0
 11
15.17942565954676
 21
45.69646352793031
 31
0.0
  0
LINE
  5
10000173
  8
VISIBLE
 10
15.17942565954676
 20
45.69646352793031
 30
0.0
 11
15.35263074030365
 21
45.79646352793031
 31
0.0
  0
LINE
  5
10000176
  8
VISIBLE
 10
15.35263074030365
 20
45.79646352793031
 30
0.0
 11
15.45263074030365
 21
45.62325844717342
 31
0.0
  0
LINE
  5
10000179
  8
VISIBLE
 10
16.45263074030365
 20
43.89120763960454
 30
0.0
 11
16.27942565954676
 21
43.79120763960454
 31
0.0
  0
LINE
  5
1000017C
  8
VISIBLE
 10
16.27942565954676
 20
43.79120763960454
 30
0.0
 11
16.17942565954676
 21
43.96441272036143
 31
0.0
  0
LINE
  5
1000017F
  8
VISIBLE
 10
16.17942565954676
 20
43.96441272036143
 30
0.0
 11
16.35263074030365
 21
44.06441272036143
 31
0.0
  0
LINE
  5
10000182
  8
VISIBLE
 10
16.35263074030365
 20
44.06441272036143
 30
0.0
 11
16.45263074030365
 21
43.89120763960454
 31
0.0
  0
LINE
  5
10000185
  8
VISIBLE
 10
17.45263074031365
 20
42.15915683201835
 30
0.0
 11
17.27942565955676
 21
42.05915683201835
 31
0.0
  0
LINE
  5
10000188
  8
VISIBLE
 10
17.27942565955676
 20
42.05915683201835
 30
0.0
 11
17.17942565954676
 21
42.23236191279256
 31
0.0
  0
LINE
  5
1000018B
  8
VISIBLE
 10
17.17942565954676
 20
42.23236191279256
 30
0.0
 11
17.35263074030365
 21
42.33236191279256
 31
0.0
  0
LINE
  5
1000018E
  8
VISIBLE
 10
17.35263074030365
 20
42.33236191279256
 30
0.0
 11
17.45263074031365
 21
42.15915683201835
 31
0.0
  0
LINE
  5
10000191
  8
VISIBLE
 10
18.45263074031365
 20
40.42710602444947
 30
0.0
 11
18.27942565955676
 21
40.32710602444947
 31
0.0
  0
LINE
  5
10000194
  8
VISIBLE
 10
18.27942565955676
 20
40.32710602444947
 30
0.0
 11
18.17942565955676
 21
40.50031110520636
 31
0.0
  0
LINE
  5
10000197
  8
VISIBLE
 10
18.17942565955676
 20
40.50031110520636
 30
0.0
 11
18.35263074031365
 21
40.60031110520636
 31
0.0
  0
LINE
  5
1000019A
  8
VISIBLE
 10
18.35263074031365
 20
40.60031110520636
 30
0.0
 11
18.45263074031365
 21
40.42710602444947
 31
0.0
  0
LINE
  5
1000019D
  8
VISIBLE
 10
20.18468154788253
 20
41.42710602444947
 30
0.0
 11
20.01147646712564
 21
41.32710602444947
 31
0.0
  0
LINE
  5
100001A0
  8
VISIBLE
 10
20.01147646712564
 20
41.32710602444947
 30
0.0
 11
19.91147646712564
 21
41.50031110520636
 31
0.0
  0
LINE
  5
100001A3
  8
VISIBLE
 10
19.91147646712564
 20
41.50031110520636
 30
0.0
 11
20.08468154788252
 21
41.60031110520636
 31
0.0
  0
LINE
  5
100001A6
  8
VISIBLE
 10
20.08468154788252
 20
41.60031110520636
 30
0.0
 11
20.18468154788253
 21
41.42710602444947
 31
0.0
  0
LINE
  5
100001A9
  8
VISIBLE
 10
19.18468154788253
 20
43.15915683201835
 30
0.0
 11
19.01147646712564
 21
43.05915683201835
 31
0.0
  0
LINE
  5
100001AC
  8
VISIBLE
 10
19.01147646712564
 20
43.05915683201835
 30
0.0
 11
18.91147646711563
 21
43.23236191279256
 31
0.0
  0
LINE
  5
100001AF
  8
VISIBLE
 10
18.91147646711563
 20
43.23236191279256
 30
0.0
 11
19.08468154787252
 21
43.33236191279256
 31
0.0
  0
LINE
  5
100001B2
  8
VISIBLE
 10
19.08468154787252
 20
43.33236191279256
 30
0.0
 11
19.18468154788253
 21
43.15915683201835
 31
0.0
  0
LINE
  5
100001B5
  8
VISIBLE
 10
18.18468154787252
 20
44.89120763960454
 30
0.0
 11
18.01147646711564
 21
44.79120763960454
 31
0.0
  0
LINE
  5
100001B8
  8
VISIBLE
 10
18.01147646711564
 20
44.79120763960454
 30
0.0
 11
17.91147646711563
 21
44.96441272036143
 31
0.0
  0
LINE
  5
100001BB
  8
VISIBLE
 10
17.91147646711563
 20
44.96441272036143
 30
0.0
 11
18.08468154787252
 21
45.06441272036143
 31
0.0
  0
LINE
  5
100001BE
  8
VISIBLE
 10
18.08468154787252
 20
45.06441272036143
 30
0.0
 11
18.18468154787252
 21
44.89120763960454
 31
0.0
  0
LINE
  5
100001C1
  8
VISIBLE
 10
17.18468154787252
 20
46.62325844717343
 30
0.0
 11
17.01147646711564
 21
46.52325844717342
 31
0.0
  0
LINE
  5
100001C4
  8
VISIBLE
 10
17.01147646711564
 20
46.52325844717342
 30
0.0
 11
16.91147646711563
 21
46.69646352793031
 31
0.0
  0
LINE
  5
100001C7
  8
VISIBLE
 10
16.91147646711563
 20
46.69646352793031
 30
0.0
 11
17.08468154787252
 21
46.79646352793031
 31
0.0
  0
LINE
  5
100001CA
  8
VISIBLE
 10
17.08468154787252
 20
46.79646352793031
 30
0.0
 11
17.18468154787252
 21
46.62325844717343
 31
0.0
  0
LINE
  5
100001CD
  8
VISIBLE
 10
21.18468154788253
 20
39.6950552168806
 30
0.0
 11
21.01147646712564
 21
39.5950552168806
 31
0.0
  0
LINE
  5
100001D0
  8
VISIBLE
 10
21.01147646712564
 20
39.5950552168806
 30
0.0
 11
20.91147646712563
 21
39.76826029763748
 31
0.0
  0
LINE
  5
100001D3
  8
VISIBLE
 10
20.91147646712563
 20
39.76826029763748
 30
0.0
 11
21.08468154788252
 21
39.86826029763748
 31
0.0
  0
LINE
  5
100001D6
  8
VISIBLE
 10
21.08468154788252
 20
39.86826029763748
 30
0.0
 11
21.18468154788253
 21
39.6950552168806
 31
0.0
  0
LINE
  5
100001D9
  8
VISIBLE
 10
19.45263074031365
 20
38.6950552168806
 30
0.0
 11
19.27942565955676
 21
38.5950552168806
 31
0.0
  0
LINE
  5
100001DC
  8
VISIBLE
 10
19.27942565955676
 20
38.5950552168806
 30
0.0
 11
19.17942565955676
 21
38.76826029763748
 31
0.0
  0
LINE
  5
100001DF
  8
VISIBLE
 10
19.17942565955676
 20
38.76826029763748
 30
0.0
 11
19.35263074031365
 21
38.86826029763748
 31
0.0
  0
LINE
  5
100001E2
  8
VISIBLE
 10
19.35263074031365
 20
38.86826029763748
 30
0.0
 11
19.45263074031365
 21
38.6950552168806
 31
0.0
  0
ENDSEC
  0
EOF
