  0
SECTION
  2
HEADER
  9
$ACADVER
  1
AC1009
  9
$DWGCODEPAGE
  3
ansi_1252
  9
$INSBASE
 10
0.0
 20
0.0
 30
0.0
  9
$EXTMIN
 10
1.000000000000000E+20
 20
1.000000000000000E+20
 30
1.000000000000000E+20
  9
$EXTMAX
 10
-1.000000000000000E+20
 20
-1.000000000000000E+20
 30
-1.000000000000000E+20
  9
$LIMMIN
 10
0.0
 20
0.0
  9
$LIMMAX
 10
12.0
 20
9.0
  9
$ORTHOMODE
 70
     0
  9
$REGENMODE
 70
     1
  9
$FILLMODE
 70
     1
  9
$QTEXTMODE
 70
     0
  9
$MIRRTEXT
 70
     1
  9
$DRAGMODE
 70
     2
  9
$LTSCALE
 40
1.0
  9
$OSMODE
 70
    37
  9
$ATTMODE
 70
     1
  9
$TEXTSIZE
 40
0.2
  9
$TRACEWID
 40
0.05
  9
$TEXTSTYLE
  7
STANDARD
  9
$CLAYER
  8
0
  9
$CELTYPE
  6
BYLAYER
  9
$CECOLOR
 62
   256
  9
$DIMSCALE
 40
1.0
  9
$DIMASZ
 40
0.18
  9
$DIMEXO
 40
0.0625
  9
$DIMDLI
 40
0.38
  9
$DIMRND
 40
0.0
  9
$DIMDLE
 40
0.0
  9
$DIMEXE
 40
0.18
  9
$DIMTP
 40
0.0
  9
$DIMTM
 40
0.0
  9
$DIMTXT
 40
0.18
  9
$DIMCEN
 40
0.09
  9
$DIMTSZ
 40
0.0
  9
$DIMTOL
 70
     0
  9
$DIMLIM
 70
     0
  9
$DIMTIH
 70
     1
  9
$DIMTOH
 70
     1
  9
$DIMSE1
 70
     0
  9
$DIMSE2
 70
     0
  9
$DIMTAD
 70
     0
  9
$DIMZIN
 70
     0
  9
$DIMBLK
  1

  9
$DIMASO
 70
     1
  9
$DIMSHO
 70
     1
  9
$DIMPOST
  1

  9
$DIMAPOST
  1

  9
$DIMALT
 70
     0
  9
$DIMALTD
 70
     2
  9
$DIMALTF
 40
0.0393700787401575
  9
$DIMLFAC
 40
1.0
  9
$DIMTOFL
 70
     0
  9
$DIMTVP
 40
0.0
  9
$DIMTIX
 70
     0
  9
$DIMSOXD
 70
     0
  9
$DIMSAH
 70
     0
  9
$DIMBLK1
  1

  9
$DIMBLK2
  1

  9
$DIMSTYLE
  2
STANDARD
  9
$DIMCLRD
 70
     0
  9
$DIMCLRE
 70
     0
  9
$DIMCLRT
 70
     0
  9
$DIMTFAC
 40
1.0
  9
$DIMGAP
 40
0.09
  9
$LUNITS
 70
     2
  9
$LUPREC
 70
     4
  9
$SKETCHINC
 40
0.1
  9
$FILLETRAD
 40
0.5
  9
$AUNITS
 70
     0
  9
$AUPREC
 70
     0
  9
$MENU
  1
.
  9
$ELEVATION
 40
0.0
  9
$PELEVATION
 40
0.0
  9
$THICKNESS
 40
0.0
  9
$LIMCHECK
 70
     0
  9
$CHAMFERA
 40
0.0
  9
$CHAMFERB
 40
0.0
  9
$SKPOLY
 70
     0
  9
$TDCREATE
 40
2459306.925545996
  9
$TDUPDATE
 40
2459306.925546042
  9
$TDINDWG
 40
0.0000000116
  9
$TDUSRTIMER
 40
0.0000000116
  9
$USRTIMER
 70
     1
  9
$ANGBASE
 50
0.0
  9
$ANGDIR
 70
     0
  9
$PDMODE
 70
     0
  9
$PDSIZE
 40
0.0
  9
$PLINEWID
 40
0.0
  9
$COORDS
 70
     1
  9
$SPLFRAME
 70
     0
  9
$SPLINETYPE
 70
     6
  9
$SPLINESEGS
 70
     8
  9
$ATTDIA
 70
     0
  9
$ATTREQ
 70
     1
  9
$HANDLING
 70
     1
  9
$HANDSEED
  5
100002ED
  9
$SURFTAB1
 70
     6
  9
$SURFTAB2
 70
     6
  9
$SURFTYPE
 70
     6
  9
$SURFU
 70
     6
  9
$SURFV
 70
     6
  9
$UCSNAME
  2

  9
$UCSORG
 10
0.0
 20
0.0
 30
0.0
  9
$UCSXDIR
 10
1.0
 20
0.0
 30
0.0
  9
$UCSYDIR
 10
0.0
 20
1.0
 30
0.0
  9
$PUCSNAME
  2

  9
$PUCSORG
 10
0.0
 20
0.0
 30
0.0
  9
$PUCSXDIR
 10
1.0
 20
0.0
 30
0.0
  9
$PUCSYDIR
 10
0.0
 20
1.0
 30
0.0
  9
$USERI1
 70
     0
  9
$USERI2
 70
     0
  9
$USERI3
 70
     0
  9
$USERI4
 70
     0
  9
$USERI5
 70
     0
  9
$USERR1
 40
0.0
  9
$USERR2
 40
0.0
  9
$USERR3
 40
0.0
  9
$USERR4
 40
0.0
  9
$USERR5
 40
0.0
  9
$WORLDVIEW
 70
     1
  9
$SHADEDGE
 70
     3
  9
$SHADEDIF
 70
    70
  9
$TILEMODE
 70
     1
  9
$MAXACTVP
 70
    64
  9
$PLIMCHECK
 70
     0
  9
$PEXTMIN
 10
1.000000000000000E+20
 20
1.000000000000000E+20
 30
1.000000000000000E+20
  9
$PEXTMAX
 10
-1.000000000000000E+20
 20
-1.000000000000000E+20
 30
-1.000000000000000E+20
  9
$PLIMMIN
 10
0.0
 20
0.0
  9
$PLIMMAX
 10
12.0
 20
9.0
  9
$UNITMODE
 70
     0
  9
$VISRETAIN
 70
     1
  9
$PLINEGEN
 70
     0
  9
$PSLTSCALE
 70
     1
  0
ENDSEC
  0
SECTION
  2
TABLES
  0
TABLE
  2
VPORT
 70
     1
  0
VPORT
  2
*ACTIVE
 70
     0
 10
0.0
 20
0.0
 11
1.0
 21
1.0
 12
10.42990654205607
 22
4.5
 13
0.0
 23
0.0
 14
0.5
 24
0.5
 15
0.5
 25
0.5
 16
0.0
 26
0.0
 36
1.0
 17
0.0
 27
0.0
 37
0.0
 40
9.0
 41
1.972972972850329
 42
50.0
 43
0.0
 44
0.0
 50
0.0
 51
0.0
 71
     0
 72
   100
 73
     1
 74
     3
 75
     0
 76
     0
 77
     0
 78
     0
  0
ENDTAB
  0
TABLE
  2
LTYPE
 70
     7
  0
LTYPE
  2
CONTINUOUS
 70
     0
  3
Solid line
 72
    65
 73
     0
 40
0.0
  0
LTYPE
  2
ONS_PHANTOM
 70
     0
  3
Onshape Phantom line ______ __ __ ______
 72
    65
 73
     6
 40
0.4999999999999999
 49
0.25
 49
-0.05
 49
0.05
 49
-0.05
 49
0.05
 49
-0.05
  0
LTYPE
  2
CENTER
 70
     0
  3
Center line ____ _ ____ _ ____ _
 72
    65
 73
     4
 40
0.7199999999999999
 49
0.45
 49
-0.09
 49
0.09
 49
-0.09
  0
LTYPE
  2
DASHED
 70
     0
  3
Dashed line __ __ __ __ __
 72
    65
 73
     2
 40
0.75
 49
0.5
 49
-0.25
  0
LTYPE
  2
ONS_DASHDOT
 70
     0
  3
Onshape Dashed with Dot _ . ____ . ____
 72
    65
 73
     4
 40
0.71
 49
0.5
 49
-0.1
 49
0.01
 49
-0.1
  0
LTYPE
  2
ONS_DOTTED
 70
     0
  3
Onshape Dotted line . . . . . . .
 72
    65
 73
     2
 40
0.11
 49
0.01
 49
-0.1
  0
LTYPE
  2
HIDDEN
 70
     0
  3
Hidden line ____ ____ ____ ____ 
 72
    65
 73
     2
 40
0.15
 49
0.1
 49
-0.05
  0
ENDTAB
  0
TABLE
  2
LAYER
 70
    39
  0
LAYER
  2
0
 70
     0
 62
     7
  6
CONTINUOUS
  0
LAYER
  2
SECTION_CUTTING_LINE
 70
     0
 62
     7
  6
ONS_PHANTOM
  0
LAYER
  2
DETAIL_VIEW_BORDER
 70
     0
 62
     7
  6
CONTINUOUS
  0
LAYER
  2
DETAIL_VIEW_PARENT_BORDER
 70
     0
 62
     7
  6
ONS_PHANTOM
  0
LAYER
  2
TEXT
 70
     0
 62
     7
  6
CONTINUOUS
  0
LAYER
  2
SKETCHED_GEOMETRY
 70
     0
 62
    -7
  6
CONTINUOUS
  0
LAYER
  2
VIRTUAL_SHARPS
 70
     0
 62
    -7
  6
CONTINUOUS
  0
LAYER
  2
CENTERLINES
 70
     0
 62
    -7
  6
CENTER
  0
LAYER
  2
CENTERMARKS
 70
     0
 62
    -7
  6
CONTINUOUS
  0
LAYER
  2
TABLES
 70
     0
 62
     7
  6
CONTINUOUS
  0
LAYER
  2
IMAGES
 70
     0
 62
    -7
  6
CONTINUOUS
  0
LAYER
  2
ANNOTATION_LINES
 70
     0
 62
    -7
  6
CONTINUOUS
  0
LAYER
  2
ANNOTATION_TEXT
 70
     0
 62
    -7
  6
CONTINUOUS
  0
LAYER
  2
SIDE_THREAD_SYMBOLS
 70
     0
 62
     7
  6
HIDDEN
  0
LAYER
  2
SIDE_THREAD_SYMBOLS_HIDDEN
 70
     0
 62
    -7
  6
HIDDEN
  0
LAYER
  2
SURFACE_THREAD_SYMBOLS
 70
     0
 62
     7
  6
HIDDEN
  0
LAYER
  2
SURFACE_THREAD_SYMBOLS_ON_
 70
     0
 62
     7
  6
HIDDEN
  0
LAYER
  2
SURFACE_THREAD_SYMBOLS_HID
 70
     0
 62
    -7
  6
HIDDEN
  0
LAYER
  2
BLIND_THREAD_SYMBOLS
 70
     0
 62
     7
  6
CONTINUOUS
  0
LAYER
  2
BLIND_THREAD_SYMBOLS_HIDDE
 70
     0
 62
    -7
  6
HIDDEN
  0
LAYER
  2
EXPLODE_LINES
 70
     0
 62
     7
  6
ONS_PHANTOM
  0
LAYER
  2
HIDDEN_EXPLODE_LINES
 70
     0
 62
    -7
  6
ONS_PHANTOM
  0
LAYER
  2
BREAK_LINES
 70
     0
 62
    -7
  6
CONTINUOUS
  0
LAYER
  2
SHEETMETAL_BEND_LINES_UP
 70
     0
 62
     7
  6
CENTER
  0
LAYER
  2
SHEETMETAL_BEND_LINES_DOWN
 70
     0
 62
     7
  6
CENTER
  0
LAYER
  2
SHEETMETAL_BEND_TANGENT_LI
 70
     0
 62
     7
  6
CONTINUOUS
  0
LAYER
  2
SHEETMETAL_CUT_LINES
 70
     0
 62
     7
  6
CONTINUOUS
  0
LAYER
  2
REGION_ASSOC_POINTS
 70
     0
 62
    -7
  6
CONTINUOUS
  0
LAYER
  2
HIDDEN
 70
     0
 62
    -7
  6
HIDDEN
  0
LAYER
  2
VISIBLE
 70
     0
 62
     7
  6
CONTINUOUS
  0
LAYER
  2
MODELSKETCH_VISIBLE
 70
     0
 62
     7
  6
CONTINUOUS
  0
LAYER
  2
MODELSKETCH_POINT
 70
     0
 62
     7
  6
CONTINUOUS
  0
LAYER
  2
MODELSKETCH_CONSTRUCTION
 70
     0
 62
    -7
  6
CENTER
  0
LAYER
  2
HIDDEN_BASE_VIEW
 70
     0
 62
     7
  6
CONTINUOUS
  0
LAYER
  2
TANGENT_LINES
 70
     0
 62
    -7
  6
CONTINUOUS
  0
LAYER
  2
TANGENT_HIDDEN
 70
     0
 62
    -7
  6
HIDDEN
  0
LAYER
  2
INVISIBLE_LINES
 70
     0
 62
    -7
  6
CONTINUOUS
  0
LAYER
  2
VIEW_HATCHES
 70
     0
 62
    -7
  6
CONTINUOUS
  0
LAYER
  2
SECTION_JOG_LINES
 70
     0
 62
    -7
  6
CONTINUOUS
  0
ENDTAB
  0
TABLE
  2
STYLE
 70
     2
  0
STYLE
  2
STANDARD
 70
     0
 40
0.0
 41
1.0
 50
0.0
 71
     0
 42
0.2
  3
txt
  4

  0
STYLE
  2
TTFSTYLE
 70
     0
 40
0.0
 41
1.0
 50
0.0
 71
     0
 42
0.2
  3
Verdana.ttf
  4

  0
ENDTAB
  0
TABLE
  2
VIEW
 70
     0
  0
ENDTAB
  0
TABLE
  2
UCS
 70
     0
  0
ENDTAB
  0
TABLE
  2
APPID
 70
     1
  0
APPID
  2
ACAD
 70
     0
  0
ENDTAB
  0
TABLE
  2
DIMSTYLE
 70
     1
  0
DIMSTYLE
  2
STANDARD
 70
     0
  3

  4

  5

  6

  7

 40
1.0
 41
0.18
 42
0.0625
 43
0.38
 44
0.18
 45
0.0
 46
0.0
 47
0.0
 48
0.0
140
0.18
141
0.09
142
0.0
143
25.4
144
1.0
145
0.0
146
1.0
147
0.09
 71
     0
 72
     0
 73
     1
 74
     1
 75
     0
 76
     0
 77
     0
 78
     0
170
     0
171
     2
172
     0
173
     0
174
     0
175
     0
176
     0
177
     0
178
     0
  0
ENDTAB
  0
ENDSEC
  0
SECTION
  2
BLOCKS
  0
BLOCK
  8
0
  2
$MODEL_SPACE
 70
     0
 10
0.0
 20
0.0
 30
0.0
  3
$MODEL_SPACE
  1

  0
ENDBLK
  5
21
  8
0
  0
BLOCK
 67
     1
  8
0
  2
$PAPER_SPACE
 70
     0
 10
0.0
 20
0.0
 30
0.0
  3
$PAPER_SPACE
  1

  0
ENDBLK
  5
1D
 67
     1
  8
0
  0
ENDSEC
  0
SECTION
  2
ENTITIES
  0
LINE
  5
10000050
  8
VISIBLE
 10
26.17792258813268
 20
-18.8794354480288
 30
0.0
 11
26.11611918926721
 21
-19.06964675129093
 31
0.0
  0
LINE
  5
10000053
  8
VISIBLE
 10
26.11611918926721
 20
-19.06964675129093
 30
0.0
 11
25.92590788598606
 21
-19.00784335241927
 31
0.0
  0
LINE
  5
10000056
  8
VISIBLE
 10
25.92590788598606
 20
-19.00784335241927
 30
0.0
 11
25.98771128486414
 21
-18.81763204915073
 31
0.0
  0
LINE
  5
10000059
  8
VISIBLE
 10
25.98771128486414
 20
-18.81763204915073
 30
0.0
 11
26.17792258813268
 21
-18.8794354480288
 31
0.0
  0
LINE
  5
1000005C
  8
VISIBLE
 10
25.55988859938279
 20
-20.78154848061912
 30
0.0
 11
25.49808520051731
 21
-20.97175978388123
 31
0.0
  0
LINE
  5
1000005F
  8
VISIBLE
 10
25.49808520051731
 20
-20.97175978388123
 30
0.0
 11
25.30787389723617
 21
-20.90995638500958
 31
0.0
  0
LINE
  5
10000062
  8
VISIBLE
 10
25.30787389723617
 20
-20.90995638500958
 30
0.0
 11
25.36967729611116
 21
-20.71974508175055
 31
0.0
  0
LINE
  5
10000065
  8
VISIBLE
 10
25.36967729611116
 20
-20.71974508175055
 30
0.0
 11
25.55988859938279
 21
-20.78154848061912
 31
0.0
  0
LINE
  5
10000068
  8
VISIBLE
 10
27.4620016319731
 20
-21.39958246936901
 30
0.0
 11
27.40019823310762
 21
-21.58979377263113
 31
0.0
  0
LINE
  5
1000006B
  8
VISIBLE
 10
27.40019823310762
 20
-21.58979377263113
 30
0.0
 11
27.2099869298455
 21
-21.52799037376565
 31
0.0
  0
LINE
  5
1000006E
  8
VISIBLE
 10
27.2099869298455
 20
-21.52799037376565
 30
0.0
 11
27.27179032872358
 21
-21.33777907049711
 31
0.0
  0
LINE
  5
10000071
  8
VISIBLE
 10
27.27179032872358
 20
-21.33777907049711
 30
0.0
 11
27.4620016319731
 21
-21.39958246936901
 31
0.0
  0
LINE
  5
10000074
  8
VISIBLE
 10
29.11209996243889
 20
-22.14602436250603
 30
0.0
 11
29.17390336131389
 21
-21.955813059247
 31
0.0
  0
LINE
  5
10000077
  8
VISIBLE
 10
29.17390336131389
 20
-21.955813059247
 30
0.0
 11
29.36411466457292
 21
-22.01761645812199
 31
0.0
  0
LINE
  5
1000007A
  8
VISIBLE
 10
29.36411466457292
 20
-22.01761645812199
 30
0.0
 11
29.30231126569484
 21
-22.20782776139053
 31
0.0
  0
LINE
  5
1000007D
  8
VISIBLE
 10
29.30231126569484
 20
-22.20782776139053
 30
0.0
 11
29.11209996243889
 21
-22.14602436250603
 31
0.0
  0
LINE
  5
10000080
  8
VISIBLE
 10
22.37369652295207
 20
-17.64336747052901
 30
0.0
 11
22.31189312406757
 21
-17.83357877378496
 31
0.0
  0
LINE
  5
10000083
  8
VISIBLE
 10
22.31189312406757
 20
-17.83357877378496
 30
0.0
 11
22.12168182080545
 21
-17.77177537491948
 31
0.0
  0
LINE
  5
10000086
  8
VISIBLE
 10
22.12168182080545
 20
-17.77177537491948
 30
0.0
 11
22.18348521968044
 21
-17.58156407166044
 31
0.0
  0
LINE
  5
10000089
  8
VISIBLE
 10
22.18348521968044
 20
-17.58156407166044
 30
0.0
 11
22.37369652295207
 21
-17.64336747052901
 31
0.0
  0
LINE
  5
1000008C
  8
VISIBLE
 10
23.46756426352085
 20
-20.10171109300065
 30
0.0
 11
23.65777556678297
 21
-20.16351449186612
 31
0.0
  0
LINE
  5
1000008F
  8
VISIBLE
 10
23.65777556678297
 20
-20.16351449186612
 30
0.0
 11
23.59597216790799
 21
-20.35372579512516
 31
0.0
  0
LINE
  5
10000092
  8
VISIBLE
 10
23.59597216790799
 20
-20.35372579512516
 30
0.0
 11
23.40576086464895
 21
-20.29192239625017
 31
0.0
  0
LINE
  5
10000095
  8
VISIBLE
 10
23.40576086464895
 20
-20.29192239625017
 30
0.0
 11
23.46756426352085
 21
-20.10171109300065
 31
0.0
  0
LINE
  5
10000098
  8
VISIBLE
 10
28.080035620723
 20
-19.4974694367787
 30
0.0
 11
28.01823222185752
 21
-19.68768074004082
 31
0.0
  0
LINE
  5
1000009B
  8
VISIBLE
 10
28.01823222185752
 20
-19.68768074004082
 30
0.0
 11
27.82802091859539
 21
-19.62587734117534
 31
0.0
  0
LINE
  5
1000009E
  8
VISIBLE
 10
27.82802091859539
 20
-19.62587734117534
 30
0.0
 11
27.88982431747038
 21
-19.43566603791631
 31
0.0
  0
LINE
  5
100000A1
  8
VISIBLE
 10
27.88982431747038
 20
-19.43566603791631
 30
0.0
 11
28.080035620723
 21
-19.4974694367787
 31
0.0
  0
LINE
  5
100000A4
  8
VISIBLE
 10
21.75566253420218
 20
-19.54548050311933
 30
0.0
 11
21.69385913531768
 21
-19.73569180637527
 31
0.0
  0
LINE
  5
100000A7
  8
VISIBLE
 10
21.69385913531768
 20
-19.73569180637527
 30
0.0
 11
21.50364783205556
 21
-19.67388840750979
 31
0.0
  0
LINE
  5
100000AA
  8
VISIBLE
 10
21.50364783205556
 20
-19.67388840750979
 30
0.0
 11
21.56545123093055
 21
-19.48367710425076
 31
0.0
  0
LINE
  5
100000AD
  8
VISIBLE
 10
21.56545123093055
 20
-19.48367710425076
 30
0.0
 11
21.75566253420218
 21
-19.54548050311933
 31
0.0
  0
LINE
  5
100000B0
  8
VISIBLE
 10
24.27580955554238
 20
-18.26140145927891
 30
0.0
 11
24.21400615665788
 21
-18.45161276253485
 31
0.0
  0
LINE
  5
100000B3
  8
VISIBLE
 10
24.21400615665788
 20
-18.45161276253485
 30
0.0
 11
24.02379485339576
 21
-18.38980936366937
 31
0.0
  0
LINE
  5
100000B6
  8
VISIBLE
 10
24.02379485339576
 20
-18.38980936366937
 30
0.0
 11
24.08559825227075
 21
-18.19959806041034
 31
0.0
  0
LINE
  5
100000B9
  8
VISIBLE
 10
24.08559825227075
 20
-18.19959806041034
 30
0.0
 11
24.27580955554238
 21
-18.26140145927891
 31
0.0
  0
LINE
  5
100000BC
  8
VISIBLE
 10
29.79193735006069
 20
-20.05370002666621
 30
0.0
 11
29.98214865332281
 21
-20.11550342553168
 31
0.0
  0
LINE
  5
100000BF
  8
VISIBLE
 10
29.98214865332281
 20
-20.11550342553168
 30
0.0
 11
29.92034525444782
 21
-20.30571472879072
 31
0.0
  0
LINE
  5
100000C2
  8
VISIBLE
 10
29.92034525444782
 20
-20.30571472879072
 30
0.0
 11
29.73013395118879
 21
-20.24391132991573
 31
0.0
  0
LINE
  5
100000C5
  8
VISIBLE
 10
29.73013395118879
 20
-20.24391132991573
 30
0.0
 11
29.79193735006069
 21
-20.05370002666621
 31
0.0
  0
LINE
  5
100000C8
  8
VISIBLE
 10
48.36082021365302
 20
-11.65270378740031
 30
0.0
 11
48.52262361253388
 21
-11.77026083785071
 31
0.0
  0
LINE
  5
100000CB
  8
VISIBLE
 10
48.52262361253388
 20
-11.77026083785071
 30
0.0
 11
48.40506656207172
 21
-11.93206423674776
 31
0.0
  0
LINE
  5
100000CE
  8
VISIBLE
 10
48.40506656207172
 20
-11.93206423674776
 30
0.0
 11
48.24326316318864
 21
-11.81450718628339
 31
0.0
  0
LINE
  5
100000D1
  8
VISIBLE
 10
48.24326316318864
 20
-11.81450718628339
 30
0.0
 11
48.36082021365302
 21
-11.65270378740031
 31
0.0
  0
LINE
  5
100000D4
  8
VISIBLE
 10
49.97885420240291
 20
-12.82827429198525
 30
0.0
 11
50.14065760128378
 21
-12.94583134243566
 31
0.0
  0
LINE
  5
100000D7
  8
VISIBLE
 10
50.14065760128378
 20
-12.94583134243566
 30
0.0
 11
50.02310055082162
 21
-13.1076347413327
 31
0.0
  0
LINE
  5
100000DA
  8
VISIBLE
 10
50.02310055082162
 20
-13.1076347413327
 30
0.0
 11
49.86129715194664
 21
-12.99007769087421
 31
0.0
  0
LINE
  5
100000DD
  8
VISIBLE
 10
49.86129715194664
 20
-12.99007769087421
 30
0.0
 11
49.97885420240291
 21
-12.82827429198525
 31
0.0
  0
LINE
  5
100000E0
  8
VISIBLE
 10
51.15442470698786
 20
-11.21024030323536
 30
0.0
 11
51.31622810586873
 21
-11.32779735368576
 31
0.0
  0
LINE
  5
100000E3
  8
VISIBLE
 10
51.31622810586873
 20
-11.32779735368576
 30
0.0
 11
51.19867105541832
 21
-11.48960075256663
 31
0.0
  0
LINE
  5
100000E6
  8
VISIBLE
 10
51.19867105541832
 20
-11.48960075256663
 30
0.0
 11
51.03686765653524
 21
-11.37204370210226
 31
0.0
  0
LINE
  5
100000E9
  8
VISIBLE
 10
51.03686765653524
 20
-11.37204370210226
 30
0.0
 11
51.15442470698786
 21
-11.21024030323536
 31
0.0
  0
LINE
  5
100000EC
  8
VISIBLE
 10
52.37424155999518
 20
-9.871566763810856
 30
0.0
 11
52.21243816112019
 21
-9.75400971335236
 31
0.0
  0
LINE
  5
100000EF
  8
VISIBLE
 10
52.21243816112019
 20
-9.75400971335236
 30
0.0
 11
52.32999521157868
 21
-9.59220631447737
 31
0.0
  0
LINE
  5
100000F2
  8
VISIBLE
 10
52.32999521157868
 20
-9.59220631447737
 30
0.0
 11
52.49179861046176
 21
-9.709763364941745
 31
0.0
  0
LINE
  5
100000F5
  8
VISIBLE
 10
52.49179861046176
 20
-9.709763364941745
 30
0.0
 11
52.37424155999518
 21
-9.871566763810856
 31
0.0
  0
LINE
  5
100000F8
  8
VISIBLE
 10
46.00967920448312
 20
-14.8887717649001
 30
0.0
 11
46.17148260335224
 21
-15.00632881536668
 31
0.0
  0
LINE
  5
100000FB
  8
VISIBLE
 10
46.17148260335224
 20
-15.00632881536668
 30
0.0
 11
46.05392555290183
 21
-15.16813221424755
 31
0.0
  0
LINE
  5
100000FE
  8
VISIBLE
 10
46.05392555290183
 20
-15.16813221424755
 30
0.0
 11
45.89212215402684
 21
-15.05057516378905
 31
0.0
  0
LINE
  5
10000101
  8
VISIBLE
 10
45.89212215402684
 20
-15.05057516378905
 30
0.0
 11
46.00967920448312
 21
-14.8887717649001
 31
0.0
  0
LINE
  5
10000104
  8
VISIBLE
 10
48.68572664736168
 20
-14.6081116796241
 30
0.0
 11
48.80328369781209
 21
-14.44630828074324
 31
0.0
  0
LINE
  5
10000107
  8
VISIBLE
 10
48.80328369781209
 20
-14.44630828074324
 30
0.0
 11
48.96508709668708
 21
-14.56386533120173
 31
0.0
  0
LINE
  5
1000010A
  8
VISIBLE
 10
48.96508709668708
 20
-14.56386533120173
 30
0.0
 11
48.84753004622858
 21
-14.72566873007672
 31
0.0
  0
LINE
  5
1000010D
  8
VISIBLE
 10
48.84753004622858
 20
-14.72566873007672
 30
0.0
 11
48.68572664736168
 21
-14.6081116796241
 31
0.0
  0
LINE
  5
10000110
  8
VISIBLE
 10
49.53639071823797
 20
-10.03466979865041
 30
0.0
 11
49.69819411711884
 21
-10.15222684910082
 31
0.0
  0
LINE
  5
10000113
  8
VISIBLE
 10
49.69819411711884
 20
-10.15222684910082
 30
0.0
 11
49.58063706666843
 21
-10.31403024798168
 31
0.0
  0
LINE
  5
10000116
  8
VISIBLE
 10
49.58063706666843
 20
-10.31403024798168
 30
0.0
 11
49.41883366779344
 21
-10.19647319752319
 31
0.0
  0
LINE
  5
10000119
  8
VISIBLE
 10
49.41883366779344
 20
-10.19647319752319
 30
0.0
 11
49.53639071823797
 21
-10.03466979865041
 31
0.0
  0
LINE
  5
1000011C
  8
VISIBLE
 10
47.62771319323302
 20
-16.06434226948504
 30
0.0
 11
47.78951659210213
 21
-16.18189931995162
 31
0.0
  0
LINE
  5
1000011F
  8
VISIBLE
 10
47.78951659210213
 20
-16.18189931995162
 30
0.0
 11
47.67195954165173
 21
-16.3437027188325
 31
0.0
  0
LINE
  5
10000122
  8
VISIBLE
 10
47.67195954165173
 20
-16.3437027188325
 30
0.0
 11
47.51015614277674
 21
-16.226145668374
 31
0.0
  0
LINE
  5
10000125
  8
VISIBLE
 10
47.51015614277674
 20
-16.226145668374
 30
0.0
 11
47.62771319323302
 21
-16.06434226948504
 31
0.0
  0
LINE
  5
10000128
  8
VISIBLE
 10
47.18524970906807
 20
-13.2707377761502
 30
0.0
 11
47.34705310793719
 21
-13.38829482661679
 31
0.0
  0
LINE
  5
1000012B
  8
VISIBLE
 10
47.34705310793719
 20
-13.38829482661679
 30
0.0
 11
47.22949605748678
 21
-13.55009822549765
 31
0.0
  0
LINE
  5
1000012E
  8
VISIBLE
 10
47.22949605748678
 20
-13.55009822549765
 30
0.0
 11
47.06769265861179
 21
-13.43254117503916
 31
0.0
  0
LINE
  5
10000131
  8
VISIBLE
 10
47.06769265861179
 20
-13.43254117503916
 30
0.0
 11
47.18524970906807
 21
-13.2707377761502
 31
0.0
  0
LINE
  5
10000134
  8
VISIBLE
 10
50.59440417237838
 20
-8.578439208773291
 30
0.0
 11
50.71196122282878
 21
-8.416635809892423
 31
0.0
  0
LINE
  5
10000137
  8
VISIBLE
 10
50.71196122282878
 20
-8.416635809892423
 30
0.0
 11
50.87376462170378
 21
-8.53419286035092
 31
0.0
  0
LINE
  5
1000013A
  8
VISIBLE
 10
50.87376462170378
 20
-8.53419286035092
 30
0.0
 11
50.75620757124528
 21
-8.695996259225911
 31
0.0
  0
LINE
  5
1000013D
  8
VISIBLE
 10
50.75620757124528
 20
-8.695996259225911
 30
0.0
 11
50.59440417237838
 21
-8.578439208773291
 31
0.0
  0
LINE
  5
10000140
  8
VISIBLE
 10
48.34268232706124
 20
11.67766844658079
 30
0.0
 11
48.50448572593034
 21
11.79522549704737
 31
0.0
  0
LINE
  5
10000143
  8
VISIBLE
 10
48.50448572593034
 20
11.79522549704737
 30
0.0
 11
48.62204277640869
 21
11.63342209816208
 31
0.0
  0
LINE
  5
10000146
  8
VISIBLE
 10
48.62204277640869
 20
11.63342209816208
 30
0.0
 11
48.46023937752561
 21
11.51586504769771
 31
0.0
  0
LINE
  5
10000149
  8
VISIBLE
 10
48.46023937752561
 20
11.51586504769771
 30
0.0
 11
48.34268232706124
 21
11.67766844658079
 31
0.0
  0
LINE
  5
1000014C
  8
VISIBLE
 10
49.96071631581113
 20
12.85323895116574
 30
0.0
 11
50.12251971468024
 21
12.97079600163232
 31
0.0
  0
LINE
  5
1000014F
  8
VISIBLE
 10
50.12251971468024
 20
12.97079600163232
 30
0.0
 11
50.24007676515858
 21
12.80899260274703
 31
0.0
  0
LINE
  5
10000152
  8
VISIBLE
 10
50.24007676515858
 20
12.80899260274703
 30
0.0
 11
50.0782733662836
 21
12.69143555228853
 31
0.0
  0
LINE
  5
10000155
  8
VISIBLE
 10
50.0782733662836
 20
12.69143555228853
 30
0.0
 11
49.96071631581113
 21
12.85323895116574
 31
0.0
  0
LINE
  5
10000158
  8
VISIBLE
 10
48.78514581122618
 20
14.47127293991563
 30
0.0
 11
48.94694921009529
 21
14.58882999038222
 31
0.0
  0
LINE
  5
1000015B
  8
VISIBLE
 10
48.94694921009529
 20
14.58882999038222
 30
0.0
 11
49.06450626056188
 21
14.4270265915131
 31
0.0
  0
LINE
  5
1000015E
  8
VISIBLE
 10
49.06450626056188
 20
14.4270265915131
 30
0.0
 11
48.9027028616788
 21
14.30946954104873
 31
0.0
  0
LINE
  5
10000161
  8
VISIBLE
 10
48.9027028616788
 20
14.30946954104873
 30
0.0
 11
48.78514581122618
 21
14.47127293991563
 31
0.0
  0
LINE
  5
10000164
  8
VISIBLE
 10
47.88893575596884
 20
16.04506058025712
 30
0.0
 11
47.72713235709385
 21
15.92750352979862
 31
0.0
  0
LINE
  5
10000167
  8
VISIBLE
 10
47.72713235709385
 20
15.92750352979862
 30
0.0
 11
47.60957530663536
 21
16.08930692867362
 31
0.0
  0
LINE
  5
1000016A
  8
VISIBLE
 10
47.60957530663536
 20
16.08930692867362
 30
0.0
 11
47.77137870551844
 21
16.20686397913799
 31
0.0
  0
LINE
  5
1000016D
  8
VISIBLE
 10
47.77137870551844
 20
16.20686397913799
 30
0.0
 11
47.88893575596884
 21
16.04506058025712
 31
0.0
  0
LINE
  5
10000170
  8
VISIBLE
 10
50.69382333623113
 20
8.441600469081001
 30
0.0
 11
50.85562673511199
 21
8.559157519531407
 31
0.0
  0
LINE
  5
10000173
  8
VISIBLE
 10
50.85562673511199
 20
8.559157519531407
 30
0.0
 11
50.97318378557858
 21
8.397354120662294
 31
0.0
  0
LINE
  5
10000176
  8
VISIBLE
 10
50.97318378557858
 20
8.397354120662294
 30
0.0
 11
50.81138038670359
 21
8.279797070203799
 31
0.0
  0
LINE
  5
10000179
  8
VISIBLE
 10
50.81138038670359
 20
8.279797070203799
 30
0.0
 11
50.69382333623113
 21
8.441600469081001
 31
0.0
  0
LINE
  5
1000017C
  8
VISIBLE
 10
51.25384387086854
 20
11.07340156353864
 30
0.0
 11
51.13628682040195
 21
11.23520496240775
 31
0.0
  0
LINE
  5
1000017F
  8
VISIBLE
 10
51.13628682040195
 20
11.23520496240775
 30
0.0
 11
51.29809021927694
 21
11.35276201286625
 31
0.0
  0
LINE
  5
10000182
  8
VISIBLE
 10
51.29809021927694
 20
11.35276201286625
 30
0.0
 11
51.41564726973544
 21
11.19095861399126
 31
0.0
  0
LINE
  5
10000185
  8
VISIBLE
 10
51.41564726973544
 20
11.19095861399126
 30
0.0
 11
51.25384387086854
 21
11.07340156353864
 31
0.0
  0
LINE
  5
10000188
  8
VISIBLE
 10
47.16711182247629
 20
13.29570243533068
 30
0.0
 11
47.3289152213454
 21
13.41325948579727
 31
0.0
  0
LINE
  5
1000018B
  8
VISIBLE
 10
47.3289152213454
 20
13.41325948579727
 30
0.0
 11
47.44647227181198
 21
13.25145608692816
 31
0.0
  0
LINE
  5
1000018E
  8
VISIBLE
 10
47.44647227181198
 20
13.25145608692816
 30
0.0
 11
47.284668872937
 21
13.13389903646966
 31
0.0
  0
LINE
  5
10000191
  8
VISIBLE
 10
47.284668872937
 20
13.13389903646966
 30
0.0
 11
47.16711182247629
 21
13.29570243533068
 31
0.0
  0
LINE
  5
10000194
  8
VISIBLE
 10
52.31185732498102
 20
9.617170973665948
 30
0.0
 11
52.47366072386188
 21
9.734728024116352
 31
0.0
  0
LINE
  5
10000197
  8
VISIBLE
 10
52.47366072386188
 20
9.734728024116352
 30
0.0
 11
52.59121777432847
 21
9.572924625247241
 31
0.0
  0
LINE
  5
1000019A
  8
VISIBLE
 10
52.59121777432847
 20
9.572924625247241
 30
0.0
 11
52.42941437545348
 21
9.455367574788745
 31
0.0
  0
LINE
  5
1000019D
  8
VISIBLE
 10
52.42941437545348
 20
9.455367574788745
 30
0.0
 11
52.31185732498102
 21
9.617170973665948
 31
0.0
  0
LINE
  5
100001A0
  8
VISIBLE
 10
49.51825283164618
 20
10.05963445783089
 30
0.0
 11
49.68005623052705
 21
10.1771915082813
 31
0.0
  0
LINE
  5
100001A3
  8
VISIBLE
 10
49.68005623052705
 20
10.1771915082813
 30
0.0
 11
49.79761328099364
 21
10.01538810941219
 31
0.0
  0
LINE
  5
100001A6
  8
VISIBLE
 10
49.79761328099364
 20
10.01538810941219
 30
0.0
 11
49.63580988211864
 21
9.897831058953692
 31
0.0
  0
LINE
  5
100001A9
  8
VISIBLE
 10
49.63580988211864
 20
9.897831058953692
 30
0.0
 11
49.51825283164618
 21
10.05963445783089
 31
0.0
  0
LINE
  5
100001AC
  8
VISIBLE
 10
46.10909836835205
 20
14.75193302521956
 30
0.0
 11
45.99154131788546
 21
14.91373642408867
 31
0.0
  0
LINE
  5
100001AF
  8
VISIBLE
 10
45.99154131788546
 20
14.91373642408867
 30
0.0
 11
46.15334471676045
 21
15.03129347454716
 31
0.0
  0
LINE
  5
100001B2
  8
VISIBLE
 10
46.15334471676045
 20
15.03129347454716
 30
0.0
 11
46.27090176721894
 21
14.86949007567218
 31
0.0
  0
LINE
  5
100001B5
  8
VISIBLE
 10
46.27090176721894
 20
14.86949007567218
 30
0.0
 11
46.10909836835205
 21
14.75193302521956
 31
0.0
  0
LINE
  5
100001B8
  8
VISIBLE
 10
26.14857487114309
 20
18.86989979673942
 30
0.0
 11
26.08677147225859
 21
19.06011109999536
 31
0.0
  0
LINE
  5
100001BB
  8
VISIBLE
 10
26.08677147225859
 20
19.06011109999536
 30
0.0
 11
26.27698277553355
 21
19.12191449888604
 31
0.0
  0
LINE
  5
100001BE
  8
VISIBLE
 10
26.27698277553355
 20
19.12191449888604
 30
0.0
 11
26.33878617441163
 21
18.93170319561749
 31
0.0
  0
LINE
  5
100001C1
  8
VISIBLE
 10
26.33878617441163
 20
18.93170319561749
 30
0.0
 11
26.14857487114309
 21
18.86989979673942
 31
0.0
  0
LINE
  5
100001C4
  8
VISIBLE
 10
25.5305408823932
 20
20.77201282932973
 30
0.0
 11
25.4687374835087
 21
20.96222413258567
 31
0.0
  0
LINE
  5
100001C7
  8
VISIBLE
 10
25.4687374835087
 20
20.96222413258567
 30
0.0
 11
25.65894878678366
 21
21.02402753147635
 31
0.0
  0
LINE
  5
100001CA
  8
VISIBLE
 10
25.65894878678366
 20
21.02402753147635
 30
0.0
 11
25.72075218565865
 21
20.83381622821732
 31
0.0
  0
LINE
  5
100001CD
  8
VISIBLE
 10
25.72075218565865
 20
20.83381622821732
 30
0.0
 11
25.5305408823932
 21
20.77201282932973
 31
0.0
  0
LINE
  5
100001D0
  8
VISIBLE
 10
23.62842784980289
 20
20.15397884057983
 30
0.0
 11
23.56662445091839
 21
20.34419014383577
 31
0.0
  0
LINE
  5
100001D3
  8
VISIBLE
 10
23.56662445091839
 20
20.34419014383577
 30
0.0
 11
23.75683575417433
 21
20.40599354272027
 31
0.0
  0
LINE
  5
100001D6
  8
VISIBLE
 10
23.75683575417433
 20
20.40599354272027
 30
0.0
 11
23.81863915305241
 21
20.21578223945173
 31
0.0
  0
LINE
  5
100001D9
  8
VISIBLE
 10
23.81863915305241
 20
20.21578223945173
 30
0.0
 11
23.62842784980289
 21
20.15397884057983
 31
0.0
  0
LINE
  5
100001DC
  8
VISIBLE
 10
21.85472272158712
 20
19.78795955396086
 30
0.0
 11
21.91652612046211
 21
19.59774825070183
 31
0.0
  0
LINE
  5
100001DF
  8
VISIBLE
 10
21.91652612046211
 20
19.59774825070183
 30
0.0
 11
21.72631481720308
 21
19.53594485182684
 31
0.0
  0
LINE
  5
100001E2
  8
VISIBLE
 10
21.72631481720308
 20
19.53594485182684
 30
0.0
 11
21.664511418325
 21
19.72615615509539
 31
0.0
  0
LINE
  5
100001E5
  8
VISIBLE
 10
21.664511418325
 20
19.72615615509539
 30
0.0
 11
21.85472272158712
 21
19.78795955396086
 31
0.0
  0
LINE
  5
100001E8
  8
VISIBLE
 10
29.95280093632371
 20
20.10596777423921
 30
0.0
 11
29.89099753745823
 21
20.29617907750132
 31
0.0
  0
LINE
  5
100001EB
  8
VISIBLE
 10
29.89099753745823
 20
20.29617907750132
 30
0.0
 11
30.08120884071417
 21
20.35798247638583
 31
0.0
  0
LINE
  5
100001EE
  8
VISIBLE
 10
30.08120884071417
 20
20.35798247638583
 30
0.0
 11
30.14301223958916
 21
20.16777117312679
 31
0.0
  0
LINE
  5
100001F1
  8
VISIBLE
 10
30.14301223958916
 20
20.16777117312679
 30
0.0
 11
29.95280093632371
 21
20.10596777423921
 31
0.0
  0
LINE
  5
100001F4
  8
VISIBLE
 10
27.62286521824895
 20
21.45185021696721
 30
0.0
 11
27.43265391499302
 21
21.39004681808271
 31
0.0
  0
LINE
  5
100001F7
  8
VISIBLE
 10
27.43265391499302
 20
21.39004681808271
 30
0.0
 11
27.37085051611803
 21
21.58025812134174
 31
0.0
  0
LINE
  5
100001FA
  8
VISIBLE
 10
27.37085051611803
 20
21.58025812134174
 30
0.0
 11
27.56106181937706
 21
21.64206152021673
 31
0.0
  0
LINE
  5
100001FD
  8
VISIBLE
 10
27.56106181937706
 20
21.64206152021673
 30
0.0
 11
27.62286521824895
 21
21.45185021696721
 31
0.0
  0
LINE
  5
10000200
  8
VISIBLE
 10
24.24646183855278
 20
18.25186580798952
 30
0.0
 11
24.18465843966829
 21
18.44207711124546
 31
0.0
  0
LINE
  5
10000203
  8
VISIBLE
 10
24.18465843966829
 20
18.44207711124546
 30
0.0
 11
24.37486974292423
 21
18.50388051012996
 31
0.0
  0
LINE
  5
10000206
  8
VISIBLE
 10
24.37486974292423
 20
18.50388051012996
 30
0.0
 11
24.43667314179921
 21
18.31366920687093
 31
0.0
  0
LINE
  5
10000209
  8
VISIBLE
 10
24.43667314179921
 20
18.31366920687093
 30
0.0
 11
24.24646183855278
 21
18.25186580798952
 31
0.0
  0
LINE
  5
1000020C
  8
VISIBLE
 10
29.33476694757381
 20
22.00808080682951
 30
0.0
 11
29.27296354870833
 21
22.19829211009164
 31
0.0
  0
LINE
  5
1000020F
  8
VISIBLE
 10
29.27296354870833
 20
22.19829211009164
 30
0.0
 11
29.46317485196428
 21
22.26009550897614
 31
0.0
  0
LINE
  5
10000212
  8
VISIBLE
 10
29.46317485196428
 20
22.26009550897614
 30
0.0
 11
29.52497825083926
 21
22.06988420571711
 31
0.0
  0
LINE
  5
10000215
  8
VISIBLE
 10
29.52497825083926
 20
22.06988420571711
 30
0.0
 11
29.33476694757381
 21
22.00808080682951
 31
0.0
  0
LINE
  5
10000218
  8
VISIBLE
 10
28.0506879037334
 20
19.48793378548931
 30
0.0
 11
27.98888450486792
 21
19.67814508875143
 31
0.0
  0
LINE
  5
1000021B
  8
VISIBLE
 10
27.98888450486792
 20
19.67814508875143
 30
0.0
 11
28.17909580812386
 21
19.73994848763594
 31
0.0
  0
LINE
  5
1000021E
  8
VISIBLE
 10
28.17909580812386
 20
19.73994848763594
 30
0.0
 11
28.24089920699885
 21
19.54973718437691
 31
0.0
  0
LINE
  5
10000221
  8
VISIBLE
 10
28.24089920699885
 20
19.54973718437691
 30
0.0
 11
28.0506879037334
 21
19.48793378548931
 31
0.0
  0
LINE
  5
10000224
  8
VISIBLE
 10
22.53456010920891
 20
17.69563521812104
 30
0.0
 11
22.34434880595297
 21
17.63383181923654
 31
0.0
  0
LINE
  5
10000227
  8
VISIBLE
 10
22.34434880595297
 20
17.63383181923654
 30
0.0
 11
22.28254540707798
 21
17.82404312249556
 31
0.0
  0
LINE
  5
1000022A
  8
VISIBLE
 10
22.28254540707798
 20
17.82404312249556
 30
0.0
 11
22.47275671033701
 21
17.88584652137056
 31
0.0
  0
LINE
  5
1000022D
  8
VISIBLE
 10
22.47275671033701
 20
17.88584652137056
 30
0.0
 11
22.53456010920891
 21
17.69563521812104
 31
0.0
  0
LINE
  5
10000230
  8
VISIBLE
 10
12.25000000001
 20
4.184570992118905
 30
0.0
 11
12.45000000001
 21
4.184570992118905
 31
0.0
  0
LINE
  5
10000233
  8
VISIBLE
 10
12.45000000001
 20
4.184570992118905
 30
0.0
 11
12.45000000001
 21
3.984570992118905
 31
0.0
  0
LINE
  5
10000236
  8
VISIBLE
 10
12.45000000001
 20
3.984570992118905
 30
0.0
 11
12.25000000001
 21
3.984570992118905
 31
0.0
  0
LINE
  5
10000239
  8
VISIBLE
 10
12.25000000001
 20
3.984570992118905
 30
0.0
 11
12.25000000001
 21
4.184570992118905
 31
0.0
  0
LINE
  5
1000023C
  8
VISIBLE
 10
10.25000000001
 20
4.184570992118905
 30
0.0
 11
10.45000000001
 21
4.184570992118905
 31
0.0
  0
LINE
  5
1000023F
  8
VISIBLE
 10
10.45000000001
 20
4.184570992118905
 30
0.0
 11
10.45000000001
 21
3.984570992118905
 31
0.0
  0
LINE
  5
10000242
  8
VISIBLE
 10
10.45000000001
 20
3.984570992118905
 30
0.0
 11
10.25000000001
 21
3.984570992118905
 31
0.0
  0
LINE
  5
10000245
  8
VISIBLE
 10
10.25000000001
 20
3.984570992118905
 30
0.0
 11
10.25000000001
 21
4.184570992118905
 31
0.0
  0
LINE
  5
10000248
  8
VISIBLE
 10
10.25000000001
 20
-3.815429007901094
 30
0.0
 11
10.45000000001
 21
-3.815429007901094
 31
0.0
  0
LINE
  5
1000024B
  8
VISIBLE
 10
10.45000000001
 20
-3.815429007901094
 30
0.0
 11
10.45000000001
 21
-4.015429007901095
 31
0.0
  0
LINE
  5
1000024E
  8
VISIBLE
 10
10.45000000001
 20
-4.015429007901095
 30
0.0
 11
10.25000000001
 21
-4.015429007901095
 31
0.0
  0
LINE
  5
10000251
  8
VISIBLE
 10
10.25000000001
 20
-4.015429007901095
 30
0.0
 11
10.25000000001
 21
-3.815429007901094
 31
0.0
  0
LINE
  5
10000254
  8
VISIBLE
 10
10.25000000001
 20
-1.815429007901094
 30
0.0
 11
10.45000000001
 21
-1.815429007901094
 31
0.0
  0
LINE
  5
10000257
  8
VISIBLE
 10
10.45000000001
 20
-1.815429007901094
 30
0.0
 11
10.45000000001
 21
-2.015429007901093
 31
0.0
  0
LINE
  5
1000025A
  8
VISIBLE
 10
10.45000000001
 20
-2.015429007901093
 30
0.0
 11
10.25000000001
 21
-2.015429007901093
 31
0.0
  0
LINE
  5
1000025D
  8
VISIBLE
 10
10.25000000001
 20
-2.015429007901093
 30
0.0
 11
10.25000000001
 21
-1.815429007901094
 31
0.0
  0
LINE
  5
10000260
  8
VISIBLE
 10
10.25000000001
 20
0.1845709921189061
 30
0.0
 11
10.45000000001
 21
0.1845709921189061
 31
0.0
  0
LINE
  5
10000263
  8
VISIBLE
 10
10.45000000001
 20
0.1845709921189061
 30
0.0
 11
10.45000000001
 21
-0.0154290079010939
 31
0.0
  0
LINE
  5
10000266
  8
VISIBLE
 10
10.45000000001
 20
-0.0154290079010939
 30
0.0
 11
10.25000000001
 21
-0.0154290079010939
 31
0.0
  0
LINE
  5
10000269
  8
VISIBLE
 10
10.25000000001
 20
-0.0154290079010939
 30
0.0
 11
10.25000000001
 21
0.1845709921189061
 31
0.0
  0
LINE
  5
1000026C
  8
VISIBLE
 10
10.25000000001
 20
2.184570992118906
 30
0.0
 11
10.45000000001
 21
2.184570992118906
 31
0.0
  0
LINE
  5
1000026F
  8
VISIBLE
 10
10.45000000001
 20
2.184570992118906
 30
0.0
 11
10.45000000001
 21
1.984570992118906
 31
0.0
  0
LINE
  5
10000272
  8
VISIBLE
 10
10.45000000001
 20
1.984570992118906
 30
0.0
 11
10.25000000001
 21
1.984570992118906
 31
0.0
  0
LINE
  5
10000275
  8
VISIBLE
 10
10.25000000001
 20
1.984570992118906
 30
0.0
 11
10.25000000001
 21
2.184570992118906
 31
0.0
  0
LINE
  5
10000278
  8
VISIBLE
 10
12.25000000001
 20
2.184570992118906
 30
0.0
 11
12.45000000001
 21
2.184570992118906
 31
0.0
  0
LINE
  5
1000027B
  8
VISIBLE
 10
12.45000000001
 20
2.184570992118906
 30
0.0
 11
12.45000000001
 21
1.984570992118906
 31
0.0
  0
LINE
  5
1000027E
  8
VISIBLE
 10
12.45000000001
 20
1.984570992118906
 30
0.0
 11
12.25000000001
 21
1.984570992118906
 31
0.0
  0
LINE
  5
10000281
  8
VISIBLE
 10
12.25000000001
 20
1.984570992118906
 30
0.0
 11
12.25000000001
 21
2.184570992118906
 31
0.0
  0
LINE
  5
10000284
  8
VISIBLE
 10
12.25000000001
 20
0.1845709921189061
 30
0.0
 11
12.45000000001
 21
0.1845709921189061
 31
0.0
  0
LINE
  5
10000287
  8
VISIBLE
 10
12.45000000001
 20
0.1845709921189061
 30
0.0
 11
12.45000000001
 21
-0.0154290079010939
 31
0.0
  0
LINE
  5
1000028A
  8
VISIBLE
 10
12.45000000001
 20
-0.0154290079010939
 30
0.0
 11
12.25000000001
 21
-0.0154290079010939
 31
0.0
  0
LINE
  5
1000028D
  8
VISIBLE
 10
12.25000000001
 20
-0.0154290079010939
 30
0.0
 11
12.25000000001
 21
0.1845709921189061
 31
0.0
  0
LINE
  5
10000290
  8
VISIBLE
 10
12.25000000001
 20
-1.815429007901094
 30
0.0
 11
12.45000000001
 21
-1.815429007901094
 31
0.0
  0
LINE
  5
10000293
  8
VISIBLE
 10
12.45000000001
 20
-1.815429007901094
 30
0.0
 11
12.45000000001
 21
-2.015429007901093
 31
0.0
  0
LINE
  5
10000296
  8
VISIBLE
 10
12.45000000001
 20
-2.015429007901093
 30
0.0
 11
12.25000000001
 21
-2.015429007901093
 31
0.0
  0
LINE
  5
10000299
  8
VISIBLE
 10
12.25000000001
 20
-2.015429007901093
 30
0.0
 11
12.25000000001
 21
-1.815429007901094
 31
0.0
  0
LINE
  5
1000029C
  8
VISIBLE
 10
12.25000000001
 20
-3.815429007901094
 30
0.0
 11
12.45000000001
 21
-3.815429007901094
 31
0.0
  0
LINE
  5
1000029F
  8
VISIBLE
 10
12.45000000001
 20
-3.815429007901094
 30
0.0
 11
12.45000000001
 21
-4.015429007901095
 31
0.0
  0
LINE
  5
100002A2
  8
VISIBLE
 10
12.45000000001
 20
-4.015429007901095
 30
0.0
 11
12.25000000001
 21
-4.015429007901095
 31
0.0
  0
LINE
  5
100002A5
  8
VISIBLE
 10
12.25000000001
 20
-4.015429007901095
 30
0.0
 11
12.25000000001
 21
-3.815429007901094
 31
0.0
  0
LINE
  5
100002A8
  8
VISIBLE
 10
55.92658866275289
 20
-8.554886677672062
 30
0.0
 11
53.90747172949717
 21
-7.087912356646021
 31
0.0
  0
ARC
  5
100002AB
  8
VISIBLE
 10
59.05714149137521
 20
-0.0000000000000184
 30
0.0
 40
8.761141491375206
 50
126.0
 51
233.9999999999999
  0
LINE
  5
100002AE
  8
VISIBLE
 10
55.92658866275283
 20
8.554886677672052
 30
0.0
 11
53.90747172949717
 21
7.087912356646012
 31
0.0
  0
ARC
  5
100002B1
  8
VISIBLE
 10
32.29600000000005
 20
0.0000000000000347
 30
0.0
 40
25.13147044277416
 50
19.90157133689088
 51
52.09842866310913
  0
LINE
  5
100002B4
  8
VISIBLE
 10
47.73443420484123
 20
19.83041996324902
 30
0.0
 11
45.7153172715855
 21
18.36344564222297
 31
0.0
  0
ARC
  5
100002B7
  8
VISIBLE
 10
40.56564750970747
 20
25.45135799886899
 30
0.0
 40
8.761141491375197
 50
198.0
 51
306.0
  0
LINE
  5
100002BA
  8
VISIBLE
 10
31.46207276290799
 20
25.11763069995396
 30
0.0
 11
32.23330680415125
 21
22.74401638791058
 31
0.0
  0
ARC
  5
100002BD
  8
VISIBLE
 10
32.296
 20
0.0000000000000121
 30
0.0
 40
25.13147044277419
 50
91.90157133689088
 51
124.0984286631091
  0
LINE
  5
100002C0
  8
VISIBLE
 10
18.20688840891794
 20
20.81076022614439
 30
0.0
 11
18.97812245016118
 21
18.43714591410096
 31
0.0
  0
ARC
  5
100002C3
  8
VISIBLE
 10
10.64578174460495
 20
15.72980430314255
 30
0.0
 40
8.7611414913752
 50
270.0
 51
17.99999999999995
  0
LINE
  5
100002C6
  8
VISIBLE
 10
8.150015960580015
 20
6.968662811767314
 30
0.0
 11
10.64578174460495
 21
6.968662811767344
 31
0.0
  0
ARC
  5
100002C9
  8
VISIBLE
 10
32.29600000000001
 20
0.0000000000000013
 30
0.0
 40
25.13147044277421
 50
163.9015713368909
 51
196.0984286631091
  0
LINE
  5
100002CC
  8
VISIBLE
 10
8.150015960579966
 20
-6.968662811767334
 30
0.0
 11
10.64578174460494
 21
-6.968662811767331
 31
0.0
  0
ARC
  5
100002CF
  8
VISIBLE
 10
10.64578174460492
 20
-15.72980430314253
 30
0.0
 40
8.76114149137521
 50
342.0000000000001
 51
89.9999999999999
  0
LINE
  5
100002D2
  8
VISIBLE
 10
18.20688840891795
 20
-20.81076022614433
 30
0.0
 11
18.97812245016117
 21
-18.43714591410094
 31
0.0
  0
ARC
  5
100002D5
  8
VISIBLE
 10
32.29600000000001
 20
0.0000000000000052
 30
0.0
 40
25.13147044277421
 50
235.9015713368908
 51
268.0984286631089
  0
LINE
  5
100002D8
  8
VISIBLE
 10
31.46207276290791
 20
-25.11763069995396
 30
0.0
 11
32.23330680415123
 21
-22.74401638791057
 31
0.0
  0
ARC
  5
100002DB
  8
VISIBLE
 10
40.56564750970745
 20
-25.45135799886898
 30
0.0
 40
8.761141491375191
 50
53.99999999999995
 51
162.0
  0
LINE
  5
100002DE
  8
VISIBLE
 10
47.73443420484117
 20
-19.830419963249
 30
0.0
 11
45.71531727158548
 21
-18.36344564222298
 31
0.0
  0
ARC
  5
100002E1
  8
VISIBLE
 10
32.29600000000001
 20
-0.0000000000000043
 30
0.0
 40
25.1314704427742
 50
307.9015713368908
 51
340.0984286631091
  0
ENDSEC
  0
EOF
