M48
;Layer_Color=6321
;FILE_FORMAT=2:5
INCH,LZ
;TYPE=PLATED
T1F00S00C0.01000
T2F00S00C0.02800
T3F00S00C0.03000
T4F00S00C0.04000
T5F00S00C0.04016
%
T01
X0274803Y0301969
X0278346
X0282283
X0285827
X028937
X0292913
X0275197Y030748
X0274213Y0343898
X0309055Y0351417
X0309449Y0354331
T02
X0314567Y026811
X0320866Y0262598
X0345276Y0306693
X0352362Y0300787
X0280433Y0265748
X0278071Y0259055
X0255512Y0283465
X0247638Y0280709
X0245669Y0326772
X0238189Y0328346
X0266929Y0357874
X0264173Y0364961
X0308268Y0364173
X0309842Y0372441
X0338189Y0343307
X0343693Y0347646
X0330315Y0327165
T03
X0238976Y0299606
X0248425Y0296457
T04
X0334653Y0264575
X0341724Y0271646
X03Y0250787
X029
X0257866Y0260638
X0250795Y0267709
X0230709Y0307205
Y0317205
X025748Y032059
Y0330591
X0242921Y0354732
X0249992Y0361803
X0288701Y037874
X0298701
X0336622Y0364559
X0343693Y0357488
X0359842Y0324685
Y0314685
T05
X0320866Y0301969
X0330866
X0310866
M30
